<?xml version="1.0" encoding="UTF-8"?>
<svg width="16px" height="16px" viewBox="0 0 16 16" version="1.1" xmlns="http://www.w3.org/2000/svg" xmlns:xlink="http://www.w3.org/1999/xlink">
    <title>加载-小</title>
    <g id="组件" stroke="none" stroke-width="1" fill="none" fill-rule="evenodd">
        <g transform="translate(-2131.000000, -801.000000)" id="数据1备份-5">
            <g transform="translate(2115.000000, 787.000000)">
                <g id="加载-小" transform="translate(16.000000, 14.000000)">
                    <polygon id="路径" points="0 0 16 0 16 16 0 16"></polygon>
                    <path d="M3.11971465,2.98163711 C5.4836038,0.682096704 9.13894555,0.342651964 11.8883935,2.1797355 C14.6649716,4.03494644 15.7443754,7.59315002 14.4664854,10.6782937 C13.1885954,13.7634374 9.90932133,15.516267 6.6341337,14.8648233 C3.35894607,14.2133795 1,11.3390983 1,7.99977304 L1,7.99977304 C1.01480999,7.90919765 1.03765942,7.81945494 1.07257116,7.73155427 C1.2105372,7.38418383 1.68608665,7.19659781 2.09397972,7.33762376 C2.38397362,7.43788697 2.55159108,7.73055629 2.55715982,8.03526697 C2.57271376,10.6177337 4.40233066,12.834798 6.93789389,13.3389734 C9.48528253,13.8455001 12.035741,12.4820499 13.0295217,10.0824487 C14.0233025,7.6828474 13.1836263,4.91541124 11.0240019,3.47258168 C8.86437762,2.02975211 5.98628508,2.31337357 4.14983835,4.14999572 L4.14983835,4.14999572 C4.01797551,4.25944118 3.84729634,4.30948592 3.6295396,4.33037186 C3.19517524,4.37203351 2.8295396,4.04004514 2.8295396,3.59821734 C2.8295396,3.36031007 2.93338835,3.14665796 3.09822776,3.00011911 Z" id="形状结合" fill="#0569FF" fill-rule="nonzero"></path>
                </g>
            </g>
        </g>
    </g>
</svg>