<?xml version="1.0" encoding="UTF-8"?>
<svg width="24px" height="24px" viewBox="0 0 24 24" version="1.1" xmlns="http://www.w3.org/2000/svg" xmlns:xlink="http://www.w3.org/1999/xlink">
    <title>商店</title>
    <g id="2.0" stroke="none" stroke-width="1" fill="none" fill-rule="evenodd">
        <g id="通用基础-删格" transform="translate(-392.000000, -352.000000)">
            <g id="商店" transform="translate(392.000000, 352.000000)">
                <polygon id="路径" points="0 0 24 0 24 24 0 24"></polygon>
                <path d="M20.9999993,13.242 L20.9999993,20 C21.5522841,20 21.9999993,20.4477153 21.9999993,21 C21.9999993,21.5522847 21.5522841,22 20.9999993,22 L2.99999931,22 C2.44771456,22 1.99999931,21.5522847 1.99999931,21 C1.99999931,20.4477153 2.44771456,20 2.99999931,20 L2.99999931,20 L2.99999931,20 L2.99999931,13.242 C1.74968106,12.4074555 0.999170518,11.0032502 0.999999313,9.5 C0.999999313,8.673 1.224,7.876 1.633,7.197 L4.345,2.5 C4.52362826,2.19060678 4.85374349,2 5.211,2 L18.79,2 C19.1472565,2 19.4773717,2.19060678 19.656,2.5 L22.358,7.182 C23.5972595,9.24036715 22.9991632,11.9093388 20.9999993,13.242 Z M15.25,12.612 C14.401708,13.4992535 13.2275252,14.0010812 12,14.001 C10.7727717,14.0016033 9.5986327,13.5005169 8.75,12.614 C7.78033831,13.6270257 6.39353516,14.1296031 5,13.973 L5,19.5 C5,19.7761424 5.22385763,20 5.5,20 L18.5,20 C18.7761424,20 19,19.7761424 19,19.5 L19,13.973 L19,13.973 C17.6063017,14.1283485 16.2194725,13.6253918 15.25,12.612 Z M3.356,8.213 C2.86562775,9.42459275 3.39132795,10.8094234 4.56218078,11.3903929 C5.73303361,11.9713624 7.15378881,11.5523502 7.822,10.429 C8.157,9.592 9.342,9.592 9.678,10.429 C10.0571255,11.3792145 10.9769439,12.0025465 12,12.0025465 C13.0230561,12.0025465 13.9428745,11.3792145 14.322,10.429 C14.657,9.592 15.842,9.592 16.178,10.429 C16.531797,11.2998882 17.3442114,11.8987074 18.2807912,11.9789378 C19.217371,12.0591682 20.119795,11.6072475 20.6165566,10.8092209 C21.1133182,10.0111942 21.1204438,9.00196146 20.635,8.197 L18.21,4 L5.79,4 L3.356,8.213 Z" id="形状" fill="#5D6E7F" fill-rule="nonzero"></path>
            </g>
        </g>
    </g>
</svg>