<svg id="图层_1" data-name="图层 1" xmlns="http://www.w3.org/2000/svg" viewBox="0 0 300 300"><defs><style>.cls-1,.cls-9{fill:#fff;}.cls-1,.cls-3,.cls-5,.cls-8{fill-rule:evenodd;}.cls-2{fill:#728da3;}.cls-3{fill:#0569ff;}.cls-4{fill:#034fd2;}.cls-5{fill:#e4e3e3;}.cls-6{fill:#e7bab9;}.cls-7{fill:#db9696;}.cls-10,.cls-8{fill:#23304a;}.cls-11{fill:#da4a4a;}.cls-12{fill:#f48686;}</style></defs><path class="cls-1" d="M127.69,232.85s-5.84,16.33,9.29,26.22c0,0-8.85,6.38-7.91,12.37,4.29,3.09,12.66.47,16.6,0,3.06-.36,10.14.23,11.07-5.77.67-4.35-4.14-12.26-6.83-16.27a3.29,3.29,0,0,1,.91-4.56c4.12-2.75,12.11-6.11,17.19,4.51,0,0,9.69,15.73,12.73,21,0,0-5.37,8.27.79,10.72s22.14.83,22.14.83,3-3.17.79-6.6a9.64,9.64,0,0,0-5.54-4.12s-2.49-2.15-3.24-37.53l-6.32-8.25-60.88,2.48-.79,4.94Z"/><path class="cls-2" d="M192.88,282.84c-4.26,0-8.77-.31-11.49-1.39a4.7,4.7,0,0,1-2.95-3c-1-3.12,1.29-7.16,1.86-8.11-3.12-5.42-12.51-20.67-12.61-20.83-1.81-3.77-4.12-6-6.88-6.8-3.61-1-7.31.77-9.78,2.42a2.89,2.89,0,0,0-.81,4c2.87,4.27,7.58,12.1,6.89,16.54-.84,5.42-6.47,5.76-9.84,6-.58,0-1.11.06-1.55.12-.82.09-1.82.28-3,.5-4.38.83-10.38,2-13.9-.57l-.12-.09,0-.16c-.85-5.44,5.82-11,7.63-12.41-14.31-9.74-9.29-25.47-9-26.33l.83-5.22h.31l61.07-2.48,6.51,8.5v.12c.66,31.66,2.73,36.59,3.09,37.2a10.1,10.1,0,0,1,5.62,4.26c2.37,3.63-.8,7-.83,7.06l-.1.1h-.13C203.34,282.34,198.31,282.84,192.88,282.84ZM158.63,241.7A8.89,8.89,0,0,1,161,242c3,.82,5.45,3.23,7.34,7.18.08.12,9.71,15.75,12.72,21l.11.2-.12.2s-2.9,4.52-1.9,7.67a4,4,0,0,0,2.51,2.49c5.7,2.27,20.21,1,21.82.82.47-.55,2.51-3.19.65-6a9.32,9.32,0,0,0-5.29-4l-.17-.08c-.27-.23-2.64-3.24-3.37-37.68l-6.13-8-60.38,2.45-.75,4.71c-.06.16-5.56,16.17,9.13,25.78l.46.3-.44.32c-.09.06-8.5,6.19-7.78,11.85,3.28,2.22,9,1.14,13.19.35,1.17-.22,2.18-.41,3-.51.45-.05,1-.08,1.6-.12,3.34-.21,8.4-.51,9.14-5.34.67-4.34-4.51-12.64-6.77-16a3.6,3.6,0,0,1-.55-2.73,3.65,3.65,0,0,1,1.56-2.34A15.1,15.1,0,0,1,158.63,241.7Z"/><path class="cls-1" d="M199.54,200s2.52,10.84,1.26,15.1c0,0-4.55,6.15-7.62,6.45s-5.64,10.58,6.12,13.76c10.83,2.93,18.35-9.5,20.72-25.41a17.15,17.15,0,0,0-.55-7.6l-5-16.19-12.69,6.75L199.54,200Z"/><path class="cls-2" d="M202.43,235.94a11.9,11.9,0,0,1-3.19-.44c-7-1.89-9.17-6.39-8.87-10,.19-2.3,1.39-4.14,2.78-4.28,2.81-.27,7-5.82,7.42-6.32,1.2-4.17-1.25-14.81-1.27-14.92l0-.07,2.26-7.31,13.05-6.93,5.12,16.47a17.61,17.61,0,0,1,.56,7.72c-1.74,11.65-6,20.44-11.62,24.13A11.18,11.18,0,0,1,202.43,235.94Zm-2.63-36c.23,1,2.47,11,1.24,15.16l0,.07c-.19.26-4.65,6.25-7.8,6.56-1.14.11-2.16,1.79-2.33,3.82-.43,5.16,4.11,8.26,8.5,9.45a10.72,10.72,0,0,0,9-1.42c5.52-3.61,9.68-12.28,11.4-23.78a17.22,17.22,0,0,0-.55-7.5l-4.94-15.9L202,193Z"/><path class="cls-1" d="M111.77,176.82c-4.07-1-20-16.16-23.92-18.31,0,0-7-5.34-6.66-8.42s-12-9.19-17.61,1.65c-1.67,3.21-3.06,9.77,7,13.25,10.09,10.79,29,31.32,41,35.15l7-.49L116,181.78l-6.94-2.6Z"/><path class="cls-2" d="M111.53,200.39h0C99.84,196.66,82,177.61,71.39,166.23l-1-1c-4.09-1.43-6.7-3.5-7.76-6.16a9.07,9.07,0,0,1,.68-7.43c4.09-7.85,11.08-6.39,13.13-5.75,3,.91,5.13,2.78,5,4.25-.35,2.9,6.49,8.13,6.56,8.19,1.55.86,5,3.79,9,7.18,5.82,4.92,12.43,10.51,14.8,11.09l.47.11-2.77,2.41,6.68,2.5,2.6,18.28ZM73,145.83c-2.84,0-6.59,1.1-9.16,6a8.56,8.56,0,0,0-.65,7c1,2.54,3.53,4.52,7.51,5.9l.1.06,1,1.07c9.9,10.58,28.31,30.28,39.83,34l6.64-.46L115.76,182l-7.19-2.7,2.7-2.35c-2.76-1.07-9-6.36-14.57-11-3.82-3.23-7.43-6.29-9-7.15-.32-.24-7.17-5.48-6.79-8.66.13-1.07-1.68-2.82-4.6-3.72A11.58,11.58,0,0,0,73,145.83Z"/><path class="cls-3" d="M140.09,178.73s-5.06.48-21-2.65c-4.09-.29-12.93-8.79-16.2-7.92-1.64.43-16.27,16.42-6.41,33.91,1.25,2.21,28.31,7.54,29.42,7.19,0,0-1.62,18.41.79,22.24s10.47,4.63,16.58,4.94,53,.41,53.7-3.29c1.38-7-3.37-27-3.95-28.83a53.61,53.61,0,0,0,6.56,2.67,8.48,8.48,0,0,0,5.21,0c1.15-.41,7.82-13.42,10.48-17.88a4.15,4.15,0,0,0-1.58-4.94c-4.37-2.31-12.2-6.25-18.87-6.09s-19.59-1-19.59-1l-35.36,1.46Z"/><path class="cls-4" d="M128.27,210.08l-2.37-.82,7.9-13.18-5.53,14Zm64-5.76c-1-.76-5.53-8.24-5.53-8.24,1,1.39,7.11,7.41,7.11,7.41l-1.58.83Z"/><path class="cls-1" d="M148,206.36v.14c-15,3.92-7.55,17.83,3.92,16l1.28,4.18c-9.67-.07-17.24-5.89-17.68-11.51s4.56-9.94,11.16-10.07c-3.79-16.83,31.67-16.83,27.44,0,6.6.13,11.58,4.45,11.15,10.07s-8,11.44-17.67,11.51l1.27-4.18c9.66,1.36,21.48-14,3.93-16v-.14C172.7,193.06,148,193.07,148,206.36Z"/><path class="cls-1" d="M156.75,227.75c-1.07-11,11.09-4.49,12.91-13.88.76-3.89,0-8.05-3.63-10.24-5.35-2.76-14.31-.37-13.58,7.48S164,216,163,211.25c-1.55,2.08-4.68,2.85-6.15,1.75-3.33-2.52.54-8,5.68-6.73,3.38.85,3.15,2.91,3.4,5.36.5,4.91-4.21,5.24-8.57,7.27C152.05,221.38,156.75,227.75,156.75,227.75Z"/><path class="cls-1" d="M162.26,222.58a2.74,2.74,0,1,1-2.73,2.74A2.74,2.74,0,0,1,162.26,222.58Z"/><path class="cls-1" d="M242.21,154.53,252,79.09c9.77,10.76,15.13,28.59,11.17,47.42-3.37,16-11.05,24.51-21,28Z"/><path class="cls-2" d="M241.91,154.9l9.91-76.38.37.41c10.64,11.72,14.94,30,11.22,47.63-3.13,14.86-10.23,24.35-21.11,28.2Zm10.27-75.23-9.66,74.48c10.49-3.88,17.35-13.19,20.4-27.7C266.57,109.15,262.45,91.28,252.18,79.67Z"/><path class="cls-5" d="M244.5,144.24,251,76.81c8.7,9.89,13.42,26,9.85,43-2.75,13-8.65,20.67-16.33,24.45Z"/><path class="cls-1" d="M89.23,123.84,118,47.19C95.54,8.87,50.3,24.67,38,67.67c-12.42,45,25.32,68.12,51.24,56.17Z"/><path class="cls-2" d="M74.71,127.23a38.7,38.7,0,0,1-24.94-9.32c-6.31-5.36-20.11-21-12-50.3C44.39,44.41,61,27.88,79.94,25.49c15.16-1.91,29.09,6,38.23,21.58l.06.1,0,.11L89.43,124l-.09,0A34.88,34.88,0,0,1,74.71,127.23ZM84.38,25.71A36,36,0,0,0,80,26c-18.8,2.37-35.19,18.76-41.78,41.76-8,29,5.63,44.5,11.87,49.79C61.23,127,76.5,129.38,89,123.65l28.65-76.43C109.54,33.36,97.58,25.71,84.38,25.71Z"/><path class="cls-5" d="M96.59,124.89,118,53.52C108.85,32.43,66.37,22,52,82.09c0,.11-.59,7.22-.63,7.8-1.85,24.26,17.16,34.3,45.19,35Z"/><path class="cls-1" d="M180,19.64c51.89,11,85.71,59.07,75.78,106.24s-57.95,66.56-109.84,55.56S58,133.22,67.88,86.05,128.11,8.64,180,19.64Z"/><path class="cls-2" d="M173.56,184.66a133.89,133.89,0,0,1-27.67-3c-25.95-5.5-48.09-17.66-62.35-34.22C68.37,129.86,62.87,108.6,67.63,86c4.55-21.62,17.77-40.51,37.23-53.17,21.61-14.08,49-19,75.19-13.42,25.1,5.32,46.84,19.4,61.23,39.65S260.86,103,256,125.94c-4,18.95-14.45,34.41-30.24,44.7C211.6,179.87,193.38,184.66,173.56,184.66Zm-14.85-167a98.39,98.39,0,0,0-53.58,15.57c-19.34,12.6-32.49,31.37-37,52.87-4.72,22.45.74,43.56,15.8,61.05,14.18,16.48,36.23,28.57,62.08,34,30,6.37,59,2.36,79.51-11,15.68-10.21,26.07-25.56,30-44.39,4.8-22.8-.41-46.41-14.67-66.49s-36-34.16-60.92-39.45A101.91,101.91,0,0,0,158.71,17.66Z"/><path class="cls-6" d="M133.9,114.81c-.35,1.66-5.83,1.94-12.74.77-.85-.14-1.72-.31-2.61-.5h-.06c-1.4-.3-2.75-.63-4-1-.85-.24-1.67-.49-2.44-.75-4.65-1.56-7.68-3.4-7.4-4.72.34-1.63,5.71-1.92,12.51-.8.87.14,1.76.31,2.68.5l.15,0c1.35.28,2.65.6,3.88,1,.86.23,1.68.48,2.45.74C131.06,111.61,134.18,113.48,133.9,114.81Z"/><path class="cls-6" d="M215,132c-.35,1.66-5.85,1.94-12.77.76-.84-.14-1.7-.3-2.58-.49h-.08c-1.41-.3-2.75-.64-4-1-.86-.24-1.67-.49-2.44-.76-4.64-1.56-7.66-3.39-7.38-4.7.34-1.64,5.7-1.93,12.49-.81.87.14,1.76.31,2.67.5l.18,0c1.35.28,2.64.6,3.86.94.86.24,1.67.48,2.45.74C212.13,128.8,215.26,130.67,215,132Z"/><path class="cls-7" d="M119.82,108.3l-5.35,5.77c-.85-.24-1.67-.49-2.44-.75l5.11-5.52C118,107.94,118.9,108.11,119.82,108.3Z"/><path class="cls-7" d="M126.3,110l-5.14,5.55c-.85-.14-1.72-.31-2.61-.5h-.06l5.36-5.78C124.71,109.52,125.53,109.77,126.3,110Z"/><path class="cls-7" d="M200.87,125.49l-5.34,5.77c-.86-.24-1.67-.49-2.44-.76L198.2,125Z"/><path class="cls-7" d="M207.36,127.21l-5.15,5.55c-.84-.14-1.7-.3-2.58-.49h-.08l5.36-5.79C205.77,126.71,206.58,127,207.36,127.21Z"/><path class="cls-8" d="M179.83,27.16c45.68,9.68,79.19,62.19,64,101.86-6.77,17.73-34.89-13.54-80.58-23.22s-93.77,35-84-11.66,54.82-76.67,100.51-67Z"/><path class="cls-9" d="M230.94,73.51l-.66.64a1.76,1.76,0,0,1-2.8-.24C220.7,63.2,213,54,202.92,48.1a1.55,1.55,0,0,1-.08-2.57l.66-.64a3.39,3.39,0,0,1,3.71-.47C219,51.2,225.7,60.52,231.6,70.24a2.89,2.89,0,0,1-.66,3.27Zm1.64,9.15a3.23,3.23,0,1,1,3.5-2.93,3.24,3.24,0,0,1-3.5,2.93Z"/><ellipse class="cls-9" cx="127.61" cy="70.83" rx="17.97" ry="18.21" transform="translate(-16.87 91.51) rotate(-37.18)"/><path class="cls-10" d="M111.06,68.08A16.06,16.06,0,0,0,124.28,86.3h.09a46,46,0,0,0,4.57-14.59,44.83,44.83,0,0,0-.3-16.73A15.55,15.55,0,0,0,111.06,68.08Z"/><ellipse class="cls-9" cx="120.89" cy="68.44" rx="4.81" ry="5.08"/><ellipse class="cls-9" cx="202.31" cy="82.58" rx="17.96" ry="18.22" transform="translate(-15.59 98.95) rotate(-26.5)"/><path class="cls-10" d="M186.69,76.43A16.09,16.09,0,0,0,195.83,97l.09,0a46.09,46.09,0,0,0,7.5-13.32A44.59,44.59,0,0,0,206.6,67.3,15.53,15.53,0,0,0,186.69,76.43Z"/><ellipse class="cls-9" cx="196.24" cy="78.84" rx="5.08" ry="4.81" transform="translate(80.68 255.95) rotate(-78.77)"/><path class="cls-11" d="M146.12,134.07l-11.84,25.47s-3.27,7.68,4.84,11.24l33.43,5.28s5.85-.44,7-7.56l-3.33-28.77a7.42,7.42,0,0,0-4.86-8.51L152,128.17S148.16,128.93,146.12,134.07Z"/><path class="cls-12" d="M139.66,170S141,156,158.34,158.78s15.84,14.8,15.84,14.8l-.35,2.23-34.3-5Z"/><path class="cls-9" d="M144.27,138a44.76,44.76,0,0,1,3-6.1l28.66,3.72a8.63,8.63,0,0,1,.3,4.1l.35,3Z"/><path class="cls-9" d="M134,165.54l44.06,7a7.85,7.85,0,0,1-1.6,1.83l-41.33-6.57A8,8,0,0,1,134,165.54Z"/></svg>