<?xml version="1.0" encoding="UTF-8"?>
<svg width="24px" height="24px" viewBox="0 0 24 24" version="1.1" xmlns="http://www.w3.org/2000/svg" xmlns:xlink="http://www.w3.org/1999/xlink">
    <title>分类排序1</title>
    <g id="2.0" stroke="none" stroke-width="1" fill="none" fill-rule="evenodd">
        <g id="通用基础-删格" transform="translate(-252.000000, -264.000000)">
            <g id="分类排序1" transform="translate(252.000000, 264.000000)">
                <polygon id="路径" points="0 0 24 0 24 24 0 24"></polygon>
                <path d="M19.7808688,4.97608601 L22.2201464,8.02518297 C22.4271521,8.28394013 22.3851993,8.66151556 22.1264421,8.86852129 C22.0200543,8.95363155 21.887868,9 21.7516251,9 L20,9 L20,9 L20,19 C20,19.5522847 19.5522847,20 19,20 C18.4477153,20 18,19.5522847 18,19 L18,9 L18,9 L16.2483749,9 C15.9170041,9 15.6483749,8.73137085 15.6483749,8.4 C15.6483749,8.2637571 15.6947434,8.1315708 15.7798536,8.02518297 L18.2191312,4.97608601 C18.5641407,4.54482408 19.1934331,4.4749027 19.624695,4.81991225 C19.6823598,4.86604401 19.734737,4.91842131 19.7808688,4.97608601 Z M14,19 C14,19.5522847 13.5522847,20 13,20 L4,20 C3.44771525,20 3,19.5522847 3,19 C3,18.4477153 3.44771525,18 4,18 L13,18 C13.5522847,18 14,18.4477153 14,19 Z M14,12 C14,12.5522847 13.5522847,13 13,13 L4,13 C3.44771525,13 3,12.5522847 3,12 C3,11.4477153 3.44771525,11 4,11 L13,11 C13.5522847,11 14,11.4477153 14,12 Z M12,5 C12,5.55228475 11.5522847,6 11,6 L4,6 C3.44771525,6 3,5.55228475 3,5 C3,4.44771525 3.44771525,4 4,4 L11,4 C11.5522847,4 12,4.44771525 12,5 Z" id="形状" fill="#5D6E7F" fill-rule="nonzero"></path>
            </g>
        </g>
    </g>
</svg>