<?xml version="1.0" encoding="UTF-8"?>
<svg width="24px" height="24px" viewBox="0 0 24 24" version="1.1" xmlns="http://www.w3.org/2000/svg" xmlns:xlink="http://www.w3.org/1999/xlink">
    <title>图谱</title>
    <g id="2.0" stroke="none" stroke-width="1" fill="none" fill-rule="evenodd">
        <g id="知识库删格" transform="translate(-129.000000, -253.000000)">
            <g id="图谱" transform="translate(129.000000, 253.000000)">
                <rect id="矩形" x="0" y="0" width="24" height="24"></rect>
                <g id="编组-2" transform="translate(3.000000, 3.000000)" fill="#5D6E7F" fill-rule="nonzero">
                    <path d="M14.5,0 C16.4329966,0 18,1.56700338 18,3.5 C18,5.43299662 16.4329966,7 14.5,7 C13.8723878,7 13.2833584,6.83480744 12.7740199,6.54553042 L12.4105398,6.90888818 C12.7844019,7.51734706 13,8.23349571 13,9 C13,9.69188666 12.8243348,10.3427445 12.5151716,10.9104064 L13.837197,12.2336739 C14.1947937,12.0831796 14.587683,12 15,12 C16.6568542,12 18,13.3431458 18,15 C18,16.6568542 16.6568542,18 15,18 C13.3431458,18 12,16.6568542 12,15 C12,14.4871642 12.1286801,14.0043832 12.3555133,13.5821839 L11.1485765,12.374557 C10.5279481,12.7705344 9.79077135,13 9,13 C8.53768228,13 8.09368348,12.9215674 7.68058392,12.7772824 L6.59446401,13.8631762 C6.85336108,14.3516143 7,14.9086825 7,15.5 C7,17.4329966 5.43299662,19 3.5,19 C1.56700338,19 0,17.4329966 0,15.5 C0,13.5670034 1.56700338,12 3.5,12 C4.11415462,12 4.69136334,12.1581842 5.19310612,12.4360327 L5.99186296,11.6365767 C5.37434654,10.9326022 5,10.0100178 5,9 C5,8.2184334 5.22415466,7.48922093 5.61168304,6.87314353 L4.39588993,5.65614987 C3.97893412,5.87572577 3.50397996,6 3,6 C1.34314575,6 0,4.65685425 0,3 C0,1.34314575 1.34314575,0 3,0 C4.65685425,0 6,1.34314575 6,3 C6,3.42199953 5.91286784,3.82364826 5.75561269,4.18793702 L7.06653129,5.49748745 C7.63959964,5.18046485 8.29872491,5 9,5 C9.71678642,5 10.3895378,5.18853645 10.9713686,5.51872383 L11.3876061,5.10253912 C11.139879,4.62238392 11,4.07752721 11,3.5 C11,1.56700338 12.5670034,0 14.5,0 Z M3.5,14 C2.67157288,14 2,14.6715729 2,15.5 C2,16.3284271 2.67157288,17 3.5,17 C4.32842712,17 5,16.3284271 5,15.5 C5,14.6715729 4.32842712,14 3.5,14 Z M15,14 C14.4477153,14 14,14.4477153 14,15 C14,15.5522847 14.4477153,16 15,16 C15.5522847,16 16,15.5522847 16,15 C16,14.4477153 15.5522847,14 15,14 Z M9,7 C7.8954305,7 7,7.8954305 7,9 C7,10.1045695 7.8954305,11 9,11 C10.1045695,11 11,10.1045695 11,9 C11,7.8954305 10.1045695,7 9,7 Z M14.5,2 C13.6715729,2 13,2.67157288 13,3.5 C13,4.32842712 13.6715729,5 14.5,5 C15.3284271,5 16,4.32842712 16,3.5 C16,2.67157288 15.3284271,2 14.5,2 Z M3,2 C2.44771525,2 2,2.44771525 2,3 C2,3.55228475 2.44771525,4 3,4 C3.55228475,4 4,3.55228475 4,3 C4,2.44771525 3.55228475,2 3,2 Z" id="形状结合"></path>
                </g>
            </g>
        </g>
    </g>
</svg>