<?xml version="1.0" encoding="UTF-8"?>
<svg width="16px" height="16px" viewBox="0 0 16 16" version="1.1" xmlns="http://www.w3.org/2000/svg" xmlns:xlink="http://www.w3.org/1999/xlink">
    <title>报错-小</title>
    <g id="组件" stroke="none" stroke-width="1" fill="none" fill-rule="evenodd">
        <g transform="translate(-2125.000000, -403.000000)" id="编组-44备份-6">
            <g transform="translate(2109.000000, 391.000000)">
                <g id="报错-小" transform="translate(16.000000, 12.000000)">
                    <polygon id="路径" points="0 0 16 0 16 16 0 16"></polygon>
                    <path d="M8,15 C4.1339,15 1,11.8661 1,8 C1,4.1339 4.1339,1 8,1 C11.8661,1 15,4.1339 15,8 C15,11.8661 11.8661,15 8,15 Z M8,7.0102 L6.51556245,5.52523754 C6.26948235,5.27907043 5.88573365,5.25439023 5.61204935,5.45124074 L5.52515,5.52515 L5.52515,5.52515 C5.27902639,5.77127361 5.25441403,6.15502666 5.45131292,6.42867616 L5.52523754,6.51556245 L5.52523754,6.51556245 L7.0102,8 L5.52523754,9.48443755 C5.27907043,9.73051765 5.25439023,10.1142663 5.45124074,10.3879506 L5.52515,10.47485 L5.52515,10.47485 C5.77127361,10.7209736 6.15502666,10.745586 6.42867616,10.5486871 L6.51556245,10.4747625 L6.51556245,10.4747625 L8,8.9898 L9.48443755,10.4747625 C9.73051765,10.7209296 10.1142663,10.7456098 10.3879506,10.5487593 L10.47485,10.47485 L10.47485,10.47485 C10.7209736,10.2287264 10.745586,9.84497334 10.5486871,9.57132384 L10.4747625,9.48443755 L10.4747625,9.48443755 L8.9898,8 L10.4747625,6.51556245 C10.7209296,6.26948235 10.7456098,5.88573365 10.5487593,5.61204935 L10.47485,5.52515 L10.47485,5.52515 C10.2287264,5.27902639 9.84497334,5.25441403 9.57132384,5.45131292 L9.48443755,5.52523754 L9.48443755,5.52523754 L8,7.0102 Z" id="形状" fill="#FF3131" fill-rule="nonzero"></path>
                </g>
            </g>
        </g>
    </g>
</svg>