<?xml version="1.0" encoding="UTF-8"?>
<svg width="24px" height="24px" viewBox="0 0 24 24" version="1.1" xmlns="http://www.w3.org/2000/svg" xmlns:xlink="http://www.w3.org/1999/xlink">
    <title>相机</title>
    <g id="2.0" stroke="none" stroke-width="1" fill="none" fill-rule="evenodd">
        <g id="通用基础-删格" transform="translate(-392.000000, -399.000000)">
            <g id="相机" transform="translate(392.000000, 399.000000)">
                <polygon id="路径" points="0 0 24 0 24 24 0 24"></polygon>
                <path d="M13.7894092,3.0181886 C14.5194091,3.0181886 15.221951,3.28425125 15.7674151,3.76263408 L15.9121861,3.89832589 L17.012,4.9991886 L18.125,5 C20.0624505,5 21.644898,6.51994902 21.7449753,8.43248004 L21.75,8.625 L21.75,17.375 C21.75,19.3124505 20.230051,20.894898 18.31752,20.9949753 L18.125,21 L5.875,21 C3.93754947,21 2.35510205,19.480051 2.25502474,17.56752 L2.25,17.375 L2.25,8.625 C2.25,6.68754947 3.76994902,5.10510205 5.68248004,5.00502474 L5.875,5 L7.008,4.9991886 L8.10004925,3.90259244 C8.61619381,3.38365856 9.30244781,3.07295857 10.0282499,3.02477894 L10.2270784,3.0181886 L13.7894092,3.0181886 Z M13.7894092,5.0181886 L10.2270784,5.0181886 C10.0052864,5.0181886 9.79111939,5.0918678 9.617275,5.22563079 L9.51806867,5.31298988 L8.10873386,6.72994093 C7.98288043,6.85647449 7.82668549,6.9458665 7.65718391,6.99103398 L7.65737907,7 L7.61478911,7.00134583 C7.54469856,7.0167825 7.47262323,7.02474221 7.39972415,7.02474221 L6.00296791,7.02474221 L6.002,6.9991886 L5.875,7 C5.02477216,7 4.32705358,7.65296975 4.25596472,8.48478878 L4.25,8.625 L4.25,17.375 C4.25,18.2252278 4.90296975,18.9229464 5.73478878,18.9940353 L5.875,19 L18.125,19 C18.9752278,19 19.6729464,18.3470303 19.7440353,17.5152112 L19.75,17.375 L19.75,8.625 C19.75,7.77477216 19.0970303,7.07705358 18.2652112,7.00596472 L18.125,7 L18.02,6.9991886 L18.0204198,7.02474221 L16.62244,7.02474221 C16.3569855,7.02474221 16.1024234,6.9191967 15.9148477,6.73136311 L14.4970015,5.31156769 C14.3406884,5.15503971 14.137857,5.05565622 13.920969,5.02687638 L13.7894092,5.0181886 Z M12,7 C15.0375661,7 17.5,9.46243388 17.5,12.5 C17.5,15.5375661 15.0375661,18 12,18 C8.96243388,18 6.5,15.5375661 6.5,12.5 C6.5,9.46243388 8.96243388,7 12,7 Z M12,9 C10.0670034,9 8.5,10.5670034 8.5,12.5 C8.5,14.4329966 10.0670034,16 12,16 C13.9329966,16 15.5,14.4329966 15.5,12.5 C15.5,10.5670034 13.9329966,9 12,9 Z" id="形状结合" fill="#5D6E7F" fill-rule="nonzero"></path>
            </g>
        </g>
    </g>
</svg>