<?xml version="1.0" encoding="UTF-8"?>
<svg width="24px" height="24px" viewBox="0 0 24 24" version="1.1" xmlns="http://www.w3.org/2000/svg" xmlns:xlink="http://www.w3.org/1999/xlink">
    <title>云禁用</title>
    <g id="2.0" stroke="none" stroke-width="1" fill="none" fill-rule="evenodd">
        <g id="通用基础-删格" transform="translate(-183.000000, -310.000000)">
            <g id="云禁用" transform="translate(183.000000, 310.000000)">
                <polygon id="路径" points="0 0 24 0 24 24 0 24"></polygon>
                <path d="M4.22225004,2.80725004 L21.8995,20.4845 C22.2902415,20.8752415 22.2902415,21.5087585 21.8995,21.8995 C21.5389051,22.2600949 20.9714994,22.287833 20.5790875,21.9827142 L20.4846756,21.8993244 L20.4846756,21.8993244 L19.178,20.592 C18.4837246,20.8623831 17.745067,21.0007542 17,21 L7,21 C4.0747135,21.0018372 1.57448478,18.8938379 1.0819056,16.0103209 C0.589326416,13.1268039 2.24799106,10.3083581 5.008,9.339 C4.96520478,8.47014611 5.08492048,7.60093552 5.361,6.776 L2.80714161,4.22135846 C2.44671205,3.86081837 2.41906941,3.29358171 2.72415517,2.90133632 L2.8075,2.807 L2.8075,2.807 C3.19828191,2.41649426 3.8316062,2.4166062 4.22225004,2.80725004 Z M7,9 L7.006,9.243 L7.006,9.243 L7.076,10.731 L5.672,11.225 C3.83559928,11.8744465 2.73350819,13.751753 3.06146031,15.671804 C3.38941242,17.591855 5.05214505,18.9969189 7,19 L17,19 C17.186,19 17.369,18.987 17.548,18.963 L7.03,8.445 C7.01,8.627 7,8.812 7,9 Z M12,1.99997068 C13.9153826,1.99997068 15.7471261,2.78474972 17.0683249,4.17151719 C18.3895237,5.55828466 19.0847592,7.42586486 18.992,9.339 C20.6733495,9.931278 22.004501,11.2401747 22.6250393,12.9113006 C23.0930933,14.1717822 23.1203401,15.5399906 22.7247037,16.7997623 L22.6334583,17.0679749 L22.6334583,17.0679749 C22.4455555,17.5802967 21.8779112,17.8432903 21.3655894,17.6553875 C20.8861683,17.4795516 20.6197149,16.9673644 20.7509278,16.4738605 L20.8873338,15.9484608 L20.8873338,15.9484608 L20.9122247,15.8427853 L20.9122247,15.8427853 C21.1965909,14.5294856 20.8027896,13.140911 19.8309305,12.1692385 C18.8764744,11.2149657 17.5200206,10.8183109 16.2277946,11.0740116 C16.175724,11.0843152 16.1014738,11.1082223 16.0050441,11.1457331 L15.7826117,11.2388928 L15.7826117,11.2388928 C15.3526006,11.4288204 14.8500411,11.3344218 14.5182493,11.0014108 L14.3581289,10.840702 C14.0341563,10.5154536 14.0351215,9.98915592 14.3603274,9.66514068 C14.4096565,9.61599221 14.4648664,9.57333553 14.524604,9.53808781 L14.617437,9.49088761 L14.617437,9.49088761 C15.3479459,9.1753874 16.1531079,9 17,9 C16.9999761,7.13372648 15.9605794,5.42280427 14.3043153,4.56270775 C12.9148081,3.84113786 11.2851913,3.81916972 9.89488122,4.46466288 L9.66546088,4.57841976 L9.66546088,4.57841976 C9.24631235,4.79982041 8.73180713,4.72220949 8.39662682,4.38701118 L8.35029267,4.34067703 C7.99608489,3.98646924 7.99608489,3.41218496 8.35029267,3.05797718 L8.43986779,2.97946111 L8.43986779,2.97946111 L8.5461665,2.90922666 L8.5461665,2.90922666 C9.59385195,2.31421088 10.7834764,1.99795362 12,1.99997068 Z" id="形状" fill="#5D6E7F" fill-rule="nonzero"></path>
            </g>
        </g>
    </g>
</svg>