<?xml version="1.0" encoding="UTF-8"?>
<svg width="24px" height="24px" viewBox="0 0 24 24" version="1.1" xmlns="http://www.w3.org/2000/svg" xmlns:xlink="http://www.w3.org/1999/xlink">
    <title>缩小</title>
    <g id="2.0" stroke="none" stroke-width="1" fill="none" fill-rule="evenodd">
        <g id="通用基础-删格" transform="translate(-113.000000, -310.000000)">
            <g id="缩小" transform="translate(113.000000, 310.000000)">
                <polygon id="路径" points="0 0 24 0 24 24 0 24"></polygon>
                <path d="M18.031,16.617 L21.6064174,20.1915826 C21.9971589,20.5822328 21.9972328,21.2156759 21.6065826,21.6064174 C21.6065551,21.6064449 21.6065275,21.6064725 21.6065,21.6065 C21.2158042,21.9971958 20.582361,21.9971958 20.1916652,21.6065 C20.1916377,21.6064725 20.1916101,21.6064449 20.1915826,21.6064174 L16.617,18.031 L16.617,18.031 C15.0237382,19.3082211 13.0420011,20.0029052 11,20 C6.032,20 2,15.968 2,11 C2,6.032 6.032,2 11,2 C15.968,2 20,6.032 20,11 C20.0029052,13.0420011 19.3082211,15.0237382 18.031,16.617 Z M16.025,15.875 C17.2941129,14.5698857 18.002867,12.8204293 18,11 C18,7.132 14.867,4 11,4 C7.132,4 4,7.132 4,11 C4,14.867 7.132,18 11,18 C12.8204293,18.002867 14.5698857,17.2941129 15.875,16.025 L16.025,15.875 L16.025,15.875 Z M10,10 L12,10 L14,10 C14.5522847,10 15,10.4477153 15,11 C15,11.5522847 14.5522847,12 14,12 L12,12 L12,12 L10,12 L8,12 C7.44771525,12 7,11.5522847 7,11 C7,10.4477153 7.44771525,10 8,10 L10,10 L10,10 Z" id="形状" fill="#5D6E7F" fill-rule="nonzero"></path>
            </g>
        </g>
    </g>
</svg>