<?xml version="1.0" encoding="UTF-8"?>
<svg width="24px" height="24px" viewBox="0 0 24 24" version="1.1" xmlns="http://www.w3.org/2000/svg" xmlns:xlink="http://www.w3.org/1999/xlink">
    <title>退出全屏</title>
    <g id="2.0" stroke="none" stroke-width="1" fill="none" fill-rule="evenodd">
        <g id="通用基础-删格" transform="translate(-217.000000, -264.000000)">
            <g id="退出全屏" transform="translate(217.000000, 264.000000)">
                <polygon id="路径" points="0 0 24 0 24 24 0 24"></polygon>
                <path d="M21,15 C21.5522847,15 22,15.4477153 22,16 C22,16.5128358 21.6139598,16.9355072 21.1166211,16.9932723 L21,17 L17.7958912,17 C16.8372741,17 16.0831594,17.6400537 16.0064343,18.4131602 L16,18.5431563 L16,21 C16,21.5522847 15.5522847,22 15,22 C14.4871642,22 14.0644928,21.6139598 14.0067277,21.1166211 L14,21 L14,18.5431563 C14,16.6279148 15.6103619,15.1013398 17.5961108,15.0048441 L17.7958912,15 L21,15 Z M6.23358048,15 C8.22845776,15 9.88962622,16.4617445 9.99472255,18.3429327 L10,18.532411 L10,21 C10,21.5522847 9.55228475,22 9,22 C8.48716416,22 8.06449284,21.6139598 8.00672773,21.1166211 L8,21 L8,18.532411 C8,17.7502341 7.3070438,17.0747271 6.38865283,17.0057878 L6.23358048,17 L3,17 C2.44771525,17 2,16.5522847 2,16 C2,15.4871642 2.38604019,15.0644928 2.88337887,15.0067277 L3,15 L6.23358048,15 Z M15,3 C15.5128358,3 15.9355072,3.38604019 15.9932723,3.88337887 L16,4 L16,7.09629689 C16,8.10468368 16.7257938,8.91522763 17.6286163,8.99376105 L17.7725584,9 L21,9 C21.5522847,9 22,9.44771525 22,10 C22,10.5128358 21.6139598,10.9355072 21.1166211,10.9932723 L21,11 L17.7725584,11 C15.7438712,11 14.1053078,9.35032619 14.0048787,7.29629464 L14,7.09629689 L14,4 C14,3.44771525 14.4477153,3 15,3 Z M9,3 C9.51283584,3 9.93550716,3.38604019 9.99327227,3.88337887 L10,4 L10,6.54122962 C10,8.41494608 8.40867261,9.90133759 6.45282173,9.99528406 L6.256067,10 L3,10 C2.44771525,10 2,9.55228475 2,9 C2,8.48716416 2.38604019,8.06449284 2.88337887,8.00672773 L3,8 L6.256067,8 C7.18739852,8 7.91509346,7.3942941 7.99307397,6.67015003 L8,6.54122962 L8,4 C8,3.44771525 8.44771525,3 9,3 Z" id="形状" fill="#5D6E7F" fill-rule="nonzero"></path>
            </g>
        </g>
    </g>
</svg>