<?xml version="1.0" encoding="UTF-8"?>
<svg width="24px" height="24px" viewBox="0 0 24 24" version="1.1" xmlns="http://www.w3.org/2000/svg" xmlns:xlink="http://www.w3.org/1999/xlink">
    <title>上传</title>
    <g id="2.0" stroke="none" stroke-width="1" fill="none" fill-rule="evenodd">
        <g id="通用基础-删格" transform="translate(-113.000000, -76.000000)">
            <g id="上传" transform="translate(113.000000, 76.000000)">
                <polygon id="路径" points="0 0 24 0 24 24 0 24"></polygon>
                <path d="M20,13 C20.5128358,13 20.9355072,13.3860402 20.9932723,13.8833789 L21,14 L21,17.4285714 C21,19.3753693 19.2899682,20.9019483 17.2030878,20.9954583 L17,21 L7,21 C4.89019413,21 3.11423088,19.5342584 3.00529354,17.6156254 L3,17.4285714 L3,14 C3,13.4477153 3.44771525,13 4,13 C4.51283584,13 4.93550716,13.3860402 4.99327227,13.8833789 L5,14 L5,17.4285714 C5,18.217759 5.77990046,18.9257045 6.83173507,18.994526 L7,19 L17,19 C18.0790522,19 18.9129052,18.3315139 18.9935929,17.5524235 L19,17.4285714 L19,14 C19,13.4477153 19.4477153,13 20,13 Z M12.9089656,9.37931034 L12.9089656,15.1201308 C12.9089656,15.6221386 12.5020078,16.0290964 12,16.0290964 C11.4979922,16.0290964 11.0910344,15.6221386 11.0910344,15.1201308 L11.0910344,9.37931034 L11.0910344,9.37931034 L7.43240079,9.37931034 C7.15625842,9.37931034 6.93240079,9.15545272 6.93240079,8.87931034 C6.93240079,8.73942779 6.9909978,8.6059415 7.09396568,8.51125916 L11.4885736,4.47027336 C11.7771308,4.20493554 12.2213502,4.20657528 12.5079407,4.47403612 L16.8366071,8.51376767 C17.0384908,8.70217575 17.0494149,9.01856971 16.8610068,9.22045335 C16.766443,9.32178066 16.6340626,9.37931034 16.4954641,9.37931034 L12.9089656,9.37931034 L12.9089656,9.37931034 Z" id="形状" fill="#5D6E7F" fill-rule="nonzero"></path>
            </g>
        </g>
    </g>
</svg>