<svg id="图层_1" data-name="图层 1" xmlns="http://www.w3.org/2000/svg" viewBox="0 0 300 300"><defs><style>.cls-1,.cls-6{fill:#fff;}.cls-1,.cls-3{fill-rule:evenodd;}.cls-2{fill:#a1a9ad;}.cls-3{fill:#0569ff;}.cls-4{fill:#034fd2;}.cls-5{fill:#e1b222;}.cls-7{fill:#25304b;}.cls-8{opacity:0.3;}.cls-9{fill:#cd4a49;}.cls-10{fill:#f7f8f9;}</style></defs><path class="cls-1" d="M196.84,214.19s8.32,16.57-13.66,29.06l-6.51-4.06,5.86-25Z"/><path class="cls-2" d="M183.17,243.54l-6.78-4.23,0-.18,5.9-25.19H197l.07.14c.08.17,8.18,16.93-13.76,29.38ZM177,239.07l6.22,3.88c6.19-3.53,13.73-9.67,14.82-18.92a19.1,19.1,0,0,0-1.32-9.59h-14Z"/><path class="cls-1" d="M128.38,224.25s-8.6,5.6-11,8.33c0,0-4.39,3.92-3.26,6.2s-3.75,9.89-11.08,3,9.22-26.35,21-35.2l5.54-1.52,2.88,14.51-4,4.64Z"/><path class="cls-2" d="M108.8,244.85c-1.59,0-3.61-.66-6-2.85a6.3,6.3,0,0,1-1.88-5.18c.47-8.94,13.58-23.4,22.86-30.4l.08,0,5.8-1.6,3,14.91-4.15,4.77c-.09.06-8.6,5.62-11,8.29-.06.05-4.26,3.83-3.23,5.92.59,1.18-.23,3.61-2.2,5.08A5.57,5.57,0,0,1,108.8,244.85Zm15.29-38c-9.2,7-22.16,21.22-22.62,30a5.83,5.83,0,0,0,1.72,4.79c4.22,3.94,7.22,2.76,8.63,1.71,1.72-1.28,2.54-3.49,2.06-4.46-1.2-2.42,3.13-6.33,3.32-6.5,2.34-2.64,10.37-7.91,11-8.33l3.92-4.52-2.8-14.13Z"/><path class="cls-1" d="M126.09,245.64s3.12,28.49,5.2,30.41c0,0-7.28,5.22-6.5,10.13,3.53,2.53,10.41.39,13.66,0,2.51-.29,8.34.19,9.1-4.73s0-21.62,0-21.62,5.88-12.81,11.71-.68c0,0-.55,13.22,2,17.57,0,0-4.42,6.78.65,8.79s18.22.67,18.22.67,2.49-2.59.65-5.4a8,8,0,0,0-4.56-3.38s6.47-2.1,5.86-31.09l-5.21-6.75-50.08,2-.65,4.06Z"/><path class="cls-2" d="M129.57,287.65a8.44,8.44,0,0,1-4.93-1.26l-.08-.06,0-.11c-.72-4.59,5.17-9.3,6.4-10.22-2.12-3.29-5-29.2-5.1-30.33v-.07l.68-4.26h.21l50.21-2,5.34,6.93v.08c.51,24.25-3.91,29.8-5.49,31a8.44,8.44,0,0,1,4.15,3.32c1.92,2.94-.66,5.69-.68,5.72l-.07.06h-.09c-.54.06-13.26,1.32-18.33-.69a3.8,3.8,0,0,1-2.39-2.4c-.82-2.58,1.11-5.92,1.54-6.63-2.36-4.36-1.95-16.4-1.91-17.5-1.61-3.34-3.36-5-5.19-5h0c-3.17,0-5.71,5.12-6,5.7.05,1.28.73,16.82,0,21.61-.68,4.39-5.29,4.67-8,4.84-.48,0-.92.06-1.28.1-.68.08-1.5.24-2.45.41A35.76,35.76,0,0,1,129.57,287.65ZM125,286c2.71,1.85,7.45,1,10.91.31,1-.18,1.8-.33,2.49-.41.37-.05.82-.08,1.31-.11,2.77-.17,7-.42,7.58-4.42.74-4.83,0-21.4,0-21.57v-.06l0,0c.11-.25,2.79-6,6.46-6.05h0c2.05,0,4,1.81,5.67,5.37l0,.05v.06c0,.14-.52,13.2,1.92,17.44l.08.13-.09.13s-2.4,3.72-1.57,6.33a3.33,3.33,0,0,0,2.11,2.08c4.73,1.88,16.8.79,18,.67a4.17,4.17,0,0,0,.56-5,7.75,7.75,0,0,0-4.4-3.27l-.92-.19.9-.29c.06,0,6.26-2.54,5.68-30.76l-5.07-6.59-49.76,2-.61,3.82c.87,7.92,3.47,28.69,5.12,30.21l.23.21-.25.18C131.37,276.3,124.4,281.36,125,286Z"/><path class="cls-3" d="M124.79,201.72l-13,12.16s-.45,2.52.65,3.38,7.88,7.19,9.75,8.11,3.64,1.63,4.56,1.35c0,0-3.29,14.42-1.3,17.57s8.62,3.79,13.66,4.05,43.63.33,44.23-2.7c1.14-5.76-2.78-22.12-3.25-23.65,0,0,3.25,3.52,5.2,4s2.31.34,3.25,0,8.22-5.12,10.41-8.78c.65-1.91-1.3-4.06-1.3-4.06s-10.89-9.32-16.26-10.81S165.12,195,165.12,195l-40.33,6.76Z"/><path class="cls-4" d="M126.74,226.72l-1.95-.68,6.5-10.81-4.55,11.49ZM179.43,222c-.81-.62-4.56-6.76-4.56-6.76.79,1.14,5.86,6.08,5.86,6.08l-1.3.68Z"/><path class="cls-1" d="M143,223.67v.11c-12.36,3.22-6.21,14.62,3.24,13.13l1.05,3.42c-8-.05-14.21-4.83-14.56-9.44s3.75-8.15,9.19-8.26c-3.13-13.8,26.09-13.8,22.6,0,5.44.11,9.54,3.65,9.19,8.26s-6.59,9.39-14.56,9.44l1-3.42c8,1.11,17.7-11.46,3.23-13.13a.5.5,0,0,0,0-.11C163.33,212.75,143,212.76,143,223.67Z"/><path class="cls-1" d="M150.2,241.21c-.89-9.05,9.13-3.69,10.64-11.39.62-3.19,0-6.6-3-8.4-4.4-2.26-11.79-.3-11.18,6.14s9.54,4,8.72.12c-1.28,1.7-3.86,2.34-5.07,1.43-2.74-2.06.45-6.57,4.68-5.52,2.79.7,2.6,2.38,2.8,4.4.42,4-3.47,4.3-7.06,6C146.33,236,150.2,241.21,150.2,241.21Z"/><path class="cls-1" d="M154.73,237a2.25,2.25,0,1,1-2.24,2.25A2.25,2.25,0,0,1,154.73,237Z"/><path class="cls-5" d="M123.46,237.18l0,.65a.63.63,0,0,1-.71.58l-4.65-.58a1.08,1.08,0,0,1-.67-.56l-1.16-3.89-3.52-.46a.71.71,0,0,1-.6-.73v0a.67.67,0,0,1-.54-.47l-1.07-3.6-3.78-.47a.71.71,0,0,1-.62-.74l.05-.65a.61.61,0,0,1,.71-.57l4.64.58a.62.62,0,0,1,.34.15.73.73,0,0,1,.34.41l1.28,4.29,3.85.51a.69.69,0,0,1,.59.61,1,1,0,0,1,.09.18l1.07,3.59,3.78.47A.72.72,0,0,1,123.46,237.18Zm-3.61,9.11-8.59,10.88a2.47,2.47,0,0,1-3.52.37L89.56,242.67a2.58,2.58,0,0,1-.4-3.58l8.59-10.88a2.47,2.47,0,0,1,3.52-.38l18.18,14.87A2.58,2.58,0,0,1,119.85,246.29Zm-25.29,4.23a.67.67,0,0,1,.74.48l1.11,3.72,3.75.5a.69.69,0,0,1,.45.27h0a.69.69,0,0,1,.83.47l1.32,4.43a.62.62,0,0,1-.45.78l-.65.16a.71.71,0,0,1-.83-.48l-1.11-3.75-4.19-.55a.69.69,0,0,1-.4-.22.73.73,0,0,1-.45-.44L93.54,252l-4.32-.54a.71.71,0,0,1-.34-.16.66.66,0,0,1-.33-.4l-1.32-4.42a.62.62,0,0,1,.45-.79l.65-.16a.71.71,0,0,1,.83.48l1.07,3.59,3.78.48A.7.7,0,0,1,94.56,250.52Z"/><path class="cls-6" d="M106.82,252.1a.61.61,0,0,1-.88.1L92.67,241.35a.66.66,0,0,1-.1-.9l7-8.9a.61.61,0,0,1,.88-.1l13.27,10.85a.66.66,0,0,1,.1.9Z"/><path class="cls-6" d="M250.31,159.7A11.15,11.15,0,0,1,239.36,171a10.76,10.76,0,0,1-5.56-1.56l-.11.09c-18.07,22.46-42.18,31.78-75,34S46.08,200.78,49.81,118.8c3.69-81,92.77-86.2,92.77-86.2,80.34.56,103.72,55.33,106.46,88.21a69.91,69.91,0,0,1-3.53,29.52A11.41,11.41,0,0,1,250.31,159.7Z"/><path class="cls-2" d="M147.29,204.14a161.91,161.91,0,0,1-31.64-3C96.4,197.25,81,189.78,70,179c-14.71-14.4-21.58-34.65-20.42-60.18.85-18.52,6.26-34.6,16.1-47.78,7.88-10.54,18.57-19.25,31.81-25.9a130,130,0,0,1,45.09-12.75c35.67.25,63.44,11,82.53,32.07,19.37,21.33,23.37,46.52,24.2,56.36a70.29,70.29,0,0,1-3.49,29.46,11.66,11.66,0,0,1,4.76,9.46,11.4,11.4,0,0,1-11.2,11.57,10.88,10.88,0,0,1-5.53-1.5c-17,21.18-40.23,31.68-75.17,34C155.76,204,151.87,204.14,147.29,204.14ZM142.58,32.85a129.63,129.63,0,0,0-44.9,12.7c-13.16,6.62-23.8,15.28-31.62,25.76-9.78,13.09-15.16,29.08-16,47.5-1.15,25.38,5.67,45.49,20.27,59.79,8.79,8.6,35,28.24,88.3,24.68,34.79-2.32,57.88-12.77,74.87-33.88l.13-.12.14-.13.16.1a10.4,10.4,0,0,0,5.43,1.52,10.9,10.9,0,0,0,10.7-11.07,11.15,11.15,0,0,0-4.7-9.16l-.15-.11.06-.18a69.76,69.76,0,0,0,3.52-29.42C248,111,244,86,224.72,64.75,205.72,43.83,178.08,33.1,142.58,32.85Z"/><path class="cls-7" d="M220,119.12s-42,8.76-57.34,12.41-21.91-8-11.32-38.34C156.52,77.7,170,57.39,197,43.88c0,0,51.13,22.28,52.41,76.88C249.4,120.76,240.82,116.56,220,119.12Z"/><g class="cls-8"><path class="cls-7" d="M112.81,157.64c-6.12,0-10.91-16-10.91-36.47s4.79-36.47,10.91-36.47,10.91,16,10.91,36.47S118.93,157.64,112.81,157.64Zm0-71.94c-5.37,0-9.91,16.24-9.91,35.47s4.54,35.47,9.91,35.47,9.91-16.24,9.91-35.47S118.18,85.7,112.81,85.7Z"/></g><ellipse class="cls-9" cx="243.92" cy="160.43" rx="2.37" ry="5.48"/><rect class="cls-6" x="194.07" y="92.5" width="35.43" height="4.75" rx="2.35" transform="translate(-7.96 169.48) rotate(-42.89)"/><path class="cls-10" d="M190,71.32a5.19,5.19,0,0,1-3-.89l.62-.79a4.38,4.38,0,0,0,3.24.61c1.88-.28,4.86-1.67,8.46-6.71a9.18,9.18,0,0,1,6.92-4.23c6.38-.43,12.58,6.09,12.85,6.37l-.73.69c-.06-.07-6.15-6.45-12.06-6.06a8.19,8.19,0,0,0-6.16,3.81c-3.07,4.3-6.16,6.7-9.17,7.13A6.22,6.22,0,0,1,190,71.32Z"/></svg>