<?xml version="1.0" encoding="UTF-8"?>
<svg width="24px" height="24px" viewBox="0 0 24 24" version="1.1" xmlns="http://www.w3.org/2000/svg" xmlns:xlink="http://www.w3.org/1999/xlink">
    <title>下箭头</title>
    <g id="2.0" stroke="none" stroke-width="1" fill="none" fill-rule="evenodd">
        <g id="通用基础-删格" transform="translate(-461.000000, -264.000000)">
            <g id="下箭头" transform="translate(461.000000, 264.000000)">
                <polygon id="路径" points="0 0 24 0 24 24 0 24"></polygon>
                <path d="M13,8.31084271 L13,19 C13,19.5522847 12.5522847,20 12,20 C11.4477153,20 11,19.5522847 11,19 L11,8.31084271 C11,8.20038576 10.9104569,8.11084271 10.8,8.11084271 C10.7469567,8.11084271 10.6960859,8.13191408 10.6585786,8.16942136 L6.343,12.485 C5.95253468,12.8754653 5.31946532,12.8754653 4.929,12.485 C4.53853468,12.0945347 4.53853468,11.4614653 4.929,11.071 L10.5857864,5.41421356 C11.366835,4.63316498 12.633165,4.63316498 13.4142136,5.41421356 L19.071,11.071 C19.4614653,11.4614653 19.4614653,12.0945347 19.071,12.485 C18.6805347,12.8754653 18.0474653,12.8754653 17.657,12.485 L13.3414214,8.16942136 C13.2633165,8.0913165 13.1366835,8.0913165 13.0585786,8.16942136 C13.0210714,8.20692863 13,8.25779941 13,8.31084271 Z" id="路径" fill="#5D6E7F" fill-rule="nonzero" transform="translate(12.000000, 12.000000) scale(1, -1) translate(-12.000000, -12.000000) "></path>
            </g>
        </g>
    </g>
</svg>