<svg id="图层_1" data-name="图层 1" xmlns="http://www.w3.org/2000/svg" viewBox="0 0 300 300"><defs><style>.cls-1,.cls-9{fill:#fff;}.cls-1,.cls-3,.cls-5,.cls-8{fill-rule:evenodd;}.cls-2{fill:#a1a9ad;}.cls-3{fill:#0569ff;}.cls-4{fill:#034fd2;}.cls-5{fill:#e4e4e3;}.cls-6{fill:#e7baba;}.cls-7{fill:#db9796;}.cls-8{fill:#25304b;}.cls-10{fill:#323333;}.cls-11{fill:#989898;}</style></defs><path class="cls-1" d="M112.13,215.68s-8.25,16.4,13.52,28.76l6.44-4-5.8-24.75Z"/><path class="cls-2" d="M125.66,244.73l-.13-.07c-6.26-3.55-14-9.77-15-19.21a18.9,18.9,0,0,1,1.42-9.89l.07-.13h14.52l.05.19,5.83,24.92Zm-13.37-28.8c-.71,1.6-6.74,16.73,13.35,28.22l6.17-3.84-5.71-24.38Z"/><path class="cls-1" d="M182.14,224.38s8.51,5.55,10.9,8.25c0,0,4.35,3.88,3.23,6.14s3.71,9.79,11,3-9.12-26.09-20.73-34.86L181,205.42l-2.87,14.37,4,4.59Z"/><path class="cls-2" d="M201.52,244.79a5.54,5.54,0,0,1-3.29-1.09c-2-1.46-2.77-3.87-2.18-5,1-2.06-3.13-5.81-3.17-5.84-2.37-2.67-10.79-8.17-10.88-8.23l-.05,0-4.06-4.69,0-.12,2.91-14.64,5.83,1.63c9.18,6.93,22.15,21.25,22.61,30.11a6.26,6.26,0,0,1-1.86,5.13C205.09,244.13,203.09,244.79,201.52,244.79Zm-19.21-20.6c.63.42,8.58,5.63,10.92,8.27.16.15,4.45,4,3.26,6.42-.47,1,.33,3.14,2,4.42,1.4,1,4.36,2.2,8.54-1.7a5.77,5.77,0,0,0,1.7-4.74c-.45-8.68-13.27-22.82-22.37-29.71l-5.18-1.42-2.79,14Z"/><path class="cls-1" d="M125.36,246.06s3.09,28.2,5.15,30.1c0,0-7.21,5.17-6.44,10,3.49,2.5,10.31.37,13.52,0,2.49-.3,8.26.18,9-4.69s0-21.4,0-21.4,5.82-12.68,11.6-.67c0,0-.55,13.09,1.93,17.39,0,0-4.38,6.71.64,8.7s18,.67,18,.67,2.47-2.57.65-5.36a7.87,7.87,0,0,0-4.51-3.34s6.4-2.07,5.79-30.77L175.58,240l-49.58,2-.64,4Z"/><path class="cls-2" d="M128.8,287.65a8.37,8.37,0,0,1-4.88-1.25l-.08-.06,0-.11c-.71-4.54,5.12-9.2,6.33-10.12-2.09-3.26-4.92-28.9-5-30V246l.67-4.22H126l49.71-2,5.28,6.86v.08c.51,24-3.86,29.5-5.42,30.7a8.29,8.29,0,0,1,4.09,3.29c1.91,2.91-.64,5.63-.67,5.66l-.06.06h-.09c-.54.06-13.13,1.31-18.15-.68a3.78,3.78,0,0,1-2.37-2.38c-.81-2.55,1.1-5.86,1.53-6.56-2.34-4.32-1.94-16.24-1.9-17.33-1.59-3.3-3.32-5-5.13-5h0c-3.14,0-5.65,5.06-5.92,5.64,0,1.27.73,16.65,0,21.39-.67,4.35-5.24,4.63-8,4.8-.48,0-.91,0-1.27.09-.67.08-1.48.24-2.42.41A35.89,35.89,0,0,1,128.8,287.65Zm-4.5-1.6c2.69,1.84,7.37,1,10.81.31.95-.18,1.77-.33,2.45-.41.37-.05.81-.07,1.3-.1,2.74-.17,6.89-.42,7.5-4.38.74-4.78,0-21.19,0-21.35v-.06l0-.06c.11-.24,2.77-5.95,6.4-6h0c2,0,3.92,1.79,5.61,5.31l0,.06v.06c0,.13-.52,13.06,1.89,17.25l.08.14-.08.13s-2.38,3.68-1.55,6.26a3.24,3.24,0,0,0,2.07,2.06c4.69,1.86,16.63.78,17.82.67a4.13,4.13,0,0,0,.56-5,7.72,7.72,0,0,0-4.35-3.24l-.92-.19.89-.29c.06,0,6.2-2.52,5.63-30.44l-5-6.53-49.25,2-.6,3.77c.86,7.85,3.43,28.41,5.07,29.92l.22.21-.25.17C130.58,276.41,123.69,281.42,124.3,286.05Z"/><path class="cls-3" d="M124.07,202.58l-12.88,12s-.45,2.49.64,3.34,7.81,7.12,9.66,8,3.6,1.62,4.51,1.34c0,0-3.26,14.28-1.29,17.39s8.54,3.76,13.52,4,43.2.33,43.79-2.67c1.13-5.7-2.75-21.89-3.22-23.41,0,0,3.22,3.48,5.15,4s2.29.34,3.22,0,8.14-5.07,10.31-8.7c.64-1.89-1.29-4-1.29-4s-10.78-9.23-16.1-10.7-16.1-7.36-16.1-7.36l-39.92,6.69Z"/><path class="cls-4" d="M126,227.33l-1.93-.67,6.44-10.7L126,227.33Zm52.16-4.68c-.8-.61-4.51-6.69-4.51-6.69.78,1.13,5.8,6,5.8,6l-1.29.67Z"/><path class="cls-1" d="M241.67,155.06l-6.15-78c12.15,8.74,21.36,25.53,21.36,45.33,0,16.81-5.95,27-15.21,32.66Z"/><path class="cls-2" d="M241.45,155.49l0-.41-6.2-78.53.44.31c13.25,9.53,21.47,27,21.47,45.54,0,15.62-5.16,26.68-15.33,32.88Zm-5.64-77.9,6.08,77c9.78-6.14,14.74-17,14.74-32.24C256.63,104.2,248.67,87.09,235.81,77.59Z"/><path class="cls-5" d="M241.79,144.22,234,75c10.89,8.1,19.09,23.29,19.09,41.15,0,13.72-4.34,22.64-11.3,28.08Z"/><path class="cls-1" d="M58.48,155l5.59-77.79C52,86,43,102.81,43.12,122.54c.11,16.76,6.11,26.9,15.36,32.46Z"/><path class="cls-2" d="M58.7,155.42l-.34-.21C48.19,149.1,43,138.11,42.87,122.54,42.74,104,50.81,86.6,63.92,77l.44-.32,0,.54Zm5.08-77.68c-12.73,9.55-20.54,26.66-20.41,44.8.1,15.2,5.11,26,14.89,32Z"/><path class="cls-5" d="M58.29,144.19l7.28-69.06c-10.79,8.15-18.84,23.35-18.72,41.14.1,13.68,4.48,22.55,11.44,27.92Z"/><path class="cls-1" d="M150.11,32.6c54.78,0,99.18,41.15,99.18,90.75s-44.4,79.34-99.18,79.34-99.17-29.75-99.17-79.34S95.34,32.6,150.11,32.6Z"/><path class="cls-2" d="M150.11,202.94c-27.39,0-52.35-7.5-70.28-21.13-19.07-14.49-29.14-34.7-29.14-58.46,0-24.12,10.34-46.9,29.12-64.16s43.81-26.84,70.3-26.84,51.46,9.54,70.3,26.84,29.13,40,29.13,64.16c0,23.76-10.08,44-29.15,58.46C202.46,195.44,177.5,202.94,150.11,202.94Zm0-170.09c-26.36,0-51.21,9.49-70,26.71s-29,39.81-29,63.79c0,23.59,10,43.67,29,58.06,17.84,13.56,42.69,21,70,21s52.14-7.47,70-21C239,167,249,146.94,249,123.35c0-24-10.29-46.63-29-63.79S176.48,32.85,150.11,32.85Z"/><path class="cls-6" d="M123.77,138.21c0,1.74-5.48,3.19-12.71,3.49-.89,0-1.8.06-2.74.06h-.06c-1.49,0-2.92-.06-4.28-.15-.91-.06-1.79-.14-2.63-.24-5-.58-8.48-1.78-8.48-3.16,0-1.73,5.36-3.16,12.48-3.48.91,0,1.84-.06,2.81-.07h.16c1.43,0,2.81,0,4.12.13.92.06,1.8.13,2.64.23C120.22,135.59,123.77,136.81,123.77,138.21Z"/><path class="cls-6" d="M209.36,138.21c0,1.74-5.5,3.2-12.74,3.49-.88,0-1.79.06-2.71.06h-.09c-1.49,0-2.92-.06-4.28-.15-.91-.06-1.79-.14-2.62-.24-5-.59-8.46-1.78-8.46-3.16,0-1.73,5.35-3.16,12.45-3.48.91,0,1.85-.06,2.81-.07h.19c1.42,0,2.79,0,4.09.13.92.05,1.8.13,2.64.22C205.8,135.59,209.36,136.8,209.36,138.21Z"/><path class="cls-7" d="M108.16,134.66l-4.18,7c-.91-.06-1.79-.14-2.63-.24l4-6.64C106.26,134.69,107.19,134.67,108.16,134.66Z"/><path class="cls-7" d="M115.08,135l-4,6.68c-.89,0-1.8.06-2.74.06h-.06l4.18-7C113.36,134.85,114.24,134.92,115.08,135Z"/><path class="cls-7" d="M193.72,134.66l-4.18,7c-.91-.06-1.79-.14-2.62-.24l4-6.64Z"/><path class="cls-7" d="M200.64,135l-4,6.69c-.88,0-1.79.06-2.71.06h-.09l4.18-7C198.92,134.84,199.8,134.92,200.64,135Z"/><path class="cls-8" d="M151.54,40.2c48.22,0,93.25,45.69,86.36,88.85-3.07,19.28-38.14-6.18-86.36-6.18s-87.32,55.24-87.32,6.18S103.31,40.2,151.54,40.2Z"/><path class="cls-9" d="M213,75.94l-.53.79a1.82,1.82,0,0,1-2.88.36c-9.13-9.34-18.89-17-30.3-20.74a1.6,1.6,0,0,1-.64-2.57l.54-.78a3.51,3.51,0,0,1,3.65-1.27C196.22,56.05,205,64,213,72.52a2.92,2.92,0,0,1,0,3.42Zm3.61,8.86a3.33,3.33,0,1,1,2.91-3.69,3.34,3.34,0,0,1-2.91,3.69Z"/><path class="cls-1" d="M142.06,224.31v.11c-12.23,3.18-6.15,14.48,3.2,13l1.05,3.39c-7.89-.05-14.07-4.77-14.42-9.34s3.71-8.07,9.1-8.18c-3.09-13.66,25.83-13.66,22.37,0,5.39.11,9.45,3.62,9.1,8.18s-6.53,9.29-14.42,9.34l1.05-3.39c7.87,1.11,17.51-11.34,3.2-13v-.11C162.23,213.5,142.06,213.51,142.06,224.31Z"/><path class="cls-1" d="M149.22,241.68c-.87-9,9.05-3.65,10.54-11.28.61-3.15,0-6.53-3-8.31-4.36-2.24-11.67-.3-11.07,6.07s9.44,4,8.63.12c-1.26,1.69-3.82,2.31-5,1.42-2.72-2,.44-6.51,4.63-5.46,2.76.68,2.57,2.35,2.77,4.35.41,4-3.43,4.25-7,5.9C145.39,236.5,149.22,241.68,149.22,241.68Z"/><path class="cls-1" d="M153.71,237.48a2.23,2.23,0,1,1-2.22,2.22A2.23,2.23,0,0,1,153.71,237.48Z"/><circle class="cls-9" cx="103.45" cy="96.9" r="20.2" transform="translate(3.04 196.95) rotate(-88.03)"/><circle class="cls-9" cx="193.82" cy="96.06" r="20.26" transform="translate(94.55 288.25) rotate(-89.05)"/><path class="cls-10" d="M109,96.9a5.52,5.52,0,1,1-5.52-5.52A5.52,5.52,0,0,1,109,96.9Z"/><circle class="cls-10" cx="193.82" cy="96.06" r="5.52"/><rect class="cls-9" x="145.78" y="136.84" width="13.59" height="54.92" rx="4.8" transform="translate(160.87 -59.76) rotate(45)"/><path class="cls-11" d="M138,186.9a5.15,5.15,0,0,1-3.66-1.51l-2.82-2.82a5.18,5.18,0,0,1,0-7.32l32.05-32a5.19,5.19,0,0,1,7.32,0l2.82,2.82a5.2,5.2,0,0,1,0,7.32l-32,32A5.15,5.15,0,0,1,138,186.9Zm29.23-44.45a4.39,4.39,0,0,0-3.13,1.29l-32.05,32a4.44,4.44,0,0,0,0,6.26l2.82,2.82a4.42,4.42,0,0,0,6.26,0l32-32a4.42,4.42,0,0,0,0-6.26l-2.81-2.82A4.43,4.43,0,0,0,167.19,142.45Z"/><rect class="cls-9" x="145.14" y="136.84" width="13.59" height="54.92" rx="4.8" transform="translate(375.55 173.04) rotate(135)"/><path class="cls-11" d="M166.55,186.9a5.15,5.15,0,0,1-3.66-1.51l-32-32a5.18,5.18,0,0,1,0-7.32l2.82-2.82a5.19,5.19,0,0,1,7.32,0l32.05,32a5.2,5.2,0,0,1,0,7.32l-2.82,2.82A5.16,5.16,0,0,1,166.55,186.9Zm-35.18-40.34a4.44,4.44,0,0,0,0,6.26l32,32a4.42,4.42,0,0,0,6.26,0l2.81-2.82a4.42,4.42,0,0,0,0-6.26l-32-32a4.44,4.44,0,0,0-6.26,0Z"/></svg>