<?xml version="1.0" encoding="UTF-8"?>
<svg width="24px" height="24px" viewBox="0 0 24 24" version="1.1" xmlns="http://www.w3.org/2000/svg" xmlns:xlink="http://www.w3.org/1999/xlink">
    <title>邮政编码</title>
    <g id="2.0" stroke="none" stroke-width="1" fill="none" fill-rule="evenodd">
        <g id="通用基础-删格" transform="translate(-322.000000, -123.000000)">
            <g id="邮政编码" transform="translate(322.000000, 123.000000)">
                <polygon id="路径" points="0 0 24 0 24 24 0 24"></polygon>
                <path d="M18,3 C20.209139,3 22,4.790861 22,7 L22,17 C22,19.209139 20.209139,21 18,21 L6,21 C3.790861,21 2,19.209139 2,17 L2,7 C2,4.790861 3.790861,3 6,3 L18,3 Z M18,5 L6,5 C4.9456382,5 4.08183488,5.81587779 4.00548574,6.85073766 L4,7 L4,17 C4,18.0543618 4.81587779,18.9181651 5.85073766,18.9945143 L6,19 L18,19 C19.0543618,19 19.9181651,18.1841222 19.9945143,17.1492623 L20,17 L20,7 C20,5.9456382 19.1841222,5.08183488 18.1492623,5.00548574 L18,5 Z M12,15 C12.5522847,15 13,15.4477153 13,16 C13,16.5522847 12.5522847,17 12,17 L11,17 C10.4477153,17 10,16.5522847 10,16 C10,15.4477153 10.4477153,15 11,15 L12,15 Z M12,11 C12.5522847,11 13,11.4477153 13,12 C13,12.5522847 12.5522847,13 12,13 L11,13 C10.4477153,13 10,12.5522847 10,12 C10,11.4477153 10.4477153,11 11,11 L12,11 Z M12,7 C12.5522847,7 13,7.44771525 13,8 C13,8.55228475 12.5522847,9 12,9 L11,9 C10.4477153,9 10,8.55228475 10,8 C10,7.44771525 10.4477153,7 11,7 L12,7 Z" id="形状结合" fill="#5D6E7F"></path>
            </g>
        </g>
    </g>
</svg>