<?xml version="1.0" encoding="UTF-8"?>
<svg width="24px" height="24px" viewBox="0 0 24 24" version="1.1" xmlns="http://www.w3.org/2000/svg" xmlns:xlink="http://www.w3.org/1999/xlink">
    <title>分享</title>
    <g id="2.0" stroke="none" stroke-width="1" fill="none" fill-rule="evenodd">
        <g id="通用基础-删格" transform="translate(-392.000000, -220.000000)">
            <g id="分享" transform="translate(392.000000, 220.000000)">
                <polygon id="路径" points="0 0 24 0 24 24 0 24"></polygon>
                <path d="M12,15 L10,15 C7.21070212,14.9989351 4.61272793,16.2880533 2.92457281,18.4336245 C2.9209332,18.4382502 2.91727398,18.4429223 2.91359514,18.4476408 L2.9135882,18.4476353 C2.74730102,18.6609121 2.43960367,18.6990047 2.22632692,18.5327175 C2.09523525,18.4305082 2.0249471,18.2687742 2.0396619,18.1031987 C2.0396619,18.1031987 2.0396619,18.1031987 2.0396619,18.1031987 C2.49315183,13.0003883 6.77925389,9 12,9 L12,7.69223959 C12,6.58767009 12.8954305,5.69223959 14,5.69223959 C14.4581093,5.69223959 14.9023335,5.84950834 15.2583966,6.13774993 L20.579747,10.4455103 C21.4382679,11.1405036 21.5708333,12.3998756 20.8758401,13.2583966 C20.7877749,13.367183 20.6885334,13.4664245 20.579747,13.5544897 L15.2583966,17.8622501 C14.3998756,18.5572433 13.1405036,18.4246779 12.4455103,17.566157 C12.1572688,17.2100939 12,16.7658697 12,16.3077604 L12,15 L12,15 Z M10,13 L14,13 L14,15.679116 C14,15.8448014 14.1343146,15.979116 14.3,15.979116 C14.3687225,15.979116 14.4353617,15.9555215 14.4887733,15.9122782 L18.3610369,12.7772075 C18.7902768,12.4296853 18.8565221,11.7999954 18.5089999,11.3707556 C18.4649891,11.3163958 18.4153967,11.2668034 18.3610369,11.2227925 L14.4887733,8.08772177 C14.3600014,7.98346513 14.1710944,8.00333872 14.0668378,8.13211067 C14.0235945,8.18552232 14,8.25216149 14,8.320884 L14,11 L14,11 L12,11 C10.246008,10.9980294 8.55718298,11.5730726 7.18157433,12.6115682 C6.88215875,12.8376076 6.46930064,13.2247515 5.943,13.773 C6.67855375,13.5150118 7.23597462,13.3440126 7.61526262,13.2600026 C8.39660485,13.08694 9.196228,12.9993749 10,13 Z" id="形状" fill="#5D6E7F" fill-rule="nonzero"></path>
            </g>
        </g>
    </g>
</svg>