<?xml version="1.0" encoding="UTF-8"?>
<svg width="24px" height="24px" viewBox="0 0 24 24" version="1.1" xmlns="http://www.w3.org/2000/svg" xmlns:xlink="http://www.w3.org/1999/xlink">
    <title>禁止语音</title>
    <g id="2.0" stroke="none" stroke-width="1" fill="none" fill-rule="evenodd">
        <g id="通用基础-删格" transform="translate(-496.000000, -352.000000)">
            <g id="禁止语音" transform="translate(496.000000, 352.000000)">
                <polygon id="路径" points="0 0 24 0 24 24 0 24"></polygon>
                <path d="M3.51546427,2.1005 L3.51548213,2.10051787 L21.8997678,20.4857321 C22.2601974,20.8461799 22.2879091,21.4133404 21.9829126,21.8055746 L21.8995,21.9 L21.8995,21.9 C21.5087301,22.2904937 20.875415,22.2903486 20.4848241,21.8996758 L16.425,17.839 C15.3701054,18.4360165 14.2048334,18.8123058 13,18.945 L13,22 C13,22.5522847 12.5522847,23 12,23 C11.4477153,23 11,22.5522847 11,22 L11,18.945 C7.26173496,18.5259831 4.22819215,15.8421956 3.29503468,12.2893007 C3.27578228,12.2159993 3.2560647,12.1322881 3.23588193,12.0381671 C3.1213045,11.5036652 3.46168465,10.9774592 3.99617876,10.8628453 C4.01694674,10.8583919 4.03785268,10.8546082 4.05886411,10.8515 C4.59809624,10.7717323 5.10457526,11.130561 5.20811363,11.6657376 C5.22748557,11.7658457 5.24581166,11.8464093 5.26309191,11.9074285 C5.77367877,13.7103898 6.99161131,15.2480707 8.66142139,16.1538623 C10.6052531,17.2082975 12.9329598,17.2824961 14.94,16.354 L13.389,14.804 C11.8789593,15.2406774 10.2514713,14.9418131 8.99509827,13.9971244 C7.73872519,13.0524357 6.99974681,11.5719129 7,10 L7,8.414 L2.10056309,3.5154369 C1.70982164,3.12476513 1.70976514,2.49130455 2.10043691,2.10056309 L2.1005,2.1005 C2.49123159,1.70976841 3.12473267,1.70976841 3.51546427,2.1005 Z M9.033,10.447 C9.22960306,11.7486736 10.2513264,12.7703969 11.553,12.967 L11.553,12.967 Z M18.0753495,13.6368614 C18.1720947,13.3553523 18.2323299,13.1910521 18.2560553,13.1439609 C18.4632341,12.7327419 18.6309049,12.2984802 18.7542277,11.845796 C18.7650107,11.8062143 18.774099,11.7591608 18.7814926,11.7046355 C18.8507769,11.1935714 19.2871348,10.8123897 19.8028739,10.8123897 L19.9720258,10.8123897 C20.4452529,10.8123958 20.8288792,11.1960221 20.8288792,11.6692491 C20.8288792,11.7279564 20.8228458,11.7865083 20.8108739,11.8439819 C20.8108739,11.8439819 20.8108739,11.8439819 20.8108739,11.8439819 C20.6218881,12.7512555 20.2931056,13.6237291 19.8363544,14.4300623 C19.8363544,14.4300623 19.8363544,14.4300623 19.8363544,14.4300623 C19.5723566,14.8961154 18.9805333,15.0599135 18.5144803,14.7959156 C18.1080885,14.5657131 17.9234979,14.0785497 18.0752974,13.6368435 Z M15,10 L15,6 C15.0014496,4.54414914 13.9574389,3.29739398 12.523964,3.04312342 C11.3362431,2.83244484 10.1652383,3.3535113 9.51458786,4.31624131 C9.51458786,4.31624131 9.51458786,4.31624131 9.51458786,4.31624131 C9.22290034,4.74783458 8.63656541,4.8612506 8.20497214,4.56956308 C7.82062535,4.30980656 7.68222145,3.80913248 7.8785811,3.3888483 C8.06237852,2.99533204 8.19070486,2.75762405 8.26351408,2.67570284 C9.50506494,1.2787733 11.453458,0.669286554 13.3101945,1.17344016 C15.4886228,1.76494168 17.0005748,3.74269549 17.0000025,6 L17.0000025,10 C17.0000025,10 17.0000025,10 17.0000025,10 C17.0008177,10.5463689 16.558559,10.9899493 16.0121901,10.9907645 C15.5682407,10.9914269 15.1782153,10.6962646 15.0582365,10.2688344 C15.0194206,10.1304532 15,10.0408441 15,10 Z" id="形状" fill="#5D6E7F" fill-rule="nonzero"></path>
            </g>
        </g>
    </g>
</svg>