<svg id="图层_1" data-name="图层 1" xmlns="http://www.w3.org/2000/svg" viewBox="0 0 300 300"><defs><style>.cls-1,.cls-9{fill:#fff;}.cls-1,.cls-3,.cls-5,.cls-8{fill-rule:evenodd;}.cls-2{fill:#a1a9ad;}.cls-3{fill:#0569ff;}.cls-4{fill:#034fd2;}.cls-5{fill:#e4e4e3;}.cls-6{fill:#e7baba;}.cls-7{fill:#db9796;}.cls-8{fill:#24304a;}.cls-10{fill:#e89b82;}.cls-11{fill:#e9ecee;}.cls-12{fill:#bedbf3;}.cls-13{fill:#c8e6f8;}</style></defs><path class="cls-1" d="M124.88,196.82s-8.42,16.74,13.8,29.35l6.57-4.1-5.92-25.25Z"/><path class="cls-2" d="M138.68,226.46l-.13-.08c-6.38-3.62-14.23-10-15.35-19.59a19.22,19.22,0,0,1,1.45-10.09l.07-.14h14.81l6,25.63ZM125,197.06c-.72,1.63-6.89,17.08,13.63,28.82L145,222l-5.83-24.89Z"/><path class="cls-1" d="M196.32,205.7s8.68,5.66,11.13,8.42c0,0,4.43,4,3.29,6.26s3.78,10,11.19,3.08-9.3-26.63-21.15-35.57l-5.6-1.54L192.26,201l4.06,4.69Z"/><path class="cls-2" d="M216.1,226.51a5.59,5.59,0,0,1-3.36-1.11c-2-1.48-2.82-3.93-2.22-5.13,1-2.11-3.2-5.93-3.24-6-2.41-2.72-11-8.34-11.1-8.39l-.05,0L192,201.08,195,186l5.94,1.66c9.37,7.07,22.6,21.68,23.07,30.72a6.34,6.34,0,0,1-1.9,5.23C219.74,225.85,217.7,226.51,216.1,226.51Zm-19.61-21c.64.42,8.75,5.74,11.14,8.44.17.15,4.54,4.09,3.33,6.54-.48,1,.34,3.21,2.08,4.51,1.43,1.06,4.46,2.25,8.72-1.73a5.85,5.85,0,0,0,1.74-4.84c-.46-8.87-13.54-23.29-22.83-30.32l-5.29-1.45-2.85,14.28Z"/><path class="cls-1" d="M138.38,227.82s3.15,28.78,5.25,30.71c0,0-7.35,5.28-6.57,10.24,3.57,2.56,10.52.39,13.8,0,2.54-.3,8.43.19,9.2-4.77s0-21.85,0-21.85,5.93-12.93,11.83-.68c0,0-.56,13.36,2,17.75,0,0-4.47,6.84.66,8.87s18.4.68,18.4.68,2.51-2.62.65-5.46a8,8,0,0,0-4.6-3.41s6.53-2.12,5.92-31.4l-5.26-6.83L139,223.72l-.65,4.1Z"/><path class="cls-2" d="M141.89,270.25a8.5,8.5,0,0,1-5-1.27l-.09-.06v-.11c-.73-4.64,5.22-9.39,6.46-10.32-2.14-3.31-5-29.5-5.15-30.64v-.07l.69-4.3h.2l50.73-2.05,5.38,7v.09c.51,24.51-4,30.11-5.55,31.32a8.45,8.45,0,0,1,4.19,3.36c1.95,3-.66,5.74-.68,5.77L193,269h-.09c-.54.06-13.4,1.33-18.52-.7A3.81,3.81,0,0,1,172,265.9c-.83-2.6,1.12-6,1.56-6.69-2.39-4.41-2-16.58-1.93-17.69-1.64-3.37-3.4-5.07-5.25-5.07h0c-3.2,0-5.77,5.17-6.05,5.75.06,1.3.75,17,0,21.83-.69,4.44-5.34,4.72-8.12,4.89-.49,0-.93.06-1.3.1-.68.08-1.51.24-2.48.42A36.21,36.21,0,0,1,141.89,270.25Zm-4.6-1.62c2.75,1.88,7.53,1,11,.32,1-.18,1.81-.34,2.51-.42.38,0,.83-.08,1.33-.11,2.8-.17,7-.42,7.65-4.46.76-4.89,0-21.63,0-21.8v-.06l0,0c.12-.25,2.83-6.07,6.53-6.1h0c2.07,0,4,1.82,5.72,5.41l0,.06v.06c0,.13-.53,13.33,1.94,17.61l.07.14-.08.12s-2.42,3.77-1.59,6.4a3.38,3.38,0,0,0,2.13,2.11c4.78,1.89,17,.79,18.18.67a4.19,4.19,0,0,0,.57-5.08,7.74,7.74,0,0,0-4.44-3.3L188,260l.9-.29c.06,0,6.33-2.56,5.74-31.07l-5.13-6.66-50.26,2-.62,3.86c.88,8,3.51,29,5.17,30.53l.23.21-.25.18C143.71,258.79,136.66,263.9,137.29,268.63Z"/><path class="cls-3" d="M137.06,183.45l-13.14,12.29s-.45,2.54.66,3.41,8,7.26,9.85,8.19,3.68,1.65,4.6,1.37c0,0-3.32,14.57-1.31,17.74s8.71,3.84,13.8,4.1,44.07.33,44.68-2.73c1.15-5.82-2.8-22.34-3.28-23.89,0,0,3.28,3.55,5.25,4.09s2.33.35,3.29,0,8.3-5.17,10.51-8.87c.65-1.93-1.31-4.1-1.31-4.1s-11-9.42-16.43-10.92-16.43-7.51-16.43-7.51l-40.74,6.83Z"/><path class="cls-4" d="M139,208.71l-2-.69,6.57-10.92L139,208.71Zm53.23-4.78c-.81-.63-4.6-6.83-4.6-6.83.79,1.15,5.91,6.14,5.91,6.14l-1.31.69Z"/><path class="cls-1" d="M257.07,135l-6.28-79.59c12.4,8.92,21.8,26.06,21.8,46.26,0,17.15-6.07,27.58-15.52,33.33Z"/><path class="cls-2" d="M256.85,135.39l0-.41L250.5,54.85l.43.32c13.52,9.72,21.91,27.52,21.91,46.46,0,15.93-5.26,27.22-15.64,33.55ZM251.08,55.9l6.2,78.64c10-6.27,15.06-17.34,15.06-32.91C272.34,83.05,264.21,65.59,251.08,55.9Z"/><path class="cls-5" d="M257.19,123.9l-7.95-70.65c11.11,8.27,19.48,23.77,19.48,42,0,14-4.43,23.11-11.53,28.66Z"/><path class="cls-1" d="M70.14,134.89l5.7-79.37c-12.28,9-21.52,26.12-21.38,46.25.12,17.1,6.23,27.45,15.68,33.12Z"/><path class="cls-2" d="M70.36,135.32l-.35-.21c-10.38-6.23-15.69-17.45-15.8-33.33-.13-18.88,8.1-36.68,21.48-46.46l.44-.32ZM75.55,56c-13,9.76-21,27.22-20.84,45.73.11,15.52,5.22,26.52,15.21,32.7Z"/><path class="cls-5" d="M69.94,123.87,77.37,53.4c-11,8.31-19.23,23.82-19.1,42,.1,14,4.57,23,11.67,28.49Z"/><path class="cls-1" d="M163.64,10c55.89,0,101.2,42,101.2,92.6s-45.31,81-101.2,81-101.2-30.36-101.2-81S107.75,10,163.64,10Z"/><path class="cls-2" d="M163.64,183.81c-27.95,0-53.42-7.66-71.71-21.56-19.46-14.78-29.74-35.41-29.74-59.65,0-24.61,10.55-47.86,29.72-65.46s44.7-27.39,71.73-27.39,52.5,9.73,71.73,27.39S265.09,78,265.09,102.6c0,24.24-10.28,44.87-29.74,59.65C217.06,176.15,191.59,183.81,163.64,183.81Zm0-173.56c-26.91,0-52.26,9.68-71.39,27.26S62.69,78.13,62.69,102.6c0,24.08,10.21,44.57,29.54,59.26,18.21,13.83,43.57,21.45,71.41,21.45s53.2-7.62,71.41-21.45c19.33-14.69,29.54-35.18,29.54-59.26,0-24.47-10.5-47.58-29.56-65.09S190.54,10.25,163.64,10.25Z"/><path class="cls-6" d="M136.75,117.76c0,1.78-5.59,3.26-13,3.56-.91,0-1.84.06-2.8.06h-.06c-1.51,0-3,0-4.36-.15-.94-.06-1.84-.14-2.69-.24-5.13-.59-8.65-1.82-8.65-3.23,0-1.76,5.47-3.22,12.73-3.55.93,0,1.88-.06,2.87-.07H121c1.46,0,2.87,0,4.21.14.93,0,1.83.13,2.69.23C133.14,115.1,136.75,116.33,136.75,117.76Z"/><path class="cls-6" d="M224.09,117.76c0,1.78-5.61,3.27-13,3.56-.9,0-1.83.06-2.77.06h-.09c-1.52,0-3,0-4.36-.15-.94-.06-1.84-.14-2.69-.24-5.12-.6-8.62-1.82-8.62-3.23,0-1.76,5.46-3.22,12.7-3.55.93,0,1.88-.06,2.87-.07h.19c1.45,0,2.85,0,4.18.13.93.06,1.83.14,2.69.23C220.46,115.09,224.09,116.33,224.09,117.76Z"/><path class="cls-7" d="M120.83,114.14l-4.26,7.09c-.94-.06-1.84-.14-2.69-.24l4.08-6.78C118.89,114.17,119.84,114.15,120.83,114.14Z"/><path class="cls-7" d="M127.89,114.51l-4.1,6.81c-.91,0-1.84.06-2.8.06h-.06l4.27-7.1C126.13,114.33,127,114.41,127.89,114.51Z"/><path class="cls-7" d="M208.14,114.14l-4.26,7.09c-.94-.06-1.84-.14-2.69-.24l4.08-6.78Z"/><path class="cls-7" d="M215.2,114.5l-4.1,6.82c-.9,0-1.83.06-2.77.06h-.09l4.27-7.11C213.44,114.33,214.34,114.41,215.2,114.5Z"/><path class="cls-8" d="M165.09,17.76c49.21,0,95.16,46.62,88.13,90.66-3.14,19.67-38.92-6.31-88.13-6.31S76,158.48,76,108.42s39.89-90.66,89.1-90.66Z"/><path class="cls-9" d="M227.86,54.22l-.55.81a1.86,1.86,0,0,1-2.94.36C215.06,45.87,205.1,38,193.45,34.23a1.62,1.62,0,0,1-.64-2.62l.54-.8a3.57,3.57,0,0,1,3.72-1.29c13.62,4.4,22.56,12.51,30.75,21.21a3,3,0,0,1,0,3.49Zm3.67,9a3.39,3.39,0,1,1,3-3.76,3.39,3.39,0,0,1-3,3.76Z"/><path class="cls-9" d="M225.89,88.66l-.73.72a3.45,3.45,0,0,1-4.88.2L204.87,74.15a3.47,3.47,0,0,1,.19-4.89l.73-.73a3.45,3.45,0,0,1,4.88-.19l15.41,15.43a3.48,3.48,0,0,1-.19,4.89ZM211.23,74.44,195.55,90.13a3.51,3.51,0,0,1-5-.2l-.74-.74a3.52,3.52,0,0,1-.2-5l15.68-15.69a3.51,3.51,0,0,1,5,.19l.74.74a3.53,3.53,0,0,1,.2,5Zm-88.69-.17L107.25,89.59a3.44,3.44,0,0,1-4.85-.19l-.72-.73a3.44,3.44,0,0,1-.19-4.85l15.29-15.33a3.44,3.44,0,0,1,4.85.2l.72.72a3.45,3.45,0,0,1,.19,4.86Zm14.9,14.94-.73.73a3.49,3.49,0,0,1-4.93.2L116.23,74.55a3.51,3.51,0,0,1,.19-4.94l.73-.73a3.49,3.49,0,0,1,4.93-.2l15.56,15.59a3.51,3.51,0,0,1-.2,4.94Z"/><path class="cls-1" d="M155.42,205.62v.12c-12.48,3.25-6.27,14.77,3.27,13.26l1.06,3.46c-8.05-.06-14.35-4.88-14.71-9.54s3.79-8.24,9.29-8.34c-3.16-14,26.35-14,22.83,0,5.49.1,9.64,3.68,9.28,8.34s-6.66,9.48-14.71,9.54L172.8,219c8,1.12,17.87-11.58,3.26-13.26v-.12C176,194.6,155.42,194.61,155.42,205.62Z"/><path class="cls-1" d="M162.73,223.34c-.89-9.14,9.23-3.72,10.75-11.5.63-3.22,0-6.66-3-8.48-4.45-2.29-11.9-.31-11.29,6.2s9.63,4.06,8.81.11c-1.29,1.73-3.9,2.37-5.12,1.45-2.77-2.08.45-6.64,4.73-5.57,2.81.7,2.62,2.4,2.83,4.44.41,4.07-3.51,4.34-7.14,6C158.82,218.07,162.73,223.34,162.73,223.34Z"/><path class="cls-1" d="M167.31,219.06a2.27,2.27,0,1,1-2.27,2.27A2.28,2.28,0,0,1,167.31,219.06Z"/><g id="nose"><path class="cls-10" d="M171.21,115.79A31.43,31.43,0,0,1,160.62,114c-1.22-.44-2.46.57-1.87,1.52a14.84,14.84,0,0,0,24.92,0c.59-1-.66-2-1.88-1.52A31.37,31.37,0,0,1,171.21,115.79Z"/></g><path class="cls-11" d="M113.12,172.33a1,1,0,0,1-.84-.45c-2.88-4.35-12.37-10.71-20-15.82-3.82-2.57-7.12-4.78-8.9-6.28l-2.21-1.87c-6.61-5.57-10.25-8.65-11.94-12.62a1,1,0,0,1,.53-1.31,1,1,0,0,1,1.31.52c1.5,3.54,5,6.5,11.39,11.88l2.22,1.87c1.69,1.43,4.94,3.62,8.72,6.14,7.78,5.21,17.46,11.7,20.56,16.39a1,1,0,0,1-.28,1.38A.94.94,0,0,1,113.12,172.33Z"/><path class="cls-11" d="M109.72,114.06a1,1,0,0,1-1-.71c-.82-2.71-4-5.37-8-8.74-10-8.36-25.07-21-24.37-51.24a1,1,0,0,1,2,.05C77.69,82.71,92.33,95,102,103.07c4.28,3.59,7.66,6.42,8.66,9.7A1,1,0,0,1,110,114,.92.92,0,0,1,109.72,114.06Z"/><path class="cls-11" d="M223.06,170.86a1,1,0,0,1-.83-1.55c2.57-3.89,7.71-8.1,12.69-12.17,3.94-3.23,7.67-6.28,9.91-9,3.34-4,6-6.83,8-8.9,3.18-3.35,4.62-4.88,4.6-6.72a1,1,0,0,1,1-1h0a1,1,0,0,1,1,1c0,2.66-1.7,4.48-5.14,8.13-1.94,2-4.6,4.85-7.89,8.8-2.37,2.83-6.16,5.94-10.18,9.23-4.86,4-9.89,8.1-12.29,11.73A1,1,0,0,1,223.06,170.86Z"/><path class="cls-11" d="M226.46,112.6a.93.93,0,0,1-.29,0,1,1,0,0,1-.67-1.25c.95-3.12,4.09-6.67,8.05-11.17,9.5-10.76,22.51-25.5,15.07-45.64a1,1,0,0,1,.59-1.29,1,1,0,0,1,1.29.6c7.85,21.26-6.17,37.14-15.45,47.66-3.65,4.14-6.81,7.72-7.64,10.43A1,1,0,0,1,226.46,112.6Z"/><path class="cls-12" d="M231.84,140c-.67,9.1.8,18,2.58,26.73.9,4.43-.85,6-3.93,7.19a179.94,179.94,0,0,1-47.18,11.71c-21.1,2.26-41.75-.6-62.1-7-5.14-1.61-10.17-3.71-15.28-5.47-2.61-.91-3.32-2.56-2.71-5.69A122.28,122.28,0,0,0,105.16,144c.31-10.46.06-20.87-2.1-31.1-.58-2.75-.48-5,2.38-6,13.83-4.51,27.14-11,41.22-14.51,20.5-5.18,40.53-2.81,60.25,4.87,7.91,3.09,15.81,6.25,23.83,8.87,3.81,1.24,5.12,2.77,4,7.55C233.14,120.4,231.84,139.42,231.84,140Z"/><path class="cls-13" d="M228.15,139.9c-.64,8.57.75,16.91,2.42,25.16.85,4.17-.8,5.63-3.69,6.77a169.64,169.64,0,0,1-44.41,11c-19.87,2.12-39.3-.57-58.46-6.58-4.84-1.52-9.57-3.5-14.38-5.16-2.46-.85-3.12-2.4-2.55-5.35a115.21,115.21,0,0,0,1.83-22.13c.29-9.84,0-19.64-2-29.27-.55-2.59-.45-4.74,2.24-5.62,13-4.23,25.55-10.3,38.8-13.65,19.3-4.88,38.14-2.64,56.71,4.59,7.44,2.9,14.88,5.87,22.43,8.34,3.58,1.17,4.82,2.61,3.75,7.11C229.37,121.43,228.15,139.34,228.15,139.9Z"/><path class="cls-9" d="M114.85,146.09c-2,.06-3.56.62-3.67,3.45-.11,2.61,1.09,3.78,3.09,4.3,1.26.33,2.5.74,3.76,1.09l22.89,6.38c-1.2,1.41-2.42,1-3.46.78-7.67-1.47-15.47,0-23.15-1.47-2.58-.5-4.41.59-5,4s1.09,4.25,3.11,5.11c12.65,5.38,25.79,8.46,39.11,10.4,15.2,2.21,30.37,1.08,45.45-1.72a153.91,153.91,0,0,0,28.8-8.57c2.29-.92,3.24-2.54,2.64-5.48-.53-2.58-1.53-4.18-3.94-3.67-7.4,1.55-15-.16-22.37,1.44-1.22.26-2.68.57-4.15-1.05,1.66-.52,2.88-.92,4.11-1.28,7.12-2.09,14.25-4.14,21.37-6.25a3.9,3.9,0,0,0,3-4.47c-.19-2.68-1.89-2.83-3.62-2.95l-27-3.58c8.8-2.22,17.68-2.59,26.51-3.55,2.41-.26,4.17-1.08,4.26-4.49.09-3.15-.67-5.15-3.59-5.7-1.9-.36-3.76-1-5.64-1.57l-20.09-5.84a15.15,15.15,0,0,1,5.68-.63c7,.39,13.9.74,20.83,1.32,3.85.32,4.33-2.61,4.93-5.81.65-3.41-.39-5.35-3.26-6.39-9.72-3.5-19.37-7.27-29.12-10.64-13.17-4.53-26.63-5.18-40.21-3.33-15.13,2.06-29,9.29-43.48,14-4.06,1.34-3.62,4.32-3.16,8,.49,4,2.62,4.26,5.25,4.07,1.29-.09,2.57-.24,3.86-.37,7.28-.75,14.6,0,21.93-1a5.27,5.27,0,0,1-2.37,1.35c-7.87,2.28-15.72,4.67-23.63,6.73-3,.79-3.43,2.84-3.37,5.84.06,3.15,1.64,4.1,3.93,4.34,3.72.39,7.47.57,11.16,1.14,4.76.72,9.64.37,14.29,2.54Z"/></svg>