<svg id="图层_1" data-name="图层 1" xmlns="http://www.w3.org/2000/svg" viewBox="0 0 300 300"><defs><style>.cls-1,.cls-9{fill:#fff;}.cls-1,.cls-3,.cls-5,.cls-8{fill-rule:evenodd;}.cls-2{fill:#728da3;}.cls-3{fill:#0569ff;}.cls-4{fill:#034fd2;}.cls-5{fill:#e4e3e3;}.cls-6{fill:#e7bab9;}.cls-7{fill:#db9696;}.cls-8{fill:#23304a;}.cls-10{fill:#da4a4a;}.cls-11{fill:#7c6b6a;}.cls-12{fill:#fc6868;}.cls-13{opacity:0.8;}.cls-13,.cls-15,.cls-18{isolation:isolate;}.cls-14{fill:#a1b8c7;}.cls-15{opacity:0.33;}.cls-16{fill:#3e4347;}.cls-17{fill:#fed0ac;}.cls-18{opacity:0.5;}.cls-19{fill:#42ade2;}</style></defs><path class="cls-1" d="M120.1,216.1s-4.72,8.2-4.75,12c0,0,2.18,6.14,4.61,7.15s2,10-8.39,9.69-10-24.66-6.91-39.59l4-3.65,11.42,8,0,6.37Z"/><path class="cls-2" d="M112.12,245.19h-.56a6.54,6.54,0,0,1-5-2.71c-5.06-6.43-4.86-23.95-2.11-37.18v-.08l4.21-3.84,11.69,8.23,0,6.57,0,.06c0,.08-4.66,8.12-4.72,11.81.19.54,2.26,6.06,4.46,7,1.12.47,1.65,2.29,1.23,4.23C120.66,242.15,117.92,245.19,112.12,245.19Zm-7.23-39.72c-2.71,13.11-2.92,30.4,2,36.69a6.06,6.06,0,0,0,4.66,2.52c7.36.24,8.92-4.18,9.22-5.54.36-1.66-.06-3.3-.93-3.66-2.51-1-4.67-7.06-4.76-7.31v-.09c0-3.67,4.29-11.24,4.75-12l0-6.18L108.68,202Z"/><path class="cls-1" d="M171.07,200c3.06,1.29,19.28,3.13,22.73,3.51,0,0,5.46,2.05,6.57-.28s11.7-2.61,10.57,7.72c-.33,3.07-2.33,8.33-10.34,5.87-11.26,2.62-31-.23-40.37-3.38L156,209.68l9.5-11.27,5.62,1.56Z"/><path class="cls-2" d="M189.69,218.08c-10.62,0-22.85-2.19-29.54-4.43l-.09-.05-4.46-3.9,9.76-11.57,5.8,1.61c3.14,1.32,20.67,3.27,22.66,3.49,1.52.56,5.5,1.61,6.33-.14.63-1.32,3.47-1.87,6-1.16,1.77.5,5.8,2.39,5.07,9a7.74,7.74,0,0,1-3.06,5.7c-1.86,1.22-4.39,1.35-7.54.39A49.63,49.63,0,0,1,189.69,218.08Zm-29.34-4.89c9.19,3.07,28.74,6,40.19,3.35h.07l.06,0c3,.93,5.45.82,7.18-.32,2.12-1.39,2.69-3.94,2.85-5.33.68-6.26-3.07-8-4.72-8.49-2.42-.68-4.92-.07-5.38.9-1.2,2.51-6.66.49-6.89.4-3.19-.34-19.56-2.19-22.73-3.5l-5.45-1.51-9.23,11Z"/><path class="cls-1" d="M115.94,241.58s-1.41,26.79.75,28.78c0,0-7.53,5.42-6.73,10.52,3.65,2.63,10.77.4,14.12,0,2.6-.31,8.63.2,9.42-4.91s4.63-19.66,4.63-19.66,4.05-8.86,8.82-5.26a5.2,5.2,0,0,1,.84,7.37c-2.42,3.05-5.55,7.87-3.88,10.78,0,0-4.57,7,.68,9.12s18.83.7,18.83.7,2.57-2.69.67-5.61a8.19,8.19,0,0,0-4.71-3.51s15,2.48,14.39-27.62l-5.38-7-51.78,2.1-.67,4.21Z"/><path class="cls-2" d="M114.91,282.52a8.77,8.77,0,0,1-5.17-1.33l-.13-.09,0-.16c-.74-4.74,5.17-9.58,6.58-10.67-1.86-3.64-.75-26.06-.61-28.71v0l.72-4.51,52.28-2.12,5.57,7.26v.13c.26,12.53-2.1,21.06-7,25.33a10.85,10.85,0,0,1-5.85,2.66,8.9,8.9,0,0,1,3.13,2.94c2,3.13-.69,6-.71,6.07l-.1.1-.14,0c-.56.05-13.74,1.36-19-.73a4,4,0,0,1-2.54-2.56c-.85-2.66,1.06-6.08,1.57-6.92-1.5-3,1.34-7.63,4-11a5,5,0,0,0,1-3.69,4.7,4.7,0,0,0-1.81-3.15,3.29,3.29,0,0,0-2.88-.69c-3,.77-5.35,5.76-5.37,5.81S134.64,271,133.87,276c-.72,4.65-5.54,5-8.42,5.12-.5,0-1,.06-1.32.1-.7.09-1.54.25-2.53.43A37.07,37.07,0,0,1,114.91,282.52Zm-4.6-1.85c2.78,1.86,7.61.94,11.15.28,1-.19,1.86-.35,2.58-.44.39-.05.85-.07,1.36-.11,2.83-.17,7.1-.43,7.73-4.49.78-5.06,4.6-19.55,4.64-19.69s2.5-5.43,5.89-6.28a4,4,0,0,1,3.51.81,5.38,5.38,0,0,1,2.1,3.65,5.74,5.74,0,0,1-1.19,4.26c-2.12,2.67-5.44,7.56-3.84,10.35l.11.2-.12.2s-2.45,3.82-1.61,6.47a3.31,3.31,0,0,0,2.1,2.09c4.82,1.92,17,.83,18.51.69a4.18,4.18,0,0,0,.54-5,7.85,7.85,0,0,0-4.47-3.35l.14-.74a9.55,9.55,0,0,0,7.21-2.51c3.25-2.82,7-9.39,6.75-24.61l-5.19-6.76-51.28,2.09-.62,3.88c-.54,10.29-.84,27.1.63,28.46l.34.32-.38.26C116.83,270.72,109.73,275.9,110.31,280.67Z"/><path class="cls-3" d="M126.68,195.24s-10.63.61-18.88,5.9c-2.42,1.51-7.86,8.37-6.72,9.26s8.89,9.18,10.82,10.14,3.76,1.7,4.71,1.4c0,0-3.4,15-1.34,18.24s8.91,3.94,14.12,4.21,45.11.34,45.73-2.81c1.17-6-2.87-23-3.37-24.55a46.44,46.44,0,0,0,5.59,2.28,7.26,7.26,0,0,0,4.44,0c1-.36,6.66-11.43,8.92-15.23a3.56,3.56,0,0,0-1.34-4.21c-3.72-2-10.39-5.32-16.07-5.18s-16.69-.83-16.69-.83l-30.11,1.24Z"/><path class="cls-4" d="M116.61,221.94l-2-.7L121.32,210l-4.71,11.93ZM171.08,217c-.83-.64-4.71-7-4.71-7,.82,1.19,6.06,6.32,6.06,6.32l-1.35.7Z"/><path class="cls-1" d="M237.41,146.16,231,64.36c12.69,9.17,22.32,26.78,22.32,47.54,0,17.63-6.22,28.34-15.89,34.26Z"/><path class="cls-2" d="M237.19,146.58l0-.4-6.47-82.34.44.32c13.83,10,22.42,28.28,22.42,47.74,0,16.37-5.39,28-16,34.47Zm-5.92-81.69,6.35,80.84c10.24-6.44,15.43-17.82,15.43-33.83C253.05,92.8,244.72,74.85,231.27,64.89Z"/><path class="cls-5" d="M237.71,136.09l-8.14-72.6c11.37,8.5,19.93,24.43,19.93,43.15,0,14.39-4.53,23.75-11.79,29.45Z"/><path class="cls-1" d="M47,146.09l5.83-81.58c-12.57,9.23-22,26.85-21.88,47.54.12,17.57,6.38,28.21,16.05,34Z"/><path class="cls-2" d="M47.25,146.51l-.35-.21c-10.62-6.4-16.06-17.93-16.17-34.25-.13-19.4,8.29-37.69,22-47.74l.44-.32,0,.54ZM52.57,65c-13.3,10-21.47,28-21.34,47,.11,16,5.35,27.26,15.58,33.61Z"/><path class="cls-5" d="M45.33,138.07l7.61-72.42c-11.27,8.54-19.68,24.48-19.55,43.14.1,14.35,4.67,23.65,11.94,29.28Z"/><path class="cls-1" d="M141.79,17.73c57.2,0,103.58,43.16,103.58,95.16S199,196.1,141.79,196.1,38.22,164.9,38.22,112.89,84.59,17.73,141.79,17.73Z"/><path class="cls-2" d="M141.79,196.35c-28.6,0-54.66-7.87-73.39-22.15C48.49,159,38,137.81,38,112.89c0-25.28,10.8-49.17,30.42-67.26s45.74-28.15,73.4-28.15,53.73,10,73.41,28.15,30.42,42,30.42,67.26c0,24.92-10.53,46.12-30.44,61.31C196.46,188.48,170.4,196.35,141.79,196.35Zm0-178.37c-27.53,0-53.48,10-73.07,28s-30.25,41.76-30.25,66.9c0,24.76,10.45,45.82,30.24,60.91,18.63,14.22,44.59,22,73.08,22s54.45-7.83,73.09-22c19.78-15.09,30.24-36.15,30.24-60.91,0-25.14-10.75-48.9-30.26-66.9S169.33,18,141.79,18Z"/><path class="cls-6" d="M114.28,128.48c0,1.83-5.72,3.35-13.27,3.66-.93,0-1.88.06-2.86.06h-.07c-1.55,0-3-.06-4.46-.16-1-.06-1.88-.14-2.75-.24-5.26-.61-8.86-1.87-8.86-3.32,0-1.81,5.6-3.32,13-3.65.95,0,1.93-.06,2.94-.07h.17c1.49,0,2.93,0,4.3.14,1,.06,1.88.14,2.75.23C110.58,125.74,114.28,127,114.28,128.48Z"/><path class="cls-6" d="M203.66,128.48c0,1.83-5.74,3.35-13.3,3.66-.92,0-1.87.06-2.83.06h-.1c-1.55,0-3-.06-4.46-.16-.95-.06-1.87-.14-2.74-.25-5.25-.61-8.83-1.87-8.83-3.31,0-1.81,5.59-3.32,13-3.65.95,0,1.93-.06,2.93-.07h.2c1.48,0,2.91,0,4.27.13q1.44.09,2.76.24C200,125.73,203.66,127,203.66,128.48Z"/><path class="cls-7" d="M98,124.76,93.62,132c-1-.06-1.88-.14-2.75-.24l4.17-7C96,124.79,97,124.77,98,124.76Z"/><path class="cls-7" d="M105.2,125.13l-4.19,7c-.93,0-1.88.06-2.86.06h-.07l4.37-7.3C103.41,125,104.33,125,105.2,125.13Z"/><path class="cls-7" d="M187.33,124.76,183,132c-.95-.06-1.87-.14-2.74-.25l4.17-7Z"/><path class="cls-7" d="M194.56,125.13l-4.2,7c-.92,0-1.87.06-2.83.06h-.1l4.37-7.31Q193.24,125,194.56,125.13Z"/><path class="cls-8" d="M143.28,25.7c50.36,0,97.38,47.92,90.19,93.17-3.21,20.22-39.83-6.47-90.19-6.47S52.1,170.33,52.1,118.87,92.92,25.7,143.28,25.7Z"/><path class="cls-9" d="M207.51,63.18,207,64a1.9,1.9,0,0,1-3,.37c-9.53-9.78-19.73-17.83-31.65-21.75a1.67,1.67,0,0,1-.66-2.69l.56-.82A3.65,3.65,0,0,1,176,37.79c13.93,4.53,23.09,12.85,31.47,21.8a3.08,3.08,0,0,1,0,3.59Zm3.77,9.29a3.49,3.49,0,1,1,3-3.87,3.47,3.47,0,0,1-3,3.87Z"/><path class="cls-9" d="M205.5,98.57l-.75.74a3.52,3.52,0,0,1-5,.2L184,83.66a3.59,3.59,0,0,1,.2-5l.75-.74a3.51,3.51,0,0,1,5-.2l15.77,15.85a3.58,3.58,0,0,1-.19,5ZM190.5,84l-16,16.13a3.6,3.6,0,0,1-5.09-.2l-.75-.76a3.64,3.64,0,0,1-.21-5.11l16.05-16.13a3.58,3.58,0,0,1,5.08.2l.75.76A3.63,3.63,0,0,1,190.5,84Zm-90.77-.17L84.08,99.52a3.5,3.5,0,0,1-5-.19l-.73-.74a3.55,3.55,0,0,1-.2-5L93.84,77.85a3.5,3.5,0,0,1,5,.19l.73.75a3.54,3.54,0,0,1,.2,5ZM115,99.13l-.75.76a3.56,3.56,0,0,1-5,.2l-15.92-16a3.61,3.61,0,0,1,.2-5.08l.75-.75a3.55,3.55,0,0,1,5-.2l15.92,16a3.6,3.6,0,0,1-.2,5.07Z"/><path class="cls-1" d="M133.38,218.77a.55.55,0,0,0,0,.12c-12.78,3.34-6.43,15.18,3.34,13.63l1.09,3.55c-8.24-.06-14.69-5-15.06-9.8s3.88-8.46,9.5-8.57c-3.23-14.33,27-14.33,23.37,0,5.62.11,9.87,3.78,9.5,8.57s-6.82,9.74-15.06,9.8l1.09-3.55c8.23,1.15,18.3-11.9,3.35-13.63v-.12C154.44,207.44,133.38,207.45,133.38,218.77Z"/><path class="cls-1" d="M140.86,237c-.91-9.39,9.45-3.82,11-11.82.65-3.31,0-6.85-3.09-8.72-4.56-2.34-12.19-.31-11.57,6.37s9.87,4.19,9,.12c-1.32,1.78-4,2.43-5.23,1.49-2.84-2.14.46-6.82,4.83-5.72,2.88.71,2.68,2.47,2.9,4.56.42,4.18-3.59,4.46-7.3,6.19C136.87,231.56,140.86,237,140.86,237Z"/><path class="cls-1" d="M145.55,232.59a2.33,2.33,0,1,1-2.32,2.33A2.33,2.33,0,0,1,145.55,232.59Z"/><path class="cls-10" d="M99.4,144.71h91.47s2.51,26.11-42.38,30.74C102.76,175.87,97.31,149.34,99.4,144.71Z"/><path class="cls-11" d="M147.56,176c-13,0-35.22-2.44-45.26-17.85C98.43,152.16,98,146.58,99,144.51l.13-.3h92.24l.05.45c0,.27,2,26.66-42.83,31.29ZM99.75,145.21c-.66,2-.06,7.06,3.39,12.35,10,15.4,32.77,17.52,45.35,17.39,12.62-1.3,29.43-5.29,37.57-16.83a22.59,22.59,0,0,0,4.33-12.91Z"/><path class="cls-12" d="M175.81,167.09c-6.28-4.6-17-7.64-29.21-7.64-13.59,0-25.36,3.77-31.17,9.28,7.46,3.8,18,6.44,32.64,6.3C160.7,173.73,169.57,170.73,175.81,167.09Z"/><rect class="cls-9" x="98.98" y="144.71" width="91.88" height="2.95"/><path class="cls-11" d="M191.37,148.16H98.48v-3.95h92.89Zm-91.89-1h90.89v-1.95H99.48Z"/><g class="cls-13"><path class="cls-14" d="M248.67,147a37.26,37.26,0,0,0-24.62-13.18s-.74-.6-5.8,7.16c-9.41,14.44-15.19,27.53-16.79,54.68-.43,7.15-.8,9.06-6,19a84.84,84.84,0,0,1-10.36,15.55c-6.5-2.84-12.14-3.42-13.34-1.15-1.4,2.66,3.79,8.19,11.6,12.36s15.27,5.42,16.67,2.77c1.23-2.34-2.63-6.9-8.9-10.82a84.35,84.35,0,0,1,7-17.28c5.24-9.92,6.61-11.3,12.26-15.64,21.47-16.53,29-28.67,35.65-44.6C249.58,147.24,248.67,147,248.67,147Z"/></g><path class="cls-9" d="M185,238.18c-9.69-5.19-10.15-7.48-10.15-7.48-.22,4.08,8.14,8.45,9.31,9.08s9.44,5.15,12.68,2.68C196.86,242.46,194.72,243.36,185,238.18Z"/><g class="cls-15"><path class="cls-16" d="M185.31,232.05a1.37,1.37,0,0,0,.36,2.18c1.12.59,1.61-.44,2.82-3,2.11-4.38,10.06-18.71,10.06-18.71S191.47,225.11,185.31,232.05Z"/></g><path class="cls-17" d="M225.87,159c-5.19-1.2-12-2.43-15.57,3.08a102.21,102.21,0,0,0-5.46,25c-.8,7.53,5.18,10.41,10.19,6.18,15.89-13.41,22.54-24.13,28.43-38.22C245.44,149.49,234.57,161,225.87,159Z"/><g class="cls-15"><path class="cls-16" d="M239.07,152.91c1.82-4.66,3.6-2.83,2.44.5s-8.1,18-19.64,29.82S232,170.92,239.07,152.91Z"/></g><g class="cls-18"><path class="cls-9" d="M234.93,143.72c-8.45-4.52-10.94-7.91-10.94-7.91a4.13,4.13,0,0,0,1.13,2.45c-1.79,2.31-11.68,15.53-15.6,30.94a225.07,225.07,0,0,0-4.78,28.35A213.9,213.9,0,0,1,217,160.2c5.66-12.35,9.51-17.38,11-19.06a40,40,0,0,0,6.05,4.18l.11.06a261.7,261.7,0,0,1-26.63,50.9s22.53-27.14,30.67-49.14c3.57,1.32,7.84,2.38,9.33,1.29C247.56,148.42,243.37,148.24,234.93,143.72Z"/></g><polygon class="cls-19" points="250.08 152.96 274.05 152.92 271.35 142.68 250.08 152.96"/><polygon class="cls-19" points="251.52 158.36 262.29 172.43 268.14 165.54 251.52 158.36"/><polygon class="cls-19" points="249.21 144.75 264.25 133.66 257.12 127.64 249.21 144.75"/><path class="cls-9" d="M211.43,211.19a6,6,0,1,1-11.94,0c0-3.51,2.43-9,5.72-9S211.43,207.68,211.43,211.19Z"/><path class="cls-2" d="M205.46,217.81a6.44,6.44,0,0,1-6.22-6.62c0-3.71,2.51-9.21,6-9.21s6.47,5.66,6.47,9.21A6.44,6.44,0,0,1,205.46,217.81Zm-.25-15.33c-3.12,0-5.47,5.29-5.47,8.71a5.73,5.73,0,1,0,11.44,0C211.18,207.91,208.39,202.48,205.21,202.48Z"/></svg>