<?xml version="1.0" encoding="UTF-8"?>
<svg width="24px" height="24px" viewBox="0 0 24 24" version="1.1" xmlns="http://www.w3.org/2000/svg" xmlns:xlink="http://www.w3.org/1999/xlink">
    <title>评论</title>
    <g id="2.0" stroke="none" stroke-width="1" fill="none" fill-rule="evenodd">
        <g id="通用基础-删格" transform="translate(-426.000000, -220.000000)">
            <g id="评论" transform="translate(426.000000, 220.000000)">
                <polygon id="路径" points="0 0 24 0 24 24 0 24"></polygon>
                <path d="M1.99999866,8.994 C1.9989353,7.40292611 2.63092635,5.87680016 3.75654841,4.75230372 C4.88217047,3.62780728 6.40892797,2.99734343 7.99999866,2.99999164 L15.9999987,2.99999164 C19.313,2.99999164 21.9999987,5.695 21.9999987,8.994 L21.9999987,19.9999916 C21.9999987,20.5522764 21.5522834,20.9999916 20.9999987,20.9999916 L7.99999866,20.9999916 L7.99999866,20.9999916 C4.687,20.9999916 1.99999866,18.305 1.99999866,15.006 L1.99999866,8.994 Z M19.999998,18.5 L19.999998,8.994 L19.999998,8.994 C19.9944919,6.78811846 18.2058873,5.00219681 15.999998,4.99998745 L7.99999798,4.99998745 C6.93936115,4.99734121 5.92131031,5.41709044 5.17076032,6.1665146 C4.42021034,6.91593875 3.99893337,7.93335835 3.99999798,8.994 L3.99999798,15.006 C4.00550812,17.2118815 5.79411268,18.9978032 7.99999798,19 L19.499998,19 C19.7761404,19 19.999998,18.7761424 19.999998,18.5 Z M14.8838504,10.0243652 C15.7122775,10.0243652 16.3838504,10.6959381 16.3838504,11.5243652 C16.3838504,12.3527923 15.7122775,13.0243652 14.8838504,13.0243652 C14.0554232,13.0243652 13.3838504,12.3527923 13.3838504,11.5243652 C13.3838504,10.6959381 14.0554232,10.0243652 14.8838504,10.0243652 Z M8.99713288,10 C9.82556,10 10.4971329,10.6715729 10.4971329,11.5 C10.4971329,12.3284271 9.82556,13 8.99713288,13 C8.16870575,13 7.49713288,12.3284271 7.49713288,11.5 C7.49713288,10.6715729 8.16870575,10 8.99713288,10 Z" id="形状" fill="#5D6E7F" fill-rule="nonzero"></path>
            </g>
        </g>
    </g>
</svg>