<?xml version="1.0" encoding="UTF-8"?>
<svg width="24px" height="24px" viewBox="0 0 24 24" version="1.1" xmlns="http://www.w3.org/2000/svg" xmlns:xlink="http://www.w3.org/1999/xlink">
    <title>刷子</title>
    <g id="2.0" stroke="none" stroke-width="1" fill="none" fill-rule="evenodd">
        <g id="通用基础-删格" transform="translate(-392.000000, -451.000000)">
            <g id="刷子" transform="translate(392.000000, 451.000000)">
                <polygon id="路径" points="0 0 24 0 24 24 0 24"></polygon>
                <path d="M15.9057732,3.30518072 C16.746842,2.88448363 17.7715594,3.04265034 18.445935,3.71757464 L18.445935,3.71757464 L20.2837627,5.55626947 C21.1417319,6.41537692 21.1415679,7.80712571 20.2827922,8.66663492 L20.2827922,8.66663492 L18.303,10.646 L19.3650499,11.7084029 C20.4865961,12.8328605 20.5317326,14.6251777 19.4988341,15.8048157 L19.4988341,15.8048157 L19.3641069,15.9489867 L16.5366669,18.779094 L16.5352136,18.7777995 L14.4143203,20.8991068 C13.2896104,22.0238167 11.4940475,22.0688051 10.3156693,21.034072 L10.1716797,20.8991068 L3.10089322,13.8283203 C1.92932034,12.6567475 1.92932034,10.7572525 3.10089322,9.58567966 L3.10089322,9.58567966 L5.22121356,7.46379949 L5.22123953,7.46366666 L8.05145031,4.63478988 C9.22313207,3.46465968 11.1213106,3.46488336 12.2933203,4.63589322 L12.2933203,4.63589322 L13.354,5.696 L15.4477063,3.60385859 L15.7607649,3.37771294 Z M7.06026407,9.30326407 C6.82594949,9.06894949 6.44605051,9.06894949 6.21173593,9.30326407 L6.21173593,9.30326407 L4.51510678,10.9998932 L4.43191817,11.0941006 C4.12689328,11.4863918 4.15462282,12.0536228 4.51510678,12.4141068 L4.51510678,12.4141068 L11.5858932,19.4848932 L11.6801006,19.5680818 C12.0723918,19.8731067 12.6396228,19.8453772 13.0001068,19.4848932 L13.0001068,19.4848932 L14.6967359,17.7882641 C14.9310505,17.5539495 14.9310505,17.1740505 14.6967359,16.9397359 L14.6967359,16.9397359 Z M16.9794935,5.09394562 C16.923325,5.0658095 16.8566638,5.0657925 16.8004772,5.09389668 L16.8004772,5.09389668 L16.7485586,5.13140135 L13.354,8.525 L10.8791068,6.05010678 L10.7848798,5.96696624 C10.3925245,5.66211209 9.82538922,5.68975506 9.46472659,6.04994011 L9.46472659,6.04994011 L8.47436405,7.03983593 C8.47423075,7.03976925 8.47419742,7.03980258 8.47416409,7.03983591 C8.23984951,7.27415049 8.23984951,7.65404947 8.47426407,7.88826407 L8.47426407,7.88826407 L16.1117359,15.5257359 C16.1116026,15.5260026 16.1116693,15.5260693 16.111736,15.5261359 L16.1948659,15.595523 C16.4287819,15.7574058 16.7520604,15.7340914 16.960064,15.5255359 L16.960064,15.5255359 L17.9492267,14.5354401 L18.0322426,14.4411413 C18.336627,14.0485354 18.3088609,13.4815728 17.9490044,13.1207821 L17.9490044,13.1207821 L15.475,10.646 L18.8685786,7.25242136 L18.9060484,7.20050396 C18.9435209,7.12559181 18.931044,7.03206017 18.868612,6.9695453 L18.868612,6.9695453 L17.031388,5.1314547 Z" id="形状结合" fill="#5D6E7F" fill-rule="nonzero"></path>
            </g>
        </g>
    </g>
</svg>