<?xml version="1.0" encoding="UTF-8"?>
<svg width="24px" height="24px" viewBox="0 0 24 24" version="1.1" xmlns="http://www.w3.org/2000/svg" xmlns:xlink="http://www.w3.org/1999/xlink">
    <title>禁止</title>
    <g id="2.0" stroke="none" stroke-width="1" fill="none" fill-rule="evenodd">
        <g id="通用基础-删格" transform="translate(-357.000000, -310.000000)">
            <g id="禁止" transform="translate(357.000000, 310.000000)">
                <polygon id="路径" points="0 0 24 0 24 24 0 24"></polygon>
                <path d="M12,22 C6.477,22 2,17.523 2,12 C2,6.477 6.477,2 12,2 C17.523,2 22,6.477 22,12 C22,17.523 17.523,22 12,22 Z M12,20 C16.418278,20 20,16.418278 20,12 C20,7.581722 16.418278,4 12,4 C7.581722,4 4,7.581722 4,12 C4,16.418278 7.581722,20 12,20 Z M16.184,16.184 C15.7935347,16.5744653 15.1604653,16.5744653 14.77,16.184 L7.81575004,9.22975004 C7.42556082,8.83956082 7.42556082,8.20693909 7.81575004,7.81674987 C7.81583335,7.81666656 7.81591667,7.81658327 7.816,7.8165 C8.2065126,7.42626358 8.83939441,7.4263566 9.22979227,7.81670781 L16.1839578,14.7700422 C16.5744231,15.1604609 16.5744609,15.7934924 16.1840422,16.1839578 C16.1840282,16.1839718 16.1840141,16.1839859 16.184,16.184 Z" id="形状" fill="#5D6E7F" fill-rule="nonzero"></path>
            </g>
        </g>
    </g>
</svg>