<?xml version="1.0" encoding="UTF-8"?>
<svg width="24px" height="24px" viewBox="0 0 24 24" version="1.1" xmlns="http://www.w3.org/2000/svg" xmlns:xlink="http://www.w3.org/1999/xlink">
    <title>取消链接</title>
    <g id="2.0" stroke="none" stroke-width="1" fill="none" fill-rule="evenodd">
        <g id="通用基础-删格" transform="translate(-148.000000, -399.000000)">
            <g id="取消链接" transform="translate(148.000000, 399.000000)">
                <polygon id="路径" points="0 0 24 0 24 24 0 24"></polygon>
                <path d="M16.95,14.121 C16.5595347,13.7305347 16.5595347,13.0974653 16.95,12.707 L17.657,12 L17.657,12 C18.6675257,10.9894743 19.062181,9.51660094 18.6923029,8.13619712 C18.3224248,6.7557933 17.2442067,5.67757518 15.8638029,5.3076971 C14.4833991,4.93781902 13.0105257,5.33247425 12,6.343 L11.293,7.05 C10.9025347,7.44046532 10.2694653,7.44046532 9.879,7.05 C9.48853468,6.65953468 9.48853468,6.02646532 9.879,5.636 L10.586,4.929 L10.586,4.929 C12.9345588,2.61838521 16.7069259,2.63374593 19.03659,4.96341 C21.3662541,7.29307407 21.3816148,11.0654412 19.071,13.414 L18.364,14.121 C17.9735347,14.5114653 17.3404653,14.5114653 16.95,14.121 Z M14.121,18.364 L13.414,19.071 L13.414,19.071 C11.9024795,20.6073421 9.68307771,21.2149626 7.59977329,20.6627998 C5.51646887,20.110637 3.88936297,18.4835311 3.33720019,16.4002267 C2.78503741,14.3169223 3.39265792,12.0975205 4.929,10.586 L5.636,9.879 C6.02646532,9.48853468 6.65953468,9.48853468 7.05,9.879 C7.44046532,10.2694653 7.44046532,10.9025347 7.05,11.293 L6.343,12 L6.343,12 C5.33247425,13.0105257 4.93781902,14.4833991 5.3076971,15.8638029 C5.67757518,17.2442067 6.7557933,18.3224248 8.13619712,18.6923029 C9.51660094,19.062181 10.9894743,18.6675257 12,17.657 L12.707,16.95 C13.0974653,16.5595347 13.7305347,16.5595347 14.121,16.95 C14.5114653,17.3404653 14.5114653,17.9735347 14.121,18.364 Z M15.5356999,9.87920003 L9.87930006,15.5348 C9.4886205,15.9254243 8.85529,15.9255138 8.4645,15.535 C8.07392426,15.1447003 8.07370049,14.5116756 8.46400021,14.1210999 C8.46410014,14.1209999 8.46420009,14.1208999 8.46430006,14.1208 L14.1206999,8.46520003 C14.5113795,8.07457572 15.14471,8.07448618 15.5355,8.465 C15.9260757,8.85529972 15.9262995,9.48832436 15.5359998,9.8789001 C15.5358999,9.8790001 15.5357999,9.87910007 15.5356999,9.87920003 Z M7.9657378,2.74120443 L8.48342065,4.67438726 C8.6262483,5.20774848 8.30979895,5.75594 7.7765,5.899 C7.24333814,6.04202322 6.69518182,5.72575337 6.5521586,5.19259151 C6.55214742,5.19254983 6.55213624,5.19250814 6.55212507,5.19246646 L6.03403356,3.26012518 C5.89095305,2.72647354 6.2074175,2.17783816 6.741,2.0345 C7.27408633,1.89129513 7.82232866,2.2073565 7.96553353,2.74044283 C7.96560172,2.74069667 7.96566981,2.74095054 7.9657378,2.74120443 Z M17.4478749,18.8085335 L17.966,20.741 C18.1090418,21.2745071 17.7925071,21.8229582 17.259,21.966 C16.7256217,22.1090072 16.177303,21.792549 16.0342958,21.2591707 C16.0342749,21.259093 16.0342541,21.2590152 16.0342333,21.2589375 L15.5166418,19.326596 C15.3737824,18.7932541 15.6902111,18.2450573 16.2235,18.102 C16.7566619,17.9589768 17.3048182,18.2752466 17.4478414,18.8084085 C17.4478526,18.8084502 17.4478638,18.8084919 17.4478749,18.8085335 Z M3.259,6.034 L5.19146646,6.55212507 C5.72464684,6.69507923 6.0409877,7.24319457 5.89803354,7.77637495 C5.89802236,7.77641663 5.89801118,7.77645832 5.898,7.7765 C5.75494271,8.30978886 5.20674587,8.62621764 4.67340398,8.48335821 L2.74106251,7.96576674 C2.20764973,7.82288832 1.89105908,7.27464598 2.03393751,6.7412332 C2.03395833,6.74115546 2.03397916,6.74107773 2.034,6.741 C2.17704175,6.20749293 2.72549293,5.89095825 3.259,6.034 Z M21.966,17.259 C21.8229582,17.7925071 21.2745071,18.1090418 20.741,17.966 L18.8085335,17.4478749 C18.2753532,17.3049208 17.9590123,16.7568054 18.1019665,16.223625 C18.1019776,16.2235834 18.1019888,16.2235417 18.102,16.2235 C18.2450573,15.6902111 18.7932541,15.3737824 19.326596,15.5166418 L21.2589375,16.0342333 C21.7923503,16.1771117 22.1089409,16.725354 21.9660625,17.2587668 C21.9660417,17.2588445 21.9660208,17.2589223 21.966,17.259 Z" id="形状" fill="#5D6E7F" fill-rule="nonzero"></path>
            </g>
        </g>
    </g>
</svg>