<?xml version="1.0" encoding="UTF-8"?>
<svg width="24px" height="24px" viewBox="0 0 24 24" version="1.1" xmlns="http://www.w3.org/2000/svg" xmlns:xlink="http://www.w3.org/1999/xlink">
    <title>建筑</title>
    <g id="2.0" stroke="none" stroke-width="1" fill="none" fill-rule="evenodd">
        <g id="通用基础-删格" transform="translate(-426.000000, -352.000000)">
            <g id="建筑" transform="translate(426.000000, 352.000000)">
                <polygon id="路径" points="0 0 24 0 24 24 0 24"></polygon>
                <path d="M2,21 C1.44771525,21 1,20.5522847 1,20 C1,19.4477153 1.44771525,19 2,19 L3,19 L3,6 C3,4.34314575 4.34314575,3 6,3 L12,3 C13.6568542,3 15,4.34314575 15,6 L15,19 L19,19 L19,11 L18,11 C17.4477153,11 17,10.5522847 17,10 C17,9.44771525 17.4477153,9 18,9 L20,9 C20.5522847,9 21,9.44771525 21,10 L21,19 L22,19 C22.5522847,19 23,19.4477153 23,20 C23,20.5522847 22.5522847,21 22,21 L2,21 Z M12,5 L6,5 C5.48716416,5 5.06449284,5.38604019 5.00672773,5.88337887 L5,6 L5,19 L13,19 L13,6 C13,5.48716416 12.6139598,5.06449284 12.1166211,5.00672773 L12,5 Z M10,11 C10.5522847,11 11,11.4477153 11,12 C11,12.5522847 10.5522847,13 10,13 L8,13 C7.44771525,13 7,12.5522847 7,12 C7,11.4477153 7.44771525,11 8,11 L10,11 Z M10,7 C10.5522847,7 11,7.44771525 11,8 C11,8.55228475 10.5522847,9 10,9 L8,9 C7.44771525,9 7,8.55228475 7,8 C7,7.44771525 7.44771525,7 8,7 L10,7 Z" id="形状结合" fill="#5D6E7F" fill-rule="nonzero"></path>
            </g>
        </g>
    </g>
</svg>