<?xml version="1.0" encoding="UTF-8"?>
<svg width="50px" height="50px" viewBox="0 0 50 50" version="1.1" xmlns="http://www.w3.org/2000/svg" xmlns:xlink="http://www.w3.org/1999/xlink">
    <title>访客1</title>
    <g id="组件" stroke="none" stroke-width="1" fill="none" fill-rule="evenodd">
        <g transform="translate(-490.000000, -935.000000)" id="访客1">
            <g transform="translate(490.000000, 935.000000)">
                <path d="M0,25 C0,38.8071187 11.1928813,50 25,50 C38.8071187,50 50,38.8071187 50,25 C50,11.1928813 38.8071187,0 25,0 C11.1928813,0 0,11.1928813 0,25 Z" id="路径" fill="#E8EDF5" fill-rule="nonzero"></path>
                <g id="编组-31" transform="translate(17.000000, 12.000000)">
                    <path d="M10.4677419,13.9354839 C14.0754084,13.9354839 17,16.8600754 17,20.4677419 C17,24.0754084 14.0754084,27 10.4677419,27 L6.53225806,27 C2.92459155,27 4.41811725e-16,24.0754084 0,20.4677419 C-4.41811725e-16,16.8600754 2.92459155,13.9354839 6.53225806,13.9354839 L10.4677419,13.9354839 Z M8.5,0 C12.2061213,0 15.2105263,2.92459155 15.2105263,6.53225806 C15.2105263,10.1399246 12.2061213,13.0645161 8.5,13.0645161 C4.79387865,13.0645161 1.78947368,10.1399246 1.78947368,6.53225806 C1.78947368,2.92459155 4.79387865,0 8.5,0 Z" id="形状结合" fill="#0569FF"></path>
                    <path d="M8,13 C11.8659932,13 15,10.0898509 15,6.5 C15,2.91014913 11.8659932,0 8,0 C8.03064989,6.15249325 8.03781386,6.31243624 8,13 Z" id="椭圆形" fill="#D4E5FF"></path>
                </g>
            </g>
        </g>
    </g>
</svg>