<?xml version="1.0" encoding="UTF-8"?>
<svg width="24px" height="24px" viewBox="0 0 24 24" version="1.1" xmlns="http://www.w3.org/2000/svg" xmlns:xlink="http://www.w3.org/1999/xlink">
    <title>菜单折叠</title>
    <g id="2.0" stroke="none" stroke-width="1" fill="none" fill-rule="evenodd">
        <g id="通用基础-删格" transform="translate(-217.000000, -310.000000)">
            <g id="菜单折叠" transform="translate(217.000000, 310.000000)">
                <polygon id="路径" points="0 0 24 0 24 24 0 24"></polygon>
                <path d="M21,19 C21,19.5522847 20.5522847,20 20,20 L4,20 C3.44771525,20 3,19.5522847 3,19 C3,18.4477153 3.44771525,18 4,18 L20,18 C20.5522847,18 21,18.4477153 21,19 Z M6.95,4.75710678 L6.95,12.2428932 C6.95,12.5190356 6.72614237,12.7428932 6.45,12.7428932 C6.31739176,12.7428932 6.1902148,12.6902148 6.09644661,12.5964466 L2.70710678,9.20710678 C2.31658249,8.81658249 2.31658249,8.18341751 2.70710678,7.79289322 L6.09644661,4.40355339 C6.29170876,4.20829124 6.60829124,4.20829124 6.80355339,4.40355339 C6.89732158,4.49732158 6.95,4.62449854 6.95,4.75710678 Z M21,12 C21,12.5522847 20.5522847,13 20,13 L13,13 C12.4477153,13 12,12.5522847 12,12 C12,11.4477153 12.4477153,11 13,11 L20,11 C20.5522847,11 21,11.4477153 21,12 Z M21,5 C21,5.55228475 20.5522847,6 20,6 L13,6 C12.4477153,6 12,5.55228475 12,5 C12,4.44771525 12.4477153,4 13,4 L20,4 C20.5522847,4 21,4.44771525 21,5 Z" id="形状" fill="#5D6E7F" fill-rule="nonzero"></path>
            </g>
        </g>
    </g>
</svg>