<?xml version="1.0" encoding="UTF-8"?>
<svg width="24px" height="24px" viewBox="0 0 24 24" version="1.1" xmlns="http://www.w3.org/2000/svg" xmlns:xlink="http://www.w3.org/1999/xlink">
    <title>文字间距</title>
    <g id="2.0" stroke="none" stroke-width="1" fill="none" fill-rule="evenodd">
        <g id="通用基础-删格" transform="translate(-113.000000, -220.000000)">
            <g id="文字间距" transform="translate(113.000000, 220.000000)">
                <polygon id="路径" points="0 0 24 0 24 24 0 24"></polygon>
                <path d="M7,17 L17,17 L17,15.7071068 C17,15.4309644 17.2238576,15.2071068 17.5,15.2071068 C17.6326082,15.2071068 17.7597852,15.2597852 17.8535534,15.3535534 L20.0757359,17.5757359 C20.3100505,17.8100505 20.3100505,18.1899495 20.0757359,18.4242641 L17.8535534,20.6464466 C17.6582912,20.8417088 17.3417088,20.8417088 17.1464466,20.6464466 C17.0526784,20.5526784 17,20.4255015 17,20.2928932 L17,19 L17,19 L7,19 L7,20.2928932 C7,20.5690356 6.77614237,20.7928932 6.5,20.7928932 C6.36739176,20.7928932 6.2402148,20.7402148 6.14644661,20.6464466 L3.92426407,18.4242641 C3.68994949,18.1899495 3.68994949,17.8100505 3.92426407,17.5757359 L6.14644661,15.3535534 C6.34170876,15.1582912 6.65829124,15.1582912 6.85355339,15.3535534 C6.94732158,15.4473216 7,15.5744985 7,15.7071068 L7,17 L7,17 Z M13,6 L13,14 C13,14.5522847 12.5522847,15 12,15 C11.4477153,15 11,14.5522847 11,14 L11,6 L11,6 L6,6 C5.44771525,6 5,5.55228475 5,5 C5,4.44771525 5.44771525,4 6,4 L18,4 C18.5522847,4 19,4.44771525 19,5 C19,5.55228475 18.5522847,6 18,6 L13,6 L13,6 Z" id="形状" fill="#5D6E7F" fill-rule="nonzero"></path>
            </g>
        </g>
    </g>
</svg>