<?xml version="1.0" encoding="UTF-8"?>
<svg width="84px" height="24px" viewBox="0 0 84 24" version="1.1" xmlns="http://www.w3.org/2000/svg" xmlns:xlink="http://www.w3.org/1999/xlink">
    <title>icon-IKC</title>
    <g id="2.0" stroke="none" stroke-width="1" fill="none" fill-rule="evenodd">
        <g id="知识库删格" transform="translate(-34.000000, -341.000000)" fill="#0569FF" fill-rule="nonzero">
            <g id="icon-IKC" transform="translate(34.000000, 341.000000)">
                <path d="M19.8345582,2.8151727 C20.1298484,3.0660289 20.1677695,3.50831033 19.9194993,3.80586035 C19.6712292,4.10341038 19.2296845,4.14486907 18.930462,3.8987257 C15.2040624,0.783599128 9.82602993,0.57394749 5.86620144,3.39047935 C1.90778338,6.20489352 0.372512401,11.3247696 2.13416005,15.8319264 C3.89721816,20.341201 8.51149381,23.0913785 13.3457991,22.5111306 C17.4643029,22.0170022 20.901561,19.1976467 22.1892986,15.3187388 C22.3211815,14.9617126 22.7121215,14.7736516 23.0730253,14.8936236 C23.4339291,15.0135956 23.6348042,15.3983883 23.5271071,15.7634544 C22.0680002,20.1611971 18.1744627,23.3539724 13.5136423,23.9130434 C8.04252036,24.5695283 2.81752137,21.4565194 0.82103437,16.3465259 C-1.1775683,11.2358265 0.564333123,5.42840603 5.0488477,2.23916017 C9.53124663,-0.948673873 15.616618,-0.711492253 19.8345582,2.8151727 Z M43.0018469,15.2545021 C43.6400739,15.2545021 44.171107,15.4168586 44.5864835,15.7571013 C44.9863451,16.0818143 45.232468,16.5293534 45.3170948,17.0856008 L44.5018567,17.0856008 C44.4094724,16.7142986 44.2324614,16.4361749 43.9708236,16.2589946 C43.709891,16.0811083 43.3868988,15.9964006 42.986332,15.9964006 C42.3939444,15.9964006 41.9482434,16.1968756 41.6485235,16.6062962 C41.3636133,16.9775984 41.2253895,17.4872566 41.2253895,18.1282117 C41.2253895,18.7924614 41.3636133,19.3021196 41.6414712,19.6656569 C41.9327284,20.0517829 42.3868922,20.244493 43.0025521,20.244493 C43.4017085,20.244493 43.7402156,20.1442555 44.0018534,19.9437806 C44.2790062,19.72707 44.4708269,19.4030629 44.578726,18.9696418 L45.3939641,18.9696418 C45.27055,19.6113028 44.9863451,20.113196 44.5321813,20.4767334 C44.1090474,20.8162702 43.6012866,20.9863915 43.0096043,20.9863915 C42.1097395,20.9863915 41.4334304,20.6927381 40.9792666,20.1209609 C40.579405,19.6268325 40.3868791,18.9625828 40.3868791,18.1282117 C40.3868791,17.3093703 40.5871625,16.6451206 41.002539,16.1276976 C41.463755,15.5403907 42.1252544,15.2545021 43.0018469,15.2545021 L43.0018469,15.2545021 Z M35.5307119,15.3625045 L35.5307119,18.0279742 L38.1837617,15.3625045 L39.2451227,15.3625045 L36.8149234,17.7343208 L39.5991447,20.8783892 L38.4764293,20.8783892 L36.2458082,18.2828033 L35.5307119,18.9703477 L35.5307119,20.8783892 L34.6922014,20.8783892 L34.6922014,15.3625045 L35.5307119,15.3625045 Z M33.1195536,15.3625045 L33.1195536,20.8783892 L32.2888006,20.8783892 L32.2888006,15.3625045 L33.1195536,15.3625045 Z M9.59048537,7.31738829 C10.3182758,7.31738829 11.8218117,7.61527712 12.0199794,8.72706603 C12.1553823,7.45997965 13.692769,7.31738829 14.4205594,7.31738829 L16.9226914,7.31738829 C17.414232,7.31738829 17.8133884,7.7105733 17.8147988,8.19411325 L17.8147988,16.3006425 C17.8147988,16.7841825 17.414232,17.1773675 16.9226914,17.1773675 L13.6462242,17.1773675 C13.2097598,17.5988233 12.6271388,17.8346247 12.0206847,17.8352642 C11.4134875,17.8352642 10.8316783,17.5973766 10.3944399,17.1773675 L7.11585703,17.1773675 C6.62786676,17.1812858 6.22878895,16.7890892 6.22374962,16.3006425 L6.22374962,8.19411325 C6.22374962,7.71057332 6.62431643,7.31738829 7.11585703,7.31738829 L9.59048537,7.31738829 Z M9.6638286,8.19411325 L7.11656224,8.19411325 L7.11656224,16.3006425 L10.5883763,16.3006425 C10.7188426,16.3006425 10.8422566,16.3571144 10.9268834,16.4545282 C11.2061518,16.773594 11.604603,16.9585392 12.0213899,16.9585392 C12.4374716,16.9585392 12.836628,16.773594 13.1151911,16.4545282 C13.2000718,16.3560934 13.3237945,16.299849 13.4536983,16.3006425 L16.9233966,16.3006425 L16.9233966,8.19411325 L14.5277533,8.19411325 C12.9720308,8.1807012 12.4529865,8.83295068 12.4649753,10.0908604 L12.4649753,13.2321052 C12.464231,13.3495496 12.4168085,13.461866 12.3331815,13.5442485 C12.2495545,13.626631 12.1366033,13.6723016 12.0192742,13.6711736 C11.9019449,13.6724906 11.7889186,13.6270003 11.7051589,13.5447499 C11.6213992,13.4624994 11.5737977,13.3502563 11.5728679,13.2328111 L11.5728679,10.0908604 C11.6010768,8.74965476 10.4000817,8.19411325 9.66312337,8.19411325 L9.6638286,8.19411325 Z M25.5250045,5.66488177 C25.829661,5.65570511 26.0842465,5.88653365 26.0934144,6.18018709 L26.0934144,12.349733 C26.0719015,12.6139638 25.8526118,12.8181564 25.5877694,12.8205668 C25.4477626,12.8418746 25.305021,12.806853 25.1907287,12.723153 C25.0787771,12.6416248 25.00592,12.5170095 24.9897401,12.3793807 L24.9897401,6.21195248 C24.9805722,5.91829904 25.2203481,5.67335252 25.5257097,5.66488177 L25.5250045,5.66488177 Z M84,11.9720778 L84,12.6779755 L31.6576258,12.6779755 L31.6576258,11.9720778 L83.9992948,11.9720778 L84,11.9720778 Z M21.6815378,5.66417586 C21.6965359,5.66623688 21.7113789,5.66930265 21.7259669,5.67335252 C21.7612281,5.67476431 21.7964892,5.68323509 21.83034,5.69664716 L21.8536123,5.7135887 L21.8761795,5.73123613 C21.9043884,5.7439423 21.9290712,5.76229562 21.9509331,5.78417847 C21.9733591,5.80982321 21.9923269,5.83830214 22.007351,5.86888621 C22.0165189,5.88512186 22.0292129,5.89712212 22.0376756,5.91476956 L24.4058152,11.6988954 C24.4915878,11.9055076 24.4020141,12.1432595 24.2013005,12.2417307 C24.1527675,12.2645001 24.0997488,12.2760789 24.0461514,12.2756273 C23.886111,12.2733951 23.7432341,12.1747074 23.6843719,12.025726 L22.7725182,9.79932463 L20.5806844,9.79932463 L19.6695359,12.025726 C19.6114656,12.1728433 19.4713678,12.2711444 19.3133982,12.2756273 C19.2598229,12.2758666 19.2068502,12.2642979 19.1582491,12.2417307 C19.0605864,12.1975031 18.9844813,12.1162467 18.9466821,12.0158434 C18.9075927,11.9132892 18.9091063,11.7996641 18.9509135,11.6981895 L21.3239897,5.91124005 C21.3328774,5.89465111 21.3427689,5.87862092 21.353609,5.86323901 C21.370011,5.83514054 21.3883934,5.80824827 21.4086165,5.78276668 C21.4314624,5.76143858 21.4567989,5.74295129 21.4840753,5.72770665 C21.4987132,5.71493416 21.5145348,5.70358842 21.5313253,5.69382356 L21.5764596,5.6818233 L21.6230043,5.67476434 C21.6427506,5.67335255 21.6603811,5.66417586 21.6815378,5.66417586 L21.6815378,5.66417586 Z M68.6423535,2.37398664 L68.6423535,3.71025101 L71.3807353,3.71025101 L71.3807353,7.4409204 L70.650124,7.4409204 L70.650124,7.00044023 L68.6423535,7.00044023 L68.6423535,9.58826122 L67.8891751,9.58826122 L67.8891751,7.00044023 L65.8891619,7.00044023 L65.8891619,7.4409204 L65.1585507,7.4409204 L65.1585507,3.71025101 L67.8891751,3.71025101 L67.8891751,2.37398664 L68.6423535,2.37398664 L68.6423535,2.37398664 Z M60.332708,6.93902713 L60.9786925,7.25597519 C60.6098608,8.15175938 60.1634544,8.92401148 59.6563989,9.58049635 L59.0104144,9.10966257 C59.5252274,8.50682592 59.9638763,7.78892795 60.332708,6.93902713 L60.332708,6.93902713 Z M43.6753351,5.09310463 L43.6753351,8.69247703 C43.6753351,9.22542981 43.4214547,9.49578862 42.9292089,9.49578862 L42.3297691,9.49578862 L42.1520529,8.80824425 L42.6986009,8.83930374 C42.8749067,8.83930374 42.9672909,8.73906626 42.9672909,8.53788543 L42.9672909,8.10517015 L41.3833595,8.10517015 L41.3833595,9.55014274 L40.6753154,9.55014274 L40.6753154,5.09310463 L43.6753351,5.09310463 Z M33.0659566,2.33516226 L33.7196986,2.47422412 C33.6667264,2.62086144 33.6076715,2.76522515 33.5426875,2.90693943 L35.6498946,2.90693943 L35.6498946,3.5556594 L34.5497463,3.5556594 C34.5381269,3.75225214 34.5176546,3.94822025 34.4883919,4.14296631 L35.8649877,4.14296631 L35.8649877,4.81498093 L34.3346532,4.81498093 C34.3191383,4.85309941 34.3113809,4.89262967 34.3036234,4.92298328 C34.8727386,5.21663672 35.3501747,5.51029016 35.7493311,5.8032377 L35.2958725,6.26701252 L38.2338325,6.26701252 L38.2338325,9.54943684 L37.4954638,9.54943684 L37.4954638,9.24872443 L33.8656798,9.24872443 L33.8656798,9.55014274 L33.1350685,9.55014274 L33.1350685,6.37430896 C32.9294147,6.50500264 32.7163094,6.62356008 32.4968415,6.72937549 L32.0045957,6.13500964 C32.8043188,5.77994311 33.319837,5.35499268 33.5659599,4.84462863 L33.5807696,4.81427502 L32.1512821,4.81427502 L32.1512821,4.14226041 L32.4968415,4.14226041 L32.1357672,3.68625049 C32.4897892,3.3693024 32.805024,2.92176326 33.0666618,2.33445638 L33.0659566,2.33516226 Z M62.3552883,6.90796762 C62.9554333,7.74233872 63.4088918,8.47647233 63.7248318,9.1018977 L63.093657,9.54237787 C62.7706648,8.86259838 62.3249637,8.11293502 61.763606,7.2863288 L62.3552883,6.90796762 Z M44.967304,6.09689117 L44.967304,6.94679201 C45.6234801,6.88019917 46.2721778,6.75354906 46.9052575,6.56843083 L47.143623,7.2249157 C46.4666087,7.40986091 45.7359974,7.53409889 44.967304,7.61104175 L44.967304,8.55341517 C44.967304,8.69247701 45.0519308,8.761655 45.2359941,8.761655 L46.1668888,8.761655 C46.2895976,8.761655 46.3819819,8.72353652 46.4362841,8.65365265 C46.4976385,8.56118004 46.543478,8.29858611 46.5667504,7.86587081 L47.2282498,8.08258141 C47.1668953,8.73130142 47.0660484,9.11742746 46.9278247,9.24025365 C46.7973583,9.35672678 46.5893175,9.41884578 46.3051125,9.41884578 L45.0286585,9.41884578 C44.5053828,9.41884578 44.2444502,9.17884056 44.2444502,8.71577165 L44.2444502,6.09689117 L44.967304,6.09689117 L44.967304,6.09689117 Z M49.4779119,2.39728126 L50.2007657,2.55116696 C50.1231912,2.8448204 50.0315121,3.11588513 49.9391279,3.37777318 L52.0385775,3.37777318 L52.0385775,4.08084731 L50.9927314,4.08084731 C50.9820673,4.52720844 50.9538365,4.97297567 50.9081046,5.41711168 L52.1076894,5.41711168 L52.1076894,6.12018578 L50.8079629,6.12018578 C50.7776383,6.28960123 50.7388511,6.45972257 50.7078212,6.61431418 C51.2077228,7.12880614 51.6876307,7.66239012 52.1464766,8.21387838 L51.7000703,8.89365787 C51.2233394,8.21387838 50.8234778,7.68021972 50.5004856,7.29409367 C50.1774934,8.10587603 49.6316506,8.79271451 48.8467371,9.34896191 L48.3700062,8.761655 C49.1697293,8.16728912 49.693005,7.44162628 49.9468853,6.5761957 C49.9772099,6.42936897 50.0159972,6.27477739 50.047027,6.12018578 L48.5315023,6.12018578 L48.5315023,5.41711168 L50.154221,5.41711168 C50.2007657,5.00769101 50.2233329,4.56015185 50.2388478,4.08084731 L49.6542177,4.08084731 C49.4779119,4.46697336 49.2776285,4.8220399 49.0618302,5.14675285 L48.4243084,4.73733216 C48.9111847,4.02592475 49.2679284,3.23359774 49.4779119,2.39728126 L49.4779119,2.39728126 Z M58.3178852,4.70627267 L58.3178852,7.95834342 C58.5259261,7.76563333 58.7480714,7.54892275 58.9871421,7.30962341 L59.1867203,8.08258141 C58.7301115,8.5333868 58.2334671,8.94166729 57.7029306,9.30237265 L57.4257778,8.63882881 C57.5491919,8.53012056 57.6183038,8.40658846 57.6183038,8.25199686 L57.6183038,5.40934678 L56.5569428,5.40934678 L56.5569428,4.70627267 L58.3178852,4.70627267 Z M75.5761084,4.0194342 L75.5761084,8.23646711 C75.5761084,8.45317772 75.7065747,8.56118007 75.9682125,8.56118007 L77.3137784,8.56118007 C77.4675171,8.56118007 77.574711,8.48353132 77.6452334,8.33741047 C77.7213975,8.16728912 77.7827519,7.65763098 77.8137817,6.7922004 L78.5056057,7.02373484 C78.4442513,8.12069989 78.3292999,8.76941987 78.1600463,8.98613048 C78.0063077,9.17884056 77.7679422,9.27978392 77.4520022,9.27978392 L75.745362,9.27978392 C75.145217,9.27978392 74.8454971,8.9783656 74.8454971,8.39105872 L74.8454971,4.0194342 L75.5761084,4.0194342 Z M55.1761157,3.16176848 L55.1761157,9.18660543 L54.4687768,9.18660543 L54.4687768,8.74683116 L53.1232108,8.74683116 L53.1232108,9.1943703 L52.4151667,9.1943703 L52.4151667,3.16247439 L55.1761157,3.16247439 L55.1761157,3.16176848 Z M21.6751908,7.1275018 L20.9220124,8.96989483 L22.4262536,8.96989483 L21.6751908,7.1275018 L21.6751908,7.1275018 Z M37.4954638,8.08964038 L33.8656798,8.08964038 L33.8656798,8.60000443 L37.4954638,8.60000443 L37.4954638,8.08964038 L37.4954638,8.08964038 Z M73.6839944,4.78392142 L74.3835759,4.93074815 C74.1762403,6.30583688 73.8758152,7.49527453 73.4914685,8.49129617 L72.8609989,8.09740525 C73.2453456,7.0625592 73.5147409,5.95853519 73.6839944,4.78392142 L73.6839944,4.78392142 Z M78.8518703,4.57497571 C79.2982767,5.61052764 79.6981382,6.70678678 80.0366454,7.88140055 L79.3666833,8.18281889 C78.9978516,6.91573252 78.5909377,5.78770798 78.1445314,4.81498093 L78.8518703,4.57497571 Z M54.4687768,3.84931285 L53.1232108,3.84931285 L53.1232108,8.05928678 L54.4687768,8.05928678 L54.4687768,3.84931285 Z M42.9672909,6.93126224 L41.3833595,6.93126224 L41.3833595,7.49527451 L42.9672909,7.49527451 L42.9672909,6.93126224 Z M37.4954638,6.91573249 L33.8656798,6.91573249 L33.8656798,7.45645015 L37.4954638,7.45645015 L37.4954638,6.91573249 L37.4954638,6.91573249 Z M63.2248285,2.80599604 L63.2248285,6.58396057 L59.5252274,6.58396057 L59.5252274,2.80599604 L63.2248285,2.80599604 L63.2248285,2.80599604 Z M42.9672909,5.73405973 L41.3833595,5.73405973 L41.3833595,6.32842561 L42.9672909,6.32842561 L42.9672909,5.73405973 Z M67.8891751,4.42814898 L65.8891619,4.42814898 L65.8891619,6.28254226 L67.8891751,6.28254226 L67.8891751,4.42885488 L67.8891751,4.42814898 Z M70.650124,4.42814898 L68.6423535,4.42814898 L68.6423535,6.28254226 L70.650124,6.28254226 L70.650124,4.42885488 L70.650124,4.42814898 Z M34.065258,5.45664194 C33.8811947,5.75029538 33.6195569,6.02065421 33.2888072,6.2677184 L35.164701,6.2677184 C34.8224366,5.9657171 34.4545682,5.69409859 34.065258,5.45593604 L34.065258,5.45664194 Z M62.4857546,3.50977605 L60.2558387,3.50977605 L60.2558387,5.8731216 L62.4864598,5.8731216 L62.4864598,3.50836427 L62.4857546,3.50977605 Z M38.7958955,2.91541018 L38.7958955,5.83500312 L36.1040583,5.83500312 L36.1040583,2.91541018 L38.7958955,2.91541018 Z M44.9680093,2.43610564 L44.9680093,3.34741958 C45.759975,3.22388748 46.4059594,3.10035539 46.9059627,2.96129353 L47.1443282,3.61071944 C46.5138586,3.75684026 45.7902996,3.8959021 44.9680093,4.0201401 L44.9680093,4.7923922 C44.9680093,5.03945638 45.0596883,5.17075337 45.2444568,5.17075337 L46.1598366,5.17075337 C46.2825454,5.17075337 46.3671722,5.13192899 46.4207691,5.05498615 C46.4828288,4.96251355 46.5286683,4.69991961 46.5441832,4.26720429 L47.2282498,4.49097388 C47.1676006,5.13192901 47.0589962,5.51805504 46.9214776,5.649352 C46.7825487,5.76582513 46.575213,5.82723822 46.2980603,5.82723822 L45.0448786,5.82723822 C44.5060881,5.82723822 44.2451555,5.53358478 44.2451555,4.9469838 L44.2451555,2.43539974 L44.9680093,2.43539974 L44.9680093,2.43610564 Z M38.0807991,3.56413018 L36.8191547,3.56413018 L36.8191547,5.19404799 L38.0807991,5.19404799 L38.0807991,3.56342428 L38.0807991,3.56413018 Z M41.6379451,2.39798717 L42.3375266,2.60622699 C42.0145344,3.23941723 41.65346,3.7420164 41.2528932,4.12814245 C41.8366233,4.09036327 42.4189742,4.03362627 42.999026,3.9580211 C42.8563535,3.73684107 42.7101181,3.51798418 42.5603771,3.30153623 L43.1217348,2.94576379 C43.5758986,3.55636531 43.921458,4.08931807 44.1675809,4.53756311 L43.5681411,4.97027842 C43.4905666,4.81498093 43.4059398,4.65262445 43.3142608,4.49097388 C42.5145376,4.61450598 41.5533183,4.70697858 40.4298977,4.76909758 L40.2303195,4.15849606 C40.3607858,4.11261271 40.468685,4.05049371 40.5610692,3.97355085 C41.0300427,3.44836296 41.3918222,2.92317505 41.6379451,2.39798717 L41.6379451,2.39798717 Z M76.1148989,2.39022229 C76.7919132,3.17023926 77.3144837,3.85001875 77.6840207,4.43732564 L77.0683608,4.85380529 C76.6840141,4.22061506 76.1684959,3.5253058 75.5147539,2.76858347 L76.1148989,2.39022229 Z M33.8508701,3.55636531 L33.1816132,3.55636531 C33.0345103,3.77027425 32.8642214,3.96724074 32.6738525,4.14367219 L33.781053,4.14367219 C33.812788,3.95025623 33.8353552,3.75684024 33.8508701,3.55636531 L33.8508701,3.55636531 Z M57.5886844,2.46716513 C58.0385941,2.80858791 58.457909,3.18862328 58.8418661,3.60295457 L58.3411576,4.11261271 C58.0421429,3.75684026 57.619009,3.37142012 57.072461,2.96905843 L57.5886844,2.46716513 Z" id="形状"></path>
            </g>
        </g>
    </g>
</svg>