<?xml version="1.0" encoding="UTF-8"?>
<svg width="24px" height="24px" viewBox="0 0 24 24" version="1.1" xmlns="http://www.w3.org/2000/svg" xmlns:xlink="http://www.w3.org/1999/xlink">
    <title>身份证</title>
    <g id="2.0" stroke="none" stroke-width="1" fill="none" fill-rule="evenodd">
        <g id="通用基础-删格" transform="translate(-148.000000, -123.000000)">
            <g id="身份证" transform="translate(148.000000, 123.000000)">
                <polygon id="路径" points="0 0 24 0 24 24 0 24"></polygon>
                <g id="编组" transform="translate(1.000000, 3.000000)" fill="#5D6E7F" fill-rule="nonzero">
                    <path d="M17,0 C19.7614237,0 22,2.23857625 22,5 L22,5 L22,13 C22,15.7614237 19.7614237,18 17,18 L17,18 L5,18 C2.23857625,18 0,15.7614237 0,13 L0,13 L0,5 C0,2.23857625 2.23857625,0 5,0 L5,0 Z M17,2 L5,2 C3.34314575,2 2,3.34314575 2,5 L2,5 L2,13 C2,14.6568542 3.34314575,16 5,16 L5,16 L17,16 C18.6568542,16 20,14.6568542 20,13 L20,13 L20,5 C20,3.34314575 18.6568542,2 17,2 L17,2 Z M8.99944071,3.23809524 C10.9421538,3.23809524 12.5237703,4.7895502 12.5237703,6.71428571 C12.5237703,7.71779285 12.0938381,8.61983081 11.4069525,9.25342213 C12.8680366,9.96927454 13.9633167,11.3189522 14.2951234,12.9644273 L14.303999,13.0106063 L14.303999,13.0106063 L14.3125278,13.059378 L14.3433503,13.2808039 C14.4040066,13.8008882 14.0439358,14.2782576 13.5308575,14.34286 C13.4930909,14.3476153 13.4550731,14.35 13.4170176,14.35 C12.9369238,14.35 12.5274541,14.0162259 12.4092137,13.5590271 L12.3858486,13.4422778 L12.367725,13.331267 L12.31373,13.1071456 C11.9100624,11.6654427 10.5627908,10.6357143 8.99944071,10.6357143 C7.44431604,10.6357143 6.10217567,11.6547686 5.69318393,13.0762867 L5.64697221,13.256028 L5.62483056,13.3701579 L5.61505918,13.4338277 C5.5403199,13.9576159 5.10262331,14.35 4.58186387,14.35 C4.06413415,14.35 3.65,13.9196296 3.65,13.395324 L3.65173795,13.3378841 L3.65173795,13.3378841 L3.65732221,13.2761518 L3.68258095,13.0883073 L3.71301438,12.9195463 C4.05583242,11.2936392 5.14462811,9.96249605 6.59193668,9.25353055 C5.90504332,8.61983081 5.47511109,7.71779285 5.47511109,6.71428571 C5.47511109,4.7895502 7.0567276,3.23809524 8.99944071,3.23809524 Z M8.99944071,5.23809524 C8.1527696,5.23809524 7.47511109,5.90283075 7.47511109,6.71428571 C7.47511109,7.52574068 8.1527696,8.19047619 8.99944071,8.19047619 C9.84611183,8.19047619 10.5237703,7.52574068 10.5237703,6.71428571 C10.5237703,5.90283075 9.84611183,5.23809524 8.99944071,5.23809524 Z" id="形状结合"></path>
                </g>
            </g>
        </g>
    </g>
</svg>