<?xml version="1.0" encoding="UTF-8"?>
<svg width="24px" height="24px" viewBox="0 0 24 24" version="1.1" xmlns="http://www.w3.org/2000/svg" xmlns:xlink="http://www.w3.org/1999/xlink">
    <title>用户量</title>
    <g id="2.0" stroke="none" stroke-width="1" fill="none" fill-rule="evenodd">
        <g id="知识库删格" transform="translate(-97.000000, -253.000000)">
            <g id="用户量" transform="translate(97.000000, 253.000000)">
                <polygon id="路径" points="0 0 24 0 24 24 0 24"></polygon>
                <path d="M2.0027807,21.0494436 C2.02044,20.8479557 2.03381039,20.7212532 2.04289188,20.6693359 C2.66797222,17.0958615 5.76633321,14.3809524 9.494425,14.3809524 C13.3103601,14.3809524 16.4665386,17.225309 16.986,20.923342 C16.9888794,20.9438401 16.9927272,20.9837282 16.9975435,21.0430061 C17.0371324,21.5303381 16.6741707,21.9574967 16.1868393,21.9970922 C16.1629904,21.9990299 16.1390728,22 16.1151453,22 L16.1003632,22 C15.6024256,21.9999807 15.1794915,21.6355218 15.1059391,21.1430465 C15.1059391,21.1430465 15.1059391,21.1430465 15.1059391,21.1430465 C14.6953119,18.3936607 12.3393405,16.2857143 9.494425,16.2857143 C6.65102719,16.2857143 4.29605195,18.3914123 3.88356972,21.1386469 C3.88356972,21.1386469 3.88356972,21.1386469 3.88356972,21.1386469 C3.8092306,21.633764 3.38388445,22.0000144 2.8832177,22 L2.87370471,22 C2.39088372,22 1.99947998,21.6085963 1.99947998,21.1257753 C1.99947998,21.100296 2.00059387,21.0748289 2.0027807,21.0494436 Z M9.494425,13.4285714 C6.35904103,13.4285714 3.81952189,10.8714286 3.81952189,7.71428571 C3.81952189,4.55714286 6.35904103,2 9.494425,2 C12.629809,2 15.1693281,4.55714286 15.1693281,7.71428571 C15.1693281,10.8714286 12.629809,13.4285714 9.494425,13.4285714 Z M9.494425,11.5238095 C11.584681,11.5238095 13.2776937,9.81904762 13.2776937,7.71428571 C13.2776937,5.60952381 11.584681,3.9047619 9.494425,3.9047619 C7.40416902,3.9047619 5.71115626,5.60952381 5.71115626,7.71428571 C5.71115626,9.81904762 7.40416902,11.5238095 9.494425,11.5238095 Z" id="形状" fill="#5D6E7F" fill-rule="nonzero"></path>
                <path d="M15.8829862,15.0166745 C15.3856476,14.9589094 14.9996074,14.536238 14.9996074,14.0234022 C14.9996074,13.4711175 15.4473226,13.0234022 15.9996074,13.0234022 L15.9996074,13.0234022 L15.9996074,13.0175115 C19.5027876,13.2614121 22.3547078,16.0260555 22.9480047,19.6119977 L22.9897222,19.8978186 L22.9980635,19.9951564 C23.0376524,20.506855 22.6746907,20.9553716 22.1873593,20.9969468 L22.1008832,21 C21.6412485,21 21.2455221,20.6739077 21.1295099,20.2170303 L21.1064591,20.1001988 C20.7203803,17.3859275 18.6146002,15.267046 15.9996074,15.0234022 Z M15.9996074,2 C16.2581354,2 16.5116867,2.01953681 16.7592568,2.0572132 C16.837681,2.06914817 16.915505,2.08290339 16.9926844,2.09843445 C19.2792429,2.55856598 21,4.57740645 21,7 C21,9.7625 18.7625,12 16,12 L15.8829862,11.9932723 C15.3856476,11.9355072 14.9996074,11.5128358 14.9996074,11 C14.9996074,10.4477153 15.4473226,10 15.9996074,10 L15.9996074,10 C17.6575,10 19,8.6575 19,7 C19,5.55539704 17.9802253,4.35007082 16.6209231,4.06426847 C16.4205972,4.02214861 16.212897,4 16,4 L15.8829862,3.99327227 C15.3856476,3.93550716 14.9996074,3.51283584 14.9996074,3 C14.9996074,2.44771525 15.4473226,2 15.9996074,2 L15.9996074,2 Z" id="形状结合" fill="#5D6E7F" fill-rule="nonzero"></path>
            </g>
        </g>
    </g>
</svg>