<?xml version="1.0" encoding="UTF-8"?>
<svg width="24px" height="24px" viewBox="0 0 24 24" version="1.1" xmlns="http://www.w3.org/2000/svg" xmlns:xlink="http://www.w3.org/1999/xlink">
    <title>下载2</title>
    <g id="2.0" stroke="none" stroke-width="1" fill="none" fill-rule="evenodd">
        <g id="通用基础-删格" transform="translate(-496.000000, -264.000000)">
            <g id="下载2" transform="translate(496.000000, 264.000000)">
                <polygon id="路径" points="0 0 24 0 24 24 0 24"></polygon>
                <path d="M0.999998986,14.5 C0.99874805,12.254398 2.15738871,10.1674078 4.064,8.981 C4.57605709,4.98836067 7.97465886,1.99779418 11.999999,1.99779418 C16.0253411,1.99779418 19.4239429,4.98836067 19.936,8.981 C22.3220747,10.4654675 23.4839964,13.3151995 22.816143,16.0448456 C22.1482896,18.7744918 19.801912,20.7658599 16.999999,20.981 L6.99999899,21 C3.644,20.726 0.999998986,17.922 0.999998986,14.5 Z M20.874461,15.5682403 C21.3362822,13.677958 20.5308047,11.7049774 18.878,10.678 L18.071,10.175 L17.951,9.233 C17.5643042,6.24098398 15.0164013,4.00118707 11.9995,4.00118707 C8.98259869,4.00118707 6.4346958,6.24098398 6.048,9.233 L5.928,10.175 L5.123,10.678 C3.47028502,11.7048556 2.66473426,13.677614 3.12630751,15.5678123 C3.58788077,17.4580105 5.21201652,18.8374564 7.152,18.987 L7.325,19 L16.675,19 L16.848,18.987 C18.7881531,18.8378303 20.4126397,17.4585225 20.874461,15.5682403 Z M13,12 L13,9 C13,8.44771525 12.5522847,8 12,8 C11.4477153,8 11,8.44771525 11,9 L11,12 L11,12 L9.04031242,12 C8.76417005,12 8.54031242,12.2238576 8.54031242,12.5 C8.54031242,12.6135357 8.5789528,12.723691 8.64987802,12.8123475 L11.2191312,16.023914 C11.5641407,16.4551759 12.1934331,16.5250973 12.624695,16.1800878 C12.6823598,16.133956 12.734737,16.0815787 12.7808688,16.023914 L15.350122,12.8123475 C15.5226268,12.5967166 15.4876661,12.2820704 15.2720351,12.1095656 C15.1833786,12.0386404 15.0732233,12 14.9596876,12 L13,12 L13,12 Z" id="形状" fill="#5D6E7F" fill-rule="nonzero"></path>
            </g>
        </g>
    </g>
</svg>