<?xml version="1.0" encoding="UTF-8"?>
<svg width="24px" height="24px" viewBox="0 0 24 24" version="1.1" xmlns="http://www.w3.org/2000/svg" xmlns:xlink="http://www.w3.org/1999/xlink">
    <title>加载</title>
    <g id="2.0" stroke="none" stroke-width="1" fill="none" fill-rule="evenodd">
        <g id="通用基础-删格" transform="translate(-217.000000, -399.000000)">
            <g id="加载" transform="translate(217.000000, 399.000000)">
                <polygon id="路径" points="0 0 24 0 24 24 0 24"></polygon>
                <path d="M17.657,6.343 C17.2690145,6.73098552 16.6517201,6.76624843 16.2220789,6.42496551 C16.0951719,6.3241598 15.9835239,6.24154931 15.887135,6.17713406 C13.5719197,4.62991042 10.4998708,4.58321533 8.11133608,6.17898871 C5.33453373,8.0341626 4.25489466,11.5925006 5.53267833,14.6778807 C6.810462,17.7632608 10.0897911,19.5163695 13.3651732,18.8650832 C16.3158408,18.278364 18.5229816,15.8875599 18.9317802,12.9777851 C18.9336901,12.9641909 18.9355705,12.9501406 18.9374216,12.9356344 C19.0056427,12.4007705 19.4608029,12 20,12 L20.078385,12 C20.5615269,12.000015 20.9531908,12.3916789 20.9531908,12.8748208 C20.9531908,12.9060754 20.9515158,12.9373076 20.9481731,12.9683829 C20.9481731,12.9683829 20.9481731,12.9683829 20.9481731,12.9683829 C20.5317785,16.8393392 17.6466032,20.0530957 13.7557421,20.8270037 C9.54457042,21.6646227 5.32814447,19.4108542 3.68505875,15.4440115 C2.04197303,11.4771687 3.42984912,6.90207094 6.99991847,4.51666176 C10.2066645,2.3740139 14.3718147,2.53407218 17.3866329,4.78913052 C17.4470921,4.83435345 17.5144642,4.88746832 17.5887493,4.94847511 C17.9909054,5.27878238 18.0491819,5.87255812 17.718896,6.27473175 C17.6993897,6.29848365 17.678733,6.32126697 17.657,6.343 Z" id="路径" fill="#5D6E7F" fill-rule="nonzero"></path>
            </g>
        </g>
    </g>
</svg>