<?xml version="1.0" encoding="UTF-8"?>
<svg width="24px" height="24px" viewBox="0 0 24 24" version="1.1" xmlns="http://www.w3.org/2000/svg" xmlns:xlink="http://www.w3.org/1999/xlink">
    <title>收藏</title>
    <g id="2.0" stroke="none" stroke-width="1" fill="none" fill-rule="evenodd">
        <g id="通用基础-删格" transform="translate(-252.000000, -220.000000)">
            <g id="收藏" transform="translate(252.000000, 220.000000)">
                <polygon id="路径" points="0 0 24 0 24 24 0 24"></polygon>
                <path d="M13.6511711,2.91580475 L15.8230992,6.09352166 C16.0836467,6.47472497 16.4680684,6.75403412 16.9111232,6.88404701 L20.6052083,7.96806336 C21.6650866,8.27908092 22.2721581,9.39041153 21.9611405,10.4502898 C21.8911676,10.6887418 21.7773681,10.912065 21.6255704,11.1088213 L19.2741656,14.1566532 C18.9921071,14.5222502 18.8452428,14.9741835 18.8584991,15.4357487 L18.9689998,19.2832304 C19.0007103,20.3873447 18.1313553,21.3081125 17.027241,21.339823 C16.7788818,21.3469559 16.5313678,21.3077491 16.2973713,21.2242097 L12.6724529,19.9300732 C12.237592,19.774823 11.762408,19.774823 11.3275471,19.9300732 L7.70262871,21.2242097 C6.66236594,21.5955951 5.51799895,21.053363 5.14661349,20.0131002 C5.06307412,19.7791037 5.02386725,19.5315897 5.03100019,19.2832304 L5.14150094,15.4357487 C5.15475722,14.9741835 5.00789288,14.5222502 4.72583445,14.1566532 L2.3744296,11.1088213 C1.69971511,10.2342734 1.86171214,8.97834799 2.7362601,8.3036335 C2.93301645,8.15183581 3.15633959,8.03803629 3.39479166,7.96806336 L7.08887677,6.88404701 C7.53193163,6.75403412 7.91635327,6.47472497 8.17690077,6.09352166 L10.3488289,2.91580475 C10.972112,2.00388814 12.2166373,1.76990447 13.1285539,2.3931876 C13.3337149,2.53341244 13.5109463,2.71064381 13.6511711,2.91580475 Z M11.1743583,5.25224262 L9.4250565,7.81216782 C9.16441637,8.19358813 8.77977218,8.47301842 8.33646438,8.60299119 L5.3617292,9.47514948 C4.83175317,9.63053239 4.52808544,10.1861256 4.68346834,10.7161016 C4.71847264,10.8354934 4.77544953,10.9473045 4.85147326,11.0457936 L6.74532449,13.4992852 C7.02769882,13.8651022 7.17467871,14.3174171 7.1612806,14.7793455 L7.07142297,17.8773779 C7.05541083,18.4294305 7.48995747,18.8899379 8.04201005,18.9059501 C8.16624203,18.9095534 8.29005716,18.8899667 8.40711095,18.8481938 L11.3277157,17.805918 C11.762475,17.6507655 12.2375196,17.6507806 12.672269,17.8059608 L15.5921063,18.8481724 C16.1122492,19.033833 16.6844159,18.7626816 16.8700766,18.2425388 C16.9118428,18.1255275 16.9314383,18.0017576 16.9278598,17.8775672 L16.8385731,14.7789668 C16.8252692,14.3172689 16.9721798,13.8651976 17.2543568,13.4995227 L19.1478957,11.0456748 C19.4852969,10.6084347 19.4043614,9.98046392 18.9671214,9.64306276 C18.868675,9.56709557 18.7569236,9.51015592 18.6375993,9.47516449 L15.6634672,8.60301083 C15.2202015,8.47302472 14.8355969,8.19360754 14.5749774,7.81221745 L12.8256417,5.25224262 C12.5140455,4.7962533 11.8917945,4.67919954 11.4358052,4.99079573 C11.3331625,5.0609357 11.2444983,5.14959992 11.1743583,5.25224262 Z" id="形状" fill="#5D6E7F" fill-rule="nonzero"></path>
            </g>
        </g>
    </g>
</svg>