<?xml version="1.0" encoding="UTF-8"?>
<svg width="16px" height="16px" viewBox="0 0 16 16" version="1.1" xmlns="http://www.w3.org/2000/svg" xmlns:xlink="http://www.w3.org/1999/xlink">
    <title>完成-小</title>
    <g id="组件" stroke="none" stroke-width="1" fill="none" fill-rule="evenodd">
        <g transform="translate(-2125.000000, -321.000000)" id="编组-44备份-4">
            <g transform="translate(2109.000000, 309.000000)">
                <g id="完成-小" transform="translate(16.000000, 12.000000)">
                    <polygon id="路径" points="0 0 16 0 16 16 0 16"></polygon>
                    <path d="M8,1 C11.8661,1 15,4.1339 15,8 C15,11.8661 11.8661,15 8,15 C4.1339,15 1,11.8661 1,8 C1,4.1339 4.1339,1 8,1 Z M11.5595987,5.56885278 C11.3132545,5.32268274 10.9294209,5.29775127 10.65523,5.49427472 L10.5682329,5.56798487 L7.3021,8.8204 L5.8167,7.335 C5.54337428,7.06167428 5.10022572,7.06167428 4.8269,7.335 C4.58090685,7.58099315 4.55630753,7.96454279 4.75310205,8.23804724 L4.8269,8.3248 L6.59622181,10.0941218 C6.95626258,10.4541626 7.52265163,10.4823264 7.91497132,10.1782826 L8.00920464,10.0953504 L11.5599479,6.55693307 L11.5599479,6.55693307 C11.8327023,6.28398579 11.8325459,5.84160717 11.5595987,5.56885278 Z" id="形状" fill="#04CB81" fill-rule="nonzero"></path>
                </g>
            </g>
        </g>
    </g>
</svg>