<?xml version="1.0" encoding="UTF-8"?>
<svg width="24px" height="24px" viewBox="0 0 24 24" version="1.1" xmlns="http://www.w3.org/2000/svg" xmlns:xlink="http://www.w3.org/1999/xlink">
    <title>鼠标</title>
    <g id="2.0" stroke="none" stroke-width="1" fill="none" fill-rule="evenodd">
        <g id="通用基础-删格" transform="translate(-496.000000, -399.000000)">
            <g id="鼠标" transform="translate(496.000000, 399.000000)">
                <polygon id="路径" points="0 0 24 0 24 24 0 24"></polygon>
                <path d="M8.013,4.565 C7.39502303,4.89014955 6.89014955,5.39502303 6.565,6.013 C6.169,6.753 6,7.559 6,9.14 L6,14.858 C6,16.44 6.169,17.245 6.565,17.986 C6.902,18.616 7.383,19.097 8.013,19.434 C8.753,19.83 9.559,19.999 11.141,19.999 L12.859,19.999 C14.441,19.999 15.246,19.83 15.987,19.434 C16.604977,19.1088505 17.1098505,18.603977 17.435,17.986 C17.831,17.246 18,16.44 18,14.858 L18,9.14 C18,7.558 17.831,6.753 17.435,6.012 C17.1098505,5.39402303 16.604977,4.88914955 15.987,4.564 C15.247,4.169 14.441,4 12.86,4 L11.14,4 C9.559,4 8.754,4.169 8.013,4.565 Z M11.141,2 L12.859,2 C14.873,2 15.953,2.278 16.931,2.801 C17.897308,3.31248886 18.6875111,4.10269198 19.199,5.069 C19.722,6.047 20,7.127 20,9.141 L20,14.859 C20,16.873 19.722,17.953 19.199,18.931 C18.6875111,19.897308 17.897308,20.6875111 16.931,21.199 C15.953,21.722 14.873,22 12.859,22 L11.14,22 C9.126,22 8.046,21.722 7.068,21.199 C6.10169198,20.6875111 5.31148886,19.897308 4.8,18.931 C4.278,17.953 4,16.873 4,14.859 L4,9.14 C4,7.126 4.278,6.046 4.801,5.068 C5.3129149,4.10191749 6.10346644,3.31206277 7.07,2.801 C8.047,2.278 9.127,2 11.141,2 Z M12,6 C12.5522847,6 13,6.44771525 13,7 L13,10 C13,10.5522847 12.5522847,11 12,11 C11.4477153,11 11,10.5522847 11,10 L11,7 C11,6.44771525 11.4477153,6 12,6 Z" id="形状" fill="#5D6E7F" fill-rule="nonzero"></path>
            </g>
        </g>
    </g>
</svg>