<?xml version="1.0" encoding="UTF-8"?>
<svg width="24px" height="24px" viewBox="0 0 24 24" version="1.1" xmlns="http://www.w3.org/2000/svg" xmlns:xlink="http://www.w3.org/1999/xlink">
    <title>文件夹</title>
    <g id="2.0" stroke="none" stroke-width="1" fill="none" fill-rule="evenodd">
        <g id="通用基础-删格" transform="translate(-461.000000, -76.000000)">
            <g id="文件夹" transform="translate(461.000000, 76.000000)">
                <polygon id="路径" points="0 0 24 0 24 24 0 24"></polygon>
                <path d="M2,18.0072026 L2,6 C2,5 2.53212528,3 5.0053608,3 L9.99978644,3 C10.2650029,3 10.5193568,3.10535684 10.7068932,3.29289322 L12.1211068,4.70710678 C12.3086432,4.89464316 12.5629971,5 12.8282136,5 L20,5 L20,5 C20.5522847,5 21,5.44771525 21,6 L21,8 C21,8.55228475 20.5522847,9 20,9 C19.4477153,9 19,8.55228475 19,8 L19,7.5 C19,7.22385763 18.7761424,7 18.5,7 L12.4144271,7 C11.8839941,7 11.3752863,6.78928632 11.0002136,6.41421356 L9.87889322,5.29289322 C9.69135684,5.10535684 9.43700293,5 9.17178644,5 L5,5 C4.44771525,5 4,5.44771525 4,6 L4,16.998 L4,16.998 L5.1211796,12.5147765 C5.34381876,11.6245167 6.14374975,11 7.06142653,11 L20.5757148,11 C21.4041419,11 22.0757148,11.6715729 22.0757148,12.5 C22.0757148,12.6234328 22.0604793,12.7463937 22.030354,12.8660939 L20.4866136,19 L20.4866136,19 C20.0354397,20.801031 18.7419407,21 18.0500186,21 L5.0053608,21 C3,21 2,20.0009222 2,18.0072026 Z M19.2976118,13 L7.84277641,13 C7.38390876,13 6.98392566,13.3122974 6.87263391,13.7574644 L5.71731695,18.3787322 C5.65034259,18.6466296 5.81322294,18.9180969 6.08112039,18.9850713 C6.12078069,18.9949863 6.1615073,19 6.2023882,19 L17.6572236,19 C18.1160912,19 18.5160743,18.6877026 18.6273661,18.2425356 L19.782683,13.6212678 C19.8496574,13.3533704 19.6867771,13.0819031 19.4188796,13.0149287 C19.3792193,13.0050137 19.3384927,13 19.2976118,13 Z" id="形状" fill="#5D6E7F" fill-rule="nonzero"></path>
            </g>
        </g>
    </g>
</svg>