<?xml version="1.0" encoding="UTF-8"?>
<svg width="24px" height="24px" viewBox="0 0 24 24" version="1.1" xmlns="http://www.w3.org/2000/svg" xmlns:xlink="http://www.w3.org/1999/xlink">
    <title>性别</title>
    <g id="2.0" stroke="none" stroke-width="1" fill="none" fill-rule="evenodd">
        <g id="通用基础-删格" transform="translate(-183.000000, -123.000000)">
            <g id="性别" transform="translate(183.000000, 123.000000)">
                <polygon id="路径" points="0 0 24 0 24 24 0 24"></polygon>
                <path d="M13,7.066 C16.9094297,7.59600384 19.7401277,11.0637809 19.4765428,15.0001583 C19.2129578,18.9365358 15.9451905,21.9959517 12,22 C8.04958453,22.0038082 4.77346194,18.9426816 4.50952793,15.0010911 C4.24559392,11.0595006 7.08434453,7.58891408 11,7.066 L11,3 C11,2.44771525 11.4477153,2 12,2 C12.5522847,2 13,2.44771525 13,3 L13,7.066 L13,7.066 Z M12,20 C15.0375661,20 17.5,17.5375661 17.5,14.5 C17.5,11.4624339 15.0375661,9 12,9 C8.96243388,9 6.5,11.4624339 6.5,14.5 C6.5,17.5375661 8.96243388,20 12,20 Z" id="形状" fill="#5D6E7F" fill-rule="nonzero"></path>
            </g>
        </g>
    </g>
</svg>