<?xml version="1.0" encoding="UTF-8"?>
<svg width="24px" height="24px" viewBox="0 0 24 24" version="1.1" xmlns="http://www.w3.org/2000/svg" xmlns:xlink="http://www.w3.org/1999/xlink">
    <title>文本文件</title>
    <g id="2.0" stroke="none" stroke-width="1" fill="none" fill-rule="evenodd">
        <g id="通用基础-删格" transform="translate(-287.000000, -352.000000)">
            <g id="文本文件" transform="translate(287.000000, 352.000000)">
                <polygon id="路径" points="0 0 24 0 24 24 0 24"></polygon>
                <path d="M14.1438437,2 C14.6736583,2 15.1818251,2.21022399 15.5567947,2.58452499 L15.5567947,2.58452499 L20.4022199,7.42131 C20.7780649,7.79648485 20.9892689,8.30573355 20.9892689,8.83678501 L20.9892689,8.83678501 L20.9892689,17 L20.9846494,17.2168896 C20.871087,19.8776933 18.6780236,22 15.9892689,22 L15.9892689,22 L7.98926888,22 L7.77237926,21.9953805 C5.11157559,21.8818181 2.98926888,19.6887547 2.98926888,17 L2.98926888,17 L2.98926888,7 L2.9938884,6.78311038 C3.10745077,4.12230671 5.30051418,2 7.98926888,2 L7.98926888,2 Z M12.9706163,4 L7.98926888,4 C6.33241463,4 4.98926888,5.34314575 4.98926888,7 L4.98926888,7 L4.98926888,17 L4.99436157,17.1762728 C5.085608,18.75108 6.391588,20 7.98926888,20 L7.98926888,20 L15.9892689,20 L16.1655417,19.9949073 C17.7403489,19.9036609 18.9892689,18.5976809 18.9892689,17 L18.9892689,17 L18.9892689,10.0162597 L15.9706163,10.0162597 L15.7943435,10.011167 C14.2195362,9.91992053 12.9706163,8.61394053 12.9706163,7.01625965 L12.9706163,7.01625965 L12.9706163,4 Z M14.9892689,15 C15.5415536,15 15.9892689,15.4477153 15.9892689,16 C15.9892689,16.5522847 15.5415536,17 14.9892689,17 L8.98926888,17 C8.43698413,17 7.98926888,16.5522847 7.98926888,16 C7.98926888,15.4477153 8.43698413,15 8.98926888,15 L14.9892689,15 Z M14.9892689,11 C15.5415536,11 15.9892689,11.4477153 15.9892689,12 C15.9892689,12.5522847 15.5415536,13 14.9892689,13 L8.98926888,13 C8.43698413,13 7.98926888,12.5522847 7.98926888,12 C7.98926888,11.4477153 8.43698413,11 8.98926888,11 L14.9892689,11 Z M9.98926888,7 C10.5415536,7 10.9892689,7.44771525 10.9892689,8 C10.9892689,8.55228475 10.5415536,9 9.98926888,9 L8.98926888,9 C8.43698413,9 7.98926888,8.55228475 7.98926888,8 C7.98926888,7.44771525 8.43698413,7 8.98926888,7 L9.98926888,7 Z M14.9785378,4.83531221 L14.9785378,7.00731221 L14.9852655,7.12393334 C15.0430306,7.62127202 15.4657019,8.00731221 15.9785378,8.00731221 L15.9785378,8.00731221 L18.1505378,8.00731221 L14.9785378,4.83531221 Z" id="形状结合" fill="#5D6E7F" fill-rule="nonzero"></path>
                <g id="编组-2" transform="translate(11.989269, 12.000000) scale(-1, 1) translate(-11.989269, -12.000000) translate(2.989269, 2.000000)"></g>
            </g>
        </g>
    </g>
</svg>