<?xml version="1.0" encoding="UTF-8"?>
<svg width="24px" height="24px" viewBox="0 0 24 24" version="1.1" xmlns="http://www.w3.org/2000/svg" xmlns:xlink="http://www.w3.org/1999/xlink">
    <title>删除线</title>
    <g id="2.0" stroke="none" stroke-width="1" fill="none" fill-rule="evenodd">
        <g id="通用基础-删格" transform="translate(-426.000000, -310.000000)">
            <g id="删除线" transform="translate(426.000000, 310.000000)">
                <polygon id="路径" points="0 0 24 0 24 24 0 24"></polygon>
                <path d="M17.5,15.72 C17.5,17.062 16.976,18.112 15.929,18.867 C14.88,19.622 13.433,20 11.586,20 C10.30911,20 9.04252549,19.769036 7.78577446,19.3066361 L6.76459682,18.9006405 C6.24620338,18.6919481 5.99514102,18.1025287 6.20383335,17.5841352 C6.39761908,17.1027699 6.91968486,16.8519094 7.40833179,16.9856189 L7.54506458,17.0337084 L7.56950814,17.0446963 C8.81686615,17.6253859 10.0875172,17.916 11.382,17.916 C13.933,17.916 15.212,17.184 15.221,15.719 C15.231658,15.1188382 14.9977315,14.540159 14.573,14.116 L14.453,13.999 L4,13.999 C3.44771525,13.999 3,13.5512847 3,12.999 C3,12.4467153 3.44771525,11.999 4,11.999 L20,11.999 C20.5522847,11.999 21,12.4467153 21,12.999 C21,13.5512847 20.5522847,13.999 20,13.999 L17.154,13.999 C17.384,14.516 17.5,15.09 17.5,15.72 Z M7.629,11 C7.45382796,10.8402824 7.29288751,10.6656235 7.148,10.478 C6.716,9.92 6.5,9.246 6.5,8.452 C6.5,7.216 6.966,6.165 7.897,5.299 C8.83,4.433 10.271,4 12.222,4 C13.3040513,4 14.3520139,4.17747787 15.3650917,4.5324336 L16.0859597,4.79927736 L16.3286928,4.88547111 C16.8424055,5.06695419 17.1117308,5.63052167 16.9302477,6.14423431 C16.7617277,6.62125319 16.2637573,6.88755031 15.7821714,6.77785347 L15.6427511,6.73513345 L15.6143626,6.72359041 C14.6448345,6.31170865 13.6062018,6.106 12.498,6.106 C10.018,6.106 8.779,6.888 8.779,8.452 C8.779,8.872 8.997,9.238 9.433,9.551 C9.80671429,9.81928571 10.2553673,10.040551 10.7783294,10.2166851 L11.046,10.301 C11.666,10.481 12.343,10.715 13.076,11 L7.629,11 Z" id="形状" fill="#5D6E7F" fill-rule="nonzero"></path>
            </g>
        </g>
    </g>
</svg>