<?xml version="1.0" encoding="UTF-8"?>
<svg width="24px" height="24px" viewBox="0 0 24 24" version="1.1" xmlns="http://www.w3.org/2000/svg" xmlns:xlink="http://www.w3.org/1999/xlink">
    <title>开关</title>
    <g id="2.0" stroke="none" stroke-width="1" fill="none" fill-rule="evenodd">
        <g id="通用基础-删格" transform="translate(-357.000000, -172.000000)">
            <g id="开关" transform="translate(357.000000, 172.000000)">
                <polygon id="路径" points="0 0 24 0 24 24 0 24"></polygon>
                <path d="M6.66120996,6.04682406 C6.57262626,6.12324547 6.49661257,6.19216638 6.4331689,6.2535868 C4.28359733,8.33460723 3.44924733,11.4837227 4.37015217,14.4049349 C5.41996943,17.7350716 8.50830603,19.9996445 12,19.9996445 C15.491694,19.9996445 18.5800306,17.7350716 19.6298478,14.4049349 C20.5433055,11.5073461 19.7297824,8.38552508 17.6187225,6.30428227 C17.5429763,6.22960594 17.4498787,6.14466424 17.3394296,6.04945717 C16.9236874,5.69111192 16.8468018,5.07618651 17.1615,4.6265 C17.4586559,4.20188047 18.0437706,4.09855082 18.4683901,4.39570677 C18.4909559,4.4114987 18.5128155,4.42827644 18.533899,4.44599887 C18.7826998,4.65498313 18.9813053,4.83484671 19.1297155,4.98558962 C20.9539233,6.83847049 22.0019065,9.35184343 21.9999819,12 C21.9999819,17.523 17.523,22 12,22 C6.477,22 1.99998194,17.523 1.99998194,12 C1.99795187,9.15768378 3.20539401,6.47064009 5.28394091,4.58889555 C5.33248831,4.54494474 5.38781918,4.49683002 5.4499335,4.4445514 C5.85092222,4.1070808 6.44956345,4.158553 6.78704705,4.55953078 C6.80518335,4.58107924 6.82235133,4.60342444 6.8385,4.6265 C7.15257926,5.07530201 7.07597321,5.68899662 6.66120996,6.04682406 Z M11,11 L11,3 C11,2.44771525 11.4477153,2 12,2 C12.5522847,2 13,2.44771525 13,3 L13,11 C13,11.5522847 12.5522847,12 12,12 C11.4477153,12 11,11.5522847 11,11 Z" id="形状" fill="#5D6E7F" fill-rule="nonzero"></path>
            </g>
        </g>
    </g>
</svg>