<?xml version="1.0" encoding="UTF-8"?>
<svg width="24px" height="24px" viewBox="0 0 24 24" version="1.1" xmlns="http://www.w3.org/2000/svg" xmlns:xlink="http://www.w3.org/1999/xlink">
    <title>导航</title>
    <g id="2.0" stroke="none" stroke-width="1" fill="none" fill-rule="evenodd">
        <g id="通用基础-删格" transform="translate(-217.000000, -220.000000)">
            <g id="导航" transform="translate(217.000000, 220.000000)">
                <polygon id="路径" points="0 0 24 0 24 24 0 24"></polygon>
                <path d="M2.5881836,3.91730597 C2.46252775,4.29997814 2.45534007,4.71167365 2.56756147,5.09849886 L6.56375763,18.8733171 C6.93306493,20.146313 8.26441466,20.8788972 9.53741048,20.5095899 C10.1753603,20.3245151 10.7080754,19.8833189 11.0087577,19.291016 L13.7855423,13.8211307 C13.8962614,13.6030291 14.0830764,13.4330697 14.310645,13.3434059 L18.7568512,11.5915671 C19.9900635,11.1056722 20.5958838,9.71206053 20.1099889,8.47884831 C19.848227,7.81449082 19.3042291,7.30119377 18.6258021,7.07842262 L5.11231503,2.64107694 C4.11284783,2.31288767 3.04022727,2.81552464 2.64266196,3.77068524 L2.5881836,3.91730597 Z M8.48455998,18.3160755 L4.48836383,4.54125717 L18.0018509,8.97860285 C18.1149221,9.01573137 18.2055884,9.10128088 18.2492154,9.21200713 C18.3301979,9.4175425 18.2292278,9.64981111 18.0236924,9.7307936 L13.5774862,11.4826324 C12.8947805,11.7516236 12.3343354,12.2615018 12.0021779,12.9158067 L9.22539332,18.3856919 C9.17527961,18.4844091 9.08649376,18.5579418 8.98016879,18.5887876 C8.76800282,18.6503388 8.5461112,18.5282414 8.48455998,18.3160755 Z" id="路径" fill="#5D6E7F" fill-rule="nonzero"></path>
            </g>
        </g>
    </g>
</svg>