<?xml version="1.0" encoding="UTF-8"?>
<svg width="24px" height="24px" viewBox="0 0 24 24" version="1.1" xmlns="http://www.w3.org/2000/svg" xmlns:xlink="http://www.w3.org/1999/xlink">
    <title>语音</title>
    <g id="2.0" stroke="none" stroke-width="1" fill="none" fill-rule="evenodd">
        <g id="通用基础-删格" transform="translate(-461.000000, -352.000000)">
            <g id="语音" transform="translate(461.000000, 352.000000)">
                <polygon id="路径" points="0 0 24 0 24 24 0 24"></polygon>
                <path d="M12,3 C10.3431458,3 9,4.34314575 9,6 L9,10 C9,11.6568542 10.3431458,13 12,13 C13.6568542,13 15,11.6568542 15,10 L15,6 C15,4.34314575 13.6568542,3 12,3 Z M15.5355339,2.46446609 C16.4732158,3.40214799 17,4.67391755 17,6 L17,10 C17,12.7614237 14.7614237,15 12,15 C9.23857625,15 7,12.7614237 7,10 L7,6 C7,3.23857625 9.23857625,1 12,1 C13.3260824,1 14.597852,1.5267842 15.5355339,2.46446609 Z M4.02032831,10.9538022 L4.04794562,10.9496967 C4.60294244,10.8671925 5.12549782,11.2333017 5.23749989,11.7831052 C5.25390069,11.8636219 5.27031954,11.9316015 5.28675644,11.9870439 C6.15575171,14.9182056 8.86312448,16.9935542 11.999,16.9935542 C15.0854337,16.9935542 17.7567702,14.9831317 18.6687751,12.1250434 C18.6924529,12.0508406 18.7129388,11.962446 18.7302328,11.8598596 C18.8188153,11.3344937 19.2737431,10.9498384 19.8065247,10.9498384 L19.9087947,10.9498384 C20.3957899,10.9498789 20.7905775,11.3446666 20.7905775,11.8316618 C20.7905775,11.8985039 20.7829773,11.9651293 20.7679233,12.0302542 C20.7679233,12.0302542 20.7679233,12.0302542 20.7679233,12.0302542 C19.9171275,15.7108729 16.8282081,18.5154627 13,18.945 L13,22 C13,22.5522847 12.5522847,23 12,23 C11.4477153,23 11,22.5522847 11,22 L11,18.945 L11,18.945 C7.19506762,18.5185104 4.12021729,15.7457512 3.2471215,12.0983949 C3.2471215,12.0983949 3.2471215,12.0983949 3.2471215,12.0983949 C3.12669066,11.5952952 3.43690502,11.0898239 3.94000467,10.9693931 C3.96654168,10.9630407 3.9933436,10.9578509 4.02032831,10.9538022 Z" id="形状" fill="#5D6E7F" fill-rule="nonzero"></path>
            </g>
        </g>
    </g>
</svg>