<?xml version="1.0" encoding="UTF-8"?>
<svg width="50px" height="50px" viewBox="0 0 50 50" version="1.1" xmlns="http://www.w3.org/2000/svg" xmlns:xlink="http://www.w3.org/1999/xlink">
    <title>人工客服</title>
    <g id="组件" stroke="none" stroke-width="1" fill="none" fill-rule="evenodd">
        <g transform="translate(-293.000000, -935.000000)" id="人工客服">
            <g transform="translate(293.000000, 935.000000)">
                <path d="M0,25 C0,38.8071187 11.1928813,50 25,50 C38.8071187,50 50,38.8071187 50,25 C50,11.1928813 38.8071187,0 25,0 C11.1928813,0 0,11.1928813 0,25 Z" id="路径" fill="#E8EDF5" fill-rule="nonzero"></path>
                <g id="编组-31" transform="translate(11.000000, 8.000000)">
                    <path d="M11,17 C13.7614237,17 16,19.2385763 16,22 C16,24.7614237 13.7614237,27 11,27 L5,27 C2.23857625,27 3.38176876e-16,24.7614237 0,22 C-3.38176876e-16,19.2385763 2.23857625,17 5,17 L11,17 Z M8,3 C11.3137085,3 14,5.6862915 14,9 C14,12.3137085 11.3137085,15 8,15 C4.6862915,15 2,12.3137085 2,9 C2,5.6862915 4.6862915,3 8,3 Z" id="形状结合" fill="#0569FF"></path>
                    <path d="M7.59679988,15 C11.165409,15 14,12.0058133 14,9 C14,5.99418675 11.165409,3 7.59679988,3 C7.62509209,8.67922454 7.63170498,8.82686422 7.59679988,15 Z" id="椭圆形" fill="#CEE1FF"></path>
                    <path d="M3.71816289,31.9692323 C3.29300982,31.7512861 3.01874126,31.3208487 3.00092243,30.8435944 C2.98310361,30.3663401 3.22451227,29.9166672 3.63223087,29.6676535 C4.03994947,29.4186398 4.55041948,29.4091037 4.96716238,29.6427155 C7.07642446,30.773571 9.43355276,31.3633751 11.8270825,31.3592148 C19.8521189,31.3592148 26.3580127,24.8563234 26.3580127,16.8349903 C26.3580127,9.91881871 21.4842066,4.0008574 14.7946947,2.61379395 C14.0802685,2.46557835 13.6213196,1.7665363 13.7696037,1.05243983 C13.9178877,0.338343348 14.6172524,-0.120393758 15.3316786,0.0278218163 C23.2404676,1.6677388 29,8.66181308 29,16.8349903 C29,26.3153478 21.3118169,34 11.8270825,34 C8.99765835,34.0039824 6.21144775,33.3062201 3.71816289,31.9692323 L3.71816289,31.9692323 Z M22.5263871,20.1126008 C22.3148652,20.7826054 21.6045201,21.1529193 20.9397868,20.93972 C20.2750536,20.7265208 19.9076532,20.0105426 20.119175,19.340538 C20.3540866,18.5983903 20.4740683,17.8193261 20.4740683,17.0230767 C20.4740683,14.2377949 18.9837692,11.7166567 16.6207609,10.3692066 C16.028201,10.0163581 15.8250259,9.2502657 16.1638735,8.64646575 C16.5027211,8.04266579 17.2588239,7.82348415 17.8641503,8.15358373 C21.0386922,9.95924786 23.0015349,13.3490323 23,17.0230767 C23,18.0821966 22.838971,19.1215854 22.5263871,20.1126008 L22.5263871,20.1126008 Z" id="形状" fill="#0569FF" fill-rule="nonzero"></path>
                </g>
            </g>
        </g>
    </g>
</svg>