<?xml version="1.0" encoding="UTF-8"?>
<svg width="24px" height="24px" viewBox="0 0 24 24" version="1.1" xmlns="http://www.w3.org/2000/svg" xmlns:xlink="http://www.w3.org/1999/xlink">
    <title>右向双箭头</title>
    <g id="2.0" stroke="none" stroke-width="1" fill="none" fill-rule="evenodd">
        <g id="通用基础-删格" transform="translate(-287.000000, -76.000000)">
            <g id="右向双箭头" transform="translate(287.000000, 76.000000)">
                <polygon id="路径" points="0 0 24 0 24 24 0 24"></polygon>
                <path d="M7.343,6.343 L12.2928932,11.2928932 C12.6834175,11.6834175 12.6834175,12.3165825 12.2928932,12.7071068 L7.343,17.657 C6.95253468,18.0474653 6.31946532,18.0474653 5.929,17.657 C5.53853468,17.2665347 5.53853468,16.6334653 5.929,16.243 L10.172,12 L5.929,7.757 C5.53853468,7.36653468 5.53853468,6.73346532 5.929,6.343 C6.31946532,5.95253468 6.95253468,5.95253468 7.343,6.343 Z M13.343,6.343 L18.2928932,11.2928932 C18.6834175,11.6834175 18.6834175,12.3165825 18.2928932,12.7071068 L13.343,17.657 C12.9525347,18.0474653 12.3194653,18.0474653 11.929,17.657 C11.5385347,17.2665347 11.5385347,16.6334653 11.929,16.243 L16.172,12 L11.929,7.757 C11.5385347,7.36653468 11.5385347,6.73346532 11.929,6.343 C12.3194653,5.95253468 12.9525347,5.95253468 13.343,6.343 Z" id="路径-2" fill="#5D6E7F" fill-rule="nonzero"></path>
            </g>
        </g>
    </g>
</svg>