<?xml version="1.0" encoding="UTF-8"?>
<svg width="24px" height="24px" viewBox="0 0 24 24" version="1.1" xmlns="http://www.w3.org/2000/svg" xmlns:xlink="http://www.w3.org/1999/xlink">
    <title>饼状图</title>
    <g id="2.0" stroke="none" stroke-width="1" fill="none" fill-rule="evenodd">
        <g id="通用基础-删格" transform="translate(-496.000000, -310.000000)">
            <g id="饼状图" transform="translate(496.000000, 310.000000)">
                <polygon id="路径" points="0 0 24 0 24 24 0 24"></polygon>
                <path d="M12,22 C6.477,22 2,17.523 2,12 C2,7.9956834 4.35330869,4.54151168 7.75211003,2.94458583 L8.01559636,2.82543063 C8.51861919,2.60670372 9.10371296,2.8371711 9.32243986,3.34019393 C9.53197283,3.82207276 9.32990268,4.38377477 8.86140986,4.62173642 L8.05827672,5.0376572 C5.10350037,6.71333172 3.49184884,10.1160862 4.155254,13.5255465 C4.8860949,17.2815815 8.17352645,19.9947761 12,20 C14.8834028,19.9999204 17.5118489,18.4529154 18.9272781,16.004752 L19.0647422,15.7569557 C19.3238819,15.2696663 19.9289823,15.0847145 20.4162718,15.3438543 C20.8974894,15.5997651 21.0848948,16.1940753 20.8375187,16.6797355 L20.7497263,16.8453356 C19.0439734,19.9193689 15.7651865,22 12,22 Z M21,13 L13,13 C11.8954305,13 11,12.1045695 11,11 L11,2.99998621 C11.0000138,2.44770908 11.4477229,2 12,2 C12,2 12,2 12,2 C17.523,2 22,6.477 22,12 C22,12 22,12 22,12 C22,12.5522848 21.5522847,13 21,13 Z M13,4.60307234 L13,10 C13,10.5522847 13.4477153,11 14,11 L19.5222094,11 C19.7194139,11.0000228 19.8792798,10.840157 19.8792798,10.6429524 C19.8792798,10.6217085 19.8773839,10.600507 19.8736148,10.5796001 C19.8736148,10.5796001 19.8736148,10.5796001 19.8736148,10.5796001 C19.2892222,7.33806535 16.7729639,4.78673115 13.5501143,4.15087199 C13.5501143,4.15087199 13.5501143,4.15087199 13.5501143,4.15087199 C13.3003709,4.10159833 13.0579698,4.26411113 13.0086961,4.51385448 C13.0028984,4.54323989 12.9999789,4.57312046 13,4.60307234 Z" id="形状" fill="#5D6E7F" fill-rule="nonzero"></path>
            </g>
        </g>
    </g>
</svg>