<?xml version="1.0" encoding="UTF-8"?>
<svg width="24px" height="24px" viewBox="0 0 24 24" version="1.1" xmlns="http://www.w3.org/2000/svg" xmlns:xlink="http://www.w3.org/1999/xlink">
    <title>滑块</title>
    <g id="2.0" stroke="none" stroke-width="1" fill="none" fill-rule="evenodd">
        <g id="通用基础-删格" transform="translate(-392.000000, -172.000000)">
            <g id="滑块" transform="translate(392.000000, 172.000000)">
                <polygon id="路径" points="0 0 24 0 24 24 0 24"></polygon>
                <path d="M9,15.9975494 C10.2724671,15.9975494 11.4066007,16.8000393 11.83,18 L21,18 C21.5522847,18 22,18.4477153 22,19 C22,19.5522847 21.5522847,20 21,20 L11.83,20 L11.83,20 C11.4066007,21.1999607 10.2724671,22.0024506 9,22.0024506 C7.72753287,22.0024506 6.59339932,21.1999607 6.17,20 L3,20 C2.44771525,20 2,19.5522847 2,19 C2,18.4477153 2.44771525,18 3,18 L6.17,18 L6.17,18 C6.59339932,16.8000393 7.72753287,15.9975494 9,15.9975494 Z M15,8.99754945 C16.2724671,8.99754945 17.4066007,9.80003932 17.83,11 L21,11 C21.5522847,11 22,11.4477153 22,12 C22,12.5522847 21.5522847,13 21,13 L17.83,13 L17.83,13 C17.4066007,14.1999607 16.2724671,15.0024506 15,15.0024506 C13.7275329,15.0024506 12.5933993,14.1999607 12.17,13 L3,13 C2.44771525,13 2,12.5522847 2,12 C2,11.4477153 2.44771525,11 3,11 L12.17,11 L12.17,11 C12.5933993,9.80003932 13.7275329,8.99754945 15,8.99754945 Z M6.17,4 C6.59339932,2.80003932 7.72753287,1.99754945 9,1.99754945 C10.2724671,1.99754945 11.4066007,2.80003932 11.83,4 L21,4 C21.5522847,4 22,4.44771525 22,5 C22,5.55228475 21.5522847,6 21,6 L11.83,6 L11.83,6 C11.4066007,7.19996068 10.2724671,8.00245055 9,8.00245055 C7.72753287,8.00245055 6.59339932,7.19996068 6.17,6 L3,6 C2.44771525,6 2,5.55228475 2,5 C2,4.44771525 2.44771525,4 3,4 L6.17,4 L6.17,4 Z M9,6 C9.55228475,6 10,5.55228475 10,5 C10,4.44771525 9.55228475,4 9,4 C8.44771525,4 8,4.44771525 8,5 C8,5.55228475 8.44771525,6 9,6 Z M15,13 C15.5522847,13 16,12.5522847 16,12 C16,11.4477153 15.5522847,11 15,11 C14.4477153,11 14,11.4477153 14,12 C14,12.5522847 14.4477153,13 15,13 Z M9,20 C9.55228475,20 10,19.5522847 10,19 C10,18.4477153 9.55228475,18 9,18 C8.44771525,18 8,18.4477153 8,19 C8,19.5522847 8.44771525,20 9,20 Z" id="形状" fill="#5D6E7F" fill-rule="nonzero"></path>
            </g>
        </g>
    </g>
</svg>