<?xml version="1.0" encoding="UTF-8"?>
<svg width="24px" height="24px" viewBox="0 0 24 24" version="1.1" xmlns="http://www.w3.org/2000/svg" xmlns:xlink="http://www.w3.org/1999/xlink">
    <title>首页</title>
    <g id="2.0" stroke="none" stroke-width="1" fill="none" fill-rule="evenodd">
        <g id="通用基础-删格" transform="translate(-357.000000, -352.000000)">
            <g id="首页" transform="translate(357.000000, 352.000000)">
                <polygon id="路径" points="0 0 24 0 24 24 0 24"></polygon>
                <path d="M12.673,1.612 L22.0430109,10.1300267 C22.2473415,10.3157782 22.2624028,10.6320022 22.0766513,10.8363328 C21.9818901,10.9405722 21.8475522,11 21.706678,11 L19.999322,10.9996425 L20,17.3333333 L19.9943706,17.775375 C19.992465,17.847006 19.9900612,17.917621 19.9871373,17.9872276 L19.9631787,18.39283 C19.7697034,20.8858015 18.7622009,21.9452332 15.7425923,21.997924 L15.5,22 L8.5,22 C5.29138931,22 4.23538807,20.951406 4.03682129,18.39283 L4.01286265,17.9872276 C4.00701491,17.8480143 4.00324743,17.7047678 4.00138552,17.5574258 L3.99932197,10.9996425 L2.29332197,11 C2.0171796,11 1.79332197,10.7761424 1.79332197,10.5 C1.79332197,10.3591258 1.85274979,10.2247879 1.95698914,10.1300267 L11.327,1.612 C11.7085185,1.26485664 12.2914815,1.26485664 12.673,1.612 Z M18,9.157 L12,3.703 L6,9.157 L6,11 L6.00057334,17.536263 L6.00602693,17.9112242 C6.00751073,17.9703734 6.00931407,18.0278801 6.01148511,18.0837887 L6.02930904,18.4004181 C6.12133666,19.5930694 6.4806406,19.9163786 7.77298952,19.9844129 L8.11590048,19.9964586 L8.5,20 L15.6973428,19.9991591 L16.0605591,19.991632 C17.4889534,19.9418118 17.8748289,19.6427632 17.970691,18.4004181 L17.9885149,18.0837887 L17.997514,17.7288045 L18,17.3333333 L18,9.157 Z M15,15 C15.5522847,15 16,15.4477153 16,16 C16,16.5522847 15.5522847,17 15,17 L9,17 C8.44771525,17 8,16.5522847 8,16 C8,15.4477153 8.44771525,15 9,15 L15,15 Z" id="形状结合" fill="#5D6E7F" fill-rule="nonzero"></path>
            </g>
        </g>
    </g>
</svg>