<?xml version="1.0" encoding="UTF-8"?>
<svg width="18px" height="18px" viewBox="0 0 18 18" version="1.1" xmlns="http://www.w3.org/2000/svg" xmlns:xlink="http://www.w3.org/1999/xlink">
    <title>个人中心-任务待办-</title>
    <g id="2.0" stroke="none" stroke-width="1" fill="none" fill-rule="evenodd">
        <g id="知识库删格" transform="translate(-214.000000, -69.000000)">
            <g id="个人中心-任务待办-" transform="translate(214.000000, 69.000000)">
                <circle id="蒙版" fill="#C3DDFF" cx="9" cy="9" r="9"></circle>
                <g id="任务待办-" transform="translate(4.000000, 4.000000)" fill="#0569FF" fill-rule="nonzero">
                    <path d="M7.49994542,5 C7.64928923,5.00063902 7.798275,5.01469263 7.94511276,5.04188264 C9.11173941,5.25271746 10,6.27353848 10,7.49994533 C10,8.87835444 8.87845774,10 7.49994542,10 C6.34892911,10 5.37956028,9.21680554 5.09038709,8.15607024 C5.03329476,7.94654769 5,7.72740196 5,7.49994533 C5,6.1213175 6.12165142,4.99989064 7.49994542,5 Z M6.55120565,0 C6.81886982,0 7.03588872,0.19229192 7.03588872,0.429581796 L7.03588872,0.429581796 L7.03588872,0.680196803 L7.21376751,0.673944246 L8.51531693,0.680196803 C8.7829811,0.680196803 9,0.872693732 9,1.1098811 L9,1.1098811 L9,3.74866749 C9,3.76219763 8.99684171,3.77480525 8.99548817,3.78792538 C8.52682209,3.5791308 7.99984065,3.45889709 7.44037405,3.45889709 C5.52092987,3.45889709 3.95904801,4.84348093 3.95904801,6.54551046 C3.95882288,7.05424343 4.10071447,7.5547025 4.37142903,8 L4.37142903,8 L0.484683057,8 C0.2169061,8 0,7.80750308 0,7.57031571 L0,7.57031571 L0,1.1098811 C0,0.872693732 0.2169061,0.680299307 0.484683057,0.680196803 L0.484683057,0.680196803 L1.72622518,0.680196803 L1.72622518,0.429581796 C1.72622518,0.19229192 1.94324408,0 2.21090824,0 C2.47868519,0 2.69559129,0.19229192 2.69559129,0.429581796 L2.69559129,0.429581796 L2.69559129,0.680196803 L6.0665226,0.680196803 L6.0665226,0.429581796 C6.0665226,0.19229192 6.2834287,0 6.55120565,0 Z M7.49994542,6.03398637 C7.23381865,6.03393224 7.01796385,6.22850823 7.0176626,6.4687265 L7.0176626,6.4687265 L7.0176626,7.5476545 C7.01802408,7.78781835 7.23387889,7.98230615 7.49994542,7.98220396 L7.49994542,7.98220396 L8.24378316,7.98220396 C8.50987458,7.98236052 8.72576469,7.78784092 8.72606598,7.5476545 C8.72595022,7.43230208 8.67507339,7.3217157 8.5846278,7.24022313 C8.49418222,7.15873056 8.37157672,7.11300726 8.24378316,7.11311184 L8.24378316,7.11311184 L7.9823374,7.11311184 L7.9823374,6.4687265 C7.98209634,6.22844717 7.76613971,6.03382344 7.49994542,6.03398637 Z" id="形状结合"></path>
                </g>
            </g>
        </g>
    </g>
</svg>