<?xml version="1.0" encoding="UTF-8"?>
<svg width="30px" height="30px" viewBox="0 0 30 30" version="1.1" xmlns="http://www.w3.org/2000/svg" xmlns:xlink="http://www.w3.org/1999/xlink">
    <title>机器人</title>
    <defs>
        <rect id="path-1" x="0" y="0" width="30" height="30"></rect>
    </defs>
    <g id="2.0" stroke="none" stroke-width="1" fill="none" fill-rule="evenodd">
        <g id="通用基础-删格" transform="translate(-389.000000, -448.000000)">
            <g id="机器人" transform="translate(389.000000, 448.000000)">
                <mask id="mask-2" fill="white">
                    <use xlink:href="#path-1"></use>
                </mask>
                <g id="蒙版"></g>
                <g id="编组" mask="url(#mask-2)" fill="#5D6E7F" fill-rule="nonzero">
                    <g transform="translate(3.000000, 7.000000)">
                        <path d="M1.10759634,7.13019451 C0.487198392,7.35731985 0,7.80278669 0,8.33107272 L0,10.7918065 C0,11.2962506 0.454798501,11.7404626 1.10759634,11.9926847 C1.34279556,12.0805232 1.6031947,12.0428781 1.80719404,11.8885333 C2.01323809,11.7301549 2.13594372,11.479572 2.13839293,11.2121766 L2.13839293,7.91070261 C2.13594372,7.64330718 2.01323809,7.39272431 1.80719404,7.23434591 C1.60497885,7.08036158 1.34287274,7.04134099 1.10759634,7.13019451 L1.10759634,7.13019451 Z M22.9823241,7.30963607 C22.747204,7.22158781 22.4856415,7.26106435 22.2839264,7.41504231 C22.0782179,7.57315646 21.9555527,7.82319208 21.9527275,8.09014417 L21.9527275,11.4656535 C21.3132151,11.8927895 20.6023896,12.1899433 19.8575344,12.3415291 L16.6895449,12.4494451 C16.5167862,12.458069 16.3504495,12.5205644 16.2119465,12.6288866 C16.1139779,12.7159682 16.0570453,12.8432802 16.055947,12.9777311 C16.055947,13.2412467 16.367946,13.4583333 16.7219448,13.4583333 L19.8575344,13.3378691 C20.9396393,13.1812943 21.9738493,12.7707547 22.8827245,12.1369908 C23.5367223,11.9086107 23.9915208,11.4643987 23.9915208,10.9361126 L23.9915208,8.4866724 C24.0683205,7.98222825 23.614722,7.53801625 22.9835241,7.30963607 L22.9823241,7.30963607 Z M9.62996821,7.94583802 L9.76196777,7.94583802 C10.3283659,7.94583802 10.6163649,8.20935362 10.6163649,8.71505259 L10.6163649,10.082824 C10.6163649,10.5998165 10.3283659,10.8520386 9.76316777,10.8520386 L9.62996821,10.8520386 C9.05397012,10.8520386 8.77677102,10.6010714 8.77677102,10.0840789 L8.77677102,8.71505259 C8.77677102,8.21060844 9.05277011,7.94583802 9.62876822,7.94583802 M14.8043511,7.94583802 L14.9375507,7.94583802 C15.5027488,7.94583802 15.7907479,8.20935362 15.7907479,8.71505259 L15.7907479,10.082824 C15.7907479,10.5998165 15.5027488,10.8520386 14.9387507,10.8520386 L14.8043511,10.8520386 C14.228353,10.8520386 13.9523539,10.6010714 13.9523539,10.0840789 L13.9523539,8.71505259 C13.9523539,8.21060844 14.228353,7.94583802 14.8043511,7.94583802" id="形状"></path>
                        <path d="M15.7198672,0 L9.09579111,0 C5.63697442,0 2.82422932,3.64892858 2.82422932,7.31 L2.82422932,10.3760714 C2.77264186,13.9788571 5.5792456,16.9429286 9.09579111,17 L15.7198672,17 C17.9246172,16.9344286 19.9451262,15.7262143 21.0849635,13.7930714 C21.1390977,13.7379482 21.1390977,13.6502661 21.0849635,13.5951429 C21.0530098,13.578727 21.0149707,13.578727 20.9830169,13.5951429 L20.2914992,13.7117143 L18.022879,13.7117143 C17.5584373,13.8642404 17.0714713,13.9389365 16.5821148,13.9327143 L8.8685606,13.9327143 C7.18214181,13.8635 5.81630228,12.5071429 5.6971598,10.7816429 C5.57801732,9.05735715 6.74364836,7.51521429 8.40427342,7.20435714 C8.59588401,5.1085 10.3940756,3.55664285 12.4416067,3.71935714 L12.794121,3.71935714 C14.841652,3.52264285 16.6631809,5.05021427 16.8769004,7.14607142 L16.8769004,7.2165 C18.3594258,7.41442858 19.5201438,8.62264286 19.6896454,10.1441429 L19.6896454,10.5157143 L19.6896454,10.4574286 C19.6896454,10.7804286 19.6478842,11.101 19.5655899,11.4106429 C19.678591,11.492 19.8726581,11.4106429 20.0298771,11.4106429 C20.3737935,11.3960714 20.7177099,11.3462857 21.0505719,11.2600714 C21.3686946,11.1532143 21.6524257,10.965 21.8796562,10.7136429 L21.8796562,7.30878571 C21.9816028,3.64892858 19.1799122,0 15.7198672,0 Z" id="路径"></path>
                    </g>
                </g>
            </g>
        </g>
    </g>
</svg>