<?xml version="1.0" encoding="UTF-8"?>
<svg width="50px" height="50px" viewBox="0 0 50 50" version="1.1" xmlns="http://www.w3.org/2000/svg" xmlns:xlink="http://www.w3.org/1999/xlink">
    <title>警示-大</title>
    <g id="组件" stroke="none" stroke-width="1" fill="none" fill-rule="evenodd">
        <g transform="translate(-2471.000000, -1432.000000)" id="警示-大">
            <g transform="translate(2471.000000, 1432.000000)">
                <circle id="椭圆形备份-7" fill="#FFFAE8" cx="25" cy="25" r="25"></circle>
                <path d="M25,29 C26.1045695,29 27,29.8954305 27,31 C27,32.1045695 26.1045695,33 25,33 C23.8954305,33 23,32.1045695 23,31 C23,29.8954305 23.8954305,29 25,29 Z M24.9897645,18 C25.8181916,18 26.4897645,18.6715729 26.4897645,19.5 L26.4897645,26.5 C26.4897645,27.3284271 25.8181916,28 24.9897645,28 C24.1613374,28 23.4897645,27.3284271 23.4897645,26.5 L23.4897645,19.5 C23.4897645,18.6715729 24.1613374,18 24.9897645,18 Z" id="形状结合" fill="#FF9B00" fill-rule="nonzero"></path>
            </g>
        </g>
    </g>
</svg>