<svg id="图层_1" data-name="图层 1" xmlns="http://www.w3.org/2000/svg" viewBox="0 0 300 300"><defs><style>.cls-1,.cls-10{fill:#fff;}.cls-1,.cls-11,.cls-22,.cls-3,.cls-6,.cls-9{fill-rule:evenodd;}.cls-2{fill:#728da3;}.cls-3{fill:#0569ff;}.cls-4{fill:#034fd2;}.cls-5{fill:#fc6868;}.cls-6{fill:#e4e3e3;}.cls-7{fill:#e7bab9;}.cls-8{fill:#db9696;}.cls-9{fill:#23304a;}.cls-11{fill:#fcfcfc;}.cls-12{fill:#633f36;}.cls-13{fill:#ff5a5a;}.cls-14{fill:#262626;}.cls-15{fill:#f9ba9d;}.cls-16{fill:#f97e69;}.cls-17{fill:#ffe4d9;}.cls-18{opacity:0.8;}.cls-19{fill:#f7f7f7;}.cls-20{opacity:0.6;}.cls-21{fill:#7c6b6a;}.cls-22{fill:#f2f2f2;}</style></defs><path class="cls-1" d="M147.62,233.39l58.67-1.92-5.24,11.64-26.63,13.55s-14.39-6.41-19.81-5.05S147.62,233.39,147.62,233.39Z"/><path class="cls-2" d="M174.43,257.08l-.17-.07c-.14-.07-14.33-6.35-19.56-5a2.55,2.55,0,0,1-2.16-.45c-4-2.89-5.24-17.49-5.29-18.11l0-.39h.39l59.26-1.94-5.53,12.3-.12.06Zm-18-6c5.95,0,16.49,4.53,18,5.2l26.37-13.41,4.93-11L148,233.75c.23,2.37,1.55,14.73,4.95,17.17a1.75,1.75,0,0,0,1.54.33A7.69,7.69,0,0,1,156.4,251.05Z"/><path class="cls-1" d="M206.41,230.45s5.9,23.57-31.36,34.74C166,276.7,159.56,251.34,162.6,249s8.45,1.28,9.8,5.37"/><path class="cls-2" d="M170.37,268.54a3.94,3.94,0,0,1-.9-.1c-3.72-.84-6.3-6.79-7.39-11.62-.7-3.11-1.05-7.12.28-8.17a4.46,4.46,0,0,1,4.16-.58,10.17,10.17,0,0,1,6.23,6.13l-.71.24a9.49,9.49,0,0,0-5.74-5.65,3.76,3.76,0,0,0-3.47.45c-.7.55-.94,3.33,0,7.42,1.12,5,3.67,10.33,6.82,11,1.65.38,3.38-.55,5.13-2.76l.07-.09.11,0c36.5-10.94,31.17-34.06,31.11-34.29l.73-.18c.06.24,5.54,24-31.51,35.15C173.65,267.53,172,268.54,170.37,268.54Z"/><path class="cls-1" d="M201.07,207.34s6.88,24,17,28.83c11.06,6.08,22.63-2.38,21.34-7.3-1.42-5.43-10.23-4.81-12.84-7.19-1.62-1.48-4.47-11-5.38-15.44C221.15,206.24,204.52,206.17,201.07,207.34Z"/><path class="cls-2" d="M226.12,238.68a17,17,0,0,1-8.27-2.18c-10.09-4.82-16.86-28.06-17.14-29.05A.38.38,0,0,1,201,207c3.47-1.19,19.52-1.13,20.2-1.12a.38.38,0,0,1,.37.3c1,4.93,3.81,13.91,5.26,15.23.89.82,2.67,1.28,4.55,1.78,3.49.91,7.45,1.95,8.41,5.6.51,1.95-.79,4.42-3.39,6.45A17,17,0,0,1,226.12,238.68ZM201.54,207.6c.9,3,7.51,23.86,16.65,28.23a16.11,16.11,0,0,0,17.7-1.2c2.33-1.81,3.55-4,3.12-5.66-.84-3.23-4.58-4.21-7.87-5.07-2-.52-3.84-1-4.86-1.94-1.71-1.56-4.47-10.75-5.43-15.34C218.64,206.6,205.23,206.64,201.54,207.6Z"/><path class="cls-1" d="M151.93,208.59s-3.59,7.67-3.62,11.23c0,0,1.22,5.81,3.49,6.76s8,7.3-1.72,7-15.46-21.06-12.56-35.09l3.73-3.44,10.65,7.57,0,6Z"/><path class="cls-2" d="M150.76,234l-.69,0c-2.56-.08-4.94-1.49-7.07-4.19-5.38-6.83-8-20.9-5.85-31.35l0-.12,4-3.72,11.06,7.85,0,6.27,0,.07c0,.08-3.56,7.65-3.58,11.08.32,1.49,1.54,5.7,3.25,6.41,1.39.59,4.39,3.34,3.92,5.52C155.54,233.21,153.83,234,150.76,234Zm-12.9-35.29c-2.07,10.25.49,24,5.73,30.62,2,2.51,4.17,3.83,6.51,3.9,3,.1,4.78-.45,5-1.59.34-1.58-2.12-4.1-3.48-4.66-2.42-1-3.65-6.79-3.71-7,0-3.52,3.22-10.54,3.61-11.4l0-5.71-10.25-7.28Z"/><path class="cls-3" d="M158.9,189.57s-8.22-3.15-18.46,5c-2.25,1.42-7.32,7.87-6.26,8.7s8.29,8.64,10.1,9.53,3.5,1.6,4.39,1.32c0,0-4.21,15.17-2.29,18.24s9.35,2.61,14.21,2.86,42.09.33,42.67-2.63c9.07-.64-.07-22.85-.53-24.35,0,0,5.62,3.12,19.78.74-.43-6-1-11.56-2.42-15.7a9.76,9.76,0,0,0-10.48-6.59c-2.91.37-6.61.72-10.4.89-7.47.34-19.63,2.45-23.58,2.59-6.71.24-16.73-.55-16.73-.55Z"/><path class="cls-4" d="M149.71,212l-1.88-.54,6.28-8.62-4.4,9.16Zm50.83-3.77c-.78-.49-4.39-5.39-4.39-5.39.75.91,5.64,4.85,5.64,4.85l-1.25.54Z"/><path class="cls-1" d="M164.32,211.09v.12c-11.92,3.13-6,14.27,3.12,12.8l1,3.35c-7.69-.06-13.71-4.71-14.05-9.22s3.62-7.95,8.86-8.06c-3-13.47,25.17-13.47,21.81,0,5.24.11,9.2,3.56,8.86,8.06s-6.36,9.16-14.05,9.22l1-3.35c7.67,1.09,17.07-11.18,3.12-12.8v-.12C184,200.44,164.32,200.45,164.32,211.09Z"/><path class="cls-1" d="M171.3,228.22c-.85-8.84,8.81-3.6,10.26-11.12.6-3.11,0-6.44-2.89-8.19-4.25-2.21-11.37-.3-10.78,6s9.2,3.93,8.41.12c-1.23,1.66-3.72,2.28-4.89,1.4-2.64-2,.43-6.42,4.52-5.39,2.68.68,2.5,2.33,2.7,4.29.4,3.93-3.35,4.2-6.81,5.82C167.57,223.12,171.3,228.22,171.3,228.22Z"/><path class="cls-1" d="M175.68,224.08a2.19,2.19,0,1,1-2.17,2.19A2.18,2.18,0,0,1,175.68,224.08Z"/><path class="cls-1" d="M147.65,233.39s-10.28,18.5-1,28.05c1.1,6.48,5.57,5.2,7.76,4s13.06-11.68,8.51-16c-3.12-3-5.56-2.39-8.77-.17"/><path class="cls-2" d="M151,266.79a4.26,4.26,0,0,1-1.86-.41c-1.47-.71-2.43-2.31-2.87-4.77-3.82-4-4.85-10.17-3-17.86a47,47,0,0,1,4-10.54l.65.36c-.1.19-10,18.37-1.07,27.61l.08.08,0,.11c.38,2.27,1.22,3.72,2.47,4.34,1.74.84,3.89-.14,4.74-.6,1.67-.9,8.74-7.57,9.38-12.37a3.33,3.33,0,0,0-.95-3.05c-3-2.86-5.22-2.26-8.29-.13l-.43-.62c3.23-2.24,5.9-3,9.24.21a4.07,4.07,0,0,1,1.17,3.69c-.68,5.13-8,12-9.76,12.93A7.82,7.82,0,0,1,151,266.79Z"/><path class="cls-5" d="M203.91,162.5c-5.86-4.32-15.88-7.17-27.25-7.17-12.69,0-23.68,3.54-29.09,8.72,7,3.57,16.77,6,30.46,5.92C189.81,168.75,198.09,165.93,203.91,162.5Z"/><path class="cls-1" d="M83,137.81l10.13-76.2C80.88,69.53,71.06,85.52,70,104.93c-.9,16.5,4.32,26.84,13,32.88Z"/><path class="cls-2" d="M83.18,138.25l-.34-.24c-9.52-6.63-13.92-17.76-13.09-33.09C70.75,86.71,79.65,70,93,61.4l.46-.29ZM92.8,62.12c-13,8.63-21.58,25-22.55,42.83-.81,15,3.41,25.86,12.54,32.42Z"/><path class="cls-6" d="M83.45,127.16,94.7,59.65C83.72,67,75,81.48,74,99c-.73,13.46,3,22.45,9.44,28.16Z"/><path class="cls-1" d="M177.28,22.86c53.34,1.9,95.17,44,93.46,92.84s-46,76.63-99.3,74.73-95.56-32.75-93.86-81.61,46.35-87.86,99.7-86Z"/><path class="cls-2" d="M176.52,190.9c-1.69,0-3.39,0-5.09-.09-57.09-2-95.84-35.75-94.23-82C78,85,88.9,62.9,107.82,46.52a102,102,0,0,1,137.1,4.88c17.72,17.68,27,40.52,26.2,64.32-.82,23.45-11.35,43.05-30.45,56.69C223.87,184.41,201.24,190.9,176.52,190.9Zm-3-167.73a99.14,99.14,0,0,0-65.2,23.92C89.56,63.32,78.78,85.25,78,108.84c-.8,23.21,8.24,43.3,26.16,58.11,16.89,14,40.8,22.16,67.34,23.11s51-5.54,68.79-18.26c18.9-13.5,29.32-32.9,30.13-56.11.82-23.58-8.41-46.22-26-63.75a99.62,99.62,0,0,0-67.13-28.71Q175.39,23.17,173.51,23.17Z"/><path class="cls-7" d="M134.78,123.29c-.24,1.71-5.72,2.39-12.73,1.71-.87-.08-1.75-.19-2.66-.31h-.06c-1.43-.2-2.81-.44-4.1-.72-.88-.18-1.72-.37-2.51-.58-4.79-1.24-8-2.88-7.77-4.23.23-1.68,5.59-2.37,12.5-1.72.89.08,1.8.18,2.73.31l.15,0c1.38.19,2.71.42,4,.68q1.32.27,2.52.57C131.7,120.27,135,121.93,134.78,123.29Z"/><path class="cls-7" d="M217.4,134.77c-.23,1.7-5.73,2.39-12.76,1.7-.85-.08-1.73-.18-2.62-.31h-.09c-1.43-.2-2.81-.44-4.11-.72-.87-.18-1.71-.37-2.5-.58-4.77-1.25-7.93-2.88-7.75-4.23.23-1.68,5.59-2.36,12.48-1.72.89.08,1.79.18,2.72.31l.19,0c1.37.19,2.69.42,3.93.67.88.18,1.72.37,2.52.58C214.31,131.73,217.59,133.4,217.4,134.77Z"/><path class="cls-8" d="M120.18,117.74l-5,6.22c-.88-.18-1.72-.37-2.51-.58l4.73-5.95C118.34,117.51,119.25,117.61,120.18,117.74Z"/><path class="cls-8" d="M126.81,119l-4.76,6c-.87-.08-1.75-.19-2.66-.31h-.06l5-6.24Q125.61,118.71,126.81,119Z"/><path class="cls-8" d="M202.77,129.21l-5,6.22c-.87-.18-1.71-.37-2.5-.58l4.73-5.95Z"/><path class="cls-8" d="M209.41,130.48l-4.77,6c-.85-.08-1.73-.18-2.62-.31h-.09l5-6.25C207.77,130.08,208.61,130.27,209.41,130.48Z"/><path class="cls-9" d="M186.77,33.54c41.46,10.23,70.71,59,55.84,94.57-6.63,15.89-31.51-13.4-73-23.63S83.13,133.36,93.29,91.25s52-67.95,93.48-57.71Z"/><path class="cls-10" d="M217.28,68.51l-.55.66a1.63,1.63,0,0,1-2.61.08c-7.37-9.26-15.46-17.06-25.36-21.44a1.46,1.46,0,0,1-.35-2.38c.19-.22.37-.44.55-.67a3.14,3.14,0,0,1,3.38-.83C203.92,49,211.09,57,217.55,65.4a2.71,2.71,0,0,1-.27,3.11Zm2.47,8.34a3,3,0,1,1,2.92-3.09,3,3,0,0,1-2.92,3.09Z"/><path class="cls-11" d="M132.35,84.63c4.37,1.69,18.75.84,18.75.84s-10.13,4.31-19.55,1-13-13-13-13S121.44,80.41,132.35,84.63Z"/><path class="cls-11" d="M211.76,101c4.27,1.75,18.13.19,18.13.19s-9.63,5.33-18.84,1.91-13-14.27-13-14.27S201.07,96.65,211.76,101Z"/><path class="cls-12" d="M133.32,266.78a5.94,5.94,0,0,0,8.29-1.78,6.11,6.11,0,0,0-1.76-8.39h0a5.94,5.94,0,0,0-8.29,1.78,6.11,6.11,0,0,0,1.76,8.39Z"/><path class="cls-10" d="M139.15,260.45a.93.93,0,0,1-.7-.42,1.57,1.57,0,0,0-1-1,3.43,3.43,0,0,0-2.16.35.68.68,0,0,1-1-.28.71.71,0,0,1,.27-1,4.84,4.84,0,0,1,3.35-.42,3.12,3.12,0,0,1,2,1.83.73.73,0,0,1-.34,1c-.07-.07-.28-.07-.35-.07Z"/><path class="cls-10" d="M139.47,261.81a.7.7,0,1,0,.43-.9.72.72,0,0,0-.43.9Z"/><path class="cls-12" d="M131.21,247.69a6,6,0,0,0,8,2.85,6.1,6.1,0,0,0,2.82-8.09h0a6,6,0,0,0-8-2.85,6.1,6.1,0,0,0-2.82,8.09Z"/><path class="cls-10" d="M139.77,245.64c-.41-.07-.83-.42-.69-.84a2,2,0,0,0-.35-1.48,2.76,2.76,0,0,0-2.09-.85c-.42,0-.7-.35-.7-.85s.35-.7.84-.7a4.87,4.87,0,0,1,3.13,1.34,3,3,0,0,1,.7,2.54c-.14.49-.42.84-.84.84Z"/><path class="cls-10" d="M139.57,247.55a.69.69,0,0,0,.83-.54.7.7,0,0,0-.53-.84.71.71,0,0,0-.3,1.38Z"/><path class="cls-13" d="M91.1,255.87,133,153.13a4.35,4.35,0,0,1,2.79-2.53l15.41-4.16a5.61,5.61,0,0,1,1-.22,4.25,4.25,0,0,1,4,3,4.19,4.19,0,0,1-.35,3.17,4,4,0,0,1-2.51,1.9L139.77,158,98.49,259l-7.39-3.1Z"/><path class="cls-14" d="M154.46,147.31c.84,0,1.28.53,1.56,1.31a1.71,1.71,0,0,1-1,2.28l-15.94,5a2.29,2.29,0,0,0-1.33,1.2L97.31,255.94,94.1,254.6,135.1,154a2.26,2.26,0,0,1,1.33-1.2L154,147.31h.21m1.62-4.92a3.16,3.16,0,0,0-1.1.24l-19.53,5.78a6.55,6.55,0,0,0-4.32,3.81L89.85,252.84,88.1,257l4.12,1.76,3.21,1.34,4.11,1.76,1.74-4.16L141.17,160l16.6-5a6.16,6.16,0,0,0,3.83-3,6.68,6.68,0,0,0,.63-4.94,5.94,5.94,0,0,0-5.85-4.58Z"/><path class="cls-14" d="M116.27,177.14c17.8,0,32.41,12.6,33.45,28.35a1.87,1.87,0,0,0,1.86,1.72H155a3.3,3.3,0,0,1,0,6.6H77.56a3.3,3.3,0,0,1,0-6.6H81a1.92,1.92,0,0,0,1.86-1.72c1-15.75,15.65-28.35,33.44-28.35m0-6.45c-18.61,0-34.44,12.2-38.14,28.49a10.72,10.72,0,0,0-8.78,10.57A10.58,10.58,0,0,0,79.88,220.4h72.79a10.58,10.58,0,0,0,10.53-10.65,10.71,10.71,0,0,0-8.78-10.57C150.72,182.82,134.89,170.69,116.27,170.69Z"/><path class="cls-15" d="M127.92,235.35c-6.48.07-18.06-1.9-23.78-2.12-7.18-.14-17.92,7.13-17.92,7.13v20a9.44,9.44,0,0,0,9.34,9.45h41.29a9.44,9.44,0,0,0,9.34-9.45V230.63c-4.39-4.45-12.06,4.65-18.27,4.72Z"/><path class="cls-16" d="M96.33,257.63a3.72,3.72,0,0,1-1.53-.28,3.84,3.84,0,0,1-2.16-2.19,4,4,0,0,1,0-3.1l13.87-34h8.65L100,255.16A4,4,0,0,1,96.33,257.63Z"/><path class="cls-14" d="M111.81,220.4,97.94,254.32a1.66,1.66,0,0,1-1.61,1.05,1.94,1.94,0,0,1-.63-.07,1.88,1.88,0,0,1-1-2.39l13.32-32.58,3.76.07m6.7-4.58H105l-1.19,2.82L90.47,251.21a6.43,6.43,0,0,0,0,4.8,6.35,6.35,0,0,0,3.42,3.45,6.44,6.44,0,0,0,2.44.43,6.26,6.26,0,0,0,5.79-3.88L116,222.09l2.51-6.27Z"/><path class="cls-14" d="M146.26,220.4v40a9.44,9.44,0,0,1-9.34,9.45H95.5a9.44,9.44,0,0,1-9.35-9.45v-40h60.11m7.46-7.54h-75v47.59a17.05,17.05,0,0,0,16.94,17.13h41.29a17.05,17.05,0,0,0,16.94-17.13V212.86Z"/><path class="cls-14" d="M143.26,229.36a4.08,4.08,0,0,1,3,1.27v29.75a9.44,9.44,0,0,1-9.34,9.45H95.5a9.44,9.44,0,0,1-9.35-9.45v-20s10.46-7.13,17.64-7.13h.28c5.58.07,17,2.12,23.5,2.12h.35c4.88-.07,11-6,15.34-6m0-6c-3.69,0-7,1.84-10.18,3.53-1.74.91-4.25,2.4-5.3,2.4h-.28c-3.21,0-8.3-.57-12.69-1.06-4-.43-7.81-.92-10.6-1h-.35c-8.78,0-19.8,7.26-21,8.11l-2.58,1.83v23.27A15.55,15.55,0,0,0,95.7,276H137a15.55,15.55,0,0,0,15.41-15.58V228.23l-1.75-1.76a10.15,10.15,0,0,0-7.39-3.11Z"/><path class="cls-14" d="M136.5,269.19a7.34,7.34,0,0,1-7.26-6,7.58,7.58,0,0,1,11.51-8A7,7,0,0,1,144,260a7.57,7.57,0,0,1-7.46,9.16Zm0-12.05a4.25,4.25,0,0,0-3.77,2.11,4.64,4.64,0,0,0-.63,3.46,4.92,4.92,0,0,0,2,2.89,4.52,4.52,0,0,0,6.2-1.34,4.59,4.59,0,0,0,.63-3.46,5,5,0,0,0-1.95-2.89,3.43,3.43,0,0,0-2.44-.77Z"/><path class="cls-12" d="M113.57,265.36a6,6,0,0,0,8.42,1.05,6.11,6.11,0,0,0,1-8.51h0a6,6,0,0,0-8.42-1A6.11,6.11,0,0,0,113.57,265.36Z"/><path class="cls-14" d="M118.3,269.19a4,4,0,0,1-.91-.07,7.92,7.92,0,0,1-5-2.82,7.72,7.72,0,0,1,1.26-10.64,7.51,7.51,0,0,1,10.52,1.27,7.35,7.35,0,0,1,1.54,5.64,8.06,8.06,0,0,1-2.79,5.07A7.55,7.55,0,0,1,118.3,269.19Zm0-12.05a4.24,4.24,0,0,0-2.79,1,4.72,4.72,0,0,0-.84,6.49,4.44,4.44,0,0,0,6.28.85,4.7,4.7,0,0,0,1.74-3,4.57,4.57,0,0,0-.91-3.39,3.9,3.9,0,0,0-3.48-1.9Z"/><path class="cls-10" d="M121.3,261.51a.69.69,0,0,1-.7-.64,1.73,1.73,0,0,0-.63-1.27,3.05,3.05,0,0,0-2.16-.35.79.79,0,0,1-.28-1.55,5,5,0,0,1,3.35.64,3.26,3.26,0,0,1,1.25,2.39c0,.28-.35.64-.83.78Z"/><path class="cls-10" d="M120.88,262.78a.7.7,0,1,0,1.39,0h0a.7.7,0,1,0-1.39,0Z"/><path class="cls-12" d="M119.7,255.92a6,6,0,0,0,8.42,1,6.11,6.11,0,0,0,1-8.51h0a6,6,0,0,0-8.42-1A6.12,6.12,0,0,0,119.7,255.92Z"/><path class="cls-14" d="M124.36,259.75a3.91,3.91,0,0,1-.9-.07,7.88,7.88,0,0,1-5-2.83,7.35,7.35,0,0,1-1.54-5.64,8.06,8.06,0,0,1,2.79-5.07,7.16,7.16,0,0,1,5.58-1.55,7.89,7.89,0,0,1,5,2.82,7.39,7.39,0,0,1,1.54,5.64,7.72,7.72,0,0,1-2.79,5.07A7.4,7.4,0,0,1,124.36,259.75Zm0-12.2a4.63,4.63,0,0,0-4.53,4,4.6,4.6,0,0,0,3.91,5.14,4.41,4.41,0,0,0,3.34-.91,4.67,4.67,0,0,0,1.75-3,4.61,4.61,0,0,0-3.91-5.15A1.54,1.54,0,0,0,124.36,247.55Z"/><path class="cls-10" d="M127.43,252a.69.69,0,0,1-.7-.64,1.68,1.68,0,0,0-.62-1.26,3,3,0,0,0-2.16-.36.83.83,0,0,1-.91-.63.8.8,0,0,1,.63-.92,4.92,4.92,0,0,1,3.34.64,3.24,3.24,0,0,1,1.26,2.39c0,.36-.28.71-.84.78Z"/><path class="cls-10" d="M127,253.19a.7.7,0,0,0,1.4,0h0a.7.7,0,1,0-1.4,0Z"/><path class="cls-14" d="M136.64,252.77a9.84,9.84,0,0,1-2.51-.43,7.67,7.67,0,0,1-4.68-9.73,7.9,7.9,0,0,1,3.84-4.37,7.45,7.45,0,0,1,5.79-.35,7.79,7.79,0,0,1,4.32,3.88,7.69,7.69,0,0,1,.35,5.85,7.86,7.86,0,0,1-3.84,4.37,8,8,0,0,1-3.27.78Zm0-12.2a6.56,6.56,0,0,0-2,.42,4.62,4.62,0,0,0-2.16,6.06,4.52,4.52,0,0,0,6,2.19,5.34,5.34,0,0,0,2.37-2.61,4.51,4.51,0,0,0-.21-3.45,5.33,5.33,0,0,0-2.58-2.4,5.71,5.71,0,0,0-1.46-.21Z"/><path class="cls-12" d="M104.51,254.85a6,6,0,0,0,8.42,1,6.11,6.11,0,0,0,1-8.51,6,6,0,0,0-8.42-1,6.11,6.11,0,0,0-1,8.51Z"/><path class="cls-14" d="M115.09,246.42a7.92,7.92,0,0,0-5-2.82,7.19,7.19,0,0,0-5.58,1.55,7.72,7.72,0,0,0-1.25,10.65,7.56,7.56,0,0,0,5.92,2.89,7.57,7.57,0,0,0,5.93-12.27ZM112,254.88a4.58,4.58,0,0,1-6.41-.85,4.7,4.7,0,0,1,.83-6.48,4.23,4.23,0,0,1,2.79-1,4.32,4.32,0,0,1,3.63,1.83A4.72,4.72,0,0,1,112,254.88Z"/><path class="cls-10" d="M112.38,250.93a.63.63,0,0,1-.58-.63,1.83,1.83,0,0,0-.52-1.27,2.09,2.09,0,0,0-1.78-.35.69.69,0,0,1-.75-.64.82.82,0,0,1,.52-.92,3,3,0,0,1,3.8,3,.77.77,0,0,1-.69.77Z"/><path class="cls-10" d="M111.88,252.2a.7.7,0,1,0,1.4,0h0a.7.7,0,0,0-1.4,0Z"/><path class="cls-12" d="M98.41,265.66a6,6,0,0,0,8.42,1,6.11,6.11,0,0,0,1-8.51,6,6,0,0,0-8.42-1.05,6.12,6.12,0,0,0-1,8.52Z"/><path class="cls-14" d="M103.24,269.55a4,4,0,0,1-.91-.07,7.94,7.94,0,0,1-5-2.82A7.42,7.42,0,0,1,95.77,261a8.06,8.06,0,0,1,2.79-5.07,7.16,7.16,0,0,1,5.58-1.55,7.89,7.89,0,0,1,5,2.82,7.35,7.35,0,0,1,1.54,5.64,8,8,0,0,1-2.79,5.07A7.41,7.41,0,0,1,103.24,269.55Zm-.07-12.13a4.67,4.67,0,0,0-4.54,4,4.54,4.54,0,0,0,.91,3.38,4.6,4.6,0,0,0,3,1.77,4.5,4.5,0,0,0,3.35-.92,4.68,4.68,0,0,0,1.74-3,4.61,4.61,0,0,0-3.91-5.15A1.71,1.71,0,0,0,103.17,257.42Z"/><path class="cls-10" d="M106.3,261.79a.68.68,0,0,1-.69-.63,1.69,1.69,0,0,0-.63-1.27,3,3,0,0,0-2.16-.36.79.79,0,0,1-.91-.63.8.8,0,0,1,.63-.92,5,5,0,0,1,3.35.64,3.26,3.26,0,0,1,1.25,2.39c-.14.36-.42.78-.84.78Z"/><path class="cls-10" d="M105.89,263.06a.7.7,0,0,0,.69.71.7.7,0,0,0,.7-.71h0a.7.7,0,1,0-1.39,0Z"/><path class="cls-17" d="M96.33,257.63a3.72,3.72,0,0,1-1.53-.28,3.84,3.84,0,0,1-2.16-2.19,4,4,0,0,1,0-3.1l8-19.67a2,2,0,0,1,1.88-1.34c.42,0,.9-.07,1.25-.07h.28a17.17,17.17,0,0,1,2.51.21,2.32,2.32,0,0,1,1.75,1.06,2.77,2.77,0,0,1,.2,2.11L100,255.3a4,4,0,0,1-3.63,2.33Z"/><path class="cls-14" d="M103.79,233.3h.28c.7,0,1.54.08,2.44.08l-8.57,20.94a1.66,1.66,0,0,1-1.61,1.05,1.94,1.94,0,0,1-.63-.07,1.88,1.88,0,0,1-1-2.39l8-19.61h1.11m0-4.58a12.26,12.26,0,0,0-1.53.07,4.45,4.45,0,0,0-3.77,2.82l-8,19.67a6.35,6.35,0,0,0,3.42,8.25,6.44,6.44,0,0,0,2.44.43,6.26,6.26,0,0,0,5.79-3.88l8.58-20.94a4.51,4.51,0,0,0-.35-4.09,4.69,4.69,0,0,0-3.49-2.19c-1-.07-1.88-.07-2.72-.21a.52.52,0,0,1-.35.07Z"/><path class="cls-14" d="M146.26,220.4v40a9.44,9.44,0,0,1-9.34,9.45H95.5a9.44,9.44,0,0,1-9.35-9.45v-40h60.11m7.46-7.54h-75v47.59a17.05,17.05,0,0,0,16.94,17.13h41.29a17.05,17.05,0,0,0,16.94-17.13V212.86Z"/><path class="cls-16" d="M107.77,215.11l15.62-38.35,1.88.35c1.33.35,2.51.7,3.63,1.06l2.23.84-14.79,36h-8.57v.14Z"/><path class="cls-14" d="M124.71,179.36c1.19.29,2.23.64,3.42,1l-13.25,32.51h-3.77l13.6-33.5M122.06,174l-1.46,3.66-13.67,33.49-2.58,6.28h13.53l1.18-2.82,13.25-32.51,1.82-4.37-4.4-1.62c-1.18-.42-2.44-.85-3.83-1.2l-3.84-.91Z"/><g class="cls-18"><path class="cls-19" d="M116.44,177.2c17.73,0,32.28,12.54,33.31,28.23a1.87,1.87,0,0,0,1.85,1.72H155a3.29,3.29,0,0,1,0,6.57H77.88a3.29,3.29,0,0,1,0-6.57h3.4a1.92,1.92,0,0,0,1.85-1.72c1-15.69,15.58-28.23,33.31-28.23"/></g><g class="cls-20"><path class="cls-19" d="M147,219.77v40a9.45,9.45,0,0,1-9.35,9.44H96.27a9.44,9.44,0,0,1-9.34-9.44v-40H147"/></g><path class="cls-10" d="M155.54,137.13c-1.8-1.77-11.55,1.12-2.67,7.93,3.63,3.46,2.65,7.63,1.33,9.11-2.52,2.81-.87,6.09,3,6.79,5.17,1.27,5.77-5.27,6.82-5.55"/><path class="cls-21" d="M158.41,161.62a5.45,5.45,0,0,1-1.38-.18,5.32,5.32,0,0,1-4.33-3.23,4.33,4.33,0,0,1,1.13-4.38c1.21-1.34,2.06-5.2-1.3-8.4-2.82-2.16-4.11-4.19-3.8-6a4.09,4.09,0,0,1,3.08-3c1.36-.44,3.21-.53,4.08.32a.5.5,0,1,1-.7.72,3.6,3.6,0,0,0-3.07-.09c-.65.2-2.17.83-2.4,2.2-.17,1,.29,2.64,3.46,5.07,3.9,3.71,2.83,8.23,1.39,9.83a3.38,3.38,0,0,0-.92,3.39,4.41,4.41,0,0,0,3.59,2.58c3.06.75,4.28-1.37,5.36-3.81.42-1,.71-1.59,1.24-1.73a.5.5,0,1,1,.25,1,7.7,7.7,0,0,0-.58,1.17C162.78,158.72,161.49,161.62,158.41,161.62Z"/><path class="cls-10" d="M154,138.38l10.66,2.21,1.58,10.92-3.34,3.27s-4.36,2.88-4.55.3S154,138.38,154,138.38Z"/><path class="cls-1" d="M237.13,150.5l19-66.46c10.28,10.27,14.72,26.52,8.2,43-5.53,14-15.34,21-27.22,23.46Z"/><path class="cls-2" d="M256.34,84.31h0c11.19,11.19,14.4,27.34,8.29,42.79-5.14,13-14.37,21-27.42,23.62l-.46.09Zm-18.82,65.88c12.6-2.71,21.53-10.52,26.55-23.21,6-15.15,3-31.35-7.77-42.42Z"/><path class="cls-22" d="M236.75,150.81l19.59-66.5a49.36,49.36,0,0,1,.38,48.22c-6.83,12.24-9.77,15.43-20,18.28Z"/></svg>