<?xml version="1.0" encoding="UTF-8"?>
<svg width="24px" height="24px" viewBox="0 0 24 24" version="1.1" xmlns="http://www.w3.org/2000/svg" xmlns:xlink="http://www.w3.org/1999/xlink">
    <title>铃铛</title>
    <g id="2.0" stroke="none" stroke-width="1" fill="none" fill-rule="evenodd">
        <g id="通用基础-删格" transform="translate(-496.000000, -220.000000)">
            <g id="铃铛" transform="translate(496.000000, 220.000000)">
                <polygon id="路径" points="0 0 24 0 24 24 0 24"></polygon>
                <path d="M20.5,17 L21,17 C21.5522847,17 22,17.4477153 22,18 C22,18.5522847 21.5522847,19 21,19 L3,19 C2.44771525,19 2,18.5522847 2,18 C2,17.4477153 2.44771525,17 3,17 L3.5,17 C3.77614237,17 4,16.7761424 4,16.5 L4,10 L4,10 C4,5.581722 7.581722,2 12,2 C16.418278,2 20,5.581722 20,10 L20,16.5 C20,16.7761424 20.2238576,17 20.5,17 Z M18,16.5 L18,10 L18,10 C18,6.6862915 15.3137085,4 12,4 C8.6862915,4 6,6.6862915 6,10 L6,16.5 C6,16.7761424 6.22385763,17 6.5,17 L17.5,17 C17.7761424,17 18,16.7761424 18,16.5 Z M10,21 L14,21 C14.5522847,21 15,21.4477153 15,22 C15,22.5522847 14.5522847,23 14,23 L10,23 C9.44771525,23 9,22.5522847 9,22 C9,21.4477153 9.44771525,21 10,21 Z" id="形状" fill="#5D6E7F" fill-rule="nonzero"></path>
            </g>
        </g>
    </g>
</svg>