<svg id="图层_1" data-name="图层 1" xmlns="http://www.w3.org/2000/svg" viewBox="0 0 300 300"><defs><style>.cls-1,.cls-9{fill:#fff;}.cls-1,.cls-3,.cls-5,.cls-8{fill-rule:evenodd;}.cls-2{fill:#a1a9ad;}.cls-3{fill:#0569ff;}.cls-4{fill:#034fd2;}.cls-5{fill:#e4e4e3;}.cls-6{fill:#e7baba;}.cls-7{fill:#db9796;}.cls-10,.cls-8{fill:#24304a;}.cls-11{fill:#3379bd;}.cls-12{fill:#f5b956;}.cls-13{fill:#60b6e6;}.cls-14{opacity:0.8;}</style></defs><path class="cls-1" d="M199.72,204.93s8.24,16.4-13.51,28.76l-6.44-4,5.79-24.75Z"/><path class="cls-2" d="M186.2,234l-6.71-4.19,0-.17,5.83-24.94h14.51l.07.13c.09.17,8.1,16.76-13.61,29.1Zm-6.15-4.42,6.16,3.84c6.12-3.5,13.58-9.58,14.66-18.73a18.9,18.9,0,0,0-1.31-9.49h-13.8Z"/><path class="cls-1" d="M109.36,210s-10.65-3.51-14.74-4c0,0-6.44-1.29-7.88.58s-11.67,1.95-9.79-6.48,30.61-5.76,46.3-1.54l4.89,3.24-11.89,8.86-6.89-.7Z"/><path class="cls-2" d="M116.32,211l-7-.72c-.11,0-10.68-3.51-14.69-3.95-1.78-.35-6.56-.95-7.66.48-.94,1.21-4.65,1.61-7.31.36-1.52-.71-3.92-2.57-2.93-7.05a5.07,5.07,0,0,1,2.55-3.17c7.66-4.64,30.91-2.09,44.06,1.45l.07,0,5.2,3.43Zm-6.9-1.2,6.76.68,11.53-8.58-4.57-3c-13.07-3.51-36.1-6.06-43.64-1.5a4.6,4.6,0,0,0-2.31,2.86c-.87,3.93,1,5.7,2.66,6.49,2.55,1.2,6,.71,6.69-.22,1.52-2,7.86-.72,8.13-.66C98.65,206.23,108.7,209.51,109.42,209.75Z"/><path class="cls-1" d="M129.73,236.06s3.09,28.2,5.15,30.1c0,0-7.2,5.17-6.44,10,3.5,2.5,10.31.37,13.52,0,2.48-.3,8.25.18,9-4.69s0-21.4,0-21.4,5.81-12.68,11.58-.67c0,0-.55,13.09,1.93,17.39,0,0-4.37,6.71.64,8.7s18,.67,18,.67,2.46-2.57.64-5.36a7.84,7.84,0,0,0-4.5-3.34s6.4-2.07,5.79-30.77L179.92,230l-49.55,2-.64,4Z"/><path class="cls-2" d="M133.17,277.65a8.34,8.34,0,0,1-4.87-1.25l-.09-.06v-.11c-.72-4.54,5.11-9.2,6.32-10.12-2.09-3.26-4.92-28.9-5-30V236l.68-4.22h.2l49.68-2,5.28,6.86v.08c.51,24-3.86,29.5-5.43,30.7a8.3,8.3,0,0,1,4.1,3.29c1.91,2.91-.64,5.63-.67,5.66l-.06.06h-.09c-.54.06-13.13,1.31-18.14-.68a3.78,3.78,0,0,1-2.37-2.38c-.81-2.55,1.1-5.86,1.53-6.56-2.34-4.32-1.94-16.24-1.89-17.33-1.6-3.3-3.33-5-5.13-5h0c-3.14,0-5.64,5.06-5.92,5.64.05,1.27.73,16.65,0,21.39-.67,4.35-5.23,4.63-8,4.8-.47,0-.9,0-1.26.09-.67.08-1.49.24-2.43.41A35.66,35.66,0,0,1,133.17,277.65Zm-4.5-1.6c2.69,1.84,7.37,1,10.8.31.95-.18,1.77-.33,2.46-.41.37-.05.81-.07,1.29-.1,2.74-.17,6.89-.42,7.5-4.38.74-4.79,0-21.19,0-21.35v-.06l0-.06c.11-.24,2.77-5.95,6.39-6h0c2,0,3.91,1.79,5.6,5.31l0,.06v.06c0,.13-.52,13.06,1.9,17.25l.07.14-.08.13s-2.37,3.68-1.55,6.26a3.26,3.26,0,0,0,2.07,2.06c4.68,1.86,16.62.78,17.81.67.36-.42,2.11-2.61.55-5a7.68,7.68,0,0,0-4.34-3.24l-.92-.19.89-.29c.06,0,6.2-2.52,5.62-30.45l-5-6.52-49.21,2-.61,3.77c.86,7.85,3.44,28.41,5.07,29.92l.22.21-.25.17C135,266.41,128.06,271.42,128.67,276.05Z"/><path class="cls-3" d="M128.44,192.58l-13.3.28a.58.58,0,0,0-.57.6c0,.69.09,1.83.09,2.78,0,1.38-.74,15.22,1.11,16.13s13.7,5.24,14.6,5c0,0-3.25,14.28-1.28,17.39s8.53,3.76,13.51,4,43.16.33,43.76-2.67c1.12-5.7-2.75-21.89-3.22-23.41,0,0,3.22,3.48,5.15,4s2.28.34,3.22,0,8.12-5.07,10.29-8.7c.64-1.89-1.29-4-1.29-4s-10.76-9.23-16.08-10.7-16.09-7.36-16.09-7.36l-39.9,6.69Z"/><path class="cls-4" d="M130.37,217.33l-1.93-.67,6.44-10.7-4.51,11.37Zm52.13-4.68C181.7,212,178,206,178,206c.78,1.13,5.79,6,5.79,6l-1.28.67Z"/><path class="cls-1" d="M246,145.06l-6.15-78C252,75.81,261.17,92.6,261.17,112.4c0,16.81-6,27-15.21,32.66Z"/><path class="cls-2" d="M245.75,145.49l0-.41-6.19-78.53.44.31c13.23,9.53,21.46,27,21.46,45.54,0,15.62-5.16,26.68-15.33,32.88Zm-5.64-77.9,6.07,77c9.78-6.15,14.74-17,14.74-32.24C260.92,94.2,253,77.09,240.11,67.59Z"/><path class="cls-5" d="M246.08,134.22,238.29,65c10.89,8.1,19.08,23.29,19.08,41.15,0,13.72-4.33,22.64-11.29,28.08Z"/><path class="cls-1" d="M62.91,145l5.58-77.79c-12,8.8-21.07,25.6-20.94,45.33.12,16.76,6.11,26.9,15.36,32.46Z"/><path class="cls-2" d="M63.13,145.42l-.35-.21c-10.16-6.11-15.37-17.1-15.48-32.67C47.17,94,55.24,76.6,68.34,67l.44-.32,0,.54ZM68.2,67.74c-12.72,9.55-20.52,26.66-20.4,44.8.11,15.2,5.11,26,14.89,32Z"/><path class="cls-5" d="M62.71,134.19,70,65.13c-10.78,8.15-18.83,23.35-18.71,41.14.1,13.68,4.48,22.55,11.43,27.92Z"/><path class="cls-1" d="M154.47,22.6c54.74,0,99.11,41.15,99.11,90.75s-44.37,79.34-99.11,79.34-99.11-29.75-99.11-79.34S99.73,22.6,154.47,22.6Z"/><path class="cls-2" d="M154.47,192.94c-27.37,0-52.31-7.5-70.23-21.13-19.06-14.49-29.13-34.7-29.13-58.46,0-24.12,10.34-46.9,29.11-64.16S128,22.35,154.47,22.35s51.42,9.54,70.25,26.84,29.11,40,29.11,64.16c0,23.76-10.07,44-29.13,58.46C206.79,185.44,181.84,192.94,154.47,192.94Zm0-170.09c-26.35,0-51.17,9.49-69.91,26.71S55.61,89.37,55.61,113.35c0,23.6,10,43.67,28.93,58.06,17.83,13.56,42.67,21,69.93,21s52.1-7.47,69.93-21c18.92-14.39,28.93-34.47,28.93-58.06,0-24-10.28-46.63-29-63.79S180.82,22.85,154.47,22.85Z"/><path class="cls-6" d="M128.14,128.21c0,1.74-5.47,3.19-12.69,3.49-.89,0-1.81.05-2.74.05h-.07c-1.48,0-2.91-.05-4.27-.14-.91-.06-1.79-.14-2.62-.24-5-.58-8.48-1.78-8.48-3.16,0-1.73,5.36-3.16,12.46-3.48.91,0,1.85-.06,2.81-.07h.17c1.42,0,2.8,0,4.11.13.92.06,1.8.13,2.64.23C124.6,125.59,128.14,126.81,128.14,128.21Z"/><path class="cls-6" d="M213.67,128.21c0,1.74-5.49,3.2-12.73,3.49-.88,0-1.78.05-2.7.05h-.1c-1.48,0-2.91-.05-4.27-.14-.91-.06-1.79-.14-2.62-.24-5-.59-8.45-1.78-8.45-3.16,0-1.73,5.35-3.16,12.44-3.48.91,0,1.84-.06,2.8-.07h.2c1.41,0,2.78,0,4.08.13.92,0,1.8.13,2.64.22C210.12,125.59,213.67,126.8,213.67,128.21Z"/><path class="cls-7" d="M112.54,124.66l-4.17,7c-.91-.06-1.79-.14-2.62-.24l4-6.64C110.64,124.69,111.58,124.67,112.54,124.66Z"/><path class="cls-7" d="M119.46,125l-4,6.68c-.89,0-1.81.05-2.74.05h-.07l4.18-7C117.74,124.85,118.62,124.92,119.46,125Z"/><path class="cls-7" d="M198,124.66l-4.17,7c-.91-.06-1.79-.14-2.62-.24l4-6.64Z"/><path class="cls-7" d="M205,125l-4,6.69c-.88,0-1.78.05-2.7.05h-.1l4.18-7C203.24,124.84,204.12,124.92,205,125Z"/><path class="cls-8" d="M155.89,30.2c48.19,0,93.19,45.69,86.31,88.85-3.08,19.28-38.12-6.18-86.31-6.18s-87.25,55.24-87.25,6.18S107.7,30.2,155.89,30.2Z"/><path class="cls-9" d="M217.36,65.94l-.54.79a1.82,1.82,0,0,1-2.87.36c-9.13-9.34-18.88-17-30.29-20.74a1.6,1.6,0,0,1-.63-2.57l.53-.78a3.51,3.51,0,0,1,3.65-1.27c13.33,4.32,22.1,12.26,30.12,20.79a3,3,0,0,1,0,3.42ZM221,74.8a3.33,3.33,0,1,1,2.91-3.69A3.33,3.33,0,0,1,221,74.8Z"/><path class="cls-9" d="M215.43,99.68l-.71.72a3.4,3.4,0,0,1-4.79.19L194.84,85.47a3.41,3.41,0,0,1,.19-4.8l.71-.71a3.4,3.4,0,0,1,4.79-.19l15.09,15.12a3.4,3.4,0,0,1-.19,4.79ZM201.07,85.75l-15.35,15.38a3.44,3.44,0,0,1-4.86-.2l-.72-.72a3.45,3.45,0,0,1-.2-4.87L195.29,80a3.44,3.44,0,0,1,4.87.19l.72.72a3.45,3.45,0,0,1,.19,4.88Zm-86.85-.17-15,15a3.36,3.36,0,0,1-4.75-.19l-.7-.71a3.38,3.38,0,0,1-.19-4.76l15-15a3.35,3.35,0,0,1,4.75.19l.7.7a3.37,3.37,0,0,1,.19,4.76Zm14.59,14.64-.71.72a3.41,3.41,0,0,1-4.83.19L108,85.86a3.43,3.43,0,0,1,.19-4.84l.72-.72a3.41,3.41,0,0,1,4.82-.19L129,95.38a3.43,3.43,0,0,1-.2,4.84Z"/><path class="cls-10" d="M122.15,146a.48.48,0,0,1,.48-.47.47.47,0,0,1,.47.48s0,2.43,2.66,5.09c3.21,3.22,10.33,6.78,26.06,6.78,32.82,0,33.09-11.87,33.09-11.87a.48.48,0,0,1,1,0c0,.53-.69,12.8-34.05,12.8-9,0-20.91-1.23-26.74-7.06-2.9-2.9-2.93-5.65-2.93-5.76h0"/><path class="cls-1" d="M146.42,214.31a.5.5,0,0,0,0,.11c-12.23,3.18-6.15,14.48,3.2,13l1,3.39c-7.89-.05-14.06-4.77-14.41-9.34s3.71-8.07,9.09-8.18c-3.09-13.66,25.81-13.66,22.36,0,5.38.11,9.44,3.62,9.09,8.18s-6.52,9.29-14.4,9.34l1-3.39c7.87,1.11,17.5-11.34,3.2-13v-.11C166.58,203.5,146.42,203.51,146.42,214.31Z"/><path class="cls-1" d="M153.58,231.67c-.87-9,9-3.64,10.53-11.27.61-3.15,0-6.53-3-8.31-4.35-2.24-11.66-.3-11.06,6.07s9.44,4,8.63.12c-1.26,1.69-3.82,2.31-5,1.42-2.72-2,.44-6.51,4.63-5.46,2.75.68,2.56,2.35,2.77,4.35.41,4-3.44,4.25-7,5.9C149.76,226.5,153.58,231.67,153.58,231.67Z"/><path class="cls-1" d="M158.07,227.48a2.23,2.23,0,1,1-2.22,2.22A2.22,2.22,0,0,1,158.07,227.48Z"/><path class="cls-11" d="M103.28,227.54l-2.19-13.13a1.1,1.1,0,0,0-1.08-.92H69.34a1.1,1.1,0,0,0-1.08.92l-2.19,13.13a1.1,1.1,0,0,0,.24.89,1.08,1.08,0,0,0,.84.39H102.2a1.09,1.09,0,0,0,1.08-1.28Z"/><path class="cls-12" d="M103,231.38a1.13,1.13,0,0,0-.83-.37h-35a1.09,1.09,0,0,0-.83.37,1.11,1.11,0,0,0-.26.87l4.39,32.84a1.08,1.08,0,0,0,1.08,1H97.82a1.1,1.1,0,0,0,1.09-1l4.38-32.84a1.15,1.15,0,0,0-.26-.87Z"/><path class="cls-13" d="M105.49,226.63H63.86a1.09,1.09,0,0,0-1.09,1.1v4.38a1.09,1.09,0,0,0,1.09,1.09h41.63a1.09,1.09,0,0,0,1.09-1.09v-4.38A1.09,1.09,0,0,0,105.49,226.63Z"/><path class="cls-12" d="M74.81,213.49H94.53v6.57H74.81Z"/><path class="cls-13" d="M73.72,222.25H95.63a1.09,1.09,0,0,0,1.09-1.09v-7.67H94.53v6.57H74.81v-6.57H72.62v7.66A1.1,1.1,0,0,0,73.72,222.25Z"/><path class="cls-9" d="M91.62,245.92a1.36,1.36,0,0,1,0,1.35,1.33,1.33,0,0,1-1.17.67H88.88L87.18,245l2.92-1.69,1.52,2.62Zm-10-6.48a1.22,1.22,0,0,1,1-.6h4.21a1.68,1.68,0,0,0-1.47.85l-2.6,4.51-2.94-1.69S81.27,240,81.64,239.44ZM79.78,251.2l-2.11-3.65a1.16,1.16,0,0,1,0-1.18l.84-1.47-1.09-.63h3.41l1.7,2.95-1.09-.64-1.67,2.89A1.73,1.73,0,0,0,79.78,251.2Z"/><g class="cls-14"><path class="cls-9" d="M84.26,251.71h-3a1.34,1.34,0,0,1-1.16-2s.39-.67.78-1.36h3.41Zm.35-8.49,1.11-.62-.8-1.37c.39-.69.79-1.36.79-1.36a1.32,1.32,0,0,1,1.16-.68,1.35,1.35,0,0,1,1.16.67c.18.3.6,1,.6,1l1.09-.63L88,243.22Zm5.19,7.87a1.2,1.2,0,0,1-1,.58h-1.7v1.26l-1.7-3,1.7-2.95v1.27h3.34a1.75,1.75,0,0,0,1.5-.86Z"/></g><path class="cls-9" d="M82.57,208s-.58,2.88,1.21,2.42c0,0-.51.83.41,1,1.37.27,2.51-.09,2.37-1.46,1.15-.14,2.56-1.37,1-2.29,0,0-.36-2.88-1.92-2.1s-2.33.32-2.42,1.05A3.11,3.11,0,0,1,82.57,208Z"/></svg>