<?xml version="1.0" encoding="UTF-8"?>
<svg width="24px" height="24px" viewBox="0 0 24 24" version="1.1" xmlns="http://www.w3.org/2000/svg" xmlns:xlink="http://www.w3.org/1999/xlink">
    <title>照片</title>
    <g id="2.0" stroke="none" stroke-width="1" fill="none" fill-rule="evenodd">
        <g id="通用基础-删格" transform="translate(-183.000000, -451.000000)">
            <g id="照片" transform="translate(183.000000, 451.000000)">
                <polygon id="路径" points="0 0 24 0 24 24 0 24"></polygon>
                <path d="M18,3 C20.209139,3 22,4.790861 22,7 L22,17 C22,19.209139 20.209139,21 18,21 L6,21 C3.790861,21 2,19.209139 2,17 L2,7 C2,4.790861 3.790861,3 6,3 L18,3 Z M18,5 L6,5 C4.9456382,5 4.08183488,5.81587779 4.00548574,6.85073766 L4,7 L4,17 C4,18.0543618 4.81587779,18.9181651 5.85073766,18.9945143 L6,19 L6.412,19 L11.8786797,13.5351068 C13.0033896,12.4103968 14.7989525,12.3654084 15.9773307,13.4001416 L16.1213203,13.5351068 L19.9644901,17.3771599 C19.9787226,17.3025806 19.9888135,17.2265319 19.9945143,17.1492623 L20,17 L20,7 C20,5.9456382 19.1841222,5.08183488 18.1492623,5.00548574 L18,5 Z M13.3871006,14.8661317 L13.2928932,14.9493203 L9.242,19 L18,19 C18.2273234,19 18.4457888,18.9620743 18.6494139,18.892205 L14.7071068,14.9493203 C14.3466228,14.5888364 13.7793918,14.5611068 13.3871006,14.8661317 Z M8,7 C9.1045695,7 10,7.8954305 10,9 C10,10.1045695 9.1045695,11 8,11 C6.8954305,11 6,10.1045695 6,9 C6,7.8954305 6.8954305,7 8,7 Z" id="形状" fill="#5D6E7F" fill-rule="nonzero"></path>
            </g>
        </g>
    </g>
</svg>