<?xml version="1.0" encoding="UTF-8"?>
<svg width="16px" height="16px" viewBox="0 0 16 16" version="1.1" xmlns="http://www.w3.org/2000/svg" xmlns:xlink="http://www.w3.org/1999/xlink">
    <title>hot</title>
    <g id="2.0" stroke="none" stroke-width="1" fill="none" fill-rule="evenodd">
        <g id="知识库删格" transform="translate(-31.000000, -186.000000)">
            <g id="hot" transform="translate(31.000000, 186.000000)">
                <rect id="矩形" x="0" y="0" width="16" height="16"></rect>
                <path d="M10.3770936,5.66375942 C10.3189246,5.66772385 10.2600097,5.67010251 10.2018406,5.67010251 C7.39033498,5.67010251 8.55744542,1 8.55744542,1 C4.57360902,2.27258311 5.63705917,6.54862094 5.63705917,6.54862094 C5.63705917,6.54862094 4.4759148,5.26097299 4.76676021,3.4516056 C3.0783653,4.6115988 3.47734555,7.61981084 3.47734555,7.61981084 C3.47734555,7.61981084 2.43701388,7.1345642 2.67640202,5.61063601 C2.20732058,6.527213 2,7.44775443 2,8.5681033 C2,12.1194427 4.68696416,15 8.00036459,15 C11.3145108,15 14,12.1218214 14,8.5681033 C14.0037122,6.16803534 12.7515854,3.96539616 10.7499724,2.85297616 C11.3018329,3.21294671 11.7463044,5.57416322 10.3770936,5.66375942 Z" fill="#F14B3C"></path>
            </g>
        </g>
    </g>
</svg>