<?xml version="1.0" encoding="UTF-8"?>
<svg width="36px" height="20px" viewBox="0 0 36 20" version="1.1" xmlns="http://www.w3.org/2000/svg" xmlns:xlink="http://www.w3.org/1999/xlink">
    <title>icon-wenjian</title>
    <g id="2.0" stroke="none" stroke-width="1" fill="none" fill-rule="evenodd">
        <g id="知识库删格" transform="translate(-340.000000, -111.000000)" fill="#4ADD8C" fill-rule="nonzero">
            <g id="icon-wenjian" transform="translate(340.000000, 111.000000)">
                <path d="M33.5,0 C34.8807119,0 36,1.11928813 36,2.5 L36,17.5 C36,18.8807119 34.8807119,20 33.5,20 L2.5,20 C1.11928813,20 0,18.8807119 0,17.5 L0,2.5 C0,1.11928813 1.11928813,0 2.5,0 L33.5,0 Z M33.5,1.29999996 L2.5,1.29999996 C1.88475881,1.29999996 1.3690622,1.76499926 1.306,2.377 L1.29999996,2.5 L1.29999996,17.5 C1.29999996,18.1152412 1.76499926,18.6309378 2.377,18.694 L2.5,18.7 L33.5,18.7 C34.1152412,18.7 34.6309378,18.2350007 34.694,17.623 L34.7,17.5 L34.7,2.5 C34.7,1.88475881 34.2350007,1.3690622 33.623,1.306 L33.5,1.29999996 Z" id="形状"></path>
                <path d="M16.785,16.56 L17.37,15.66 C14.97,14.775 12.975,13.665 11.385,12.315 C12.855,10.725 13.965,8.73 14.7,6.36 L17.04,6.36 L17.04,5.28 L11.31,5.28 C10.83,4.245 10.32,3.36 9.75,2.64 L8.67,3.03 C9.27,3.735 9.765,4.485 10.17,5.28 L3.96,5.28 L3.96,6.36 L6.27,6.36 C6.93051181,8.64999434 8.17646141,10.7283003 9.885,12.39 C8.265,13.86 6.195,14.925 3.675,15.6 L4.245,16.545 C6.795,15.81 8.925,14.655 10.635,13.08 C12.255,14.475 14.295,15.63 16.785,16.56 Z M10.635,11.64 C9.10575526,10.1877435 7.97028066,8.37098409 7.335,6.36 L13.575,6.36 C12.945,8.43 11.97,10.185 10.635,11.64 L10.635,11.64 Z M21.465,16.515 L21.465,6.495 C22.065,5.43 22.56,4.305 22.95,3.12 L21.93,2.655 C21.21,4.995 20.07,7.08 18.48,8.88 L18.825,10.035 C19.395,9.435 19.92,8.805 20.4,8.145 L20.4,16.515 L21.465,16.515 Z M28.305,16.44 L28.305,11.61 L32.31,11.61 L32.31,10.575 L28.305,10.575 L28.305,6.96 L31.755,6.96 L31.755,5.91 L28.305,5.91 L28.305,2.79 L27.225,2.79 L27.225,5.91 L25.02,5.91 C25.23,5.25 25.395,4.53 25.515,3.78 L24.45,3.645 C24.12,5.64 23.505,7.335 22.59,8.715 L23.28,9.615 C23.835,8.835 24.3,7.95 24.675,6.96 L27.225,6.96 L27.225,10.575 L22.815,10.575 L22.815,11.61 L27.225,11.61 L27.225,16.44 L28.305,16.44 L28.305,16.44 Z" id="形状"></path>
            </g>
        </g>
    </g>
</svg>