<?xml version="1.0" encoding="UTF-8"?>
<svg width="24px" height="24px" viewBox="0 0 24 24" version="1.1" xmlns="http://www.w3.org/2000/svg" xmlns:xlink="http://www.w3.org/1999/xlink">
    <title>钥匙</title>
    <g id="2.0" stroke="none" stroke-width="1" fill="none" fill-rule="evenodd">
        <g id="通用基础-删格" transform="translate(-183.000000, -352.000000)">
            <g id="钥匙" transform="translate(183.000000, 352.000000)">
                <polygon id="路径" points="0 0 24 0 24 24 0 24"></polygon>
                <path d="M10.758,11.828 L17.9,4.686 C18.2904653,4.29553468 18.9235347,4.29553468 19.314,4.686 C19.7045057,5.07650574 19.7046176,5.70960612 19.31425,6.10024987 L18.607,6.808 L18.607,6.808 L20.37375,8.57474996 C20.7643938,8.9653938 20.7645057,9.59871809 20.374,9.9895 C19.9836727,10.3801034 19.3506033,10.3803271 18.9599999,9.98999982 C18.9599166,9.98991655 18.9598333,9.98983326 18.95975,9.98974996 L17.192,8.222 L17.192,8.222 L15.778,9.636 L17.19175,11.04975 C17.5823938,11.4403938 17.5825057,12.0737181 17.192,12.4645 C16.8017647,12.8550113 16.1688444,12.855235 15.7783331,12.4649997 C15.7781943,12.4648609 15.7780554,12.4647221 15.7779167,12.4645833 L14.364,11.05 L14.364,11.05 L12.172,13.242 C13.5814549,15.3837805 13.1432317,18.2444877 11.1572686,19.8661342 C9.17130558,21.4877807 6.28074191,21.3452085 4.464,19.536 C2.64298083,17.72181 2.49422512,14.8224522 4.12001183,12.8314188 C5.74579854,10.8403855 8.61635854,10.4064627 10.758,11.828 Z M10.9643404,15.1919502 C10.6915769,14.134881 9.86611901,13.3094231 8.80904976,13.0366596 C7.7519805,12.7638961 6.63017943,13.0868883 5.88,13.88 C4.74308337,15.0571367 4.75934288,16.9282543 5.91654427,18.0854557 C7.07374567,19.2426571 8.94486334,19.2589166 10.122,18.122 C10.9141117,17.3708206 11.2371039,16.2490195 10.9643404,15.1919502 Z" id="形状" fill="#5D6E7F" fill-rule="nonzero"></path>
            </g>
        </g>
    </g>
</svg>