<?xml version="1.0" encoding="UTF-8"?>
<svg width="18px" height="18px" viewBox="0 0 18 18" version="1.1" xmlns="http://www.w3.org/2000/svg" xmlns:xlink="http://www.w3.org/1999/xlink">
    <title>个人中心-消息</title>
    <g id="2.0" stroke="none" stroke-width="1" fill="none" fill-rule="evenodd">
        <g id="知识库删格" transform="translate(-119.000000, -69.000000)">
            <g id="个人中心-消息" transform="translate(119.000000, 69.000000)">
                <circle id="蒙版" fill="#FFECD8" cx="9" cy="9" r="9"></circle>
                <g id="形状" transform="translate(3.000000, 3.000000)">
                    <rect id="蒙版" x="0" y="0" width="12" height="12"></rect>
                    <path d="M6.90682839,10.7159982 C6.90682839,11.4255031 6.30900158,12 5.57166143,12 C4.83508097,12 4.23724191,11.4255031 4.23724191,10.7159982 L6.90682839,10.7159982 Z M5.57314405,1.52999953 C7.71724328,1.52999953 9.45537913,3.29623762 9.45537913,5.47500272 L9.45464395,7.68600644 L10.2694725,9.65849559 C10.3033379,9.76930478 10.2836038,9.88986276 10.216262,9.98356537 C10.1489201,10.077268 10.0419146,10.1330615 9.9277346,10.1340057 L1.21634794,10.1340057 C1.10016385,10.1340057 0.991182462,10.0767861 0.923790854,9.98061383 C0.856399246,9.88444159 0.838909487,9.76109948 0.876840152,9.64950584 L1.69093347,7.68300571 L1.69093347,5.47500272 C1.69093347,3.29624249 3.42906185,1.52999953 5.5731563,1.52999953 L5.57314405,1.52999953 Z M5.57167368,0 C6.08979433,0 6.50900828,0.426004265 6.50900828,0.952514358 L4.63433908,0.952514358 C4.63433908,0.426004265 5.05503565,0 5.57167368,0 Z" fill="#FDA916" fill-rule="nonzero"></path>
                </g>
            </g>
        </g>
    </g>
</svg>