<?xml version="1.0" encoding="UTF-8"?>
<svg width="24px" height="24px" viewBox="0 0 24 24" version="1.1" xmlns="http://www.w3.org/2000/svg" xmlns:xlink="http://www.w3.org/1999/xlink">
    <title>地图</title>
    <g id="2.0" stroke="none" stroke-width="1" fill="none" fill-rule="evenodd">
        <g id="通用基础-删格" transform="translate(-252.000000, -399.000000)">
            <g id="地图" transform="translate(252.000000, 399.000000)">
                <polygon id="路径" points="0 0 24 0 24 24 0 24"></polygon>
                <path d="M3.9999998,9 L3.9999998,19.2088288 C3.9999998,19.4849712 4.22385743,19.7088288 4.4999998,19.7088288 C4.56769312,19.7088288 4.63468153,19.6950831 4.69690469,19.6684248 L8.21249255,18.1622401 C8.75317763,17.9305942 9.36842129,17.9487106 9.89453928,18.2117696 L14.2349591,20.3819796 C14.7613657,20.6451828 15.3769796,20.663168 15.9178542,20.4311454 L19.3942337,18.9398595 C19.7617493,18.7822039 19.9999998,18.4207531 19.9999998,18.0208494 L19.9999998,6.759 C19.9999998,6.20671525 20.4477151,5.759 20.9999998,5.759 C21.5522846,5.759 21.9999998,6.20671525 21.9999998,6.759 L21.9999998,18.6812077 C21.9999998,19.4812639 21.5232061,20.2043402 20.7878384,20.5194977 L15.8525968,22.6346013 C15.3118628,22.8663444 14.6965235,22.8482619 14.170331,22.5851656 L9.82966859,20.4148344 C9.30347608,20.1517381 8.68813684,20.1336556 8.1474028,20.3653987 L4.09087875,22.103909 C3.32943407,22.4302425 2.44761569,22.0775151 2.12128226,21.3160704 C2.04126143,21.1293552 1.9999998,20.9283316 1.9999998,20.7251915 L1.9999998,9 C1.9999998,8.44771525 2.44771505,8 2.9999998,8 C3.55228455,8 3.9999998,8.44771525 3.9999998,9 Z M16.243,12.243 L12.7071901,15.7779766 C12.3165182,16.168223 11.6834818,16.168223 11.2928099,15.7779766 L7.757,12.243 L7.757,12.243 C5.41414625,9.89974936 5.41436074,6.10094425 7.75747909,3.75795819 C10.1005974,1.41497214 13.8994026,1.41497214 16.2425209,3.75795819 C18.5856393,6.10094425 18.5858537,9.89974936 16.243,12.243 Z M12.7069818,12.9497682 L14.828,10.828 L14.828,10.828 C15.9722425,9.68410305 16.3146869,7.96353697 15.6956337,6.4686911 C15.0765805,4.97384524 13.6179589,3.99914581 12,3.99914581 C10.3820411,3.99914581 8.92341952,4.97384524 8.30436631,6.4686911 C7.6853131,7.96353697 8.02775754,9.68410305 9.172,10.828 L11.2930182,12.9497682 C11.6832235,13.3406115 12.3163885,13.3407234 12.7069818,12.9502681 C12.7070651,12.9501848 12.7071485,12.9501015 12.7069818,12.9497682 Z" id="形状" fill="#5D6E7F" fill-rule="nonzero"></path>
            </g>
        </g>
    </g>
</svg>