<?xml version="1.0" encoding="UTF-8"?>
<svg width="24px" height="24px" viewBox="0 0 24 24" version="1.1" xmlns="http://www.w3.org/2000/svg" xmlns:xlink="http://www.w3.org/1999/xlink">
    <title>分类</title>
    <g id="2.0" stroke="none" stroke-width="1" fill="none" fill-rule="evenodd">
        <g id="知识库删格" transform="translate(-193.000000, -253.000000)">
            <g id="分类" transform="translate(193.000000, 253.000000)">
                <rect id="矩形" x="0" y="0" width="24" height="24"></rect>
                <path d="M9.35841928,13.0000021 C9.7940072,12.9993043 10.211956,13.172031 10.5199635,13.4800386 C10.8279711,13.7880461 11.0006978,14.2059949 11,14.6415828 L11,14.6415828 L11,18.0000021 C11,20.7614263 8.7614221,23.0000021 6,23.0000021 C3.23857578,23.0000021 1,20.7614263 1,18.0000021 C1,15.23858 3.23857578,13.0000021 6,13.0000021 L6,13.0000021 Z M17.0000021,13.0000021 C19.7614263,13.0000021 22.0000021,15.23858 22.0000021,18.0000021 C22.0000021,20.7614263 19.7614263,23.0000021 17.0000021,23.0000021 C14.23858,23.0000021 12.0000021,20.7614263 12.0000021,18.0000021 L12.0000021,14.6415828 C11.9993043,14.2059949 12.172031,13.7880461 12.4800386,13.4800386 C12.7880461,13.172031 13.2059949,12.9993043 13.6415828,13.0000021 L17.0000021,13.0000021 Z M8.15422416,15.0000021 L5.86463762,15.0000021 C4.28254195,15.0000021 3,16.5260385 3,18.1178224 C3,19.7096063 4.28254195,21.0000021 5.86463762,21.0000021 C7.44673328,21.0000021 9,19.683004 9,18.0912201 L9,18.0912201 L9,15.7832714 C9,15.1352764 8.68108834,15.0000021 8.15422416,15.0000021 L8.15422416,15.0000021 Z M17.1353645,15.0000021 L14.8457779,15.0000021 C14.3189138,15.0000021 14.0000021,15.1352764 14.0000021,15.7832714 L14.0000021,18.0912201 C14.0000021,19.683004 15.5532688,21.0000021 17.1353645,21.0000021 C18.7174602,21.0000021 20.0000021,19.7096063 20.0000021,18.1178224 C20.0000021,16.5260385 18.7174602,15.0000021 17.1353645,15.0000021 Z M6,2 C8.7614221,2 11,4.23857578 11,7 L11,10.3584193 C11.0006978,10.7940072 10.8279711,11.211956 10.5199635,11.5199635 C10.211956,11.8279711 9.7940072,12.0006978 9.35841928,12 L6,12 C3.23857578,12 1,9.7614221 1,7 C1,4.23857578 3.23857578,2 6,2 Z M17.0000021,2 C19.7614263,2 22.0000021,4.23857578 22.0000021,7 C22.0000021,9.7614221 19.7614263,12 17.0000021,12 L17.0000021,12 L13.6415828,12 C13.2059949,12.0006978 12.7880461,11.8279711 12.4800386,11.5199635 C12.172031,11.211956 11.9993043,10.7940072 12.0000021,10.3584193 L12.0000021,10.3584193 L12.0000021,7 C12.0000021,4.23857578 14.23858,2 17.0000021,2 Z M5.86463762,4 C4.28254195,4 3,5.29039579 3,6.88217968 C3,8.47396356 4.28254195,10 5.86463762,10 L8.15422416,10 C8.68108834,10 9,9.86472569 9,9.21673071 L9,6.90878196 C9,5.31699808 7.44673328,4 5.86463762,4 Z M17.1353645,4 C15.5532688,4 14.0000021,5.31699808 14.0000021,6.90878196 L14.0000021,6.90878196 L14.0000021,9.21673071 C14.0000021,9.86472569 14.3189138,10 14.8457779,10 L14.8457779,10 L17.1353645,10 C18.7174602,10 20.0000021,8.47396356 20.0000021,6.88217968 C20.0000021,5.29039579 18.7174602,4 17.1353645,4 Z" id="形状结合" fill="#5D6E7F" fill-rule="nonzero"></path>
            </g>
        </g>
    </g>
</svg>