<?xml version="1.0" encoding="UTF-8"?>
<svg width="24px" height="24px" viewBox="0 0 24 24" version="1.1" xmlns="http://www.w3.org/2000/svg" xmlns:xlink="http://www.w3.org/1999/xlink">
    <title>设置</title>
    <g id="2.0" stroke="none" stroke-width="1" fill="none" fill-rule="evenodd">
        <g id="通用基础-删格" transform="translate(-252.000000, -451.000000)">
            <g id="设置" transform="translate(252.000000, 451.000000)">
                <polygon id="路径" points="0 0 24 0 24 24 0 24"></polygon>
                <path d="M3.34,17 C3.21745133,16.7880796 3.10281291,16.5719138 2.9962752,16.3519556 C2.9962752,16.3519556 2.9962752,16.3519556 2.9962752,16.3519556 C2.60862071,15.5516024 2.73034447,14.5978189 3.30658501,13.92048 C3.31233152,13.9136946 3.31794485,13.9069692 3.32340986,13.900291 C3.75430456,13.3737407 4.00170836,12.7061021 4.00197206,12.001113 C4.00219302,11.4103806 3.82887017,10.8457432 3.51940496,10.3682614 C3.45735561,10.2725239 3.37376812,10.1705311 3.2686425,10.0622831 L3.26862578,10.0622994 C2.70571506,9.4826695 2.55418546,8.61791234 2.88647455,7.88141846 C2.88647455,7.88141846 2.88647455,7.88141846 2.88647455,7.88141846 C3.16105868,7.27282328 3.4959856,6.69324429 3.88620532,6.15143872 C3.88620532,6.15143872 3.88620532,6.15143872 3.88620532,6.15143872 C4.3490592,5.50878331 5.15782449,5.21452583 5.92543568,5.40949443 C6.02194338,5.4340184 6.10979177,5.45040054 6.18897808,5.45865174 C6.80709124,5.52305905 7.44190759,5.39527236 8.00032966,5.07283215 C8.3971819,4.84368447 8.72817935,4.53197468 8.97738198,4.16708358 C9.12158314,3.95593926 9.24107912,3.65289276 9.33586992,3.2579441 C9.33586992,3.2579441 9.33586992,3.2579441 9.33586992,3.2579441 C9.46844821,2.70555277 9.96252488,2.31614277 10.5306034,2.31629829 L11.565005,2.31659652 L11.565005,2.31659652 L13.1223408,2.31744851 C13.8541595,2.31774083 14.49827,2.80023371 14.7042939,3.50245361 C14.7536728,3.67076743 14.8098923,3.81199778 14.8729524,3.92614466 C15.1323021,4.39560054 15.5174694,4.79580838 15.9998287,5.0740605 C16.4688609,5.34462487 16.991705,5.47791059 17.5132367,5.47539567 C17.674195,5.4746195 17.8649579,5.44468836 18.0855255,5.38560225 L18.0855256,5.38560266 C18.8246745,5.18759781 19.6095424,5.46395245 20.0615761,6.08137671 C20.0615761,6.08137671 20.0615761,6.08137671 20.0615761,6.08137671 C20.2751835,6.37313907 20.4751024,6.67942523 20.66,7 C20.8336708,7.3004143 20.9898066,7.60597648 21.1287946,7.91558963 C21.1287946,7.91558963 21.1287946,7.91558963 21.1287946,7.91558963 C21.4517909,8.63510418 21.3001458,9.47909301 20.7468785,10.0411634 C20.6486669,10.1409711 20.569754,10.235094 20.5101564,10.3235486 C20.1826086,10.8096942 19.9982556,11.3903771 19.9980279,11.998887 C19.9977794,12.6634136 20.2171409,13.2949185 20.6028707,13.8064802 C20.6316947,13.8447072 20.6647671,13.8842416 20.7020877,13.9250833 L20.7020887,13.9250825 C21.2781216,14.5554627 21.4177233,15.4707568 21.0558023,16.2441948 C21.0558023,16.2441948 21.0558023,16.2441948 21.0558023,16.2441948 C20.7821902,16.8289134 20.452455,17.3859226 20.0711658,17.9072988 C20.0711658,17.9072988 20.0711658,17.9072988 20.0711658,17.9072988 C19.6194387,18.5249921 18.834418,18.8013867 18.0953455,18.6029571 C17.9485132,18.5635382 17.8182757,18.5399418 17.7046321,18.5321709 C17.120417,18.4922228 16.5260981,18.6232016 15.9996703,18.9271679 C15.4799656,19.2272522 15.0731996,19.6689278 14.8151715,20.1862094 C14.7735508,20.2696485 14.7355365,20.3678394 14.7011285,20.4807823 L14.7011208,20.4807799 C14.4507595,21.3025805 13.7260582,21.8897311 12.8701999,21.9641861 C12.8701999,21.9641861 12.8701999,21.9641861 12.8701999,21.9641861 C12.3193545,22.0121066 11.7655086,22.0142092 11.2144084,21.9704961 C11.2144084,21.9704961 11.2144084,21.9704961 11.2144084,21.9704961 C10.3157252,21.8992129 9.54961292,21.2910293 9.2763336,20.4319418 C9.23287793,20.2953785 9.18447794,20.1784808 9.13112065,20.0812526 C8.87173819,19.6086037 8.48506213,19.205652 8.00017134,18.9259395 C7.53099067,18.6552895 7.00796406,18.5220051 6.48626814,18.5246068 C6.34393594,18.5253166 6.17829208,18.5488286 5.98933654,18.5951429 L5.98933628,18.5951418 C5.1814797,18.793153 4.33461157,18.4778844 3.85290439,17.7997997 C3.85290439,17.7997997 3.85290439,17.7997997 3.85290439,17.7997997 C3.66955402,17.5417029 3.49837054,17.2748192 3.34,17 Z M9,17.196 C9.95786262,17.7484725 10.7020905,18.6013167 11.1210899,19.6171483 C11.1210899,19.6171483 11.1210899,19.6171483 11.1210899,19.6171483 C11.2107698,19.8345702 11.4176234,19.9809243 11.6524972,19.9931323 C11.7026493,19.9957599 11.7467377,19.9975926 11.7847611,19.9986511 C11.9342884,20.0028136 12.083867,20.002797 12.2333897,19.9985477 C12.2819749,19.997167 12.3408301,19.9944834 12.4099554,19.9904968 L12.4099548,19.9904865 C12.609057,19.979004 12.7835489,19.8533934 12.857622,19.6682267 C12.857622,19.6682267 12.857622,19.6682267 12.857622,19.6682267 C13.2728651,18.6302089 14.0260817,17.7583631 15,17.197 C15.8652249,16.6963974 16.8558612,16.4696646 17.842805,16.5374949 C17.9154756,16.5424893 18.0053418,16.5522898 18.1124037,16.5668963 L18.1124036,16.5668972 C18.3752867,16.6027623 18.634817,16.4813853 18.7758148,16.2566332 C18.7758148,16.2566332 18.7758148,16.2566332 18.7758148,16.2566332 C18.8848662,16.0828039 18.9870808,15.9047827 19.0823204,15.7230533 C19.0823204,15.7230533 19.0823204,15.7230533 19.0823204,15.7230533 C19.2001697,15.4981817 19.175555,15.2251579 19.0193859,15.0249907 C18.9892626,14.9864218 18.9633731,14.9520852 18.9416973,14.9219964 C18.3313219,14.074714 17.9992437,13.053104 18,12 C18,10.9361944 18.3350282,9.93155334 18.9226335,9.10463771 C18.9491629,9.06730385 18.9816984,9.02396392 19.0202398,8.97461794 L19.0202454,8.97462227 C19.1759036,8.77532756 19.200244,8.50328225 19.0824376,8.27952009 C19.0824376,8.27952009 19.0824376,8.27952009 19.0824376,8.27952009 C18.9836707,8.09192189 18.8776001,7.90826101 18.7644694,7.7289594 C18.7644694,7.7289594 18.7644694,7.7289594 18.7644694,7.7289594 C18.6284538,7.51338716 18.3787393,7.39752083 18.1263047,7.43285403 C18.0610301,7.44197993 18.0046237,7.44873994 17.9570841,7.45312371 C16.9326449,7.5475901 15.8987484,7.32349888 15,6.804 C14.1500318,6.31375842 13.4682809,5.58700231 13.0327193,4.71972367 C12.9921415,4.63892622 12.9453257,4.533293 12.8922718,4.40282401 C12.8015766,4.17980252 12.5848837,4.03388985 12.3441261,4.03372924 L12.3441261,4.03372924 L12.3441261,4.03372924 L11.7207602,4.03331338 C11.4449507,4.03312939 11.1961774,4.19907608 11.0904,4.45379566 C11.0720636,4.49795376 11.0551387,4.53683067 11.0396254,4.57042641 C10.6088701,5.50327214 9.89831913,6.28521198 9,6.803 C8.16360223,7.28692377 7.21001067,7.51492304 6.25585007,7.46830478 C6.17538845,7.46437359 6.07648684,7.45511247 5.95914525,7.44052142 L5.95914382,7.44053298 C5.64811296,7.40185728 5.34321103,7.54868814 5.17952125,7.81597385 C5.17952125,7.81597385 5.17952125,7.81597385 5.17952125,7.81597385 C5.09392231,7.95574661 5.01264172,8.09812461 4.93579577,8.24290599 C4.93579577,8.24290599 4.93579577,8.24290599 4.93579577,8.24290599 C4.80614599,8.4871723 4.8313665,8.78469598 5.00028287,9.00365341 C5.05386701,9.07308816 5.09796677,9.13320684 5.13259356,9.18400067 C5.69557378,10.009833 6.00072503,10.9904449 6,12 C6,13.0123989 5.69656888,13.9712132 5.16077298,14.7742526 C5.12589275,14.8265303 5.08188867,14.8876798 5.02876076,14.957701 L5.02877033,14.9577082 C4.84220774,15.2035929 4.81684297,15.5359165 4.96392733,15.8072669 C4.96392733,15.8072669 4.96392733,15.8072669 4.96392733,15.8072669 C5.03593199,15.9401055 5.1116281,16.0709107 5.1909274,16.1995296 C5.1909274,16.1995296 5.1909274,16.1995296 5.1909274,16.1995296 C5.35008986,16.4576821 5.64549372,16.5989287 5.94635346,16.5607348 C6.05761062,16.5466257 6.15151765,16.5374658 6.22807643,16.5332699 C7.19139685,16.4804729 8.15537829,16.7077877 9,17.196 Z M12,15 C10.3431458,15 9,13.6568542 9,12 C9,10.3431458 10.3431458,9 12,9 C13.6568542,9 15,10.3431458 15,12 C15,13.6568542 13.6568542,15 12,15 Z M12,13 C12.5522847,13 13,12.5522847 13,12 C13,11.4477153 12.5522847,11 12,11 C11.4477153,11 11,11.4477153 11,12 C11,12.5522847 11.4477153,13 12,13 Z" id="形状" fill="#5D6E7F" fill-rule="nonzero"></path>
            </g>
        </g>
    </g>
</svg>