<?xml version="1.0" encoding="UTF-8"?>
<svg width="24px" height="24px" viewBox="0 0 24 24" version="1.1" xmlns="http://www.w3.org/2000/svg" xmlns:xlink="http://www.w3.org/1999/xlink">
    <title>筛选</title>
    <g id="2.0" stroke="none" stroke-width="1" fill="none" fill-rule="evenodd">
        <g id="通用基础-删格" transform="translate(-426.000000, -399.000000)">
            <g id="筛选" transform="translate(426.000000, 399.000000)">
                <polygon id="路径" points="0 0 24 0 24 24 0 24"></polygon>
                <path d="M21,5 C21,5.55228475 20.5522847,6 20,6 L20,6 L20,6 L15.5038491,12.7442263 C15.1753141,13.2370289 15,13.816052 15,14.4083269 L15,20 C15,21.1045695 14.1045695,22 13,22 L11,22 C9.8954305,22 9,21.1045695 9,20 L9,14.4083269 C9,13.816052 8.82468592,13.2370289 8.49615088,12.7442263 L4,6 L4,6 C3.44771525,6 3,5.55228475 3,5 C3,4.44771525 3.44771525,4 4,4 L20,4 C20.5522847,4 21,4.44771525 21,5 Z M6.71494004,6.46641006 L10.4961509,12.1382263 C10.8246859,12.6310289 11,13.210052 11,13.8023269 L11,19.5 C11,19.7761424 11.2238576,20 11.5,20 L12.5,20 C12.7761424,20 13,19.7761424 13,19.5 L13,13.8023269 C13,13.210052 13.1753141,12.6310289 13.5038491,12.1382263 L17.28506,6.46641006 C17.3769657,6.32855145 17.3397135,6.14229065 17.2018549,6.05038491 C17.1525747,6.01753141 17.0946724,6 17.0354449,6 L6.96455513,6 C6.7988697,6 6.66455513,6.13431458 6.66455513,6.3 C6.66455513,6.3592275 6.68208654,6.4171298 6.71494004,6.46641006 Z" id="形状" fill="#5D6E7F" fill-rule="nonzero"></path>
            </g>
        </g>
    </g>
</svg>