<?xml version="1.0" encoding="UTF-8"?>
<svg width="24px" height="24px" viewBox="0 0 24 24" version="1.1" xmlns="http://www.w3.org/2000/svg" xmlns:xlink="http://www.w3.org/1999/xlink">
    <title>工具</title>
    <g id="2.0" stroke="none" stroke-width="1" fill="none" fill-rule="evenodd">
        <g id="通用基础-删格" transform="translate(-461.000000, -399.000000)">
            <g id="工具" transform="translate(461.000000, 399.000000)">
                <polygon id="路径" points="0 0 24 0 24 24 0 24"></polygon>
                <path d="M17.2991213,2.43492562 C18.2748707,1.89277445 19.491804,2.06317886 20.2811122,2.85248706 L20.2811122,2.85248706 L21.1475129,3.71888782 C21.9368211,4.50819602 22.1072255,5.72512928 21.5650744,6.70087872 L21.5650744,6.70087872 L20.2225379,9.11714066 C19.7952176,9.88622059 19.051831,10.4289509 18.1891321,10.6016859 L18.1891321,10.6016859 L17.51,10.737 L16.5842046,11.7058662 C16.4105243,11.8875299 16.2160229,12.0373035 16.0079202,12.1549301 L20.6184777,16.7644778 C21.5417029,17.6876595 21.6724333,19.1229046 20.9673303,20.1910699 L20.9673303,20.1910699 L20.8609107,20.3410728 L20.7838728,20.4354877 L20.7010137,20.5302953 L20.6183877,20.6186585 C19.5540813,21.6828153 17.8286583,21.6828153 16.764352,20.6186585 L16.764352,20.6186585 L8.307,12.163 L8.08120415,12.2075294 C6.70876266,12.4392086 5.27600534,12.0954739 4.14537197,11.2152982 L4.14537197,11.2152982 L3.95979266,11.0636419 C2.37665701,9.7062667 1.79283782,7.51426572 2.4911586,5.54934762 C2.77001732,4.76470169 3.50387444,4.33175952 4.2426667,4.35210862 L4.2426667,4.35210862 L4.284,4.355 L4.28049378,4.29709423 C4.26125116,3.60233984 4.64288249,2.91189568 5.34104661,2.6000249 L5.34104661,2.6000249 L5.47564116,2.54607691 C7.44980679,1.84174183 9.71146519,2.37888071 11.0665782,3.95962372 C11.941456,4.98017119 12.3527615,6.28001994 12.2692846,7.56640223 L12.2774879,7.55744099 L13.252,6.537 L13.3983141,5.81086786 C13.5577618,5.01453049 14.0324718,4.3198556 14.7094628,3.88159558 L14.7094628,3.88159558 L14.8828593,3.7774621 Z M9.69999759,5.13114307 C8.82675887,4.11250768 7.34426111,3.79052775 6.08049518,4.24140921 L6.08049518,4.24140921 L8.14894526,6.31234475 C8.50982259,6.66084277 8.65455303,7.17691577 8.52750932,7.66221069 C8.40046562,8.14750561 8.09295107,8.47361749 7.60758797,8.60064335 C7.12222486,8.72766921 6.60607935,8.5829591 6.25753237,8.22213247 L6.25753237,8.22213247 L4.18723133,6.15212228 C3.7382992,7.41531662 4.11362129,8.82449674 5.13141706,9.69715143 C6.14921282,10.5698061 7.59934506,10.7257644 8.77946814,10.0894908 L8.77946814,10.0894908 L18.0370548,19.3457768 C18.3984379,19.7071092 18.9843018,19.7071092 19.3456849,19.3457768 L19.3456849,19.3457768 L19.428544,19.2509693 C19.7045354,18.8883241 19.6769231,18.3684921 19.3457155,18.0373 L19.3457155,18.0373 L13.299916,11.9911921 L13.1690395,11.8906709 L13.0336667,11.7699103 L12.3168739,11.0539695 C12.2207118,10.9578754 12.1339911,10.8558585 12.0567246,10.7490818 L10.0890238,8.78104447 C10.7279452,7.60128017 10.5732363,6.14977846 9.69999759,5.13114307 Z M18.8668986,4.26670062 C18.709037,4.10883898 18.4656503,4.0747581 18.2705004,4.18318833 L18.2705004,4.18318833 L15.8542385,5.52572482 C15.5978785,5.66816493 15.4169684,5.91596046 15.3593901,6.20352674 L15.3593901,6.20352674 L15.1567552,7.21555632 C15.1194912,7.40166604 15.0300311,7.57332734 14.8988284,7.7104816 L14.8988284,7.7104816 L13.7227102,8.93995042 C13.5347642,9.13642203 13.5382634,9.447068 13.7305874,9.63925613 L13.7305874,9.63925613 L14.42375,10.3319288 L14.5021851,10.3959412 C14.7000362,10.5265263 14.9689595,10.5011946 15.1385836,10.3237736 L15.1385836,10.3237736 L16.2818535,9.12795289 C16.4235242,8.97977032 16.6073156,8.87871048 16.8083346,8.8384612 L16.8083346,8.8384612 L17.7964733,8.64060991 C18.0840395,8.58303159 18.3318351,8.40212148 18.4742752,8.1457615 L18.4742752,8.1457615 L19.8168117,5.72949957 C19.9252419,5.53434968 19.891161,5.29096302 19.7332994,5.13310138 L19.7332994,5.13310138 Z" id="形状结合" fill="#5D6E7F" fill-rule="nonzero"></path>
                <path d="M2.89537367,16.8647933 L2.80449545,16.9596947 L2.72661919,17.0465596 L2.64796568,17.139869 C1.66105458,18.3859211 1.81800509,20.1856168 3.00571917,21.2420163 C4.1934695,22.2984482 5.99923555,22.2443708 7.12164163,21.118759 L11.7445075,16.598461 C12.7287662,15.6142788 12.7287922,14.0313663 11.7524974,13.0550396 L11.0478801,12.3503992 C10.0792987,11.3817861 8.51161814,11.3729922 7.53223119,12.3306781 L2.89537367,16.8647933 Z M9.63364335,13.7645896 L10.3382607,14.46923 C10.5118242,14.6427992 10.5311049,14.9122239 10.3961057,15.1070899 L10.3342721,15.1802694 L5.70541285,19.7065635 C5.33167503,20.0813688 4.73040145,20.0993752 4.33490628,19.7476062 C3.93941111,19.3958373 3.88714751,18.7965492 4.2157798,18.3816254 L4.29365606,18.2947605 L8.93051357,13.7606454 C9.12639096,13.5691082 9.43992708,13.570867 9.63364335,13.7645896 Z" id="路径" fill="#5D6E7F" fill-rule="nonzero"></path>
            </g>
        </g>
    </g>
</svg>