<?xml version="1.0" encoding="UTF-8"?>
<svg width="24px" height="24px" viewBox="0 0 24 24" version="1.1" xmlns="http://www.w3.org/2000/svg" xmlns:xlink="http://www.w3.org/1999/xlink">
    <title>选择器</title>
    <g id="2.0" stroke="none" stroke-width="1" fill="none" fill-rule="evenodd">
        <g id="通用基础-删格" transform="translate(-183.000000, -220.000000)">
            <g id="选择器" transform="translate(183.000000, 220.000000)">
                <polygon id="路径" points="0 0 24 0 24 24 0 24"></polygon>
                <path d="M17,2 C19.209139,2 21,3.790861 21,6 L21,18 C21,20.209139 19.209139,22 17,22 L7,22 C4.790861,22 3,20.209139 3,18 L3,6 C3,3.790861 4.790861,2 7,2 L17,2 Z M17,4 L7,4 C5.9456382,4 5.08183488,4.81587779 5.00548574,5.85073766 L5,6 L5,18 C5,19.0543618 5.81587779,19.9181651 6.85073766,19.9945143 L7,20 L17,20 C18.0543618,20 18.9181651,19.1841222 18.9945143,18.1492623 L19,18 L19,6 C19,4.9456382 18.1841222,4.08183488 17.1492623,4.00548574 L17,4 Z M9.50166931,8.3727633 C9.59094705,8.37236469 9.6787032,8.39587771 9.7558218,8.44085987 L14.9516723,11.4715239 C15.1902032,11.6106556 15.2707823,11.9168116 15.1316506,12.1553425 C15.0666789,12.2667318 14.9611834,12.3487118 14.8371982,12.38416 L12.991,12.912 L14.6160509,15.7269706 C14.8921699,16.2052737 14.7282868,16.8168529 14.25,17.093 C13.7717132,17.3691471 13.1601243,17.2053 12.8839491,16.7270294 L11.259,13.913 L9.87836575,15.2482963 C9.67987168,15.4402721 9.36333329,15.434988 9.17135747,15.236494 C9.08171313,15.1438059 9.03134348,15.0200685 9.03076776,14.8911234 L9.00390669,8.87499072 C9.00267377,8.59885109 9.22552969,8.37399622 9.50166931,8.3727633 Z" id="形状结合" fill="#5D6E7F" fill-rule="nonzero"></path>
            </g>
        </g>
    </g>
</svg>