<?xml version="1.0" encoding="UTF-8"?>
<svg width="18px" height="18px" viewBox="0 0 18 18" version="1.1" xmlns="http://www.w3.org/2000/svg" xmlns:xlink="http://www.w3.org/1999/xlink">
    <title>个人中心-已办任务</title>
    <g id="2.0" stroke="none" stroke-width="1" fill="none" fill-rule="evenodd">
        <g id="知识库删格" transform="translate(-329.000000, -256.000000)">
            <g id="个人中心-已办任务" transform="translate(329.000000, 256.000000)">
                <circle id="蒙版" fill="#E0E9F3" cx="9" cy="9" r="9"></circle>
                <g id="已办任务" transform="translate(4.000000, 4.000000)" fill="#B5BECB" fill-rule="nonzero">
                    <path d="M8.89705882,0.995158526 L6.61764706,0.995158526 C6.25,0.137554576 5.22058824,-0.21978041 4.3382353,0.137554576 C3.97058824,0.280488565 3.60294118,0.637823551 3.45588236,0.995158526 L1.10294118,0.995158526 C0.514705886,0.995158526 0,1.4239605 0,1.99569646 L0,8.99946205 C0,9.57119801 0.514705886,10 1.10294118,10 L8.89705882,10 C9.48529411,10 10,9.57119803 10,8.99946205 L10,1.99569646 C10,1.4239605 9.55882353,0.995158526 8.89705882,0.995158526 Z M5.00000001,1.06624128 C5.29411766,1.06624128 5.51470588,1.37252841 5.51470588,1.67881552 C5.51470588,1.98510264 5.22058823,2.214818 4.92647059,2.13824621 C4.70588235,2.13824621 4.48529412,1.90853087 4.48529412,1.60224374 C4.48529412,1.29595661 4.70588235,1.06624128 5.00000001,1.06624128 L5.00000001,1.06624128 Z M2.80987395,5.32912134 C3.03702816,5.11407317 3.3923828,5.1131819 3.62061287,5.32708793 L4.34519906,6.00619808 C4.53659059,6.18557762 4.83406745,6.18655513 5.02663373,6.00843728 L6.5939789,4.55869153 C6.82401991,4.34591071 7.17965193,4.3479713 7.40721181,4.56340353 C7.61443254,4.75958057 7.62338522,5.08659908 7.42720818,5.29381981 C7.41834023,5.30318698 7.4091246,5.31221878 7.39958068,5.32089622 L5.30691328,7.22357164 C4.91600784,7.57898702 4.31607111,7.56899877 3.93721354,7.20076772 L2.80480574,6.10012267 C2.59324212,5.89449316 2.58843157,5.55629131 2.79406107,5.34472769 C2.79922327,5.33941651 2.80449537,5.33421327 2.80987395,5.32912134 Z" id="形状"></path>
                </g>
            </g>
        </g>
    </g>
</svg>