<?xml version="1.0" encoding="UTF-8"?>
<svg width="24px" height="24px" viewBox="0 0 24 24" version="1.1" xmlns="http://www.w3.org/2000/svg" xmlns:xlink="http://www.w3.org/1999/xlink">
    <title>版本对比</title>
    <g id="2.0" stroke="none" stroke-width="1" fill="none" fill-rule="evenodd">
        <g id="通用基础-删格" transform="translate(-287.000000, -399.000000)">
            <g id="版本对比" transform="translate(287.000000, 399.000000)">
                <polygon id="路径" points="0 0 24 0 24 24 0 24"></polygon>
                <path d="M12,18 C12.5522847,18 13,18.4477153 13,19 L13,21 C13,21.5522847 12.5522847,22 12,22 C11.4477153,22 11,21.5522847 11,21 L11,19 C11,18.4477153 11.4477153,18 12,18 Z M17.8888889,3 C20.0310843,3 21.7799678,4.68396847 21.8839936,6.80035966 L21.8888889,7 L21.8888889,17 C21.8888889,19.1421954 20.2049204,20.8910789 18.0885292,20.9951047 L17.8888889,21 L15.0028109,21 C14.4505261,21 14.0028109,20.5522847 14.0028109,20 C14.0028109,19.4871642 14.3888511,19.0644928 14.8861898,19.0067277 L15.0028109,19 L17.8888889,19 C18.9432507,19 19.807054,18.1841222 19.8834032,17.1492623 L19.8888889,17 L19.8888889,7 C19.8888889,5.9456382 19.0730111,5.08183488 18.0381512,5.00548574 L17.8888889,5 L15.0214085,5 C14.4691238,5 14.0214085,4.55228475 14.0214085,4 C14.0214085,3.48716416 14.4074487,3.06449284 14.9047874,3.00672773 L15.0214085,3 L17.8888889,3 Z M9.04055379,3 C9.59283854,3 10.0405538,3.44771525 10.0405538,4 C10.0405538,4.51283584 9.6545136,4.93550716 9.15717491,4.99327227 L9.04055379,5 L6.11111111,5 C5.05674932,5 4.19294599,5.81587779 4.11659685,6.85073766 L4.11111111,7 L4.11111111,17 C4.11111111,18.0543618 4.9269889,18.9181651 5.96184877,18.9945143 L6.11111111,19 L8.9977005,19 C9.54998525,19 9.9977005,19.4477153 9.9977005,20 C9.9977005,20.5128358 9.61166031,20.9355072 9.11432163,20.9932723 L8.9977005,21 L6.11111111,21 C3.96891572,21 2.22003224,19.3160315 2.11600642,17.1996403 L2.11111111,17 L2.11111111,7 C2.11111111,4.85780461 3.79507958,3.10892112 5.91147077,3.00489531 L6.11111111,3 L9.04055379,3 Z M12,13 C12.5522847,13 13,13.4477153 13,14 L13,16 C13,16.5522847 12.5522847,17 12,17 C11.4477153,17 11,16.5522847 11,16 L11,14 C11,13.4477153 11.4477153,13 12,13 Z M12,7 C12.5522847,7 13,7.44771525 13,8 L13,10 C13,10.5522847 12.5522847,11 12,11 C11.4477153,11 11,10.5522847 11,10 L11,8 C11,7.44771525 11.4477153,7 12,7 Z M12,2 C12.5522847,2 13,2.44771525 13,3 L13,5 C13,5.55228475 12.5522847,6 12,6 C11.4477153,6 11,5.55228475 11,5 L11,3 C11,2.44771525 11.4477153,2 12,2 Z" id="形状结合" fill="#5D6E7F" fill-rule="nonzero"></path>
            </g>
        </g>
    </g>
</svg>