<svg id="图层_1" data-name="图层 1" xmlns="http://www.w3.org/2000/svg" viewBox="0 0 300 300"><defs><style>.cls-1,.cls-9{fill:#fff;}.cls-1,.cls-3,.cls-5,.cls-8{fill-rule:evenodd;}.cls-2{fill:#728da3;}.cls-3{fill:#0569ff;}.cls-4{fill:#034fd2;}.cls-5{fill:#e4e3e3;}.cls-6{fill:#e7bab9;}.cls-7{fill:#db9696;}.cls-11,.cls-8{fill:#23304a;}.cls-10{fill:#3e4347;}</style></defs><path class="cls-1" d="M106.35,229.33s3.37,30.89,5.62,33c0,0-7.87,5.67-7,11,3.81,2.74,11.26.41,14.76,0,2.72-.33,9,.2,9.84-5.13s0-23.45,0-23.45,6.35-13.88,12.66-.73c0,0-.6,14.33,2.11,19.05,0,0-4.78,7.34.7,9.52s19.68.74,19.68.74,2.69-2.82.71-5.87a8.6,8.6,0,0,0-4.92-3.66s7-2.27,6.32-33.7l-5.62-7.33-54.13,2.2-.7,4.39Z"/><path class="cls-2" d="M110.11,275a9.17,9.17,0,0,1-5.39-1.39l-.13-.09,0-.16c-.78-4.94,5.4-10,6.88-11.12-2.26-3.87-5.14-29.8-5.48-32.85v0l.76-4.75,54.63-2.22,5.81,7.58v.12c.54,25.57-4,32-5.83,33.59a9.18,9.18,0,0,1,4.36,3.58c2.13,3.26-.72,6.29-.75,6.32l-.09.1-.14,0c-.58.06-14.36,1.43-19.86-.76a4.22,4.22,0,0,1-2.65-2.66c-.88-2.78,1.12-6.35,1.65-7.22-2.52-4.78-2.1-17.62-2.05-19-1.72-3.56-3.57-5.37-5.5-5.37h0c-3.33,0-6,5.38-6.37,6.1.07,1.56.79,18.25,0,23.42-.74,4.85-5.78,5.16-8.78,5.34-.52,0-1,.06-1.38.11-.73.08-1.62.25-2.64.44A38.71,38.71,0,0,1,110.11,275Zm-4.82-1.91c2.9,1.95,8,1,11.68.3,1-.2,1.94-.37,2.69-.46l1.42-.11c3-.18,7.44-.45,8.09-4.7.81-5.24,0-23.19,0-23.37v-.09l0-.08c.13-.27,3.06-6.58,7.08-6.62,2.3,0,4.38,2,6.26,5.88l0,.08V244c0,.15-.56,14.28,2.06,18.85l.12.2-.13.19s-2.57,4-1.68,6.78a3.49,3.49,0,0,0,2.21,2.19c5,2,17.86.87,19.36.73.44-.51,2.19-2.82.57-5.3a8.23,8.23,0,0,0-4.68-3.5l-1.37-.3,1.33-.43c.06,0,6.69-2.8,6.07-33.21L161,223.12l-53.63,2.18-.65,4c1.35,12.37,3.93,31.23,5.5,32.69l.34.31-.37.27C112.11,262.66,104.68,268.08,105.29,273.08Z"/><path class="cls-3" d="M117.57,180.94s-18.71-.32-27.34,5.2c-7.74,0-4.09,12.67-2.9,13.6s12.77,6.62,14.8,7.61,3.93,1.78,4.92,1.47c0,0-3.56,15.64-1.41,19.05s9.32,4.12,14.76,4.4,47.16.36,47.81-2.94c1.23-6.24-3-24-3.52-25.64,0,0-1,5.18,1.09,5.76a21,21,0,0,0,7.75,0c1-.37,7.31-3.8,9.68-7.77.7-2.07,5.62-4.69,5.81-5.82,1-5.83,2.91-14.57-8.71-14.57-6,0-31.46-1.8-31.46-1.8l-31.47,1.3Z"/><path class="cls-4" d="M107.05,208.82l-2.11-.73,7-11.73-4.92,12.46ZM164,203.69c-.87-.67-4.92-7.33-4.92-7.33.85,1.24,6.33,6.6,6.33,6.6l-1.41.73Z"/><path class="cls-1" d="M236,132.36,223.31,47.61c13.9,8.62,25.22,26.27,26.73,47.9,1.28,18.37-4.43,30-14.08,36.85Z"/><path class="cls-2" d="M235.77,132.8l-.06-.4L223,47.12l.46.28c15.14,9.39,25.43,27.82,26.84,48.09,1.2,17.06-3.58,29.53-14.18,37.08ZM223.64,48.11l12.5,83.81c10.22-7.46,14.81-19.7,13.65-36.39C248.4,75.62,238.39,57.51,223.64,48.11Z"/><path class="cls-5" d="M235.26,120.51,221.5,45.46c12.48,8,22.56,24,23.92,43.5,1.05,15-3,25.08-10.16,31.55Z"/><path class="cls-1" d="M36.46,146.29l.15-85.42C24.17,71.4,15.6,90.45,17.25,112c1.4,18.3,8.7,28.92,19.21,34.29Z"/><path class="cls-2" d="M36.71,146.7l-.37-.19C24.81,140.62,18.3,129,17,112c-1.55-20.2,5.9-39.87,19.45-51.34l.41-.35Zm-.35-85.29C23.2,72.83,16,92.15,17.5,112c1.27,16.63,7.57,28,18.71,33.9Z"/><path class="cls-5" d="M35.42,134.49l2.66-76c-11.12,9.73-18.73,27-17.24,46.39,1.14,14.94,6.59,24.29,14.58,29.62Z"/><path class="cls-1" d="M126.91,5.56c59.65-4.19,111.15,37.38,114.93,91.57s-42.31,90.08-102,94.26S29.6,166.47,25.82,112.28,67.26,9.74,126.91,5.56Z"/><path class="cls-2" d="M128.74,192c-25.54,0-49-6.29-67-18.1C39.9,159.57,27.38,138.25,25.57,112.3,23.74,86,33.26,60.28,52.4,40S98.05,7.33,126.9,5.31v0c28.84-2,56.75,6.48,78.58,24s34.77,41.51,36.61,67.85c1.81,26-7.62,48.81-27.28,66.09-18.48,16.25-45.09,26.35-74.91,28.44Q134.26,192,128.74,192Zm6.5-186.53q-4.14,0-8.31.3c-28.72,2-55.06,14.27-74.17,34.53S24.24,86.06,26.07,112.26c1.8,25.8,14.24,47,36,61.26,20.47,13.45,48.11,19.71,77.82,17.62s56.22-12.14,74.62-28.32c19.54-17.17,28.91-39.88,27.11-65.68-1.83-26.2-14.76-50.17-36.42-67.49A111.48,111.48,0,0,0,135.24,5.51Z"/><path class="cls-6" d="M106.27,123c.14,1.91-5.72,3.91-13.57,4.79-1,.11-2,.2-3,.27h-.07c-1.61.11-3.18.16-4.66.16-1,0-2,0-2.89-.05-5.52-.26-9.37-1.3-9.48-2.82-.13-1.88,5.6-3.86,13.33-4.75,1-.12,2-.21,3-.29h.18c1.55-.11,3.06-.17,4.49-.17,1,0,2,0,2.9,0C102.21,120.37,106.17,121.43,106.27,123Z"/><path class="cls-6" d="M199.48,116.41c.14,1.91-5.74,3.92-13.6,4.79-1,.11-1.94.2-2.95.27h-.1c-1.62.11-3.18.16-4.66.16-1,0-2,0-2.89,0-5.51-.26-9.34-1.31-9.45-2.82-.13-1.88,5.59-3.86,13.3-4.75,1-.11,2-.2,3.05-.28l.21,0c1.54-.11,3-.16,4.46-.18,1,0,2,0,2.9,0C195.41,113.83,199.38,114.88,199.48,116.41Z"/><path class="cls-7" d="M89,120.27l-4,7.91c-1,0-2,0-2.89-.05L86,120.56C86.93,120.44,88,120.35,89,120.27Z"/><path class="cls-7" d="M96.57,120.13l-3.87,7.61c-1,.11-2,.2-3,.27h-.07l4-7.93C94.68,120.08,95.65,120.09,96.57,120.13Z"/><path class="cls-7" d="M182.18,113.74l-4,7.9c-1,0-2,0-2.89,0l3.85-7.57Z"/><path class="cls-7" d="M189.75,113.59l-3.87,7.61c-1,.11-1.94.2-2.95.27h-.1l4-7.94C187.86,113.54,188.83,113.55,189.75,113.59Z"/><path class="cls-8" d="M129,13.75c52.52-3.68,105,42.8,100.83,90.48-1.88,21.3-42-3.84-94.53-.15s-90.87,67-94.61,13.42S76.53,17.44,129,13.75Z"/><path class="cls-9" d="M198.75,48.1l-.52.9a2,2,0,0,1-3.11.61c-10.65-9.5-21.87-17.13-34.58-20.34a1.74,1.74,0,0,1-.89-2.75l.52-.9A3.82,3.82,0,0,1,164.05,24c14.86,3.7,25,11.7,34.41,20.41a3.23,3.23,0,0,1,.29,3.74Zm4.6,9.4a3.64,3.64,0,1,1,2.89-4.25,3.62,3.62,0,0,1-2.89,4.25Z"/><path class="cls-1" d="M124.58,205.51v.13c-13.35,3.48-6.71,15.85,3.5,14.23l1.14,3.71c-8.62-.06-15.36-5.24-15.74-10.24s4-8.84,9.93-9c-3.37-15,28.2-15,24.43,0,5.87.11,10.31,4,9.93,9s-7.13,10.18-15.74,10.24l1.14-3.71c8.6,1.2,19.12-12.43,3.49-14.23v-.13C146.6,193.68,124.58,193.69,124.58,205.51Z"/><path class="cls-1" d="M132.4,224.53c-1-9.81,9.88-4,11.5-12.34.67-3.46,0-7.16-3.24-9.11-4.76-2.45-12.74-.33-12.08,6.65s10.3,4.37,9.42.13c-1.38,1.85-4.17,2.54-5.47,1.55-3-2.23.48-7.12,5.06-6,3,.75,2.8,2.58,3,4.77.45,4.36-3.75,4.66-7.63,6.46C128.22,218.87,132.4,224.53,132.4,224.53Z"/><path class="cls-1" d="M137.31,219.94a2.44,2.44,0,1,1-2.43,2.43A2.42,2.42,0,0,1,137.31,219.94Z"/><path class="cls-9" d="M107.9,209.06a7.53,7.53,0,0,1-.17,5.25c-1.76,4.24-5.81,11.37-12,7-8.53-6.07-2.31-17.9-2.31-17.9h0l.35-2.11s-8.71,3.48-15.42-2.57a3.79,3.79,0,0,1-1.16-4c1.12-3.32,4.75-3.55,8.91-4.42,4.54-1,16.72-1.51,19,5.43,1.64,5,1.74,7.43,1.62,8.5a4.51,4.51,0,0,0,.23,2Z"/><path class="cls-2" d="M99.53,222.91a6.8,6.8,0,0,1-4-1.44c-8.39-6-2.78-17.47-2.41-18.19l.27-1.66c-1.82.59-9.35,2.58-15.27-2.76a4,4,0,0,1-1.23-4.24c1-3,4-3.6,7.51-4.27L86,190c5.32-1.12,17-1.23,19.27,5.59,1.6,4.85,1.76,7.36,1.62,8.61a4.31,4.31,0,0,0,.23,1.85l1,2.89a7.75,7.75,0,0,1-.17,5.43c-1.35,3.25-3.66,7.33-7,8.29A5,5,0,0,1,99.53,222.91Zm-5.46-22.06-.44,2.63c-.06.12-6,11.72,2.24,17.59a5.68,5.68,0,0,0,5,1.15c3.31-.95,5.6-5.42,6.67-8a7.25,7.25,0,0,0,.16-5.07l-1-2.9a4.62,4.62,0,0,1-.25-2.05c.11-1,0-3.39-1.6-8.41-2.13-6.49-13.52-6.34-18.7-5.25l-1.59.31c-3.47.66-6.21,1.19-7.14,3.94a3.55,3.55,0,0,0,1.1,3.71c6.51,5.87,15.07,2.56,15.15,2.52Z"/><path class="cls-9" d="M162.31,207.82a8.4,8.4,0,0,0,.26,6c1.85,4.25,5.82,10.7,11.78,6.47,8.51-6.05,2.3-17.86,2.3-17.86h0a1.35,1.35,0,0,1,1.62-1.54,15.26,15.26,0,0,0,12-2c2-1.41,2.58-3.86,2.34-6.35-.19-2-4.8-2.34-8.65-3.15-4.53-1-16.67-1.51-18.93,5.41-1.64,5-1.73,7.42-1.61,8.49a4.57,4.57,0,0,1-.23,1.94Z"/><path class="cls-2" d="M170.55,221.94a5.06,5.06,0,0,1-1.39-.19c-3.22-.9-5.48-4.74-6.82-7.81a8.62,8.62,0,0,1-.27-6.2l.87-2.58a4.21,4.21,0,0,0,.22-1.83c-.14-1.25,0-3.76,1.62-8.6,2.23-6.8,13.91-6.69,19.22-5.57.77.16,1.57.3,2.36.44,3.25.57,6.32,1.11,6.49,2.93.2,2.09-.07,4.93-2.45,6.58a15.58,15.58,0,0,1-12.19,2,1.1,1.1,0,0,0-1.32,1.22c.38.75,6,12.21-2.4,18.14A6.85,6.85,0,0,1,170.55,221.94Zm7.39-32.86c-5.23,0-11.21,1.29-12.68,5.81-1.65,5-1.71,7.4-1.6,8.38a4.75,4.75,0,0,1-.25,2l-.86,2.58a8.07,8.07,0,0,0,.25,5.84c1.29,3,3.46,6.68,6.5,7.53a5.68,5.68,0,0,0,4.9-1.17c8.23-5.85,2.29-17.42,2.23-17.53l0-.07a1.62,1.62,0,0,1,.47-1.44,1.6,1.6,0,0,1,1.44-.4,15.08,15.08,0,0,0,11.79-2c2.19-1.51,2.43-4.17,2.24-6.12-.13-1.44-3.15-2-6.08-2.49-.79-.14-1.6-.28-2.37-.44A30,30,0,0,0,177.94,189.08Z"/><path class="cls-10" d="M103.1,160.47S133.49,123.2,180,146.29c0,0-26.34-8.22-39.9-4.33-10.65,1-28.08,9.71-35.83,19.42S103.1,160.47,103.1,160.47Z"/><ellipse class="cls-9" cx="87.36" cy="78.68" rx="24.78" ry="10.11" transform="matrix(1, -0.08, 0.08, 1, -5.96, 7.17)"/><path class="cls-11" d="M110.27,76.86c-.38-4.86-10.36-8-22.28-7.09h-.13a12.89,12.89,0,0,0,2.07,17.56C101.59,86.29,110.65,81.65,110.27,76.86Z"/><ellipse class="cls-9" cx="93.75" cy="78.46" rx="3.42" ry="3.43"/><ellipse class="cls-9" cx="172.98" cy="69.71" rx="24.78" ry="10.11" transform="translate(-2.57 6.75) rotate(-2.22)"/><path class="cls-11" d="M196,68.82c-.19-4.88-10-8.45-22-8h-.13a12.87,12.87,0,0,0,1.36,17.62C186.89,77.88,196.13,73.62,196,68.82Z"/><ellipse class="cls-9" cx="179.38" cy="69.74" rx="3.42" ry="3.43"/></svg>