<svg id="图层_1" data-name="图层 1" xmlns="http://www.w3.org/2000/svg" viewBox="0 0 300 300"><defs><style>.cls-1,.cls-13{fill:#fff;}.cls-2{fill:#45a6dd;}.cls-3{fill:#86cef2;}.cls-4{fill:#fdf7e5;}.cls-5{fill:#221613;}.cls-6{fill:#0569ff;}.cls-7{fill:#f8c8a4;}.cls-8{fill:#fce5d3;}.cls-9{fill:#040000;}.cls-10{fill:#f3a142;}.cls-11{fill:#f7be72;}.cls-12{fill:#a1a9ad;}.cls-13,.cls-14,.cls-15{fill-rule:evenodd;}.cls-14{fill:#e4e4e3;}.cls-15{fill:#24304a;}.cls-16{fill:#70889d;}.cls-17{fill:#323333;}.cls-18{fill:#86cdd8;}</style></defs><path class="cls-1" d="M97.22,232.77h-1l.92-.92-.85-.85-1.77,1.77H93.37l.92-.92-.85-.85-1.77,1.77H89l3-3v1.3h1.2v-1.7h1.7v-1.2h-1.3l1.24-1.24-.85-.85-1.24,1.23V226h-1.2v1.71h-1.7v1.2h1.3l-3,3v-2.63L90,227.51l-.85-.85-.92.92V226.4L90,224.63l-.85-.85-.92.92v-1H87v1l-.92-.92-.85.85L87,226.4v1.18l-.92-.92-.85.85L87,229.29v2.63l-3-3h1.3v-1.2H83.6V226H82.4v1.3l-1.24-1.23-.85.85,1.24,1.24h-1.3v1.2H82v1.7l-.08-.08-.85.85.92.92H80.76L79,231l-.85.85.92.92H78V234h1.1l-.92.92.85.85L80.76,234h1.18l-.92.92.85.85.08-.08v1.7h-1.7v1.2h1.3l-1.15,1.15.85.85,1.15-1.14v1.3h1.2V239h1.7l-.08.08.85.85L87,239v1.19L85.22,242l.85.85.92-.92V243h1.2v-1.09l.92.92L90,242l-1.77-1.77V239l.92.92.85-.85-.08-.08h1.7v1.71h1.2v-1.3l1.15,1.14.85-.85-1.15-1.15h1.3v-1.2h-1.7v-1.7H92V237l-3-3h2.63l1.77,1.77.85-.85-.92-.92h1.18l1.77,1.77.85-.85-.92-.92h1ZM82,231.08h1.2v-1.3l3,3h-2.5Zm1.69,2.9h2.5l-3,3v-1.3H82Zm1.66,5v-1.2H84l3-3v2.5Zm2.89-1.69v-2.5l3,3h-1.3V239Z"/><path class="cls-2" d="M120.61,265.1c-2.55,1-4,2.2-4,3.43,0,4.35,17.82,7.87,39.83,7.87s39.84-3.52,39.84-7.87c0-1.23-1.42-2.39-4-3.43"/><path class="cls-3" d="M225.4,223.75c0,29.05-30.42,47.88-67.94,47.88s-58.1-12.75-67.18-40.06"/><path class="cls-4" d="M89.67,223.75c0,11.14,30.29,20.17,67.65,20.17s67.65-9,67.65-20.17-30.29-20.16-67.65-20.16S89.67,212.61,89.67,223.75Z"/><path class="cls-5" d="M97,246.24a38.21,38.21,0,0,1-3.36-5.48,2,2,0,0,0-2.18-.72c-.9.19-1.41.82-1.11,1.42a41.8,41.8,0,0,0,3.52,5.75,2,2,0,0,0,1.57.65,2.23,2.23,0,0,0,.73-.11C97.06,247.47,97.42,246.79,97,246.24Zm-5.27-29.19a2.21,2.21,0,0,0,1.15.29,2.16,2.16,0,0,0,1.29-.38,31.43,31.43,0,0,1,4.74-2.77c.76-.37.92-1.08.34-1.57a2.37,2.37,0,0,0-2.41-.22,33.24,33.24,0,0,0-5.25,3.08A.87.87,0,0,0,91.74,217.05Z"/><path class="cls-5" d="M225.34,219.5l.07,0c-.71-.57-1.6-1.39-1.71-2a19.73,19.73,0,0,0-3-2.46l-.07-.05c-.92-.59-1.83-1.13-2.38-1.46l-.4-.22-.14-.09-3-1.49a72.2,72.2,0,0,0-9.08-3.29c-13.15-3.88-30.61-6-49.15-6-21.72,0-41.82,2.92-55.16,8-.83.32-1.1,1-.62,1.55a2.31,2.31,0,0,0,2.37.4c12.84-4.9,32.29-7.7,53.41-7.7,18.05,0,35,2.06,47.73,5.82a68.07,68.07,0,0,1,7,2.43,14.44,14.44,0,0,1,3.2,1.43,32.36,32.36,0,0,1,3.91,2.27,17,17,0,0,1,1.83,1.46l.1.08a1.23,1.23,0,0,1,.2.19c.26.42,1.78,1.59,1.69,2a6.08,6.08,0,0,1,1.08,3.37c0,2.43-1.66,4.81-4.92,7.09s-8.06,4.35-14.12,6.16c-12.72,3.74-29.68,5.81-47.73,5.81-2.49,0-4.95,0-7.36-.12a39.48,39.48,0,0,1-5.77-.3L129.19,241l-.33,0-4.32-.46A130,130,0,0,1,108.71,237c-6.08-1.81-10.83-3.87-14.12-6.16s-4.92-4.66-4.92-7.09a6.56,6.56,0,0,1,1.66-4.15c.44-.55.11-1.23-.74-1.51a2.21,2.21,0,0,0-2.32.48,8.32,8.32,0,0,0-2,5.19,39.34,39.34,0,0,0,2.67,14.37,1.75,1.75,0,0,0,1.68.85l.43,0c.92-.16,1.47-.77,1.25-1.37a35.47,35.47,0,0,1-1.88-6.49c3.53,3,9.26,5.71,16.92,8,13.15,3.84,30.62,6,49.16,6s36-2.13,49.15-6c7.68-2.26,13.4-5,16.92-8a37,37,0,0,1-4.57,12,46.73,46.73,0,0,1-14.3,14.73c-12.17,8.19-28.94,12.7-47.2,12.7a96.15,96.15,0,0,1-33.24-5.63c-9.87-3.69-18.1-9.11-23.86-15.69a2.25,2.25,0,0,0-2.34-.42c-.83.3-1.13,1-.65,1.53a59.73,59.73,0,0,0,21.14,14.91c-1.74,1-2.61,2.14-2.61,3.32,0,2.69,4.46,5,12.89,6.64a155.4,155.4,0,0,0,28.67,2.35,155.36,155.36,0,0,0,28.68-2.35c8.44-1.66,12.9-3.95,12.9-6.64,0-1.2-.87-2.31-2.62-3.32a68.86,68.86,0,0,0,10.74-5.85,48.68,48.68,0,0,0,15-15.47,38.78,38.78,0,0,0,5.5-20.14A7.75,7.75,0,0,0,225.34,219.5Zm-68.89,55.77c-23.63,0-38.11-3.92-38.11-6.74,0-.64.77-1.36,2.22-2.06l.92.36a101.26,101.26,0,0,0,35,5.91,100.19,100.19,0,0,0,35.88-6.27c1.45.71,2.22,1.43,2.22,2.06C194.55,271.35,180.07,275.27,156.45,275.27Z"/><path class="cls-1" d="M185.38,263.05a1.85,1.85,0,0,1-1.56-.66c-.39-.57,0-1.23.87-1.48a51.11,51.11,0,0,0,20.68-12.36,61.28,61.28,0,0,0,4.9-5.35c-1.59.48-3.41,1-5.41,1.42a2.09,2.09,0,0,1-2.21-.67c-.32-.59.14-1.23,1-1.44a54.75,54.75,0,0,0,9.48-2.92,2.49,2.49,0,0,1,2.07,0c.59.32.8.84.53,1.31a53,53,0,0,1-7.48,8.84A54.63,54.63,0,0,1,186.12,263a3.32,3.32,0,0,1-.74.09Zm9.43-16.48a1.79,1.79,0,0,1-1.68-.85c-.23-.6.35-1.22,1.27-1.37,0,0,1.42-.22,3.52-.63a2,2,0,0,1,2.14.77c.27.6-.26,1.21-1.18,1.39-2.16.42-3.61.64-3.66.66S195,246.57,194.81,246.57Z"/><path class="cls-5" d="M220.27,218.2a.92.92,0,0,1,.2.19A1.23,1.23,0,0,0,220.27,218.2Z"/><path class="cls-6" d="M133.18,191.18l-4.87.9-12,11.51s-.65,2.35.83,3.17,7.94,8.69,11.38,8.61h1.64L129,222.26l40.79-2.63,11.3-.82s-1.6-7-1.52-7.25,5,4.1,6.19,3.89,4.58-1.68,5.49-2.87,6-5.86,6-5.86a1.55,1.55,0,0,0,.41-1.64c-.32-1-6.34-6.56-10.07-8.74s-11.83-6.06-12.82-5.82C158.24,194.61,133.18,191.18,133.18,191.18Z"/><path class="cls-7" d="M206,213l8-3.41a5.1,5.1,0,1,0,5.89-7,5.1,5.1,0,0,0-4.42-7.66,5,5,0,0,0-2,.41,5.11,5.11,0,0,0-2.71,6.66"/><path class="cls-8" d="M215.72,203.53a5.41,5.41,0,0,0,.38-4.08,3.37,3.37,0,0,0-5-2.12c-2,1.1-1.88,3.06-1.16,5.33l-25,13.9a1.26,1.26,0,0,0-.54,1.46L186,222.7a.81.81,0,0,0,1.19.5l26.31-13.31c.75,2.23.71,2.93,2.68,1.84a4.72,4.72,0,0,0,2.1-5.72,3.54,3.54,0,0,0-2.51-2.48Z"/><path class="cls-9" d="M202.64,215.5a1.41,1.41,0,0,1-.73-.75,1.44,1.44,0,0,1,.75-1.88l10.73-4.58a1.42,1.42,0,0,1,1.87.74,3.67,3.67,0,0,0,6.74-2.91,3.64,3.64,0,0,0-2.5-2.13,1.45,1.45,0,0,1-1-.82,1.48,1.48,0,0,1,.08-1.28,3.71,3.71,0,0,0,.2-3.29,3.6,3.6,0,0,0-2-2,3.65,3.65,0,0,0-2.81,0,3.7,3.7,0,0,0-2,4.79,1.44,1.44,0,0,1-.75,1.87l-10.55,4.51a1.44,1.44,0,0,1-1.13-2.64l9.39-4a6.6,6.6,0,0,1,3.87-7.16,6.56,6.56,0,0,1,8.57,3.46,6.54,6.54,0,0,1,.29,4.31,6.54,6.54,0,1,1-8.37,9.64l-9.56,4.08A1.44,1.44,0,0,1,202.64,215.5Z"/><path class="cls-10" d="M175.28,201.35a38.83,38.83,0,0,0,7.45,2c7,1,16,1.23,17,2.17.93,1.65,3,8.27,4.13,9.74-.22,3.34-8.69,19.19-22.16,28.94-7.14,5.17-18.84,8.41-26.25,8.38"/><path class="cls-11" d="M194.34,204.22c.83,1.55,2.62,7.86,3.62,9.26-.28,3.2-8.42,18.57-21.05,28.2-6.7,5.09-17.57,8.44-24.41,8.56-9.4.16-20.16-3.5-25.48-13-3.8-6.81-4.65-13.28-2.14-22.12,2.09-7.41,12.77-22.48,33.16-18.22,9.74,1.7,14.19,4.79,20.66,5.6S193.46,203.32,194.34,204.22Z"/><path class="cls-9" d="M139.46,250.62l-.17-.08a28.56,28.56,0,0,1-13-11.42,28,28,0,0,1-4-11.34A33.57,33.57,0,0,1,123.53,215,32.08,32.08,0,0,1,133,199.88a24.9,24.9,0,0,1,10.42-5.39,32.33,32.33,0,0,1,14.86.12,88.66,88.66,0,0,1,14.45,4.3,51.3,51.3,0,0,0,10.23,3c2.74.4,5.84.66,8.57.91,6.59.59,8.37.83,9.23,1.67a2.34,2.34,0,0,1,.24.31,43.85,43.85,0,0,1,1.76,4.26,36.46,36.46,0,0,0,2.27,5.33,1.37,1.37,0,0,1,.28,1c-.15,2.27-2.76,7.52-6.35,12.77a71.35,71.35,0,0,1-16.39,17.23,47,47,0,0,1-13.44,6.34,49,49,0,0,1-13.65,2.3A39.16,39.16,0,0,1,139.46,250.62Zm59.18-44a59.78,59.78,0,0,0-7.41-.9c-2.76-.25-5.89-.53-8.71-.93a54.4,54.4,0,0,1-10.81-3.18,85.82,85.82,0,0,0-14-4.18h0c-9.19-2-16.86-.47-22.82,4.64a29.12,29.12,0,0,0-8.55,13.71c-2.36,8.64-1.66,15,2.45,21.9,5.88,9.88,17.65,13.45,26.7,13.49,6.94,0,18.34-3,25.4-8.11a68.45,68.45,0,0,0,15.71-16.51c3.51-5.14,5.41-9.29,5.8-10.93a43.92,43.92,0,0,1-2.31-5.5C199.53,208.74,199,207.36,198.64,206.59Z"/><path class="cls-9" d="M144.58,225.93a3.07,3.07,0,1,0,5.59,2.54h0a3.07,3.07,0,1,0-5.59-2.54Z"/><path class="cls-9" d="M137.83,235a3.07,3.07,0,1,0,5.59,2.54h0a3.07,3.07,0,0,0-5.59-2.55Z"/><path class="cls-9" d="M151.68,238.6a3.07,3.07,0,1,0,5.59,2.54h0a3.07,3.07,0,1,0-5.59-2.54Z"/><path class="cls-9" d="M166.58,235.92a3.07,3.07,0,1,0,5.59,2.54h0a3.07,3.07,0,1,0-5.59-2.54Z"/><path class="cls-9" d="M158.07,227.09a3.07,3.07,0,1,0,5.59,2.54h0a3.07,3.07,0,1,0-5.59-2.54Z"/><path class="cls-1" d="M116.26,217.91s2,16.79,14.26,20.51c22.12,6.71,23.68-6.8,13.66-9-1.88-.41-7-.22-13.92-5.26-3.34-2.42-7.41-11-8.92-13.1C116.83,204.93,116.26,217.91,116.26,217.91Z"/><path class="cls-12" d="M141.2,240.53a37.51,37.51,0,0,1-10.75-1.87C118.17,234.94,116,218.11,116,217.94v0c0-.82.42-8,2.76-8.67.84-.26,1.75.29,2.77,1.69.45.61,1.1,1.76,1.93,3.22,2,3.44,4.62,8.15,6.94,9.83A25.18,25.18,0,0,0,143,229c.48.06.91.12,1.23.19,3,.66,5.3,2.44,5.94,4.65a4.28,4.28,0,0,1-1.19,4.32C148.08,239.05,145.87,240.53,141.2,240.53ZM116.51,217.9c.09.65,2.3,16.71,14.09,20.28,8.45,2.57,15.19,2.42,18-.38a3.75,3.75,0,0,0,1.06-3.82c-.59-2-2.72-3.68-5.56-4.3-.31-.07-.72-.12-1.2-.18a25.7,25.7,0,0,1-12.81-5.12c-2.41-1.75-5.11-6.51-7.08-10-.79-1.39-1.47-2.58-1.9-3.18-.87-1.18-1.62-1.69-2.22-1.51C117.22,210.22,116.61,215.77,116.51,217.9Z"/><path class="cls-1" d="M232.85,183.45h-.79l.75-.75-.69-.7-1.45,1.45h-1l.75-.75-.69-.7-1.45,1.45h-2.16L228.6,181v1.06h1v-1.39H231v-1h-1.07l1-1-.69-.7-1,1v-1.07h-1v1.4h-1.39v1h1.06l-2.44,2.45v-2.16l1.45-1.45-.7-.69-.75.75v-1l1.45-1.45-.7-.7-.75.76v-.79h-1v.79l-.75-.76-.69.7,1.44,1.45v1l-.75-.75-.69.69,1.44,1.45v2.16L222,180.3h1.06v-1H221.7v-1.4h-1V179l-1-1-.69.7,1,1H219v1h1.4v1.39l-.07-.06-.69.7.75.75h-1L217.92,182l-.69.7.75.75h-.9v1h.9l-.75.76.69.69,1.45-1.45h1l-.75.76.69.69.07-.06v1.39H219v1H220l-.94.94.7.69.93-.93V190h1v-1.39h1.39l-.06.06.69.7.75-.75v1L223,191l.69.7.75-.75v.89h1v-.89l.75.75.7-.7-1.45-1.45v-1l.75.75.7-.7-.07-.06h1.39V190h1V188.9l.93.93.7-.69-.94-.94H231v-1h-1.4v-1.39h-1v1.06l-2.45-2.45h2.16l1.45,1.45.69-.69-.75-.76h1l1.45,1.45.69-.69-.75-.76h.79Zm-12.5-1.39h1V181l2.45,2.45h-2.05Zm1.38,2.37h2.05l-2.45,2.45v-1.06h-1Zm1.36,4.14v-1H222l2.44-2.45v2.05Zm2.37-1.39v-2.05l2.44,2.45h-1.06v1Z"/><path class="cls-13" d="M248.36,146.08l-6.2-78.56c12.24,8.8,21.52,25.72,21.52,45.65,0,16.94-6,27.23-15.32,32.91Z"/><path class="cls-12" d="M248.14,146.5l0-.4L241.87,67l.43.31c13.35,9.6,21.63,27.17,21.63,45.86,0,15.74-5.19,26.88-15.44,33.12ZM242.45,68l6.12,77.61c9.86-6.18,14.86-17.11,14.86-32.48C263.43,94.84,255.41,77.61,242.45,68Z"/><path class="cls-14" d="M248.48,135.16l-7.85-69.74c11,8.16,19.23,23.46,19.23,41.45,0,13.82-4.37,22.81-11.38,28.29Z"/><path class="cls-13" d="M63.82,146l5.63-78.35C57.32,76.52,48.2,93.45,48.34,113.32c.12,16.88,6.15,27.09,15.48,32.69Z"/><path class="cls-12" d="M64,146.44l-.35-.21C53.45,140.07,48.2,129,48.09,113.32c-.13-18.63,8-36.21,21.21-45.86l.43-.32Zm5.12-78.25c-12.83,9.62-20.7,26.86-20.57,45.13.11,15.31,5.15,26.17,15,32.26Z"/><path class="cls-14" d="M63.62,135.13,71,65.56C60.09,73.77,52,89.08,52.1,107c.1,13.78,4.51,22.71,11.52,28.12Z"/><path class="cls-13" d="M156.12,22.73c55.18,0,99.91,41.45,99.91,91.4s-44.73,79.92-99.91,79.92-99.91-30-99.91-79.92,44.74-91.4,99.91-91.4Z"/><path class="cls-12" d="M156.12,194.3c-27.59,0-52.73-7.56-70.79-21.28C66.12,158.43,56,138.06,56,114.13c0-24.29,10.43-47.24,29.35-64.62s44.13-27,70.81-27,51.84,9.6,70.82,27,29.34,40.33,29.34,64.62c0,23.93-10.15,44.3-29.36,58.89C208.86,186.74,183.72,194.3,156.12,194.3Zm0-171.32c-26.56,0-51.59,9.55-70.47,26.9S56.46,90,56.46,114.13c0,23.77,10.09,44,29.17,58.49,18,13.66,43,21.18,70.49,21.18s52.53-7.52,70.5-21.18c19.08-14.49,29.16-34.72,29.16-58.49,0-24.15-10.36-47-29.18-64.25S182.68,23,156.12,23Z"/><path class="cls-15" d="M160.34,29.68c48.57,1.17,92.8,48.27,84.82,91.56-3.57,19.34-38.26-7.15-86.83-8.32S69.05,166.42,70.25,117s41.53-88.51,90.09-87.33Z"/><path class="cls-16" d="M148.89,156.2a.5.5,0,0,1-.35-.85c.09-.1,9.92-9.93,21.79-.28a.5.5,0,0,1,.08.7.51.51,0,0,1-.71.08c-11.15-9.06-20.07-.18-20.45.2A.51.51,0,0,1,148.89,156.2Z"/><path class="cls-16" d="M199.76,157.05a.51.51,0,0,1-.39-.19c-.16-.21-16.55-20.82-41.5-21.17s-40.47,20.58-40.62,20.79a.5.5,0,1,1-.81-.59c.16-.21,15.72-21.21,40.8-21.21h.65c25.44.36,42.1,21.34,42.27,21.55a.51.51,0,0,1-.09.71A.5.5,0,0,1,199.76,157.05Z"/><path class="cls-1" d="M217.85,99.05v.2H168.68v-.2c0-11.15,11-20.19,24.59-20.19S217.85,87.9,217.85,99.05Z"/><path class="cls-1" d="M143.91,99.05v.2H94.75v-.2c0-11.15,11-20.19,24.58-20.19S143.91,87.9,143.91,99.05Z"/><path class="cls-1" d="M98.93,72.31a51.61,51.61,0,0,1-10.49-1l.23-1c.37.09,36.62,8.25,54.08-24.87l.88.47C131.74,68.51,111.32,72.31,98.93,72.31Z"/><path class="cls-1" d="M215.85,72.31c-12.39,0-32.81-3.79-44.7-26.35l.89-.47c17.45,33.12,53.71,25,54.07,24.87l.23,1A51.37,51.37,0,0,1,215.85,72.31Z"/><path class="cls-17" d="M132.87,91a8,8,0,1,1-8-8A8,8,0,0,1,132.87,91Z"/><path class="cls-17" d="M193.33,91a8,8,0,1,1-8-8A8,8,0,0,1,193.33,91Z"/><path class="cls-18" d="M94.75,99.05s3.88-4.89,13.6-.28c0,0-1.46-5.58,3.4-6.07,0,0,10.68-1,13.11,1.7h4.37s8.5-3.64,13.84-1.21l.84,5.86Z"/><path class="cls-18" d="M218.7,99.05s-3.89-4.89-13.6-.28c0,0,1.46-5.58-3.4-6.07,0,0-10.68-1-13.11,1.7h-4.37s-8.5-3.64-13.84-1.21l-.85,5.86Z"/><path class="cls-1" d="M93.86,57h-.8l.76-.76-.7-.71L91.65,57h-1l.76-.76-.71-.71L89.27,57H87.09l2.47-2.48V55.6h1V54.19H92v-1H90.89l1-1-.7-.7-1,1V51.41h-1v1.41H87.78v1h1.08l-2.48,2.48V54.11l1.47-1.47-.71-.7-.76.76v-1l1.47-1.47-.71-.7-.76.76v-.8h-1v.8l-.76-.76-.71.7,1.47,1.47v1l-.76-.76-.71.7,1.47,1.47v2.18l-2.48-2.48H84v-1H82.58V51.41h-1v1.07l-1-1-.7.7,1,1H79.8v1h1.41V55.6l-.06-.07-.71.71.76.76h-1l-1.46-1.47-.7.71.76.76h-.91v1h.91l-.76.76.7.7L80.22,58h1l-.76.76.71.7.06-.06v1.41H79.8v1h1.08l-.95,1,.71.71.94-1v1.08h1V62.18H84l-.07.06.71.71.76-.76v1l-1.47,1.46.71.71.76-.76v.9h1v-.9l.76.76.71-.71-1.47-1.46v-1l.76.76.71-.71-.07-.06h1.41v1.41h1V62.51l.94,1,.71-.71-1-1H92v-1H90.56V59.4h-1v1.07L87.09,58h2.18l1.46,1.46.71-.7L90.68,58h1l1.47,1.46.7-.7L93.06,58h.8ZM81.21,55.6h1V54.52L84.68,57H82.61Zm1.4,2.4h2.07l-2.47,2.47V59.4h-1ZM84,62.18v-1H82.91l2.48-2.48v2.08Zm2.39-1.4V58.7l2.48,2.48H87.78v1Z"/></svg>