<?xml version="1.0" encoding="UTF-8"?>
<svg width="24px" height="24px" viewBox="0 0 24 24" version="1.1" xmlns="http://www.w3.org/2000/svg" xmlns:xlink="http://www.w3.org/1999/xlink">
    <title>链接</title>
    <g id="2.0" stroke="none" stroke-width="1" fill="none" fill-rule="evenodd">
        <g id="通用基础-删格" transform="translate(-113.000000, -399.000000)">
            <g id="链接" transform="translate(113.000000, 399.000000)">
                <polygon id="路径" points="0 0 24 0 24 24 0 24"></polygon>
                <path d="M17.65775,13.41225 L18.364,12.706 L18.364,12.706 C19.6363491,11.4447469 20.1366561,9.59914689 19.675497,7.86797276 C19.2143379,6.13679863 17.8622014,4.78466207 16.1310272,4.32350298 C14.3998531,3.8623439 12.5542531,4.3626509 11.293,5.635 L10.586,6.3425 C10.1955347,6.73324146 9.56224146,6.73346532 9.1715,6.343 C8.78117258,5.95294843 8.78094896,5.32032627 9.17100053,4.92999885 C9.17125012,4.92974909 9.17149984,4.92949946 9.17174969,4.92924996 L9.88,4.222 L9.88,4.222 C12.6138095,1.48819049 17.0461905,1.48819049 19.78,4.222 C22.5138095,6.95580951 22.5138095,11.3881905 19.78,14.122 L19.0730002,14.8285002 C18.6819824,15.2192416 18.0482415,15.2190176 17.6575,14.828 C17.2667181,14.4369419 17.2668301,13.8031699 17.65775,13.41225 Z M14.121,19.778 C11.3871905,22.5118094 6.95480958,22.5118094 4.2210001,19.7779999 C1.48719063,17.0441904 1.48719059,12.6118095 4.221,9.878 L4.92824978,9.17125004 C5.31899139,8.78078458 5.95228484,8.78100844 6.34275031,9.17175004 C6.34283355,9.17183335 6.34291678,9.17191667 6.343,9.172 C6.73354612,9.56309851 6.73332224,10.1966778 6.34249982,10.5875002 L5.636,11.294 L5.636,11.294 C4.3636509,12.5552531 3.8633439,14.4008531 4.32450298,16.1320272 C4.78566207,17.8632014 6.13779863,19.2153379 7.86897276,19.676497 C9.60014689,20.1376561 11.4457469,19.6373491 12.707,18.365 L13.41375,17.65825 C13.8043938,17.2676062 14.4377181,17.2674943 14.8285,17.658 C15.2188272,18.0480514 15.2190508,18.6806732 14.8289995,19.0710004 C14.8287498,19.0712503 14.8284999,19.0715001 14.82825,19.0717497 L14.121,19.778 L14.121,19.778 Z M15.5355,8.4645 C15.9262138,8.85521383 15.9262138,9.48868611 15.5355,9.87939994 C15.5354833,9.87941662 15.5354666,9.87943329 15.53545,9.87944997 L9.87930006,15.5348 C9.4886205,15.9254243 8.85529,15.9255138 8.4645,15.535 C8.07389664,15.1446727 8.07367286,14.5116033 8.46400018,14.1209999 C8.46408345,14.1209166 8.46416674,14.1208333 8.46425004,14.12075 L14.1205,8.4645 C14.5112415,8.07375854 15.1447585,8.07375854 15.5355,8.4645 Z" id="形状" fill="#5D6E7F" fill-rule="nonzero"></path>
            </g>
        </g>
    </g>
</svg>