<svg id="图层_1" data-name="图层 1" xmlns="http://www.w3.org/2000/svg" viewBox="0 0 300 300"><defs><style>.cls-1,.cls-9{fill:#fff;}.cls-1,.cls-3,.cls-5,.cls-8{fill-rule:evenodd;}.cls-2{fill:#728da3;}.cls-3{fill:#0569ff;}.cls-4{fill:#034fd2;}.cls-5{fill:#e4e3e3;}.cls-6{fill:#e7bab9;}.cls-7{fill:#db9696;}.cls-8{fill:#23304a;}.cls-10{fill:#24304a;}.cls-11{fill:#83bf4f;}.cls-12{fill:#75a843;}.cls-13{fill:#cc3636;}.cls-14{fill:#e24b4b;}.cls-15{fill:#f29a2e;}</style></defs><path class="cls-1" d="M135.83,201.21c-3.28,1.25-20.65,3-24.34,3.36,0,0-5.85,2-7-.29s-12.54-2.6-11.3,7.56c.37,3,2.52,8.18,11.1,5.79,12.07,2.62,33.18-.12,43.23-3.18l4.57-3.66-10.21-11.1-6,1.52Z"/><path class="cls-2" d="M116.22,218.94a58.69,58.69,0,0,1-12-1.05c-3.5,1-6.29.78-8.29-.56a7.61,7.61,0,0,1-3.07-5.46c-.25-2.09-.28-7.11,5-8.74,3-.93,6.15-.19,6.79,1,.9,1.73,5.17.72,6.74.18,2.19-.22,21-2.08,24.33-3.37h0l6.16-1.56,10.49,11.41-4.86,3.87C140.46,216.85,127.52,218.94,116.22,218.94Zm-12-1.57.06,0c12.28,2.66,33.23-.18,43.07-3.17l4.32-3.46L141.76,200l-5.86,1.48c-3.38,1.28-20.9,3-24.38,3.37-.19.08-6,2-7.3-.42-.48-.92-3.35-1.68-6.19-.8-2,.63-5.33,2.54-4.63,8.21a7.11,7.11,0,0,0,2.85,5.11c1.88,1.25,4.55,1.41,7.93.47Z"/><path class="cls-1" d="M190.19,205.59s3.56,6.72,3.58,10.44c0,0-1.06,7.38-3.44,8.37-2,.83-2,7.2,4.06,9a6.18,6.18,0,0,0,6.38-1.91c13.18-15,5.68-19.81,2.78-33.76l-3.93-3.59-9.41,5.16,0,6.26Z"/><path class="cls-2" d="M196.08,233.93a6,6,0,0,1-1.77-.26,7.08,7.08,0,0,1-5.43-6.34c-.07-1.53.47-2.8,1.35-3.16,1.85-.77,3-6.16,3.3-8.18,0-3.57-3.53-10.22-3.56-10.28l0-.12,0-6.41,9.7-5.32,4.12,3.77,0,.08a70.2,70.2,0,0,0,2.55,8.77c2.72,8,4.69,13.7-5.4,25.21A6.51,6.51,0,0,1,196.08,233.93Zm-5.64-28.4c.36.7,3.56,6.9,3.58,10.5,0,.34-1.11,7.56-3.6,8.6-.67.28-1.1,1.38-1,2.67a6.6,6.6,0,0,0,5.08,5.89,5.9,5.9,0,0,0,6.12-1.83c9.89-11.29,8.06-16.63,5.3-24.72a71.46,71.46,0,0,1-2.56-8.75l-3.73-3.42-9.13,5Z"/><path class="cls-1" d="M136.5,235.19s6.64,26.18,9.15,34c.26.83,2.78,6.27,2.51,9.83a5.1,5.1,0,0,0,6.72,5.29c2.47-.93,4.52-4.63,5.21-9.49,0-.23-1.55-20.35-1.71-24a3.6,3.6,0,0,1,.7-2.3c1.85-2.47,6.73-7.52,11.23.61.3.64-.75.82-1.51,1.2a3.19,3.19,0,0,1-1.63.36c-2.13-.14-3.59-.48-4.37,1.86a17,17,0,0,0,0,9.14,37.63,37.63,0,0,1,.32,8.54c-.11,2.81,6.28,2,7.88-.32a17.52,17.52,0,0,0,1.82-3.65c.55-2.6,1.8-3.44,4.32-4.89a6.76,6.76,0,0,1,3.78-.8c3.86.22,12.85-6.37,12.45-24.71L188.08,229l-50.92,2.07-.66,4.13Z"/><path class="cls-2" d="M153.18,285a5.27,5.27,0,0,1-3.16-1.08,5.59,5.59,0,0,1-2.23-4.93c.22-2.88-1.48-7.1-2.2-8.9-.15-.37-.26-.64-.3-.78-2.49-7.75-9.09-33.76-9.16-34l0-.07.72-4.52,51.43-2.08,5.48,7.14v.12c.28,13.23-4.22,19.59-6.94,22.21-2,1.91-4.16,3-5.91,2.89a6.28,6.28,0,0,0-3.57.75c-2.43,1.4-3.62,2.18-4.14,4.64a17.89,17.89,0,0,1-1.89,3.79c-1.26,1.84-5,2.7-7.05,2a1.93,1.93,0,0,1-1.5-1.95,35.18,35.18,0,0,0-.32-8.44,17.38,17.38,0,0,1,0-9.35c.81-2.42,2.39-2.3,4.22-2.16l.53,0a2.93,2.93,0,0,0,1.45-.31c.19-.1.39-.18.59-.27s.71-.28.75-.39c-1.49-2.72-3.14-4.15-4.89-4.27-2.47-.16-4.63,2.23-5.71,3.68a3.23,3.23,0,0,0-.63,2.06c.09,2.16.71,10.38,1.16,16.38.52,6.88.57,7.55.55,7.66-.71,5-2.84,8.82-5.45,9.79A5.11,5.11,0,0,1,153.18,285Zm-16.3-49.83c.4,1.56,6.71,26.39,9.12,33.91l.29.73c.74,1.85,2.48,6.18,2.24,9.23a4.87,4.87,0,0,0,1.94,4.28,4.42,4.42,0,0,0,4.28.64c2.35-.88,4.3-4.49,5-9.19,0-.2-.26-3.58-.55-7.5-.48-6.34-1.07-14.24-1.17-16.41a4,4,0,0,1,.78-2.54c1.17-1.57,3.56-4.14,6.36-4,2,.13,3.87,1.69,5.49,4.62a.75.75,0,0,1,.05.66c-.16.42-.65.61-1.16.82a5.38,5.38,0,0,0-.55.24,3.63,3.63,0,0,1-1.83.39l-.54,0c-1.82-.14-2.83-.21-3.45,1.65a16.91,16.91,0,0,0,0,8.93,35.62,35.62,0,0,1,.34,8.65c0,.21,0,.86,1,1.2,1.7.57,5.14-.21,6.2-1.75a17.29,17.29,0,0,0,1.76-3.52c.59-2.77,2-3.66,4.5-5.13a7,7,0,0,1,4-.85c1.19.06,3.2-.6,5.35-2.68,2.62-2.52,7-8.67,6.71-21.53l-5.1-6.64-50.42,2Z"/><path class="cls-3" d="M147.06,189.66s-10.45.6-18.57,5.79c-2.38,1.49-7.72,8.23-6.6,9.11s8.74,9,10.64,9.95,3.7,1.67,4.63,1.38c0,0-3.35,14.72-1.32,17.92s8.76,3.88,13.88,4.14,44.36.34,45-2.76c1.16-5.87-2.82-22.56-3.3-24.12,0,0,.77,3.52,2.75,4.06a7,7,0,0,0,4.37,0c1-.34,8.37-8.48,10.6-12.22a3.47,3.47,0,0,0-1.32-4.13c-3.66-1.93-8.89-8.92-14.47-8.79s-16.83-1.69-16.83-1.69l-29.61,1.22Z"/><path class="cls-4" d="M137.16,215.89l-2-.69,6.62-11-4.63,11.71Zm53.57-4.82c-.82-.63-4.63-6.89-4.63-6.89.8,1.16,6,6.2,6,6.2l-1.32.69Z"/><path class="cls-1" d="M256,141.43l-6.32-80.37c12.48,9,21.95,26.32,21.95,46.71,0,17.32-6.12,27.85-15.63,33.66Z"/><path class="cls-2" d="M255.73,141.86l0-.41-6.36-80.9.44.31c13.6,9.81,22,27.79,22,46.91,0,16.09-5.3,27.49-15.75,33.87Zm-5.81-80.27L256.17,141c10.06-6.33,15.16-17.5,15.16-33.23C271.33,89,263.14,71.38,249.92,61.59Z"/><path class="cls-5" d="M256.08,130.26l-8-71.34c11.19,8.35,19.61,24,19.61,42.4,0,14.14-4.46,23.34-11.6,28.94Z"/><path class="cls-1" d="M67.82,141.36l5.74-80.15C61.2,70.28,51.9,87.59,52,107.92c.12,17.26,6.27,27.71,15.78,33.44Z"/><path class="cls-2" d="M68,141.79l-.35-.21C57.25,135.29,51.9,124,51.79,107.92c-.13-19.06,8.15-37,21.62-46.91l.43-.32,0,.54Zm5.23-80c-13.08,9.85-21.11,27.48-21,46.18.11,15.67,5.26,26.78,15.31,33Z"/><path class="cls-5" d="M67.62,130.23,75.1,59.07C64,67.46,55.75,83.12,55.87,101.46c.1,14.1,4.6,23.23,11.75,28.77Z"/><path class="cls-1" d="M161.92,15.25c56.26,0,101.86,42.4,101.86,93.5s-45.6,81.75-101.86,81.75S60.07,159.85,60.07,108.75s45.6-93.5,101.85-93.5Z"/><path class="cls-2" d="M161.92,190.75c-28.13,0-53.76-7.73-72.17-21.76-19.58-14.93-29.93-35.76-29.93-60.24,0-24.85,10.62-48.32,29.91-66.1S134.72,15,161.92,15s52.85,9.82,72.2,27.65S264,83.9,264,108.75c0,24.48-10.35,45.31-29.93,60.24C215.69,183,190.05,190.75,161.92,190.75Zm0-175.25c-27.08,0-52.59,9.77-71.85,27.52s-29.75,41-29.75,65.73c0,24.32,10.28,45,29.73,59.84,18.33,14,43.85,21.66,71.87,21.66s53.55-7.69,71.87-21.66c19.46-14.83,29.74-35.52,29.74-59.84,0-24.7-10.57-48-29.75-65.73S189,15.5,161.92,15.5Z"/><path class="cls-6" d="M134.87,124.06c0,1.8-5.63,3.3-13.05,3.6q-1.38.06-2.82.06h-.06c-1.53,0-3-.06-4.39-.15-.94-.06-1.85-.15-2.7-.24-5.17-.61-8.72-1.84-8.72-3.27,0-1.77,5.51-3.25,12.82-3.58.93,0,1.89-.07,2.88-.07H119c1.47,0,2.89,0,4.23.13,1,.06,1.85.14,2.71.24C131.23,121.37,134.87,122.62,134.87,124.06Z"/><path class="cls-6" d="M222.77,124.06c0,1.8-5.65,3.3-13.08,3.6q-1.37.06-2.79.06h-.09c-1.53,0-3-.06-4.39-.15-.94-.06-1.84-.15-2.7-.25-5.16-.6-8.68-1.84-8.68-3.26,0-1.77,5.49-3.25,12.78-3.58.93,0,1.9-.07,2.89-.07h.19c1.46,0,2.87,0,4.2.13,1,.06,1.85.13,2.71.23C219.11,121.37,222.77,122.62,222.77,124.06Z"/><path class="cls-7" d="M118.83,120.41l-4.28,7.16c-.94-.06-1.85-.15-2.7-.24l4.1-6.85C116.88,120.43,117.84,120.41,118.83,120.41Z"/><path class="cls-7" d="M125.94,120.78l-4.12,6.88q-1.38.06-2.82.06h-.06l4.29-7.18C124.18,120.6,125.08,120.68,125.94,120.78Z"/><path class="cls-7" d="M206.71,120.41l-4.29,7.16c-.94-.06-1.84-.15-2.7-.25l4.1-6.84Z"/><path class="cls-7" d="M213.81,120.77l-4.12,6.89q-1.37.06-2.79.06h-.09l4.29-7.18C212.05,120.6,213,120.67,213.81,120.77Z"/><path class="cls-8" d="M163.38,23.08c49.53,0,95.77,47.08,88.7,91.54-3.16,19.87-39.17-6.36-88.7-6.36s-89.67,56.92-89.67,6.36,40.15-91.54,89.67-91.54Z"/><path class="cls-9" d="M226.55,59.91l-.54.8a1.88,1.88,0,0,1-3,.38c-9.38-9.62-19.4-17.52-31.13-21.37a1.65,1.65,0,0,1-.64-2.65l.54-.81a3.59,3.59,0,0,1,3.75-1.3c13.7,4.44,22.71,12.63,31,21.41a3,3,0,0,1,0,3.54ZM230.26,69a3.43,3.43,0,1,1,3-3.8,3.42,3.42,0,0,1-3,3.8Z"/><path class="cls-9" d="M224.57,94.67l-.73.74a3.48,3.48,0,0,1-4.92.19L203.42,80a3.51,3.51,0,0,1,.19-4.94l.73-.73a3.48,3.48,0,0,1,4.92-.19l15.51,15.58a3.51,3.51,0,0,1-.2,4.93ZM209.82,80.31,194,96.16a3.54,3.54,0,0,1-5-.2l-.74-.75a3.58,3.58,0,0,1-.2-5l15.78-15.84a3.52,3.52,0,0,1,5,.2l.74.74a3.56,3.56,0,0,1,.2,5Zm-89.26-.17L105.17,95.61a3.45,3.45,0,0,1-4.88-.19l-.72-.73a3.49,3.49,0,0,1-.2-4.9l15.39-15.48a3.45,3.45,0,0,1,4.88.2l.73.73a3.49,3.49,0,0,1,.19,4.9Zm15,15.09-.74.74a3.51,3.51,0,0,1-5,.2L114.2,80.43a3.56,3.56,0,0,1,.2-5l.74-.74a3.51,3.51,0,0,1,5-.2l15.65,15.74a3.55,3.55,0,0,1-.19,5Z"/><path class="cls-1" d="M153.65,212.78c0,.12,0,.08,0,.12-12.57,3.28-6.32,14.91,3.28,13.38l1.07,3.5c-8.1-.06-14.44-4.93-14.8-9.63s3.81-8.32,9.34-8.43c-3.17-14.08,26.53-14.08,23,0,5.53.11,9.7,3.73,9.34,8.43s-6.7,9.57-14.8,9.63l1.07-3.5c8.09,1.14,18-11.68,3.29-13.38v-.12C174.36,201.65,153.65,201.66,153.65,212.78Z"/><path class="cls-1" d="M161,230.67c-.9-9.23,9.29-3.76,10.82-11.61.63-3.25,0-6.73-3.05-8.57-4.48-2.3-12-.31-11.37,6.26s9.7,4.11,8.87.12c-1.3,1.74-3.92,2.39-5.15,1.46-2.79-2.1.45-6.7,4.76-5.62,2.82.7,2.63,2.42,2.84,4.48.42,4.11-3.53,4.38-7.17,6.08C157.08,225.35,161,230.67,161,230.67Z"/><path class="cls-1" d="M165.62,226.35a2.29,2.29,0,1,1-2.28,2.29A2.3,2.3,0,0,1,165.62,226.35Z"/><path class="cls-10" d="M124.62,147.64a.59.59,0,0,1,.59-.59.6.6,0,0,1,.59.6s0,3,3.29,6.33c4,4,12.81,8.42,32.31,8.42,40.69,0,41-14.75,41-14.75a.58.58,0,0,1,.6-.58.6.6,0,0,1,.58.61c0,.65-.85,15.91-42.22,15.91-11.13,0-25.92-1.53-33.15-8.78-3.6-3.61-3.63-7-3.63-7.16h0"/><path class="cls-11" d="M97,218.44c12.29-1.82,14.52-9.49,14.52-9.49s-4.6-8.47-16.9-6.65c-8.46,1.26-21,11.36-21,11.36S88.53,219.7,97,218.44Z"/><path class="cls-11" d="M126.3,196.85c-9.85,7.6-16.89,3.87-16.89,3.87s-2.87-9.2,7-16.8c6.79-5.24,22.76-7.27,22.76-7.27S133.09,191.61,126.3,196.85Z"/><rect class="cls-12" x="100.09" y="150.54" width="10.09" height="80.13" transform="translate(-65.91 55.97) rotate(-22.91)"/><path class="cls-13" d="M58.28,152.78c10,4.06,26.58,2.91,27.92-.43s-9.75-15.71-19.77-19.77C52.32,126.86,44.17,147.06,58.28,152.78Z"/><path class="cls-13" d="M120.79,154.61c-10-4.06-26.58-2.9-27.93.44s9.76,15.7,19.78,19.76C126.75,180.53,134.91,160.33,120.79,154.61Z"/><path class="cls-13" d="M88.61,185c4-10,2.91-26.66-.42-28s-15.67,9.79-19.73,19.83C62.75,191,82.89,199.19,88.61,185Z"/><path class="cls-13" d="M90.47,122.36c-4.06,10-2.92,26.65.42,28s15.67-9.8,19.72-19.84C116.32,116.37,96.18,108.2,90.47,122.36Z"/><path class="cls-14" d="M66.78,175.21c9.94-4.23,20.85-16.79,19.45-20.1s-18-4.19-27.93,0C44.28,161.12,52.76,181.17,66.78,175.21Z"/><path class="cls-14" d="M112.29,132.19c-9.94,4.23-20.85,16.79-19.45,20.1s18,4.18,27.93,0C134.79,146.28,126.31,126.22,112.29,132.19Z"/><path class="cls-14" d="M111,176.5c-4.22-10-16.74-20.89-20-19.49s-4.18,18,0,28C96.91,199.07,116.92,190.56,111,176.5Z"/><path class="cls-14" d="M68.09,130.89c4.22,10,16.74,20.9,20,19.49s4.18-18,0-28C82.16,108.33,62.15,116.84,68.09,130.89Z"/><ellipse class="cls-15" cx="89.54" cy="153.7" rx="15" ry="14.96" transform="translate(-72.64 226.77) rotate(-84.03)"/><path class="cls-9" d="M103,215.39a5.88,5.88,0,1,0,11.74,0c0-3.45-2.39-8.81-5.63-8.81S103,211.94,103,215.39Z"/><path class="cls-2" d="M108.83,221.89a6.32,6.32,0,0,1-6.12-6.5c0-3.49,2.91-9.06,6.36-9.06s5.88,5.41,5.88,9.06A6.33,6.33,0,0,1,108.83,221.89Zm.24-15.06c-3.12,0-5.86,5.34-5.86,8.56a5.63,5.63,0,1,0,11.24,0C114.45,212,112.14,206.83,109.07,206.83Z"/></svg>