<?xml version="1.0" encoding="UTF-8"?>
<svg width="24px" height="24px" viewBox="0 0 24 24" version="1.1" xmlns="http://www.w3.org/2000/svg" xmlns:xlink="http://www.w3.org/1999/xlink">
    <title>勾选1</title>
    <g id="2.0" stroke="none" stroke-width="1" fill="none" fill-rule="evenodd">
        <g id="通用基础-删格" transform="translate(-217.000000, -172.000000)">
            <g id="勾选1" transform="translate(217.000000, 172.000000)">
                <polygon id="路径" points="0 0 24 0 24 24 0 24"></polygon>
                <path d="M12,22 C6.477,22 2,17.523 2,12 C2,6.477 6.477,2 12,2 C17.523,2 22,6.477 22,12 C22,17.523 17.523,22 12,22 Z M12,20 C16.418278,20 20,16.418278 20,12 C20,7.581722 16.418278,4 12,4 C7.581722,4 4,7.581722 4,12 C4,16.418278 7.581722,20 12,20 Z M10.2990492,15.2960492 L7.467,12.464 C7.07653468,12.0735347 7.07653468,11.4404653 7.467,11.05 C7.85746532,10.6595347 8.49053468,10.6595347 8.881,11.05 L11.003,13.172 L11.003,13.172 L15.4583333,8.76635387 C15.8518048,8.37727056 16.4856163,8.37893555 16.877038,8.77008072 C17.2658981,9.15866594 17.2661209,9.78890983 16.8775356,10.1777699 C16.8764036,10.1789027 16.8752689,10.1800327 16.8741314,10.1811601 L11.7100927,15.2992051 C11.3190656,15.6867495 10.6883388,15.6853388 10.2990492,15.2960492 Z" id="形状" fill="#5D6E7F" fill-rule="nonzero"></path>
            </g>
        </g>
    </g>
</svg>