<?xml version="1.0" encoding="UTF-8"?>
<svg width="24px" height="24px" viewBox="0 0 24 24" version="1.1" xmlns="http://www.w3.org/2000/svg" xmlns:xlink="http://www.w3.org/1999/xlink">
    <title>云</title>
    <g id="2.0" stroke="none" stroke-width="1" fill="none" fill-rule="evenodd">
        <g id="通用基础-删格" transform="translate(-148.000000, -310.000000)">
            <g id="云" transform="translate(148.000000, 310.000000)">
                <polygon id="路径" points="0 0 24 0 24 24 0 24"></polygon>
                <path d="M17,21.0000012 L7,21.0000012 C4.0747135,21.0018372 1.57448478,18.8938379 1.0819056,16.0103209 C0.589326416,13.1268039 2.24799106,10.3083581 5.008,9.339 C4.88465189,6.76120114 6.18968549,4.32463387 8.40383023,2.99880401 C10.617975,1.67297416 13.382025,1.67297416 15.5961698,2.99880401 C17.8103145,4.32463387 19.1153481,6.76120114 18.992,9.339 C21.7520089,10.3083581 23.4106736,13.1268039 22.9180944,16.0103209 C22.4255152,18.8938379 19.9252865,21.0018372 17,21.0000012 Z M17,9 C17.0006785,7.18424439 16.0169302,5.51083416 14.4300431,4.62836135 C12.843156,3.74588855 10.9025797,3.79307286 9.36045642,4.75162627 C7.81833313,5.71017967 6.91707577,7.42942304 7.006,9.243 L7.076,10.731 L5.672,11.225 C3.83559928,11.8744465 2.73350819,13.751753 3.06146031,15.671804 C3.38941242,17.591855 5.05214505,18.9969189 7,19 L17,19 C19.0432275,18.9993377 20.7575158,17.4588838 20.9758094,15.4273507 C21.194103,13.3958176 19.8462223,11.5263256 17.8497795,11.0915901 C16.4914057,10.7957974 15.1299196,11.2289132 14.1948692,12.1465283 C14.0235615,12.3146418 13.839427,12.5656314 13.6424657,12.8994972 C13.3601901,13.3779872 12.7820102,13.5942626 12.255,13.4185 C11.7926672,13.2643079 11.5428699,12.7645157 11.697062,12.3021829 C11.7120054,12.2573763 11.7305221,12.2138417 11.7524524,12.1720087 C11.9906896,11.7170616 12.2099993,11.3708197 12.4103814,11.1332832 C13.527853,9.8086131 15.1930709,9.00001512 17,9 Z" id="形状" fill="#5D6E7F" fill-rule="nonzero"></path>
            </g>
        </g>
    </g>
</svg>