<?xml version="1.0" encoding="UTF-8"?>
<svg width="24px" height="24px" viewBox="0 0 24 24" version="1.1" xmlns="http://www.w3.org/2000/svg" xmlns:xlink="http://www.w3.org/1999/xlink">
    <title>蓝牙</title>
    <g id="2.0" stroke="none" stroke-width="1" fill="none" fill-rule="evenodd">
        <g id="通用基础-删格" transform="translate(-113.000000, -451.000000)">
            <g id="蓝牙" transform="translate(113.000000, 451.000000)">
                <polygon id="路径" points="0 0 24 0 24 24 0 24"></polygon>
                <path d="M17.9768932,17.0801068 L13.6137864,21.4432136 C13.2387137,21.8182863 12.7300059,22.029 12.1995729,22.029 L12.028,22.029 C11.4757153,22.029 11.028,21.5812847 11.028,21.029 L11.028,15.343 L7.37125004,18.99975 C6.9806062,19.3903938 6.34728191,19.3905057 5.9565,19 C5.59597424,18.639729 5.56805084,18.0726425 5.87286466,17.6803366 L5.95631124,17.5858112 L5.95631124,17.5858112 L11.028,12.515 L11.028,11.545 L5.95618886,6.47231123 C5.59575929,6.11181929 5.56808061,5.54462236 5.8731198,5.1523828 L5.9565,5.058 L5.9565,5.058 C6.34728191,4.66749426 6.9806062,4.6676062 7.37125004,5.05825004 L11.028,8.715 L11.028,3.029 C11.028,2.47671525 11.4757153,2.029 12.028,2.029 L12.1994693,2.029 C12.7299636,2.029 13.238725,2.23976222 13.6138079,2.61491145 L17.9769557,6.97883072 C18.3673586,7.36942762 18.3673306,8.00254439 17.9768932,8.39310678 L14.341,12.029 L17.9769746,15.6658118 C18.3673408,16.0564307 18.3673043,16.6895329 17.9768932,17.0801068 Z M13.3694214,18.8595786 L15.1488932,17.0801068 C15.5392437,16.6895063 15.5392996,16.0564377 15.1490182,15.6657682 L13.3694464,13.8855671 C13.2913553,13.8074484 13.1647223,13.807426 13.0866036,13.8855171 C13.0490811,13.9230264 13.028,13.9739079 13.028,14.0269634 L13.028,18.7181573 C13.028,18.8286142 13.1175431,18.9181573 13.228,18.9181573 C13.2810433,18.9181573 13.3319141,18.8970859 13.3694214,18.8595786 Z M15.1488932,6.97889322 L13.3694214,5.19942136 C13.2913165,5.1213165 13.1646835,5.1213165 13.0865786,5.19942136 C13.0490714,5.23692863 13.028,5.28779941 13.028,5.34084271 L13.028,10.0320366 C13.028,10.1424935 13.1175431,10.2320366 13.228,10.2320366 C13.2810555,10.2320366 13.331937,10.2109555 13.3694464,10.1734329 L15.1490182,8.39323177 C15.5392996,8.00256228 15.5392437,7.36949371 15.1488932,6.97889322 Z" id="形状" fill="#5D6E7F" fill-rule="nonzero"></path>
            </g>
        </g>
    </g>
</svg>