<?xml version="1.0" encoding="UTF-8"?>
<svg width="24px" height="24px" viewBox="0 0 24 24" version="1.1" xmlns="http://www.w3.org/2000/svg" xmlns:xlink="http://www.w3.org/1999/xlink">
    <title>切换</title>
    <g id="2.0" stroke="none" stroke-width="1" fill="none" fill-rule="evenodd">
        <g id="通用基础-删格" transform="translate(-322.000000, -264.000000)">
            <g id="切换" transform="translate(322.000000, 264.000000)">
                <polygon id="路径" points="0 0 24 0 24 24 0 24"></polygon>
                <path d="M20.1758572,15.696232 L16.7461269,19.2322916 C16.3674904,19.6226667 15.7440834,19.6321826 15.3537084,19.2535462 C15.3501121,19.2500581 15.3465426,19.2465426 15.343,19.243 C14.9525121,18.8525121 14.9524497,18.2194255 15.3428606,17.8288606 L16.8307045,16.3404301 C16.9087939,16.2623099 16.908769,16.1356769 16.8306487,16.0575874 C16.79314,16.0200935 16.7422749,15.9990326 16.68924,15.9990367 L5,15.9999241 C4.44775718,15.999966 4.00004193,15.5523187 4,15.0000759 C4,15.0000506 4,15.0000253 4,15 C4,14.4477153 4.44771525,14 5,14 L17.172,14 L17.172,14 L19.4580404,14 C20.0103252,14 20.4580404,14.4477153 20.4580404,15 C20.4580404,15.2599314 20.3568298,15.5096489 20.1758572,15.696232 Z M8.657,4.757 C9.04746532,5.14746532 9.04746532,5.78053468 8.657,6.171 L7.16942136,7.65857864 C7.0913165,7.7366835 7.0913165,7.8633165 7.16942136,7.94142136 C7.20692863,7.97892863 7.25779941,8 7.31084271,8 L19,8 C19.5522847,8 20,8.44771525 20,9 C20,9.55228475 19.5522847,10 19,10 L6.828,10 L6.828,10 L4.411174,10 C3.85888925,10 3.411174,9.55228475 3.411174,9 C3.411174,8.73465943 3.51662917,8.48019699 3.70432046,8.29264007 L7.24274688,4.75674679 C7.63339295,4.36638039 8.26649374,4.36649374 8.657,4.757 Z" id="形状" fill="#5D6E7F" fill-rule="nonzero"></path>
            </g>
        </g>
    </g>
</svg>