<?xml version="1.0" encoding="UTF-8"?>
<svg width="50px" height="50px" viewBox="0 0 50 50" version="1.1" xmlns="http://www.w3.org/2000/svg" xmlns:xlink="http://www.w3.org/1999/xlink">
    <title>报错-大</title>
    <g id="组件" stroke="none" stroke-width="1" fill="none" fill-rule="evenodd">
        <g transform="translate(-2622.000000, -1432.000000)" id="报错-大">
            <g transform="translate(2622.000000, 1432.000000)">
                <circle id="椭圆形备份-8" fill="#FFECE8" cx="25" cy="25" r="25"></circle>
                <path d="M21.8798702,20.474919 L25.0617634,23.6560258 L28.2438312,20.474919 C28.6043152,20.1144351 29.1715462,20.0867055 29.5638374,20.3917304 L29.6580448,20.474919 C30.0485691,20.8654433 30.0485691,21.4986083 29.6580448,21.8891326 L29.6580448,21.8891326 L26.4757634,25.0710258 L29.6580448,28.2530936 C30.0485691,28.6436179 30.0485691,29.2767829 29.6580448,29.6673072 C29.2675205,30.0578315 28.6343555,30.0578315 28.2438312,29.6673072 L25.0617634,26.4850258 L21.8798702,29.6673072 C21.5193862,30.0277911 20.9521552,30.0555207 20.559864,29.7504958 L20.4656566,29.6673072 C20.0751323,29.2767829 20.0751323,28.6436179 20.4656566,28.2530936 L20.4656566,28.2530936 L23.6467634,25.0710258 L20.4656566,21.8891326 C20.0751323,21.4986083 20.0751323,20.8654433 20.4656566,20.474919 C20.8561809,20.0843947 21.4893459,20.0843947 21.8798702,20.474919 Z" id="&lt;CloseOutlined-/&gt;" fill="#FF3131"></path>
            </g>
        </g>
    </g>
</svg>