<?xml version="1.0" encoding="UTF-8"?>
<svg width="24px" height="24px" viewBox="0 0 24 24" version="1.1" xmlns="http://www.w3.org/2000/svg" xmlns:xlink="http://www.w3.org/1999/xlink">
    <title>全屏</title>
    <g id="2.0" stroke="none" stroke-width="1" fill="none" fill-rule="evenodd">
        <g id="通用基础-删格" transform="translate(-183.000000, -264.000000)">
            <g id="全屏" transform="translate(183.000000, 264.000000)">
                <polygon id="路径" points="0 0 24 0 24 24 0 24"></polygon>
                <path d="M20,15 C20.5128358,15 20.9355072,15.3860402 20.9932723,15.8833789 L21,16 L21,17.965475 C21,19.6149092 19.5842085,20.9080847 17.856361,20.995308 L17.6700907,21 L15,21 C14.4477153,21 14,20.5522847 14,20 C14,19.4871642 14.3860402,19.0644928 14.8833789,19.0067277 L15,19 L17.6700907,19 C18.3848058,19 18.9282957,18.5644199 18.9934401,18.0659064 L19,17.965475 L19,16 C19,15.4477153 19.4477153,15 20,15 Z M4,15 C4.51283584,15 4.93550716,15.3860402 4.99327227,15.8833789 L5,16 L5,17.9740712 C5,18.4741417 5.48585353,18.9344452 6.15846828,18.9935965 L6.3053496,19 L9,19 C9.55228475,19 10,19.4477153 10,20 C10,20.5128358 9.61395981,20.9355072 9.11662113,20.9932723 L9,21 L6.3053496,21 C4.56856823,21 3.10424686,19.7657924 3.00532432,18.1487517 L3,17.9740712 L3,16 C3,15.4477153 3.44771525,15 4,15 Z M17.6895347,3 C19.4671591,3 20.9014889,4.44011809 20.9951357,6.23306166 L21,6.41975259 L21,9 C21,9.55228475 20.5522847,10 20,10 C19.4871642,10 19.0644928,9.61395981 19.0067277,9.11662113 L19,9 L19,6.41975259 C19,5.67228785 18.4708882,5.07418005 17.8140839,5.00640081 L17.6895347,5 L15,5 C14.4477153,5 14,4.55228475 14,4 C14,3.48716416 14.3860402,3.06449284 14.8833789,3.00672773 L15,3 L17.6895347,3 Z M9,3 C9.55228475,3 10,3.44771525 10,4 C10,4.51283584 9.61395981,4.93550716 9.11662113,4.99327227 L9,5 L6.28661083,5 C5.59482362,5 5.07359155,5.40870745 5.00716855,5.86796156 L5,5.96701631 L5,8 C5,8.55228475 4.55228475,9 4,9 C3.48716416,9 3.06449284,8.61395981 3.00672773,8.11662113 L3,8 L3,5.96701631 C3,4.34990104 4.40028444,3.08956866 6.1030628,3.00457203 L6.28661083,3 L9,3 Z" id="形状" fill="#5D6E7F" fill-rule="nonzero"></path>
            </g>
        </g>
    </g>
</svg>