<?xml version="1.0" encoding="UTF-8"?>
<svg width="36px" height="20px" viewBox="0 0 36 20" version="1.1" xmlns="http://www.w3.org/2000/svg" xmlns:xlink="http://www.w3.org/1999/xlink">
    <title>icon-zhishi</title>
    <g id="2.0" stroke="none" stroke-width="1" fill="none" fill-rule="evenodd">
        <g id="知识库删格" transform="translate(-296.000000, -111.000000)" fill="#4BCAC4" fill-rule="nonzero">
            <g id="icon-zhishi" transform="translate(296.000000, 111.000000)">
                <path d="M33.5,0 C34.8807119,0 36,1.11928813 36,2.5 L36,17.5 C36,18.8807119 34.8807119,20 33.5,20 L2.5,20 C1.11928813,20 0,18.8807119 0,17.5 L0,2.5 C0,1.11928813 1.11928813,0 2.5,0 L33.5,0 Z M33.5,1.29999996 L2.5,1.29999996 C1.88475881,1.29999996 1.3690622,1.76499926 1.306,2.377 L1.29999996,2.5 L1.29999996,17.5 C1.29999996,18.1152412 1.76499926,18.6309378 2.377,18.694 L2.5,18.7 L33.5,18.7 C34.1152412,18.7 34.6309378,18.2350007 34.694,17.623 L34.7,17.5 L34.7,2.5 C34.7,1.88475881 34.2350007,1.3690622 33.623,1.306 L33.5,1.29999996 Z" id="形状"></path>
                <path d="M4.0928683,16.1858539 C5.6820406,15.0320874 6.77647059,13.6050604 7.39115044,11.9047729 C8.09578345,12.6941921 8.95033837,13.8024152 9.96980739,15.2598045 L10.6144716,14.2578493 C9.62498699,13.012996 8.63550234,11.8895917 7.67600208,10.9028177 C7.76595523,10.5384704 7.84091619,10.1437608 7.91587715,9.74905118 L10.5694951,9.74905118 L10.5694951,8.70155262 L8.06579906,8.70155262 C8.1707444,7.7906843 8.23071317,6.77354802 8.24570536,5.68050604 L10.4345653,5.68050604 L10.4345653,4.63300748 L6.10182197,4.63300748 C6.31171265,4.05612421 6.50661114,3.43369753 6.68651744,2.78090857 L5.62207184,2.55319149 C5.19046096,4.26708715 4.46479963,5.89085615 3.47818844,7.35043128 L4.42269651,7.95767683 C4.88745445,7.25934445 5.30723581,6.50028752 5.6820406,5.68050604 L7.13628319,5.68050604 C7.12958194,6.69050959 7.06450449,7.69925015 6.9413847,8.70155262 L3.65809474,8.70155262 L3.65809474,9.74905118 L6.79146278,9.74905118 C6.71650182,10.1437608 6.62654867,10.5232892 6.53659552,10.8876366 C6.02686101,12.6638298 4.9774076,14.1364002 3.38823529,15.3053479 L4.0928683,16.1858539 Z M12.3835502,15.8518689 L12.3835502,14.8499137 L15.3220198,14.8499137 L15.3220198,15.8215066 L16.3714732,15.8215066 L16.3714732,4.2079356 L11.349089,4.2079356 L11.349089,15.8518689 L12.3835502,15.8518689 Z M15.3220198,13.8327775 L12.3835502,13.8327775 L12.3835502,5.22507188 L15.3220198,5.22507188 L15.3220198,13.8327775 Z M21.9485685,5.81713629 L22.6831858,5.05807936 C21.9222999,4.21072457 21.0840048,3.43810936 20.1794898,2.75054629 L19.4298803,3.49442208 C20.4943259,4.31420357 21.3338886,5.08844163 21.9485685,5.81713629 L21.9485685,5.81713629 Z M31.1537741,10.5991949 L31.1537741,3.50960322 L24.257366,3.50960322 L24.257366,10.5991949 L31.1537741,10.5991949 Z M30.0743363,9.53651524 L25.3368037,9.53651524 L25.3368037,4.55710178 L30.0743363,4.55710178 L30.0743363,9.53651524 L30.0743363,9.53651524 Z M20.65924,15.9429557 C21.6337324,15.2598045 22.5482561,14.4855664 23.4178032,13.6050604 L23.1329516,12.4512938 C22.634281,12.9640287 22.119277,13.4602081 21.5887559,13.9390454 L21.5887559,7.24416331 L18.3804269,7.24416331 L18.3804269,8.29166187 L20.5542946,8.29166187 L20.5542946,14.333755 C20.5542946,14.5766532 20.4493493,14.7891892 20.2394586,14.9713629 L20.65924,15.9429557 Z M31.2587194,16.5350201 L32.1882353,15.8822312 C31.5585632,14.6221967 30.6440396,13.1496262 29.4596564,11.4645198 L28.5901093,12.026222 C29.7145237,13.6657849 30.599063,15.1687177 31.2587194,16.5350201 L31.2587194,16.5350201 Z M24.1674128,16.5957447 C25.1868818,15.2901668 26.0714211,13.7568718 26.8210307,11.9806786 L25.8615305,11.5100633 C25.1419053,13.2103508 24.257366,14.6829212 23.2229047,15.8974123 L24.1674128,16.5957447 Z" id="形状"></path>
            </g>
        </g>
    </g>
</svg>