<?xml version="1.0" encoding="UTF-8"?>
<svg width="30px" height="30px" viewBox="0 0 30 30" version="1.1" xmlns="http://www.w3.org/2000/svg" xmlns:xlink="http://www.w3.org/1999/xlink">
    <title>首页- FAQ导航</title>
    <g id="2.0" stroke="none" stroke-width="1" fill="none" fill-rule="evenodd">
        <g id="知识库删格" transform="translate(-229.000000, -179.000000)" fill-rule="nonzero">
            <g id="首页--FAQ导航" transform="translate(229.000000, 179.000000)">
                <path d="M0,15 C0,23.2842712 6.71572875,30 15,30 C23.2842712,30 30,23.2842712 30,15 C30,6.71572875 23.2842712,0 15,0 C6.71572875,0 0,6.71572875 0,15 Z" id="路径" fill="#DDF9FD"></path>
                <path d="M11.576,20.6 L20.636,20.6 L23,23 L23,14.6 C23,13.72 22.29,13 21.424,13 L11.576,13 C10.709,13 9.99999999,13.72 9.99999999,14.6 L9.99999999,19 C9.99999999,19.88 10.71,20.6 11.576,20.6 Z" id="路径" fill="#03A2BC"></path>
                <path d="M17.796,18.16 L16.247,18.16 L15.947,19 L15,19 L16.591,15 L17.409,15 L19,19 L18.054,19 L17.796,18.16 Z M16.462,17.52 L17.538,17.52 L17.022,16 L16.462,17.52 Z" id="形状" fill="#FFFFFF"></path>
                <path d="M18.424,15.556 L9.36399999,15.556 L6.99999999,18 L6.99999999,8.63000001 C6.99999999,7.73300001 7.71,6.99999999 8.57600001,6.99999999 L18.424,6.99999999 C19.291,6.99999999 20,7.73300001 20,8.63000001 L20,13.926 C20,14.822 19.29,15.556 18.424,15.556 Z" id="路径" fill="#1CD4F3"></path>
                <path d="M16,10.767 C16,11.1 15.91,11.367 15.773,11.6 C15.6383212,11.8447623 15.4321323,12.0425781 15.182,12.167 L15.955,12.6 L15.364,13 L14.364,12.433 C14.273,12.433 14.136,12.467 14,12.467 C13.727,12.467 13.455,12.433 13.182,12.367 C12.9524997,12.2920323 12.7371847,12.1791356 12.545,12.033 C12.3661458,11.8924242 12.2255022,11.7091404 12.136,11.5 C12.046,11.3 12,11.067 12,10.8 L12,10.667 C12,10.4 12.045,10.167 12.136,9.96699999 C12.227,9.76699998 12.364,9.567 12.546,9.43299999 C12.727,9.3 12.909,9.16699998 13.182,9.09999999 C13.409,9.033 13.682,9 14,9 C14.273,9 14.545,9.033 14.818,9.09999999 C15.045,9.16699998 15.273,9.3 15.455,9.43299999 C15.636,9.567 15.773,9.76699998 15.864,9.96699999 C15.954,10.167 16,10.4 16,10.667 L16,10.767 L16,10.767 Z M15,10.6 C15,10.233 14.91,9.96699999 14.727,9.80000001 C14.545,9.6 14.318,9.53300001 14,9.53300001 C13.682,9.53300001 13.41,9.633 13.273,9.80000001 C13.091,10 13,10.267 13,10.6 L13,10.767 C13,10.933 13.045,11.1 13.09,11.233 C13.136,11.367 13.182,11.5 13.273,11.567 C13.363,11.667 13.455,11.733 13.591,11.767 C13.727,11.8 13.864,11.833 14,11.833 C14.318,11.833 14.59,11.733 14.727,11.567 C14.909,11.367 15,11.1 15,10.733 L15,10.6 Z" id="形状" fill="#FFFFFF"></path>
            </g>
        </g>
    </g>
</svg>