<?xml version="1.0" encoding="UTF-8"?>
<svg width="24px" height="24px" viewBox="0 0 24 24" version="1.1" xmlns="http://www.w3.org/2000/svg" xmlns:xlink="http://www.w3.org/1999/xlink">
    <title>电话</title>
    <g id="2.0" stroke="none" stroke-width="1" fill="none" fill-rule="evenodd">
        <g id="通用基础-删格" transform="translate(-287.000000, -220.000000)">
            <g id="电话" transform="translate(287.000000, 220.000000)">
                <rect id="矩形" x="0" y="0" width="24" height="24"></rect>
                <path d="M4.907,2.705 L4.70504684,2.84094992 C4.33801673,3.10077869 3.99834746,3.39772677 3.69149354,3.72726586 L3.444,4.002 L3.57200377,3.88834058 C2.43523622,4.85335147 1.85660591,6.32307245 2.03038693,7.80404734 C2.11789673,8.86782492 2.4061325,9.9739297 2.87574067,11.0068852 L3.08390134,11.4428083 C4.99651829,15.3429497 7.96259674,18.6130887 11.6457664,20.888467 L12.03,21.121 L11.947159,21.0669064 C13.5850521,22.1827787 15.4888009,22.8458822 17.4655088,22.9890282 L17.6099633,22.9942518 L17.793,22.994 L17.6680896,22.9882933 C18.5920526,23.059775 19.5115398,22.8023186 20.2640385,22.2614277 C20.9620304,21.7335175 21.5555679,21.1386129 22.0548511,20.4743045 L22.1917836,20.2822173 C23.2827009,18.8898647 23.2616087,16.9377905 22.1665708,15.572138 L21.6832774,15.0016387 L21.5688525,14.8778482 L21.318306,14.6392178 C20.8925226,14.2507922 20.4262461,13.9092175 19.9275097,13.6203786 L19.661,13.471 L19.5724913,13.4136673 C18.073839,12.4897315 16.158584,12.6699536 14.8603856,13.8118742 C14.8030637,13.8643838 14.7166812,13.8692324 14.6538291,13.8234866 C14.6342967,13.8092612 14.619767,13.7986315 14.6102399,13.7915976 C13.3382783,12.8524952 12.2196655,11.742248 11.2797409,10.4888009 L11.2009156,10.3810134 C11.1546215,10.3177411 11.1590727,10.230674 11.2115643,10.1724403 C11.2115643,10.1724403 11.2115643,10.1724403 11.2115643,10.1724403 C12.2281121,9.04469081 12.5006399,7.40577701 11.8634618,5.99271549 L11.735616,5.69969531 C11.2865174,4.72980975 10.6099843,3.83160837 9.7666837,3.10110313 L9.61008741,2.97323765 C8.34077411,1.81914887 6.45808638,1.68138956 5.03944196,2.6138306 L4.907,2.705 Z M5.81296047,4.50752558 L6.05573904,4.34257575 C6.67939115,3.88020374 7.52696126,3.88967861 8.13758223,4.34795699 L8.26463485,4.45302054 C9.04846681,5.07576268 9.65975684,5.88886616 10.0402472,6.8148399 C10.3824252,7.57368354 10.1815217,8.46735776 9.54749357,9.00674421 C9.41375131,9.14202999 9.28592769,9.28298068 9.16436927,9.42919719 L8.98677386,9.65242144 L8.98238556,9.65842649 C8.78773553,9.92478968 8.76301915,10.2791572 8.91880784,10.5699628 L8.91880784,10.5699628 L8.91880784,10.5699628 C9.05218586,10.8052427 9.19971665,11.0322131 9.360587,11.249623 C10.6110421,13.0257367 12.1707747,14.5624474 13.9652852,15.7863552 C14.0800282,15.8665592 14.1976928,15.9424567 14.3180325,16.0138952 L14.5005176,16.1176896 C14.7984924,16.2820894 15.1663303,16.2497753 15.4310776,16.0359409 L15.4350505,16.032732 L15.4350505,16.032732 L15.6312676,15.8641257 L15.8173594,15.6844061 L15.9617872,15.5399783 C16.5804338,14.7930179 17.6415376,14.610015 18.4690019,15.0841497 L18.6974197,15.2256355 C19.1458014,15.4601808 19.5626233,15.7498736 19.9382984,16.0876911 L20.1586892,16.2961004 L20.5409981,16.7463753 C21.0852023,17.3532596 21.147545,18.2442345 20.7113508,18.9171892 L20.6174599,19.0487244 C20.1981966,19.6557448 19.684841,20.1920436 19.0967201,20.6374302 C18.7734907,20.8697653 18.3874989,20.9955718 17.9921899,20.9998852 L17.8223571,20.9942518 L17.6099633,20.9942518 C15.984877,20.876569 14.4197718,20.3314199 13.0732311,19.4140418 C9.40983006,17.2555235 6.48858472,14.0350431 4.69641854,10.1791581 C4.32183372,9.35521709 4.09192131,8.4729282 4.0167583,7.57096193 C3.92835557,6.81758724 4.19326334,6.06949705 4.7272735,5.54058001 L4.86633361,5.41304064 L5.15518921,5.09020202 C5.35541489,4.87517401 5.5757147,4.68008287 5.81296047,4.50752558 Z" id="路径" fill="#5D6E7F" fill-rule="nonzero"></path>
            </g>
        </g>
    </g>
</svg>