<?xml version="1.0" encoding="UTF-8"?>
<svg width="40px" height="40px" viewBox="0 0 40 40" version="1.1" xmlns="http://www.w3.org/2000/svg" xmlns:xlink="http://www.w3.org/1999/xlink">
    <title>new</title>
    <g id="2.0" stroke="none" stroke-width="1" fill="none" fill-rule="evenodd">
        <g id="知识库删格" transform="translate(-65.000000, -174.000000)">
            <g id="new" transform="translate(65.000000, 174.000000)">
                <rect id="矩形" x="0" y="0" width="40" height="40"></rect>
                <path d="M15,13 L30,13 C33.8659932,13 37,16.1340068 37,20 C37,23.8659932 33.8659932,27 30,27 L3,27 L3,27 L3,25 C3,18.372583 8.372583,13 15,13 Z" id="矩形-4" fill="#FF3131"></path>
                <path d="M11.088,24 L11.088,20.268 C11.136,19.772 11.304,19.392 11.592,19.128 C11.848,18.888 12.144,18.768 12.48,18.768 C13.416,18.768 13.884,19.276 13.884,20.292 L13.884,20.292 L13.884,24 L15.252,24 L15.252,20.172 C15.252,18.476 14.476,17.628 12.924,17.628 C12.548,17.628 12.208,17.704 11.904,17.856 C11.608,18 11.336,18.22 11.088,18.516 L11.088,18.516 L11.088,17.796 L9.72,17.796 L9.72,24 L11.088,24 Z M19.392,24.168 C20.208,24.168 20.896,23.932 21.456,23.46 C21.888,23.076 22.176,22.592 22.32,22.008 L22.32,22.008 L20.952,22.008 C20.784,22.36 20.6,22.612 20.4,22.764 C20.136,22.956 19.796,23.052 19.38,23.052 C18.884,23.052 18.504,22.9 18.24,22.596 C17.976,22.3 17.82,21.86 17.772,21.276 L17.772,21.276 L22.416,21.276 C22.416,20.164 22.168,19.292 21.672,18.66 C21.136,17.972 20.356,17.628 19.332,17.628 C18.404,17.628 17.676,17.944 17.148,18.576 C16.604,19.192 16.332,19.964 16.332,20.892 C16.332,21.924 16.62,22.732 17.196,23.316 C17.74,23.884 18.472,24.168 19.392,24.168 Z M20.988,20.244 L17.796,20.244 C17.876,19.756 18.044,19.384 18.3,19.128 C18.556,18.872 18.912,18.744 19.368,18.744 C20.328,18.744 20.868,19.244 20.988,20.244 L20.988,20.244 Z M26.196,24 L27.444,19.464 L28.68,24 L29.952,24 L32.04,17.796 L30.528,17.796 L29.292,22.38 L28.068,17.796 L26.808,17.796 L25.584,22.38 L24.348,17.796 L22.836,17.796 L24.924,24 L26.196,24 Z" fill="#FFFFFF" fill-rule="nonzero"></path>
            </g>
        </g>
    </g>
</svg>