<?xml version="1.0" encoding="UTF-8"?>
<svg width="16px" height="16px" viewBox="0 0 16 16" version="1.1" xmlns="http://www.w3.org/2000/svg" xmlns:xlink="http://www.w3.org/1999/xlink">
    <title>信息-小</title>
    <g id="组件" stroke="none" stroke-width="1" fill="none" fill-rule="evenodd">
        <g transform="translate(-2125.000000, -91.000000)" id="编组-44">
            <g transform="translate(2109.000000, 79.000000)">
                <g id="信息-小" transform="translate(16.000000, 12.000000)">
                    <polygon id="路径" points="0 0 16 0 16 16 0 16"></polygon>
                    <path d="M8,1 C11.8661,1 15,4.1339 15,8 C15,11.8661 11.8661,15 8,15 C4.1339,15 1,11.8661 1,8 C1,4.1339 4.1339,1 8,1 Z M7.98291984,6.97447386 C7.56870628,6.97447386 7.23291984,7.3102603 7.23291984,7.72447386 L7.23291984,11.2244739 C7.23291984,11.6386874 7.56870628,11.9744739 7.98291984,11.9744739 C8.3971334,11.9744739 8.73291984,11.6386874 8.73291984,11.2244739 L8.73291984,7.72447386 C8.73291984,7.3102603 8.3971334,6.97447386 7.98291984,6.97447386 Z M7.98291984,3.97447386 C7.43063509,3.97447386 6.98291984,4.42218911 6.98291984,4.97447386 C6.98291984,5.52675861 7.43063509,5.97447386 7.98291984,5.97447386 C8.53520459,5.97447386 8.98291984,5.52675861 8.98291984,4.97447386 C8.98291984,4.42218911 8.53520459,3.97447386 7.98291984,3.97447386 Z" id="形状结合" fill="#0569FF" fill-rule="nonzero"></path>
                </g>
            </g>
        </g>
    </g>
</svg>