<?xml version="1.0" encoding="UTF-8"?>
<svg width="50px" height="50px" viewBox="0 0 50 50" version="1.1" xmlns="http://www.w3.org/2000/svg" xmlns:xlink="http://www.w3.org/1999/xlink">
    <title>机器人客服</title>
    <defs>
        <filter x="-41.4%" y="-42.9%" width="182.8%" height="185.7%" filterUnits="objectBoundingBox" id="filter-1">
            <feOffset dx="0" dy="2" in="SourceAlpha" result="shadowOffsetOuter1"></feOffset>
            <feGaussianBlur stdDeviation="2" in="shadowOffsetOuter1" result="shadowBlurOuter1"></feGaussianBlur>
            <feColorMatrix values="0 0 0 0 0.418036646   0 0 0 0 0.556664062   0 0 0 0 0.759273363  0 0 0 0.597829539 0" type="matrix" in="shadowBlurOuter1" result="shadowMatrixOuter1"></feColorMatrix>
            <feMerge>
                <feMergeNode in="shadowMatrixOuter1"></feMergeNode>
                <feMergeNode in="SourceGraphic"></feMergeNode>
            </feMerge>
        </filter>
    </defs>
    <g id="组件" stroke="none" stroke-width="1" fill="none" fill-rule="evenodd">
        <g transform="translate(-192.000000, -935.000000)" fill-rule="nonzero" id="机器人客服">
            <g transform="translate(192.000000, 935.000000)">
                <path d="M0,25 C0,38.8071187 11.1928813,50 25,50 C38.8071187,50 50,38.8071187 50,25 C50,11.1928813 38.8071187,0 25,0 C11.1928813,0 0,11.1928813 0,25 Z" id="路径" fill="#BFD9FF"></path>
                <g id="编组-30" filter="url(#filter-1)" transform="translate(11.000000, 11.000000)">
                    <path d="M25.6435527,13.0000008 C27.2670677,13.0000008 29,15.0141738 29,17.5029668 C29,19.9902766 26.9299444,22.0000008 25.307908,22.0000008 C25.334523,21.9911001 26.8013053,19.7603821 26.8013053,17.4258409 C26.8013053,15.0912996 25.6435527,12.9985184 25.6435527,13.0000008 L25.6435527,13.0000008 Z M3.35496868,13.0000008 C3.35496868,12.9985184 2.19869478,15.0912996 2.19869478,17.4258409 C2.19869478,19.2738958 3.11839088,21.0566903 3.51465864,21.7241258 L3.62111866,21.8961759 C3.64218514,21.9324961 3.66590799,21.967199 3.69209199,22.0000008 C2.07005558,22.0000008 0,19.9902766 0,17.5029668 C0,15.0141738 1.73293222,13.0000008 3.35644726,13.0000008 L3.35496868,13.0000008 Z" id="形状" fill="#0569FF"></path>
                    <path d="M14.5007346,28 C21.3285336,27.9562726 27,23.5217129 27,18 C27,12.4767793 21.4019983,8 14.5007346,8 C7.59653244,8 2,12.4782871 2,18 C2,23.5217129 7.63767265,27.8914355 14.5007346,28 Z" id="路径" fill="#FFFFFF"></path>
                    <path d="M13.9992862,0 C14.4486828,0 14.8129907,0.38860938 14.8129907,0.867983345 L14.8129907,6.13222615 C14.8128823,6.61151829 14.4486061,7 13.9992862,7 C13.5499663,7 13.1856902,6.61151829 13.1855817,6.13222615 L13.1855817,0.867983345 C13.1855817,0.3886094 13.5498896,0 13.9992862,0 L13.9992862,0 Z M10.7444682,1.0507167 C11.1938648,1.0507167 11.5581727,1.43932608 11.5581727,1.91870004 L11.5581727,5.0815095 C11.5581727,5.39161009 11.4030815,5.67815487 11.1513205,5.83320517 C10.8995594,5.98825547 10.589377,5.98825547 10.337616,5.83320517 C10.0858549,5.67815487 9.93076372,5.39161009 9.93076372,5.0815095 L9.93076372,1.91870004 C9.93076372,1.43932608 10.2950716,1.0507167 10.7444682,1.0507167 L10.7444682,1.0507167 Z M17.2555317,1.0507167 C17.7049283,1.0507167 18.0692363,1.43932608 18.0692363,1.91870004 L18.0692363,5.0815095 C18.0693064,5.39165997 17.9142306,5.67828285 17.6624407,5.8333797 C17.4106508,5.98847655 17.1004127,5.98847655 16.8486228,5.8333797 C16.5968329,5.67828285 16.4417571,5.39165997 16.4418272,5.0815095 L16.4418272,1.91870004 C16.4418272,1.4393261 16.8061352,1.0507167 17.2555317,1.0507167 L17.2555317,1.0507167 Z M7.8137045,2.0999106 C8.26310109,2.0999106 8.62740901,2.48851998 8.62740901,2.96789394 L8.62740901,4.0323156 C8.62740901,4.51168956 8.26310109,4.90029894 7.8137045,4.90029894 C7.36430792,4.90029894 7,4.51168956 7,4.0323156 L7,2.96789394 C7,2.48851998 7.36430792,2.0999106 7.8137045,2.0999106 Z M20.1862955,2.0999106 C20.6356921,2.0999106 21,2.48851998 21,2.96789394 L21,4.0323156 C21,4.51168956 20.6356921,4.90029894 20.1862955,4.90029894 C19.7368989,4.90029894 19.372591,4.51168956 19.372591,4.0323156 L19.372591,2.96789394 C19.372591,2.48851998 19.7368989,2.0999106 20.1862955,2.0999106 Z" id="形状" fill="#FFFFFF"></path>
                </g>
                <path d="M28.5353894,34.9226099 C31.7480871,34.5838426 32.8945509,30.9531713 33,27.6812789 C33.0143953,24.1592419 29.4522717,23 25.0007001,23 C20.5476845,23 17,24.2750231 17,27.6812789 C17,30.7201794 18.032395,34.247934 21.0068477,34.8325578 C21.6436115,34.9626331 28.0083627,35.0841319 28.5353894,34.9226099 Z" id="路径" fill="#0569FF"></path>
                <path d="M22.1389882,28 C22.3947715,28 22.5993982,28.1854689 22.5993982,28.414259 L22.5993982,30.5857344 C22.5993982,30.8145245 22.3932669,31 22.1389882,31 L21.4619146,31 C21.3395458,31.0003532 21.2220518,30.9568671 21.1353825,30.8791394 C21.0487132,30.8014118 21,30.6958377 21,30.5857344 L21,28.414259 C21,28.1854689 21.2061313,28 21.46041,28 L22.1389882,28 Z M28.53959,28 C28.7938687,28 29,28.1854689 29,28.414259 L29,30.5857344 C29,30.8145245 28.7938687,31 28.53959,31 L27.8610118,31 C27.6067344,31 27.4006018,30.8145234 27.4006018,30.5857344 L27.4006018,28.414259 C27.4006018,28.1854689 27.6067331,28 27.8610118,28 L28.5380854,28 L28.53959,28 Z" id="形状" fill="#FCC46E"></path>
            </g>
        </g>
    </g>
</svg>