<?xml version="1.0" encoding="UTF-8"?>
<svg width="18px" height="18px" viewBox="0 0 18 18" version="1.1" xmlns="http://www.w3.org/2000/svg" xmlns:xlink="http://www.w3.org/1999/xlink">
    <title>个人中心-任务</title>
    <g id="2.0" stroke="none" stroke-width="1" fill="none" fill-rule="evenodd">
        <g id="知识库删格" transform="translate(-169.000000, -69.000000)">
            <g id="个人中心-任务" transform="translate(169.000000, 69.000000)">
                <circle id="蒙版" fill="#D0F8F5" cx="9" cy="9" r="9"></circle>
                <g id="任务" transform="translate(4.000000, 4.000000)" fill="#21B8AB" fill-rule="nonzero">
                    <path d="M1.94461539,1.17427623 L1.94461539,1.3991849 C1.94567618,1.7727744 2.27175786,2.07488307 2.67307693,2.0740911 L7.32692307,2.0740911 C7.51971527,2.07456652 7.704814,2.00372747 7.84149931,1.87715787 C7.97818463,1.75058827 8.05525987,1.57865614 8.05576923,1.3991849 L8.05576923,1.17427623 L9.02807692,1.17427623 C9.2851332,1.17366987 9.53194507,1.26809155 9.71421622,1.43682866 C9.89648737,1.60556576 9.99928695,1.83479609 10,2.0740911 L10,9.10023979 C9.99928707,9.33959702 9.89643466,9.56888174 9.71408026,9.73762914 C9.53172585,9.90637654 9.28481512,10.0007562 9.02769231,9.99999544 L0.972307695,9.99999544 C0.714615388,9.99999544 0.466923081,9.90547271 0.284615383,9.73647763 C0.102540246,9.56812683 0.00010230822,9.33913396 0,9.10023979 L0,2.0740911 C0.000712933656,1.83473387 0.103565339,1.60544915 0.285919745,1.43670175 C0.468274151,1.26795435 0.715184876,1.17357472 0.972307695,1.17427623 L1.94461539,1.17427623 Z M3.4530277,3.87391436 C3.36185603,3.9630572 3.31040738,4.08418657 3.31,4.21065507 C3.31030553,4.33718923 3.36170927,4.45841581 3.45289201,4.54764044 C3.54407475,4.63686508 3.66755921,4.68677107 3.79615385,4.68637649 L7.70769231,4.68637649 C7.83635347,4.68687175 7.95993684,4.63701026 8.05120286,4.54777472 C8.14246889,4.45853918 8.19392545,4.33725504 8.19423077,4.21065507 C8.1938234,4.08418657 8.14237474,3.9630572 8.05120307,3.87391436 C7.9600314,3.78477152 7.83660511,3.73491743 7.70807692,3.73531476 L3.79615385,3.73531476 C3.66762566,3.73491743 3.54419938,3.78477152 3.4530277,3.87391436 Z M1.91653847,3.97298731 C1.82961717,4.1200258 1.82961717,4.30166277 1.91653847,4.44870126 C2.0267698,4.63554025 2.25051684,4.72658518 2.46266374,4.67092516 C2.67481065,4.61526514 2.82278676,4.4266929 2.82384616,4.21065507 C2.82299773,3.9474461 2.60557315,3.73469154 2.33807692,3.73531679 C2.16384615,3.73531679 2.00346154,3.826148 1.91653847,3.97298731 Z M1.91653847,5.87546466 C1.82976624,6.02240737 1.82976624,6.20385745 1.91653847,6.35080017 C2.02673308,6.53758041 2.25037808,6.62863588 2.46247965,6.57307622 C2.67458122,6.51751657 2.82261514,6.32910041 2.82384616,6.11313241 C2.82354063,5.98659825 2.77213689,5.86537167 2.68095415,5.77614704 C2.58977141,5.6869224 2.46628695,5.63701641 2.33769231,5.63741367 C2.16384615,5.63741367 2.00346154,5.72824691 1.91653847,5.87546466 Z M3.45289201,6.45011779 C3.54407475,6.53934242 3.66755921,6.58924841 3.79615385,6.58885383 L7.70769231,6.58885383 C7.83635347,6.5893491 7.95993684,6.5394876 8.05120286,6.45025206 C8.14246889,6.36101653 8.19392545,6.23973239 8.19423077,6.11313241 C8.19392524,5.98659825 8.1425215,5.86537167 8.05133876,5.77614704 C7.96015603,5.6869224 7.83667157,5.63701641 7.70807692,5.63741367 L3.79615385,5.63741367 C3.66755921,5.63701641 3.54407475,5.6869224 3.45289201,5.77614704 C3.36170927,5.86537167 3.31030553,5.98659825 3.31,6.11313241 C3.31030553,6.23966658 3.36170927,6.36089315 3.45289201,6.45011779 Z M5,0 C5.44086786,0.000418222666 5.82043357,0.306326189 5.90769231,0.731547392 L7.22,0.731547392 C7.52800495,0.731547392 7.7776923,0.977233443 7.7776923,1.28030255 C7.7776923,1.58337165 7.52800495,1.8290577 7.22,1.8290577 L2.78,1.8290577 C2.47199505,1.8290577 2.2223077,1.58337165 2.2223077,1.28030255 C2.2223077,0.977233443 2.47199505,0.731547392 2.78,0.731547392 L4.09269231,0.731547392 C4.17956643,0.306326189 4.55913214,0.000418222666 5,0 Z" id="形状"></path>
                </g>
            </g>
        </g>
    </g>
</svg>