<?xml version="1.0" encoding="UTF-8"?>
<svg width="24px" height="24px" viewBox="0 0 24 24" version="1.1" xmlns="http://www.w3.org/2000/svg" xmlns:xlink="http://www.w3.org/1999/xlink">
    <title>上传2</title>
    <g id="2.0" stroke="none" stroke-width="1" fill="none" fill-rule="evenodd">
        <g id="通用基础-删格" transform="translate(-426.000000, -123.000000)">
            <g id="上传2" transform="translate(426.000000, 123.000000)">
                <polygon id="路径" points="0 0 24 0 24 24 0 24"></polygon>
                <path d="M0.999998986,14.5 C0.99874805,12.254398 2.15738871,10.1674078 4.064,8.981 C4.57605709,4.98836067 7.97465886,1.99779418 11.999999,1.99779418 C16.0253411,1.99779418 19.4239429,4.98836067 19.936,8.981 C22.3220747,10.4654675 23.4839964,13.3151995 22.816143,16.0448456 C22.1482896,18.7744918 19.801912,20.7658599 16.999999,20.981 L6.99999899,21 C3.644,20.726 0.999998986,17.922 0.999998986,14.5 Z M20.874461,15.5682403 C21.3362822,13.677958 20.5308047,11.7049774 18.878,10.678 L18.071,10.175 L17.951,9.233 C17.5643042,6.24098398 15.0164013,4.00118707 11.9995,4.00118707 C8.98259869,4.00118707 6.4346958,6.24098398 6.048,9.233 L5.928,10.175 L5.123,10.678 C3.47028502,11.7048556 2.66473426,13.677614 3.12630751,15.5678123 C3.58788077,17.4580105 5.21201652,18.8374564 7.152,18.987 L7.325,19 L16.675,19 L16.848,18.987 C18.7881531,18.8378303 20.4126397,17.4585225 20.874461,15.5682403 Z M13,13 L13,16 C13,16.5522847 12.5522847,17 12,17 C11.4477153,17 11,16.5522847 11,16 L11,13 L11,13 L8.41612497,13 C8.30566802,13 8.21612497,12.9104569 8.21612497,12.8 C8.21612497,12.7545857 8.23158112,12.7105236 8.25995121,12.675061 L11.8438262,8.1952172 C11.9128281,8.10896482 12.0386866,8.09498054 12.124939,8.16398245 C12.136472,8.1732088 12.1469474,8.18368426 12.1561738,8.1952172 L15.7400488,12.675061 C15.8090507,12.7613134 15.7950664,12.8871719 15.708814,12.9561738 C15.6733514,12.9845438 15.6292893,13 15.583875,13 L13,13 L13,13 Z" id="形状" fill="#5D6E7F" fill-rule="nonzero"></path>
            </g>
        </g>
    </g>
</svg>