<?xml version="1.0" encoding="UTF-8"?>
<svg width="30px" height="30px" viewBox="0 0 30 30" version="1.1" xmlns="http://www.w3.org/2000/svg" xmlns:xlink="http://www.w3.org/1999/xlink">
    <title>首页-文库</title>
    <g id="2.0" stroke="none" stroke-width="1" fill="none" fill-rule="evenodd">
        <g id="知识库删格" transform="translate(-132.000000, -179.000000)">
            <g id="首页-文库" transform="translate(132.000000, 179.000000)">
                <circle id="椭圆形备份-2" fill="#FFFAE8" cx="15" cy="15" r="15"></circle>
                <g id="编组" transform="translate(7.000000, 7.000000)" fill-rule="nonzero">
                    <path d="M2.34482367,2 C2.15422294,2 2,2.22387243 2,2.5 C2,2.77612757 2.15422294,3 2.34482367,3 L11.6551763,3 C11.8457771,3 12,2.77612757 12,2.5 C12,2.22387243 11.8457771,2 11.6551763,2 L2.34482367,2 Z" id="路径" fill="#EF620B"></path>
                    <path d="M14.3384176,7.99992349 L15.8503769,6.52028194 C15.9963248,6.37721163 16.0402043,6.16220427 15.9610831,5.97536524 C15.8819619,5.78852622 15.6957911,5.66660957 15.4893409,5.66660957 L11.9551178,5.66660957 L11.8251396,4.58063933 C11.8251396,4.30443616 11.5964139,4.08064219 11.3144991,4.08064219 L2.08278483,4.08064219 C1.42587926,4.08064219 0.926173741,3.14321359 0.926173741,2.5 C0.926173741,1.85678639 1.55585744,1 2.21276299,1 L11.2742576,1 C11.5561723,1 11.7848981,0.776200317 11.7848981,0.5 C11.7848981,0.223793976 11.5561723,0 11.2742576,0 L2.21276299,0 C0.992699581,0 0,0.97199035 0,2.16664212 C0,2.18553062 0.000261182407,2.2043643 0.000746245867,2.2231432 C0.000261182407,2.23203942 0,2.49099417 0,2.5 L0,13.750022 C0,14.8805734 0.870594363,15.8481979 1.95304921,15.9836507 C1.99448476,15.9942823 2.03795385,16 2.08278483,16 L11.4444773,16 C11.726392,16 11.9551178,15.7760416 11.9551178,15.5 L11.9551178,10.3333836 L15.4893596,10.3333836 C15.6958098,10.3333836 15.8819806,10.2116496 15.9611018,10.0247923 C16.040223,9.83795326 15.9963435,9.62278149 15.8503955,9.47987559 L14.3384176,7.99992349 Z" id="形状" fill="#F8961C"></path>
                </g>
            </g>
        </g>
    </g>
</svg>