<?xml version="1.0" encoding="UTF-8"?>
<svg width="24px" height="24px" viewBox="0 0 24 24" version="1.1" xmlns="http://www.w3.org/2000/svg" xmlns:xlink="http://www.w3.org/1999/xlink">
    <title>删除</title>
    <defs>
        <rect id="path-1" x="0" y="0" width="24" height="24"></rect>
    </defs>
    <g id="2.0" stroke="none" stroke-width="1" fill="none" fill-rule="evenodd">
        <g id="通用基础-删格" transform="translate(-496.000000, -123.000000)">
            <g id="删除" transform="translate(496.000000, 123.000000)">
                <mask id="mask-2" fill="white">
                    <use xlink:href="#path-1"></use>
                </mask>
                <g id="蒙版"></g>
                <g mask="url(#mask-2)" fill="#5D6E7F" id="形状结合">
                    <g transform="translate(2.000000, 2.000000)">
                        <path d="M13,0 C14.2326696,0 14.9657629,0.899437952 15.0271799,2.05186917 L15.0313755,2.21052632 L15.0313755,3.98943841 L18.8333333,3.98943841 C19.4776833,3.98943841 20,4.39812354 20,5.00853827 C20,5.57825869 19.5450041,5.95559925 18.9604576,6.00337923 L18.8333333,6.00852351 L18.0448969,6.00852351 L18.0448969,16.6842105 C18.0448969,18.4523724 17.1637776,19.8972097 15.3631152,19.9947512 L15.1666667,20 L4.83333333,20 C2.96937708,20 2.08662821,18.8276182 2.02595222,17.1018539 L2.02258537,16.9078564 L2.02258537,6.00852351 L1.16666667,6.00852351 C0.52234,6.00852351 0,5.61895301 0,5.00853827 C0,4.43881785 0.455016178,4.04482633 1.03954645,3.99482622 L1.16666667,3.98943841 L5.03518798,3.98943841 L5.03518798,2.21052632 C5.03518798,1.01166006 5.65381777,0.083791751 6.83539213,0.00537383836 L7,0 L13,0 Z M16.0313755,6.00852351 L3.97454874,6.00852351 L3.97454874,16.9078564 C3.97454874,17.5182933 4.49688874,18.0131196 5.14121541,18.0131196 L14.8647089,18.0131196 C15.5090589,18.0131196 16.0313755,17.5182933 16.0313755,16.9078564 L16.0313755,6.00852351 Z M8.04787402,9 C8.60015877,9 9.04787402,9.44771525 9.04787402,10 L9.04787402,14 C9.04787402,14.5522847 8.60015877,15 8.04787402,15 C7.49558927,15 7.04787402,14.5522847 7.04787402,14 L7.04787402,10 C7.04787402,9.44771525 7.49558927,9 8.04787402,9 Z M11.9613093,9 C12.5135941,9 12.9613093,9.44771525 12.9613093,10 L12.9613093,14 C12.9613093,14.5522847 12.5135941,15 11.9613093,15 C11.4090246,15 10.9613093,14.5522847 10.9613093,14 L10.9613093,10 C10.9613093,9.44771525 11.4090246,9 11.9613093,9 Z M13,1.99351457 L7,1.99351457 L7,3.98943841 L13,3.98943841 L13,1.99351457 Z"></path>
                    </g>
                </g>
            </g>
        </g>
    </g>
</svg>