<?xml version="1.0" encoding="UTF-8"?>
<svg width="24px" height="24px" viewBox="0 0 24 24" version="1.1" xmlns="http://www.w3.org/2000/svg" xmlns:xlink="http://www.w3.org/1999/xlink">
    <title>赞</title>
    <g id="2.0" stroke="none" stroke-width="1" fill="none" fill-rule="evenodd">
        <g id="通用基础-删格" transform="translate(-322.000000, -220.000000)">
            <g id="赞" transform="translate(322.000000, 220.000000)">
                <rect id="矩形" x="0" y="0" width="24" height="24"></rect>
                <path d="M13.7859133,2.30926389e-14 L14.1363923,0.00454569628 C15.9118465,0.175672827 17.2242349,1.73557309 17.0873181,3.53480116 C17.0463948,3.95720238 16.9943513,4.37830343 16.9312648,4.79766891 L16.8283627,5.42536105 L16.7104753,6.03662487 L18.4314386,6.03753935 C21.0314946,6.03753935 22.0777158,7.30182553 22.0077119,9.4850112 L21.9978922,9.69236641 L21.9816122,9.90504255 L20.9327401,16.0529911 C20.5682228,18.5669039 19.6311297,19.9076968 17.4644986,19.9915836 L17.2437127,19.9957795 L4.37022136,19.9922857 C3.7676698,20.0427863 3.17108752,19.8416505 2.72211289,19.4366315 C2.31803571,19.0721143 2.065956,18.5717114 2.01096784,18.0205362 L2,17.8350474 L2,8.17903795 C2.0118148,7.5744857 2.27313825,7.00170647 2.72211289,6.59668739 C3.12120145,6.23667043 3.63691828,6.03774649 4.11112863,6.03100018 L4.28670304,6.03753935 L6.87877847,6.03792217 C7.52725483,6.05587061 8.17546699,6.00579634 8.81281933,5.88874033 L8.9114753,5.86762487 L9.11816644,5.63280348 C9.3710489,5.3268527 9.59154518,4.99543022 9.77614617,4.64376553 L9.90781172,4.37630331 L10.0256876,4.10174052 L10.773768,2.23946457 C11.1686267,0.979803519 12.2941926,0.0990564793 13.5984368,0.00764485728 L13.7859133,2.30926389e-14 Z M4.20318473,8.0340456 C4.15148057,8.02971221 4.10028863,8.04697141 4.0617627,8.08172556 C4.03607875,8.104895 4.0175513,8.13446233 4.00781255,8.16127131 L4,8.19827147 L3.99981502,17.8158139 C4.00081296,17.8676897 4.02323678,17.9168391 4.0617627,17.9515933 C4.09258344,17.9793966 4.13151043,17.9960032 4.21508231,17.9975262 L6.506,17.995 L6.506,8.037 L4.20318473,8.0340456 Z M14.040452,1.99986556 L13.8091027,1.99986556 C13.3348595,2.00536464 12.9131937,2.2899398 12.707179,2.77328044 L12.6564624,2.90996835 L11.8829963,4.84363233 C11.5290371,5.73099415 11.0142427,6.54417868 10.3655364,7.24272193 L10.116047,7.4992228 L9.91369545,7.69786041 L9.63719592,7.76071775 C9.26292888,7.84580083 8.88492381,7.91165265 8.50651311,7.95815283 L8.506,17.995 L17.2437127,17.9957795 C18.2048951,17.9957795 18.6024577,17.613959 18.8580362,16.3294245 L18.8936271,16.1397224 L18.9573242,15.7413656 L19.999799,9.64809682 L20.0119107,9.49787555 L20.0249372,9.22437211 C20.0420133,8.32822137 19.7429246,8.06151286 18.6004443,8.03911818 L18.4314386,8.03753935 L14.8062407,8.03753935 C14.5300983,8.03753935 14.3062407,7.81368173 14.3062407,7.53753935 C14.3062407,7.49502194 14.3116638,7.45267816 14.3223787,7.41153304 L14.485402,6.78552672 L14.485402,6.78552672 C14.7796594,5.65558343 14.9840429,4.50412707 15.0948523,3.36261085 C15.1442071,2.71301354 14.6979153,2.13828643 14.1510491,2.01779497 L14.040452,1.99986556 Z" id="形状" fill="#5D6E7F" fill-rule="nonzero"></path>
            </g>
        </g>
    </g>
</svg>