<?xml version="1.0" encoding="UTF-8"?>
<svg width="24px" height="24px" viewBox="0 0 24 24" version="1.1" xmlns="http://www.w3.org/2000/svg" xmlns:xlink="http://www.w3.org/1999/xlink">
    <title>刷新</title>
    <g id="2.0" stroke="none" stroke-width="1" fill="none" fill-rule="evenodd">
        <g id="通用基础-删格" transform="translate(-183.000000, -399.000000)">
            <g id="刷新" transform="translate(183.000000, 399.000000)">
                <polygon id="路径" points="0 0 24 0 24 24 0 24"></polygon>
                <path d="M6.25488332,3.80714044 C6.3071493,3.77500655 6.35480055,3.74435607 6.39783708,3.71518901 C8.04354629,2.59984589 9.99399647,1.9971999 12,1.99984355 C17.523,1.99984355 22,6.477 22,12 C22,13.943085 21.4455583,15.7570761 20.4872321,17.2914161 C20.4872321,17.2914161 20.4872321,17.2914161 20.4872321,17.2914161 C20.3930508,17.4422062 20.1944622,17.4880967 20.043672,17.3939154 C19.9974433,17.3650416 19.9593029,17.3249025 19.9328313,17.2772575 L17.4128583,12.7428861 C17.278716,12.5015141 17.3656429,12.1970996 17.6070149,12.0629573 C17.6813097,12.021668 17.7649039,12 17.849901,12 L20,12 L20,12 C20.0002633,8.79393457 18.0864469,5.89737438 15.1371796,4.64012399 C12.5139312,3.52185294 9.52222563,3.89263758 7.26530751,5.55059024 C7.26530751,5.55059024 7.26530751,5.55059024 7.26530751,5.55059024 C6.86756363,5.84277653 6.30826473,5.75720519 6.01607845,5.35946132 C5.99374965,5.32906584 5.97336754,5.29728726 5.95501791,5.26433649 L5.89933708,5.16408866 C5.63573494,4.68949905 5.79243278,4.09150094 6.25488332,3.80714044 Z M17.6112534,20.2786429 C15.9636385,21.3979323 14.0096983,22.0028068 12,22 C6.477,22 2,17.523 2,12 C2,10.12572 2.51587117,8.37155323 3.4124904,6.8726229 C3.4124904,6.8726229 3.4124904,6.8726229 3.4124904,6.8726229 C3.53434392,6.66891331 3.79826497,6.60255585 4.00197456,6.72440937 C4.06683067,6.76320453 4.12031098,6.8184147 4.15704358,6.88446086 L6.58714169,11.2571139 C6.72128399,11.4984859 6.63435711,11.8029004 6.39298508,11.9370427 C6.31869029,11.978332 6.23509615,12 6.15009897,12 L4,12 L4,12 C3.99973669,15.2060654 5.91355315,18.1026256 8.86282036,19.359876 C11.474996,20.4734268 14.4525248,20.1104661 16.7060738,18.4703357 C16.7175316,18.4619967 16.7292832,18.4533375 16.7413285,18.4443581 C17.1552637,18.1357587 17.7409906,18.2211719 18.0495747,18.6351185 C18.0686483,18.6607047 18.0863993,18.6872507 18.1027579,18.7146523 C18.4040735,19.2193734 18.2484304,19.8722652 17.7518099,20.1867529 C17.6997443,20.219726 17.6528921,20.250356 17.6112534,20.2786429 Z" id="形状" fill="#5D6E7F" fill-rule="nonzero"></path>
            </g>
        </g>
    </g>
</svg>