<?xml version="1.0" encoding="UTF-8"?>
<svg width="24px" height="24px" viewBox="0 0 24 24" version="1.1" xmlns="http://www.w3.org/2000/svg" xmlns:xlink="http://www.w3.org/1999/xlink">
    <title>左上箭头</title>
    <g id="2.0" stroke="none" stroke-width="1" fill="none" fill-rule="evenodd">
        <g id="通用基础-删格" transform="translate(-357.000000, -264.000000)">
            <g id="左上箭头" transform="translate(357.000000, 264.000000)">
                <polygon id="路径" points="0 0 24 0 24 24 0 24"></polygon>
                <path d="M9.75542136,8.34142136 L17.314,15.9 C17.7044653,16.2904653 17.7044653,16.9235347 17.314,17.314 C16.9235347,17.7044653 16.2904653,17.7044653 15.9,17.314 L8.34142136,9.75542136 C8.2633165,9.6773165 8.1366835,9.6773165 8.05857864,9.75542136 C8.02107137,9.79292863 8,9.84379941 8,9.89684271 L8,16 C8,16.5522847 7.55228475,17 7,17 C6.44771525,17 6,16.5522847 6,16 L6,8 C6,6.8954305 6.8954305,6 8,6 L16,6 C16.5522847,6 17,6.44771525 17,7 C17,7.55228475 16.5522847,8 16,8 L9.89684271,8 C9.78638576,8 9.69684271,8.08954305 9.69684271,8.2 C9.69684271,8.2530433 9.71791408,8.30391408 9.75542136,8.34142136 Z" id="路径" fill="#5D6E7F" fill-rule="nonzero"></path>
            </g>
        </g>
    </g>
</svg>