<?xml version="1.0" encoding="UTF-8"?>
<svg width="18px" height="18px" viewBox="0 0 18 18" version="1.1" xmlns="http://www.w3.org/2000/svg" xmlns:xlink="http://www.w3.org/1999/xlink">
    <title>个人中心-分享</title>
    <g id="2.0" stroke="none" stroke-width="1" fill="none" fill-rule="evenodd">
        <g id="知识库删格" transform="translate(-428.000000, -256.000000)">
            <g id="个人中心-分享" transform="translate(428.000000, 256.000000)">
                <circle id="蒙版" fill="#E0E9F3" cx="9" cy="9" r="9"></circle>
                <g id="分享" transform="translate(4.000000, 4.000000)" fill="#B5BECB" fill-rule="nonzero">
                    <path d="M8.38432677,6.66210019 C7.77198561,6.66210019 7.23923523,7.01403839 6.96520858,7.53275052 L4.41605761,6.84774867 C4.42034846,6.78934356 4.42249521,6.73079146 4.42249323,6.6722184 C4.42249323,6.15807611 4.25800888,5.68363997 3.98049587,5.30191207 L6.38212557,2.63807877 C6.56070188,2.72856765 6.76149525,2.77945126 6.97381219,2.77945126 C7.71684824,2.77945126 8.31912093,2.15724688 8.31912093,1.38969536 C8.31912093,0.622204378 7.71684824,0 6.97381219,0 C6.23080544,0 5.62847416,0.622204378 5.62847416,1.38969536 C5.62847416,1.6442647 5.69478353,1.88280429 5.81045872,2.08800321 L3.40883878,4.75179616 C3.06370778,4.52164974 2.65258968,4.38801471 2.21123685,4.38801471 C0.990001836,4.38801471 0,5.4106904 0,6.67220831 C0,7.93373631 0.990001836,8.956412 2.21123685,8.956412 C3.10177463,8.956412 3.86922503,8.41254053 4.21963929,7.62886848 L6.76891721,8.31390059 C6.76885862,8.31961036 6.76871213,8.32531005 6.76871213,8.33102992 C6.76871213,9.25276561 7.49205069,10 8.38433654,10 C9.27665168,10 10,9.25276561 10,8.33102992 C10,7.4093144 9.27664191,6.66210019 8.38432677,6.66210019 Z" id="路径"></path>
                </g>
            </g>
        </g>
    </g>
</svg>