<?xml version="1.0" encoding="UTF-8"?>
<svg width="24px" height="24px" viewBox="0 0 24 24" version="1.1" xmlns="http://www.w3.org/2000/svg" xmlns:xlink="http://www.w3.org/1999/xlink">
    <title>反馈</title>
    <g id="2.0" stroke="none" stroke-width="1" fill="none" fill-rule="evenodd">
        <g id="通用基础-删格" transform="translate(-322.000000, -399.000000)">
            <g id="反馈" transform="translate(322.000000, 399.000000)">
                <polygon id="路径" points="0 0 24 0 24 24 0 24"></polygon>
                <path d="M13.2603765,2.58351085 L20.2603765,5.82426954 C21.3210922,6.31534436 22,7.37779109 22,8.5466676 L22,17 C22,19.209139 20.209139,21 18,21 L6,21 C3.790861,21 2,19.209139 2,17 L2,8.5466676 C2,7.37779109 2.67890783,6.31534436 3.73962355,5.82426954 L10.7396235,2.58351085 C11.5391127,2.21337493 12.4608873,2.21337493 13.2603765,2.58351085 Z M11.6963452,4.35312012 L11.5798745,4.39844289 L4.57987452,7.63920158 C4.26558838,7.78470523 4.05186069,8.08069366 4.00824573,8.41831898 L4,8.5466676 L4,17 C4,18.0543618 4.81587779,18.9181651 5.85073766,18.9945143 L6,19 L18,19 C19.0543618,19 19.9181651,18.1841222 19.9945143,17.1492623 L20,17 L20,8.5466676 C20,8.20033382 19.821193,7.88203093 19.5331333,7.70060683 L19.4201255,7.63920158 L12.4201255,4.39844289 C12.1917,4.29268977 11.9333271,4.27758218 11.6963452,4.35312012 Z M7.30598814,9.79027157 L7.4078936,9.86412913 L7.4078936,9.86412913 L11.4168808,13.1679958 C11.7894229,13.4750134 12.3281137,13.4720575 12.6972642,13.1609701 L16.5913322,9.87939437 C16.9809599,9.55105062 17.5481905,9.5716523 17.9129234,9.90875513 L17.999668,9.99960584 C17.9997787,9.9997372 17.9998894,9.99986858 18,10 C18.3557287,10.4225659 18.3017245,11.0534596 17.8793543,11.4094206 L13.3485577,15.2278408 C12.6102486,15.8500657 11.5328163,15.8559872 10.7877126,15.2419151 L6.13588298,11.408142 C5.70956081,11.0567916 5.64872797,10.4263868 6,10 C6.3241794,9.60649922 6.88615757,9.52435662 7.30598814,9.79027157 Z" id="形状结合" fill="#5D6E7F" fill-rule="nonzero"></path>
            </g>
        </g>
    </g>
</svg>