<?xml version="1.0" encoding="UTF-8"?>
<svg width="24px" height="24px" viewBox="0 0 24 24" version="1.1" xmlns="http://www.w3.org/2000/svg" xmlns:xlink="http://www.w3.org/1999/xlink">
    <title>文本换行</title>
    <g id="2.0" stroke="none" stroke-width="1" fill="none" fill-rule="evenodd">
        <g id="通用基础-删格" transform="translate(-322.000000, -352.000000)">
            <g id="文本换行" transform="translate(322.000000, 352.000000)">
                <polygon id="路径" points="0 0 24 0 24 24 0 24"></polygon>
                <path d="M15,18 L16.5,18 C17.8807119,18 19,16.8807119 19,15.5 C19,14.1192881 17.8807119,13 16.5,13 L4,13 C3.44771525,13 3,12.5522847 3,12 C3,11.4477153 3.44771525,11 4,11 L16.5,11 L16.5,11 C18.9852814,11 21,13.0147186 21,15.5 C21,17.9852814 18.9852814,20 16.5,20 L15,20 L15,21 C15,21.2761424 14.7761424,21.5 14.5,21.5 C14.3918149,21.5 14.2865481,21.4649111 14.2,21.4 L12.0666667,19.8 C11.6248389,19.4686292 11.5352958,18.8418278 11.8666667,18.4 C11.9235209,18.3241943 11.990861,18.2568542 12.0666667,18.2 L14.2,16.6 C14.4209139,16.4343146 14.7343146,16.4790861 14.9,16.7 C14.9649111,16.7865481 15,16.8918149 15,17 L15,18 L15,18 Z M4,4 L20,4 C20.5522847,4 21,4.44771525 21,5 C21,5.55228475 20.5522847,6 20,6 L4,6 C3.44771525,6 3,5.55228475 3,5 C3,4.44771525 3.44771525,4 4,4 Z M9,19 C9,19.5522847 8.55228475,20 8,20 L4,20 C3.44771525,20 3,19.5522847 3,19 C3,18.4477153 3.44771525,18 4,18 L8,18 C8.55228475,18 9,18.4477153 9,19 Z" id="形状" fill="#5D6E7F" fill-rule="nonzero"></path>
            </g>
        </g>
    </g>
</svg>