<?xml version="1.0" encoding="UTF-8"?>
<svg width="24px" height="24px" viewBox="0 0 24 24" version="1.1" xmlns="http://www.w3.org/2000/svg" xmlns:xlink="http://www.w3.org/1999/xlink">
    <title>关闭</title>
    <g id="2.0" stroke="none" stroke-width="1" fill="none" fill-rule="evenodd">
        <g id="通用基础-删格" transform="translate(-426.000000, -76.000000)">
            <g id="关闭" transform="translate(426.000000, 76.000000)">
                <path d="M0,0 L24,0 L24,24 L0,24 L0,0 Z" id="menu-/-close_small-(Background/Mask)"></path>
                <path d="M15.55046,6.93868852 L12,10.5899997 L12,10.5899997 L8.46590965,6.94015287 C8.08899477,6.55089243 7.46788696,6.54088438 7.07862651,6.91779926 C7.07484121,6.92146451 7.07108549,6.9251602 7.06735972,6.92888596 C6.67617509,7.32007053 6.6710784,7.95271624 7.05590979,8.3501525 L10.5900002,11.9999995 L10.5900002,11.9999995 L7.05641421,15.6441855 C6.67138088,16.0412703 6.67625426,16.6738581 7.06735972,17.0649635 C7.45076711,17.4483709 8.07239331,17.4483709 8.45580069,17.0649635 C8.45936611,17.0613981 8.462904,17.0578053 8.46641406,17.0541854 L12,13.4099994 L12,13.4099994 L15.5499565,17.0556509 C15.9290303,17.4449432 16.551914,17.4532269 16.9412063,17.0741532 C16.9443309,17.0711107 16.9474352,17.0680474 16.950519,17.0649635 C17.3413871,16.6740955 17.3455922,16.0416822 16.9599564,15.645651 L13.4099998,11.9999995 L13.4099998,11.9999995 L16.9604598,8.34868815 C17.3458947,7.95230494 17.3414664,7.3198333 16.950519,6.92888596 C16.5665726,6.54493959 15.9440725,6.54493964 15.5601261,6.92888608 C15.5568812,6.93213096 15.5536591,6.93539852 15.55046,6.93868852 Z" id="menu-/-close_small" fill="#5D6E7F" fill-rule="nonzero"></path>
            </g>
        </g>
    </g>
</svg>