<?xml version="1.0" encoding="UTF-8"?>
<svg width="24px" height="24px" viewBox="0 0 24 24" version="1.1" xmlns="http://www.w3.org/2000/svg" xmlns:xlink="http://www.w3.org/1999/xlink">
    <title>关闭1</title>
    <g id="2.0" stroke="none" stroke-width="1" fill="none" fill-rule="evenodd">
        <g id="通用基础-删格" transform="translate(-322.000000, -76.000000)">
            <g id="关闭1" transform="translate(322.000000, 76.000000)">
                <polygon id="路径" points="0 0 24 0 24 24 0 24"></polygon>
                <path d="M12,22 C6.477,22 2,17.523 2,12 C2,6.477 6.477,2 12,2 C17.523,2 22,6.477 22,12 C22,17.523 17.523,22 12,22 Z M12,20 C16.418278,20 20,16.418278 20,12 C20,7.581722 16.418278,4 12,4 C7.581722,4 4,7.581722 4,12 C4,16.418278 7.581722,20 12,20 Z M12,10.586 L14.1206251,8.46462506 C14.5112284,8.07388361 15.1446335,8.07377164 15.5353749,8.46437497 C15.5354166,8.46441664 15.5354583,8.46445832 15.5355,8.4645 C15.9261724,8.85517239 15.9261724,9.4885775 15.5355,9.87924989 C15.5354583,9.87929157 15.5354166,9.87933325 15.5353749,9.87937492 L13.414,12 L13.414,12 L15.5353749,14.1206251 C15.9261164,14.5112284 15.9262284,15.1446335 15.535625,15.5353749 C15.5355834,15.5354166 15.5355417,15.5354583 15.5355,15.5355 C15.1448276,15.9261724 14.5114225,15.9261724 14.1207501,15.5355 C14.1207084,15.5354583 14.1206668,15.5354166 14.1206251,15.5353749 L12,13.414 L12,13.414 L9.87937492,15.5353749 C9.48877159,15.9261164 8.8553665,15.9262284 8.46462506,15.535625 C8.46458337,15.5355834 8.46454168,15.5355417 8.4645,15.5355 C8.07382761,15.1448276 8.07382761,14.5114225 8.4645,14.1207501 C8.46454168,14.1207084 8.46458337,14.1206668 8.46462506,14.1206251 L10.586,12 L10.586,12 L8.46462506,9.87937492 C8.07388361,9.48877159 8.07377164,8.8553665 8.46437497,8.46462506 C8.46441664,8.46458337 8.46445832,8.46454168 8.4645,8.4645 C8.85517239,8.07382761 9.4885775,8.07382761 9.87924989,8.4645 C9.87929157,8.46454168 9.87933325,8.46458337 9.87937492,8.46462506 L12,10.586 L12,10.586 Z" id="形状" fill="#5D6E7F" fill-rule="nonzero"></path>
            </g>
        </g>
    </g>
</svg>