<?xml version="1.0" encoding="UTF-8"?>
<svg width="36px" height="36px" viewBox="0 0 36 36" version="1.1" xmlns="http://www.w3.org/2000/svg" xmlns:xlink="http://www.w3.org/1999/xlink">
    <title>加载中</title>
    <g id="2.0" stroke="none" stroke-width="1" fill="none" fill-rule="evenodd">
        <g id="通用基础-删格" transform="translate(-196.000000, -627.000000)" fill-rule="nonzero">
            <g id="加载中" transform="translate(196.000000, 627.000000)">
                <path d="M1.65751132,22.0647247 C3.11162481,23.5427097 5.24673538,24.1272504 7.25091757,23.5960617 C9.25509976,23.064873 10.8204095,21.4995723 11.3516013,19.4954018 C11.8827931,17.4912312 11.298249,15.356133 9.8202554,13.9020279 C7.56089336,11.6791835 3.93180004,11.6939614 1.69061601,13.9351324 C-0.550568008,16.1763035 -0.565346035,19.8053758 1.65751132,22.0647247 L1.65751132,22.0647247 Z" id="路径" fill="#E1EDFF"></path>
                <path d="M13.9011464,9.8201985 C15.3592802,11.2784957 17.4846482,11.8481173 19.4766449,11.3144923 C21.4686415,10.7808673 23.0246351,9.22506611 23.558498,7.23314391 C24.0923608,5.2412217 23.5229864,3.1157989 22.0648526,1.65750171 C19.8054905,-0.565342759 16.1763972,-0.550564817 13.9352132,1.69060622 C11.6940292,3.93177725 11.6792511,7.56084955 13.9021085,9.8201985 L13.9011464,9.8201985 Z" id="路径" fill="#B3D2FF"></path>
                <path d="M26.1457436,22.0647247 C27.6038774,23.5230219 29.7292454,24.0926435 31.721242,23.5590185 C33.7132387,23.0253935 35.2692323,21.4695923 35.8030951,19.4776701 C36.3369579,17.4857479 35.7675835,15.3603251 34.3094497,13.9020279 C32.0553702,11.6476959 28.4005699,11.6474806 26.1462247,13.901547 C23.8918795,16.1556135 23.8916642,19.8103926 26.1457436,22.0647247 L26.1457436,22.0647247 Z" id="路径" fill="#5B9DFF"></path>
                <path d="M13.9011464,34.3092509 C16.1554916,36.563583 19.8105074,36.563583 22.0648526,34.3092509 C24.3191978,32.0549188 24.3191978,28.3999242 22.0648526,26.1455921 C19.8105074,23.8915257 16.1557071,23.8917411 13.9016276,26.1460732 C11.6475481,28.4004053 11.6477634,32.0551844 13.9021085,34.3092509 L13.9011464,34.3092509 Z" id="路径" fill="#0569FF"></path>
            </g>
        </g>
    </g>
</svg>