<?xml version="1.0" encoding="UTF-8"?>
<svg width="16px" height="16px" viewBox="0 0 16 16" version="1.1" xmlns="http://www.w3.org/2000/svg" xmlns:xlink="http://www.w3.org/1999/xlink">
    <title>单</title>
    <g id="2.0" stroke="none" stroke-width="1" fill="none" fill-rule="evenodd">
        <g id="知识库删格" transform="translate(-31.000000, -69.000000)" fill="#0569FF" fill-rule="nonzero">
            <g id="单" transform="translate(31.000000, 69.000000)">
                <path d="M14,0 L2,0 C0.8954305,0 0,0.8954305 0,2 L0,14 C0,15.1045695 0.8954305,16 2,16 L14,16 C15.1045695,16 16,15.1045695 16,14 L16,2 C16,0.8954305 15.1045695,0 14,0 Z M14,1 C14.5522847,1 15,1.44771525 15,2 L15,14 C15,14.5522847 14.5522847,15 14,15 L2,15 C1.44771525,15 1,14.5522847 1,14 L1,2 C1,1.44771525 1.44771525,1 2,1 L14,1 Z" id="矩形"></path>
                <path d="M8.432,13.236 L8.432,10.956 L13.328,10.956 L13.328,10.14 L8.432,10.14 L8.432,9 L12.188,9 L12.188,4.068 L9.884,4.068 C10.244,3.576 10.568,3.024 10.856,2.412 L10.016,2.112 C9.716,2.808 9.368,3.468 8.984,4.068 L3.812,4.068 L3.812,9 L7.568,9 L7.568,10.14 L2.672,10.14 L2.672,10.956 L7.568,10.956 L7.568,13.236 L8.432,13.236 Z M6.344,4.056 L7.064,3.696 C6.704,3.144 6.332,2.628 5.936,2.172 L5.204,2.52 C5.612,2.976 5.984,3.48 6.344,4.056 Z M7.568,6.144 L4.652,6.144 L4.652,4.824 L7.568,4.824 L7.568,6.144 Z M11.348,6.144 L8.432,6.144 L8.432,4.824 L11.348,4.824 L11.348,6.144 Z M11.348,8.232 L8.432,8.232 L8.432,6.888 L11.348,6.888 L11.348,8.232 Z M7.568,8.232 L4.652,8.232 L4.652,6.888 L7.568,6.888 L7.568,8.232 Z"></path>
            </g>
        </g>
    </g>
</svg>