<?xml version="1.0" encoding="UTF-8"?>
<svg width="24px" height="24px" viewBox="0 0 24 24" version="1.1" xmlns="http://www.w3.org/2000/svg" xmlns:xlink="http://www.w3.org/1999/xlink">
    <title>照片加载失败</title>
    <g id="2.0" stroke="none" stroke-width="1" fill="none" fill-rule="evenodd">
        <g id="通用基础-删格" transform="translate(-217.000000, -451.000000)">
            <g id="照片加载失败" transform="translate(217.000000, 451.000000)">
                <polygon id="路径" points="0 0 24 0 24 24 0 24"></polygon>
                <path d="M17,2 C19.6887547,2 21.8818181,4.12230671 21.9953805,6.78311038 L22,7 L22,11.0888225 C22,11.6411072 21.5522847,12.0888225 21,12.0888225 C20.4871642,12.0888225 20.0644928,11.7027823 20.0067277,11.2054436 L20,11.0888225 L20,7 C20,5.40231912 18.75108,4.09633912 17.1762728,4.00509269 L17,4 L5,4 C3.40231912,4 2.09633912,5.24891996 2.00509269,6.82372721 L2,7 L2,17 C2,18.4841788 3.07777214,19.7166303 4.49336092,19.9573993 L5.12089322,19.2928932 L10.8786797,13.5351068 C12.0033896,12.4103968 13.7989525,12.3654084 14.9773307,13.4001416 L15.1213203,13.5351068 L16.9303047,15.3440912 C17.320829,15.7346155 17.320829,16.3677805 16.9303047,16.7583047 C16.5698208,17.1187887 16.0025897,17.1465182 15.6102985,16.8414934 L15.5160912,16.7583047 L13.7071068,14.9493203 C13.3466228,14.5888364 12.7793918,14.5611068 12.3871006,14.8661317 L12.2928932,14.9493203 L7.241,20 L17,20 C17.5522847,20 18,20.4477153 18,21 C18,21.5128358 17.6139598,21.9355072 17.1166211,21.9932723 L17,22 L5,22 L4.90222003,21.9998511 C4.8745295,22.0003318 4.8468166,21.9996694 4.81915815,21.9978616 L5,22 C2.3112453,22 0.118181885,19.8776933 0.00461951385,17.2168896 L0,17 L0,7 C0,4.3112453 2.12230671,2.11818189 4.78311038,2.00461951 L5,2 L17,2 Z M19.2426407,13.8284271 L20.6568542,15.2426407 L22.0710678,13.8284271 C22.4615921,13.4379028 23.0947571,13.4379028 23.4852814,13.8284271 C23.8758057,14.2189514 23.8758057,14.8521164 23.4852814,15.2426407 L22.0710678,16.6568542 L23.4852814,18.0710678 C23.8758057,18.4615921 23.8758057,19.0947571 23.4852814,19.4852814 C23.0947571,19.8758057 22.4615921,19.8758057 22.0710678,19.4852814 L20.6568542,18.0710678 L19.2426407,19.4852814 C18.8521164,19.8758057 18.2189514,19.8758057 17.8284271,19.4852814 C17.4379028,19.0947571 17.4379028,18.4615921 17.8284271,18.0710678 L19.2426407,16.6568542 L17.8284271,15.2426407 C17.4379028,14.8521164 17.4379028,14.2189514 17.8284271,13.8284271 C18.2189514,13.4379028 18.8521164,13.4379028 19.2426407,13.8284271 Z M7,7 C8.1045695,7 9,7.8954305 9,9 C9,10.1045695 8.1045695,11 7,11 C5.8954305,11 5,10.1045695 5,9 C5,7.8954305 5.8954305,7 7,7 Z" id="形状结合" fill="#5D6E7F" fill-rule="nonzero"></path>
            </g>
        </g>
    </g>
</svg>