<svg id="图层_1" data-name="图层 1" xmlns="http://www.w3.org/2000/svg" viewBox="0 0 300 300"><defs><style>.cls-1,.cls-10{fill:#fff;}.cls-1,.cls-3,.cls-5,.cls-9{fill-rule:evenodd;}.cls-2{fill:#728da3;}.cls-3{fill:#e4e3e3;}.cls-4{fill:#999;}.cls-5{fill:#0569ff;}.cls-6{fill:#034fd2;}.cls-7{fill:#e7bab9;}.cls-8{fill:#db9696;}.cls-9{fill:#23304a;}.cls-11{fill:#da4a4a;}.cls-12{fill:#7c6b6a;}.cls-13{fill:#fc6868;}.cls-14{fill:#e89b82;}.cls-15{fill:#e9ecee;}.cls-16{fill:#bedbf3;}.cls-17{fill:#c8e6f8;}.cls-18{fill:#96a7a8;}.cls-19{fill:#b8c2c4;}.cls-20{fill:#c19a61;}.cls-21{fill:#dbb471;}.cls-22{fill:#89664c;}</style></defs><path class="cls-1" d="M32.22,148.37,36,72.63C24.5,81.43,16.06,98,16.6,117.14c.47,16.29,6.51,26,15.62,31.23Z"/><path class="cls-2" d="M32.45,148.79l-.36-.2c-10-5.73-15.3-16.31-15.74-31.44-.51-18,7-35.13,19.51-44.72l.43-.33,0,.54Zm3.28-75.63c-12.16,9.56-19.38,26.35-18.88,44C17.27,131.9,22.37,142.27,32,148Z"/><path class="cls-3" d="M31.8,137.87l5.62-67.3C27.11,78.72,19.61,93.67,20.1,111c.38,13.3,4.82,21.82,11.7,26.9Z"/><path class="cls-1" d="M102.42,211.87s-4.53,7.83-4.56,11.44c0,0,2.09,5.87,4.42,6.84s1.9,9.57-8,9.24-9.59-23.54-6.62-37.79l3.83-3.49,10.94,7.68,0,6.08Z"/><path class="cls-4" d="M94.77,239.65h-.54a6.27,6.27,0,0,1-4.84-2.6c-4.83-6.15-4.65-22.88-2-35.49v-.08l4-3.68.16.11,11,7.76,0,6.28,0,.06c0,.08-4.46,7.75-4.52,11.27.19.52,2.17,5.78,4.27,6.65,1.07.44,1.58,2.18,1.18,4C103,236.74,100.34,239.65,94.77,239.65Zm-6.92-37.92c-2.59,12.49-2.8,29,1.94,35a5.75,5.75,0,0,0,4.46,2.41c5.64.2,8.25-2.61,8.83-5.29.33-1.57-.06-3.13-.89-3.47-2.41-1-4.48-6.74-4.57-7v-.09c0-3.51,4.11-10.72,4.56-11.5l0-5.89-10.67-7.49Z"/><path class="cls-1" d="M163.38,214.61c3.22,1.16,17.15,10.92,20.1,13,0,0,5.12,2.79,4.55,5.24s7.6,9.89,13.13,1.62c1.64-2.45,3.33-7.63-4.52-11.32-7.24-9.61-24.09-21.56-33.46-25.7l-5.69-.22L158,211.9l5.4,2.71Z"/><path class="cls-4" d="M195.05,238.53a7.34,7.34,0,0,1-2.9-.64c-2.79-1.22-4.67-3.78-4.37-5.1.53-2.24-4.37-4.94-4.42-5-2.81-2-16.85-11.83-20.06-13h0l-5.53-2.78v-.15l-.5-14.93,6.05.25c9.78,4.32,26.52,16.49,33.52,25.73,3.2,1.52,5.14,3.43,5.77,5.69a7.41,7.41,0,0,1-1.2,6C200.47,236,198.32,238.53,195.05,238.53Zm-31.57-24.15c3.3,1.2,17.36,11.06,20.14,13,.2.11,5.26,2.9,4.65,5.51-.23,1,1.42,3.36,4.08,4.52,1.89.82,5.52,1.51,8.6-3.09a6.91,6.91,0,0,0,1.14-5.57c-.59-2.12-2.46-3.94-5.56-5.4l-.09-.07c-6.92-9.18-23.57-21.28-33.32-25.6l-5.37-.21.48,14.25Z"/><path class="cls-1" d="M98.43,236.2S77,263.52,79,265.42c0,0-8.22,5.14-7.45,10,3.49,2.5,11.34,2.2,14.55,1.82,2.49-.3,9.09-1.82,9-6.47,5.54-9,9.7-12.75,15.55-15.36,1.95-.87,9.36-6.12,10.62-7.85,1.7-2.33,4.91-2.57,9.56-.45,6.19,2.84,1.43,4.32-.43,5.68-2.7,2-3.38,4.44-4.49,7.84,0,0-4.38,6.71.65,8.7s18,.67,18,.67,2.47-2.57.64-5.36a7.84,7.84,0,0,0-4.51-3.34s24.48-2.25,13.08-24.44l-5.16-6.7-49.61,2-.64,4Z"/><path class="cls-2" d="M81.42,277.87c-3.34,0-7.63-.39-10.07-2.14l-.13-.09,0-.15c-.72-4.56,5.77-9.16,7.31-10.18-.23-.89.66-3.71,9.14-15.43,4.76-6.6,9.82-13.07,10.42-13.84l.68-4.22,50.11-2,5.28,6.85c3.48,6.77,4,12.38,1.65,16.71-3.14,5.72-10.4,7.58-13.53,8.12a8.54,8.54,0,0,1,3.33,3c2,3-.66,5.79-.69,5.82l-.1.1-.13,0c-.54.05-13.17,1.3-18.22-.7a3.91,3.91,0,0,1-2.45-2.46c-.87-2.73,1.31-6.3,1.6-6.76l.16-.47c1-3.11,1.79-5.56,4.45-7.5.33-.24.73-.48,1.15-.73,1-.58,2.24-1.31,2.2-2,0-.45-.54-1.21-2.86-2.27-4.41-2-7.47-1.92-9.1.32-1.3,1.78-8.79,7.09-10.77,8-6.1,2.73-10.12,6.69-15.32,15.13,0,5.47-8.39,6.62-9.35,6.73A44.43,44.43,0,0,1,81.42,277.87Zm-9.5-2.66c3.32,2.25,10.69,2.08,14.16,1.67.35-.05,8.77-1.1,8.68-6.09v-.11l0-.09c5.32-8.65,9.43-12.7,15.71-15.51,1.88-.84,9.26-6.07,10.47-7.73s4.07-3.3,10-.57c2.19,1,3.24,1.94,3.29,2.92.06,1.18-1.34,2-2.57,2.72-.41.24-.79.47-1.09.68-2.46,1.81-3.18,4-4.18,7.13l-.21.61s-2.35,3.64-1.54,6.17a3.12,3.12,0,0,0,2,2c4.6,1.83,16.28.8,17.72.66a4,4,0,0,0,.51-4.79,7.64,7.64,0,0,0-4.27-3.19l-2.41-.51,2.45-.23c.1,0,10.62-1.05,14.4-7.94,2.25-4.1,1.71-9.47-1.63-16l-5-6.49-49.11,2-.61,3.81-.06.08c-10.27,13.07-20.35,27.39-19.44,28.72l.36.33-.42.26C79.14,265.79,71.4,270.69,71.92,275.21Z"/><path class="cls-5" d="M108.71,192s-10.18.58-18.09,5.63c-2.31,1.44-7.52,8-6.43,8.84s8.52,8.76,10.37,9.68,3.6,1.62,4.51,1.34c0,0-3.26,14.29-1.29,17.41s8.54,3.76,13.53,4,43.22.32,43.82-2.68c1.12-5.71-2.75-21.92-3.23-23.44a44.31,44.31,0,0,0,5.35,2.17,6.91,6.91,0,0,0,4.26,0c.93-.34,6.38-10.91,8.55-14.53a3.38,3.38,0,0,0-1.29-4c-3.56-1.88-10-5.09-15.4-4.95s-16-.79-16-.79l-28.85,1.18Z"/><path class="cls-6" d="M99.07,217.45l-1.93-.67,6.44-10.72-4.51,11.39Zm52.19-4.69c-.79-.61-4.51-6.7-4.51-6.7.78,1.13,5.8,6,5.8,6l-1.29.67Z"/><path class="cls-1" d="M217.86,135.88,204,58.78c13,7.51,23.8,23.33,25.76,43.05,1.66,16.75-3.26,27.51-11.93,34.05Z"/><path class="cls-4" d="M217.69,136.32l-14-78,.47.27c14.13,8.19,24,24.75,25.87,43.25,1.55,15.56-2.5,27.09-12,34.27Zm-13.32-77L218,135.43c9.13-7.08,13-18.38,11.5-33.58C227.74,83.73,218.12,67.47,204.37,59.27Z"/><path class="cls-3" d="M216.91,125.06l-14.6-68.2c11.65,7,21.31,21.32,23.08,39.11,1.35,13.67-2.09,23-8.48,29.09Z"/><path class="cls-1" d="M114.6,22.91c54.54-5.4,102.82,31.21,107.72,80.62S185.94,187,131.4,192.36,29.71,172.52,24.81,123.11,60.06,28.32,114.6,22.91Z"/><path class="cls-4" d="M117.12,193.33c-21.84,0-42-5.11-57.76-14.82-20.42-12.56-32.45-31.7-34.8-55.38-2.38-24,5.67-47.74,22.67-66.79s41-31.06,67.35-33.68l0,.25,0-.25c26.38-2.61,52.17,4.42,72.65,19.81s33,37,35.34,61c2.34,23.68-5.69,44.81-23.25,61.13-16.51,15.34-40.62,25.28-67.89,28C126.6,193.09,121.82,193.33,117.12,193.33Zm8.24-170.7q-5.34,0-10.73.53c-26.26,2.6-50.06,14.51-67,33.52S22.69,99.2,25.06,123.09c2.33,23.51,14.28,42.52,34.56,55,19.11,11.74,44.59,16.73,71.76,14s51.17-12.58,67.6-27.85c17.44-16.2,25.42-37.2,23.09-60.71-2.37-23.88-14.85-45.43-35.14-60.69A102.18,102.18,0,0,0,125.36,22.63Z"/><path class="cls-7" d="M98.8,130.72c.17,1.74-5.14,3.73-12.31,4.74-.88.12-1.79.23-2.72.32h-.06c-1.48.15-2.92.24-4.27.28-.92,0-1.8,0-2.64,0-5.08-.08-8.63-.94-8.77-2.32-.17-1.71,5-3.67,12.08-4.69.91-.13,1.84-.25,2.8-.35h.16c1.42-.14,2.8-.24,4.11-.28.92,0,1.81-.05,2.65,0C95,128.47,98.66,129.33,98.8,130.72Z"/><path class="cls-7" d="M184,122.27c.18,1.74-5.15,3.74-12.33,4.74-.88.13-1.78.23-2.7.32h-.09c-1.48.15-2.91.24-4.27.28-.91,0-1.8,0-2.64,0-5.06-.09-8.59-.94-8.73-2.32-.17-1.71,5-3.67,12.05-4.69.9-.13,1.83-.24,2.79-.34l.19,0c1.42-.14,2.79-.23,4.09-.28.92,0,1.8,0,2.65,0C180.22,120,183.89,120.88,184,122.27Z"/><path class="cls-8" d="M82.91,128.73l-3.47,7.34c-.92,0-1.8,0-2.64,0l3.31-7C81,129,82,128.83,82.91,128.73Z"/><path class="cls-8" d="M89.83,128.41l-3.34,7.05c-.88.12-1.79.23-2.72.32h-.06l3.47-7.35C88.1,128.41,89,128.39,89.83,128.41Z"/><path class="cls-8" d="M168.1,120.29l-3.47,7.33c-.91,0-1.8,0-2.64,0l3.32-7Z"/><path class="cls-8" d="M175,120,171.69,127c-.88.13-1.78.23-2.7.32h-.09l3.48-7.35C173.3,120,174.18,119.94,175,120Z"/><path class="cls-9" d="M116.69,30.35c48-4.82,97.42,36.18,94.89,79.86-1.13,19.51-38.6-2.34-86.61,2.49s-81.39,63.77-86.3,14.89,30-92.41,78-97.24Z"/><path class="cls-10" d="M181.54,59.88l-.45.83a1.82,1.82,0,0,1-2.83.65c-10-8.4-20.49-15.08-32.22-17.67a1.6,1.6,0,0,1-.89-2.5l.46-.83a3.5,3.5,0,0,1,3.51-1.63c13.71,3,23.22,10,32.06,17.74a2.94,2.94,0,0,1,.36,3.41ZM186,68.35a3.33,3.33,0,1,1,2.53-4,3.33,3.33,0,0,1-2.53,4Z"/><path class="cls-10" d="M169.09,66.5l.84.54a2.56,2.56,0,0,1,.62,4.13L155.39,85.93a4.4,4.4,0,0,1-5.23.35l-.84-.54a2.56,2.56,0,0,1-.62-4.14l15.16-14.75a4.4,4.4,0,0,1,5.23-.35Zm-13.93,14,18.06,11.69a2.6,2.6,0,0,1,.21,4.25l-.72.7a4.49,4.49,0,0,1-5.29.7L149.35,86.13c-1.52-1-1.61-2.88-.21-4.25l.73-.71a4.5,4.5,0,0,1,5.29-.69ZM87.76,95.94,69.83,84.18a2.64,2.64,0,0,1-.21-4.27l.72-.71a4.41,4.41,0,0,1,5.25-.69L93.51,90.27a2.63,2.63,0,0,1,.22,4.27l-.72.71a4.41,4.41,0,0,1-5.25.69ZM73,110.11l-.84-.56a2.65,2.65,0,0,1-.64-4.24l15.3-15.08a4.43,4.43,0,0,1,5.29-.35l.84.56a2.63,2.63,0,0,1,.63,4.23L78.28,109.75a4.41,4.41,0,0,1-5.29.36Z"/><path class="cls-1" d="M115.14,214.42v.11c-12.24,3.19-6.15,14.5,3.21,13l1,3.4c-7.89-.06-14.07-4.79-14.42-9.36s3.71-8.08,9.1-8.18c-3.1-13.69,25.84-13.69,22.39,0,5.38.1,9.45,3.61,9.1,8.18s-6.53,9.3-14.43,9.36l1.05-3.4c7.88,1.11,17.52-11.36,3.2-13v-.11C135.32,203.6,115.14,203.61,115.14,214.42Z"/><path class="cls-1" d="M122.31,231.81c-.88-9,9.05-3.66,10.54-11.29.61-3.16,0-6.54-3-8.32-4.36-2.24-11.68-.3-11.08,6.08s9.45,4,8.64.11c-1.26,1.7-3.82,2.32-5,1.42-2.71-2,.45-6.51,4.64-5.46,2.75.68,2.57,2.36,2.77,4.35.41,4-3.44,4.27-7,5.91C118.48,226.63,122.31,231.81,122.31,231.81Z"/><path class="cls-1" d="M126.8,227.61a2.23,2.23,0,1,1-2.22,2.22A2.23,2.23,0,0,1,126.8,227.61Z"/><path class="cls-11" d="M86.15,147.55l87.2-8.64s4.86,24.56-37.5,33.21C92.28,176.84,84.58,152.15,86.15,147.55Z"/><path class="cls-12" d="M125.64,173.18c-12.06,0-26.95-2.5-35.52-13.21-4.23-5.27-5.14-10.53-4.45-12.58l.11-.3.32,0,87.66-8.69.08.44c0,.25,4.47,25.15-37.89,33.8A96.71,96.71,0,0,1,125.64,173.18ZM86.54,148c-.42,2,.62,6.66,4.36,11.32,11,13.73,32.85,13.59,44.89,12.28,38.16-7.79,37.49-28.82,37.13-32.17Z"/><path class="cls-13" d="M161.1,161.59c-6.41-3.78-16.93-5.65-28.56-4.5-13,1.29-23.83,6-28.85,11.77,7.47,2.9,17.75,4.41,31.72,2.9C147.32,169.32,155.5,165.63,161.1,161.59Z"/><rect class="cls-10" x="85.67" y="143.24" width="88.04" height="2.81" transform="translate(-13.64 13.5) rotate(-5.66)"/><path class="cls-12" d="M85.58,150.94l-.38-3.79.5-.05,88.1-8.74.38,3.8-.5.05Zm.71-2.9.18,1.81,86.61-8.59-.17-1.81Z"/><g id="nose"><path class="cls-14" d="M128.48,128.62A31.18,31.18,0,0,1,118,128c-1.23-.3-2.35.78-1.68,1.63a14.61,14.61,0,0,0,24.22-2.4c.48-1-.82-1.81-2-1.27A31.28,31.28,0,0,1,128.48,128.62Z"/></g><path class="cls-15" d="M77.29,188.37a1,1,0,0,1-.77-.36c-2.84-3.45-10.7-8.46-17.63-12.88C54,172,49.38,169.06,47.07,167l-.85-.76c-7.51-6.67-13.44-11.94-13-16.81a1,1,0,0,1,1.08-.91,1,1,0,0,1,.92,1.08c-.33,3.87,5.55,9.09,12.36,15.15l.86.76c2.19,1.94,6.74,4.85,11.56,7.92C67,178,75,183.05,78.06,186.73a1,1,0,0,1-.13,1.41A1,1,0,0,1,77.29,188.37Z"/><path class="cls-15" d="M68.46,132.93a1,1,0,0,1-.92-.62c-1-2.36-4.59-4.71-8.76-7.42-11.54-7.53-29-18.9-25.1-49.25a1,1,0,0,1,2,.26C31.94,105,48.75,116,59.88,123.21c4.62,3,8.27,5.4,9.51,8.33a1,1,0,0,1-.54,1.31A1,1,0,0,1,68.46,132.93Z"/><path class="cls-15" d="M184,176.37a1,1,0,0,1-.48-.12,1,1,0,0,1-.4-1.35c2.13-4,6.73-8.51,11.18-12.89,3.53-3.47,6.85-6.74,8.78-9.53,1.51-2.19,2.94-4.22,4.27-6.1,4.91-7,8.8-12.49,8.53-14.86a1,1,0,0,1,2-.22c.35,3.12-3.13,8.06-8.89,16.23-1.32,1.88-2.75,3.9-4.26,6.08-2,2.95-5.42,6.29-9,9.83-4.34,4.28-8.83,8.7-10.82,12.4A1,1,0,0,1,184,176.37Z"/><path class="cls-15" d="M181.78,120.27a.65.65,0,0,1-.2,0,1,1,0,0,1-.78-1.18c.63-3.12,3.77-7.25,7.74-12.48,9.55-12.58,22.64-29.8,13.56-48.25a1,1,0,1,1,1.79-.88c9.63,19.55-4.44,38.08-13.76,50.34-3.66,4.82-6.83,9-7.37,11.67A1,1,0,0,1,181.78,120.27Z"/><path class="cls-16" d="M189.71,146c.21,8.78,2.48,17.12,5,25.33,1.29,4.16-.26,5.81-3.14,7.27a178,178,0,0,1-44.74,15.76c-20.29,4.19-40.63,3.44-61-.71-5.15-1.05-10.23-2.57-15.36-3.77-2.63-.61-3.47-2.13-3.18-5.18A115.54,115.54,0,0,0,67,162c-.69-10-1.93-20-5-29.57-.82-2.57-.94-4.77,1.75-5.94,13-5.64,25.34-13.09,38.69-17.85,19.43-6.94,39.11-6.6,59-1.14,8,2.18,16,4.45,24,6.19,3.82.82,5.24,2.15,4.6,6.84C189.11,127.05,189.65,145.38,189.71,146Z"/><path class="cls-17" d="M186.11,146.2c.19,8.26,2.33,16.12,4.74,23.85,1.22,3.91-.24,5.47-2.95,6.84a167.67,167.67,0,0,1-42.12,14.83c-19.1,3.95-38.24,3.24-57.43-.67-4.84-1-9.63-2.41-14.46-3.54-2.47-.58-3.26-2-3-4.88a109.76,109.76,0,0,0-.32-21.36c-.65-9.45-1.81-18.8-4.71-27.82-.77-2.43-.88-4.5,1.65-5.6,12.25-5.31,23.85-12.32,36.41-16.8,18.29-6.53,36.82-6.21,55.55-1.08,7.51,2.06,15,4.19,22.59,5.83,3.6.77,4.94,2,4.32,6.44C185.54,128.41,186.05,145.66,186.11,146.2Z"/><path class="cls-10" d="M76.58,163.05c-1.93.24-3.4.93-3.24,3.65.15,2.51,1.42,3.52,3.42,3.82,1.25.19,2.5.46,3.75.68l22.85,3.9c-1,1.47-2.25,1.18-3.29,1.08-7.59-.67-15,1.53-22.63.83-2.56-.24-4.23,1-4.54,4.3s1.47,4,3.51,4.59c12.81,3.93,25.88,5.61,39,6.18,15,.66,29.62-1.88,44-6a151.82,151.82,0,0,0,27.17-11c2.15-1.1,2.91-2.74,2-5.5-.76-2.42-1.88-3.85-4.17-3.13-7.05,2.2-14.56,1.29-21.61,3.53a3.69,3.69,0,0,1-4.13-.6c1.56-.66,2.71-1.16,3.87-1.62,6.72-2.69,13.46-5.33,20.17-8a3.74,3.74,0,0,0,2.51-4.56c-.44-2.55-2.1-2.53-3.8-2.48l-26.6-.82c8.35-3,16.94-4.19,25.43-5.95,2.31-.48,3.94-1.44,3.71-4.71-.21-3-1.14-4.86-4-5.11-1.88-.16-3.75-.62-5.63-1l-20.08-3.65a14.82,14.82,0,0,1,5.46-1.15c6.79-.3,13.58-.64,20.37-.75,3.78-.06,4-2.91,4.25-6,.3-3.32-.9-5.08-3.78-5.79-9.78-2.42-19.52-5.1-29.32-7.38-13.22-3.08-26.37-2.4-39.39.68-14.51,3.43-27.31,11.69-40.93,17.65-3.81,1.66-3.1,4.47-2.31,7.94.86,3.77,3,3.83,5.5,3.39,1.24-.21,2.47-.47,3.71-.72,7-1.43,14.19-1.41,21.22-3a5.19,5.19,0,0,1-2.18,1.53c-7.43,2.94-14.83,6-22.32,8.72-2.88,1-3.07,3-2.72,5.9.36,3,2,3.78,4.23,3.79,3.66,0,7.31-.18,11,0,4.69.24,9.4-.56,14.13,1.07Z"/><path class="cls-18" d="M259.44,185.14c13-10.81,16.74-22.4,17.79-29.37a48.17,48.17,0,0,0,6.37-5.19s2.21,18.86-18.09,35.8a342.42,342.42,0,0,1-52.9,36.05l-2.27-3.35A348.11,348.11,0,0,0,259.44,185.14Z"/><path class="cls-19" d="M210.34,219.08,208.22,216c42.23-35.24,43.12-51.44,43.12-51.44,10.83.14,20.1-4.73,25.89-8.75-1.05,7-4.83,18.56-17.79,29.37A348.11,348.11,0,0,1,210.34,219.08Z"/><path class="cls-20" d="M197.85,223.17c-1.6,1.44-1.36,4,.51,5.68s4.67,1.9,6.27.46,1.35-4-.52-5.68S199.43,221.73,197.85,223.17Z"/><path class="cls-21" d="M198.66,223.22c-1.38,1.25-1.18,3.45.44,4.92s4.06,1.65,5.44.4,1.18-3.45-.44-4.92S200,222,198.66,223.22Z"/><path class="cls-20" d="M194,226.4c-1.6,1.44-1.37,4,.5,5.67s4.68,1.91,6.27.47,1.36-4-.51-5.68S195.57,225,194,226.4Z"/><path class="cls-21" d="M194.8,226.44c-1.38,1.25-1.18,3.45.44,4.92s4.06,1.65,5.44.4,1.18-3.45-.44-4.92S196.18,225.19,194.8,226.44Z"/><path class="cls-20" d="M190.12,229.62c-1.59,1.44-1.36,4,.51,5.67s4.68,1.91,6.27.47,1.36-4-.51-5.68S191.71,228.18,190.12,229.62Z"/><path class="cls-21" d="M190.94,229.66c-1.38,1.25-1.18,3.45.44,4.92s4.06,1.65,5.44.41,1.18-3.45-.45-4.93S192.32,228.41,190.94,229.66Z"/><path class="cls-20" d="M186.26,232.84c-1.59,1.44-1.36,4,.51,5.67s4.67,1.91,6.27.47,1.36-4-.51-5.67S187.85,231.4,186.26,232.84Z"/><path class="cls-21" d="M187.08,232.89c-1.38,1.24-1.18,3.44.44,4.92s4,1.65,5.43.4,1.18-3.45-.44-4.92S188.45,231.64,187.08,232.89Z"/><path class="cls-22" d="M181.49,236.73c5.48-4.57,3-1.4,6.36,2.09,10,10.31,27.05-5.06,15.57-14.09-6.5-5.11-1.95-12,1.45-14.8,2.16-1.8.48,1.39,6.52,8.55s3.34,18.72-4.64,25.37c-8.28,6.91-18.36,2.55-22.23-2C181.9,238.72,177.27,240.25,181.49,236.73Z"/><path class="cls-21" d="M195.38,244.26a14.16,14.16,0,0,0,9.66-3.8,13.5,13.5,0,0,0,4.05-12.6,11.78,11.78,0,0,1-11.21,17.39,19.86,19.86,0,0,1-6.62-1.33A19.71,19.71,0,0,0,195.38,244.26Z"/><ellipse class="cls-10" cx="195.71" cy="232.23" rx="7.28" ry="5.46" transform="translate(-84.78 115.78) rotate(-27.33)"/><path class="cls-4" d="M194.12,238.37a7.45,7.45,0,0,1-1.25-.11,4.81,4.81,0,0,1-3.73-7.21,8.9,8.9,0,0,1,4-3.89c3.69-1.91,7.86-1.18,9.31,1.61a5.12,5.12,0,0,1-.12,4.63,8.82,8.82,0,0,1-3.95,3.9A9.29,9.29,0,0,1,194.12,238.37Zm3.19-11.78a8.81,8.81,0,0,0-4,1,8.38,8.38,0,0,0-3.73,3.67,4.32,4.32,0,0,0,3.36,6.5,8.85,8.85,0,0,0,8.88-4.59A4.58,4.58,0,0,0,202,229h0A5,5,0,0,0,197.31,226.59Z"/></svg>