<?xml version="1.0" encoding="UTF-8"?>
<svg width="18px" height="18px" viewBox="0 0 18 18" version="1.1" xmlns="http://www.w3.org/2000/svg" xmlns:xlink="http://www.w3.org/1999/xlink">
    <title>个人中心-通知</title>
    <g id="2.0" stroke="none" stroke-width="1" fill="none" fill-rule="evenodd">
        <g id="知识库删格" transform="translate(-76.000000, -69.000000)">
            <g id="个人中心-通知" transform="translate(76.000000, 69.000000)">
                <circle id="蒙版" fill="#FFECD8" cx="9" cy="9" r="9"></circle>
                <g id="通知" transform="translate(4.000000, 4.000000)" fill="#FF7126" fill-rule="nonzero">
                    <path d="M2.21954511,2.63345056 C2.13178649,2.71353459 2.02251688,2.75743402 1.90973801,2.75791661 L0.98585042,2.75791661 C0.441475104,2.75729115 0,3.26015898 0,3.87936191 L0,6.12350343 C0,6.74270636 0.441475104,7.24557419 0.98585042,7.24557419 L1.90973801,7.24557419 C2.02204032,7.24359779 2.13149283,7.28558198 2.21954511,7.36441112 L4.97793467,9.87499754 C5.12515214,10.0111877 5.328863,10.0385123 5.5001809,9.94504878 C5.67198321,9.85072356 5.78048252,9.65309625 5.77905097,9.43717728 L5.77905097,0.5606844 C5.7797313,0.345808112 5.67159756,0.149427273 5.50073413,0.0553147328 C5.33027613,-0.0380392382 5.1274656,-0.0117232862 4.98014757,0.122864143 L2.21954511,2.63345056 Z M6.92033815,7.00005654 C6.72774803,6.99972227 6.58301149,6.88377387 6.52309477,6.71249915 C6.46210253,6.5409652 6.52463494,6.35213107 6.67859375,6.24292642 C6.96109391,6.04292322 7.19217409,5.78494808 7.35386825,5.48929118 C7.69037564,4.86714532 7.69037564,4.38277556 7.35386825,3.7606297 C7.19270539,3.46478566 6.96179903,3.20708429 6.67859375,3.00699447 C6.48129902,2.86701912 6.44148024,2.60438233 6.58938318,2.41857926 C6.65996421,2.32953649 6.7656339,2.27056811 6.88290165,2.25478291 C7.0001694,2.23899771 7.11931683,2.26770387 7.21385721,2.33451994 C8.02381888,2.90648333 8.5,3.55047468 8.5,4.5 C8.5,5.44952532 8.02381888,6.34401727 7.21385721,6.91598066 C7.13705021,6.97095076 7.04292035,7.00051561 6.94622548,7.00005654 L6.92033815,7.00005654 Z" id="形状"></path>
                    <path d="M7.47194926,9 C7.31915967,9.00120389 7.17804911,8.91092765 7.10437316,8.7648291 C6.98578326,8.54126004 7.05543272,8.25510504 7.2600455,8.12524895 C8.43959716,7.37765059 9.1647915,6.00068728 9.16303609,4.51194411 C9.16479151,3.02320093 8.43959716,1.64623761 7.2600455,0.898639257 C7.10751856,0.827269467 7.00636585,0.666310484 7.00028922,0.485302768 C6.99421259,0.304295052 7.0843014,0.135687921 7.23163382,0.05232613 C7.37806648,-0.03092854 7.55546877,-0.0137845858 7.68622069,0.0962568829 C9.12121867,1.01523338 10.001933,2.69601782 10,4.51194411 C10.001933,6.3278704 9.12121867,8.00865483 7.68622069,8.92763132 C7.62230277,8.97291545 7.54812974,8.99796268 7.47194926,9 L7.47194926,9 Z" id="路径"></path>
                </g>
            </g>
        </g>
    </g>
</svg>