<?xml version="1.0" encoding="UTF-8"?>
<svg width="24px" height="24px" viewBox="0 0 24 24" version="1.1" xmlns="http://www.w3.org/2000/svg" xmlns:xlink="http://www.w3.org/1999/xlink">
    <title>任务</title>
    <g id="2.0" stroke="none" stroke-width="1" fill="none" fill-rule="evenodd">
        <g id="通用基础-删格" transform="translate(-148.000000, -451.000000)">
            <g id="任务" transform="translate(148.000000, 451.000000)">
                <polygon id="路径" points="0 0 24 0 24 24 0 24"></polygon>
                <g id="编组-2" transform="translate(2.989269, 1.879000)" fill="#5D6E7F" fill-rule="nonzero">
                    <path d="M0,6.94015882 C0,6.41521532 0.206386624,5.91131639 0.574624813,5.53719567 L5.43039405,0.603856532 C5.80633681,0.221908158 6.31984244,0.00681967354 6.85576923,0.00681967354 L7.8602827,0.00617842765 L7.93907347,0.00155424714 L7.93907347,0.00155424714 L13,0 C15.6887547,0 17.8818181,2.12230671 17.9953805,4.78311038 L18,5 L18,15 C18,17.6887547 15.8776933,19.8818181 13.2168896,19.9953805 L13,20 L5,20 C2.3112453,20 0.118181885,17.8776933 0.00461951385,15.2168896 L0,15 L0,6.94015882 Z M13,2 L8.01865261,2 L8.01865261,5.01625965 C8.01865261,5.1050197 8.01479792,5.19287944 8.00724681,5.27968059 L8.01073112,5.121 C8.01073112,6.77785425 6.66758537,8.121 5.01073112,8.121 L2,8.121 L2,15 C2,16.5976809 3.24891996,17.9036609 4.82372721,17.9949073 L5,18 L13,18 C14.5976809,18 15.9036609,16.75108 15.9949073,15.1762728 L16,15 L16,5 C16,3.40231912 14.75108,2.09633912 13.1762728,2.00509269 L13,2 Z M13.2044185,8.27544744 C13.6008841,8.67187241 13.6026528,9.30542679 13.2137403,9.69870655 L10.3041694,12.6409503 C9.52749376,13.4263476 8.26118354,13.4334178 7.47578631,12.6567422 L5.70725004,10.88825 C5.34682047,10.5278205 5.31909512,9.96067501 5.62407399,9.56844299 L5.7075,9.474 L5.7075,9.474 C6.09828191,9.08349426 6.7316062,9.0836062 7.12225004,9.47425004 L8.17748781,10.5294878 C8.53797177,10.8899718 9.10520282,10.9177013 9.49749403,10.6126764 L9.59706562,10.5240826 L9.59706562,10.5240826 L11.8011864,8.28613363 C12.1857273,7.89569087 12.8139757,7.8909065 13.2044185,8.27544744 Z M6.01073112,2.949 L2.943,6.016 L5.01865261,6.01625965 C5.52695008,6.01625965 5.94667181,5.6370218 6.01030575,5.14605812 L6.01073112,2.949 Z" id="形状"></path>
                </g>
            </g>
        </g>
    </g>
</svg>