<?xml version="1.0" encoding="UTF-8"?>
<svg width="24px" height="24px" viewBox="0 0 24 24" version="1.1" xmlns="http://www.w3.org/2000/svg" xmlns:xlink="http://www.w3.org/1999/xlink">
    <title>警示</title>
    <g id="2.0" stroke="none" stroke-width="1" fill="none" fill-rule="evenodd">
        <g id="通用基础-删格" transform="translate(-496.000000, -172.000000)">
            <g id="警示" transform="translate(496.000000, 172.000000)">
                <polygon id="路径" points="0 0 24 0 24 24 0 24"></polygon>
                <path d="M12,22 C6.477,22 2,17.523 2,12 C2,6.477 6.477,2 12,2 C17.523,2 22,6.477 22,12 C22,17.523 17.523,22 12,22 Z M12,20 C16.418278,20 20,16.418278 20,12 C20,7.581722 16.418278,4 12,4 C7.581722,4 4,7.581722 4,12 C4,16.418278 7.581722,20 12,20 Z M12.0531164,14.4088614 C12.7710866,14.4088614 13.3531164,14.9908912 13.3531164,15.7088614 C13.3531164,16.4268316 12.7710866,17.0088614 12.0531164,17.0088614 C11.3351462,17.0088614 10.7531164,16.4268316 10.7531164,15.7088614 C10.7531164,14.9908912 11.3351462,14.4088614 12.0531164,14.4088614 Z M12,7 C12.5522847,7 13,7.44771525 13,8 L13,12 C13,12.5522847 12.5522847,13 12,13 C11.4477153,13 11,12.5522847 11,12 L11,8 C11,7.44771525 11.4477153,7 12,7 Z" id="形状" fill="#5D6E7F" fill-rule="nonzero"></path>
            </g>
        </g>
    </g>
</svg>