<svg id="图层_1" data-name="图层 1" xmlns="http://www.w3.org/2000/svg" viewBox="0 0 300 300"><defs><style>.cls-1,.cls-4{fill:#fff;}.cls-2{fill:#728da3;}.cls-3{fill:#0569ff;}.cls-11,.cls-14,.cls-3,.cls-4{fill-rule:evenodd;}.cls-5{fill:#5fa0ff;}.cls-6{fill:#62727a;}.cls-7{fill:#e6eded;}.cls-8{fill:#3e4347;}.cls-9{fill:#d2d8d9;}.cls-10{fill:#a1a9ad;}.cls-11{fill:#e4e4e3;}.cls-12{fill:#e7baba;}.cls-13{fill:#db9796;}.cls-14{fill:#24304a;}.cls-15{fill:#d13f3f;}.cls-16{fill:#e6e6e6;}.cls-17{fill:#786e70;}.cls-18{fill:#ae534b;}.cls-19{fill:#8497b7;}.cls-20{fill:#846e73;}.cls-21{fill:#eff6f7;}.cls-22{fill:#724e41;}.cls-23{fill:#8f6a54;}.cls-24{fill:#b59267;}.cls-25{fill:#f9f3d9;}.cls-26{opacity:0.6;}.cls-27{fill:#a6aeb0;}.cls-28{fill:#ddd3ca;}.cls-29{opacity:0.15;}.cls-29,.cls-30{isolation:isolate;}.cls-30{opacity:0.4;}.cls-31{fill:#ef9f00;}.cls-32{fill:#c67844;}.cls-33{fill:#99b0d1;}</style></defs><path class="cls-1" d="M117.34,188.09a36.63,36.63,0,0,0-8.26-2.76c-4.58-.93-17.43-3.69-20.18-5.53s-5.51-9.21-11.93-4.6.92,12,3.67,12c0,0,25.69,15.65,36.7,14.73Z"/><path class="cls-2" d="M116.35,202.19c-11.24,0-34.15-13.78-35.78-14.77-1.88-.08-5.14-2.91-6.11-5.92-.57-1.79-.62-4.36,2.37-6.51,5-3.57,7.94-.08,10.11,2.47a11.47,11.47,0,0,0,2.1,2.13c3,2,18.35,5.14,20.09,5.49a37.83,37.83,0,0,1,8.32,2.78l.14.07v14.2l-.23,0C117,202.18,116.7,202.19,116.35,202.19ZM80.9,174a6.56,6.56,0,0,0-3.78,1.45c-2.75,2-2.7,4.32-2.18,5.94,1,3,4.19,5.58,5.7,5.58h.07l.06,0c.25.16,24.32,14.74,35.59,14.74l.73,0V188.24a37.94,37.94,0,0,0-8.06-2.67c-1.74-.35-17.17-3.49-20.27-5.56a12.25,12.25,0,0,1-2.2-2.23C85,176,83.3,174,80.9,174Z"/><path class="cls-3" d="M130.06,189.14s51.15,6.19,65,0c0,0,12,2.81,10.81,18l-7.32,10.35,2.5,11.77s-1.53,6.24-6.79,6.68-37.86-11.35-37.86-11.35l-26.33-8.73,2.25-9.57-14.43-4.41V188.09Z"/><path class="cls-4" d="M151.16,205.58a.62.62,0,0,0,0,.09c-10,.73-6.86,10.43.63,10.61l.33,2.8c-6.13-1.18-10.26-5.75-9.88-9.37s4-5.77,8.24-5.08c-.45-11.13,22.05-7,17.41,3.2,4.18.85,6.84,4.18,5.91,7.69s-6.4,6.33-12.55,5.24l1.3-2.5c6,2,15.25-6.35,4.34-9.69,0,0,0,0,0-.09C168.4,200,152.71,197.14,151.16,205.58Z"/><path class="cls-4" d="M154.25,220.17c.61-7.12,7.56-1.55,9.81-7.29.93-2.38.93-5.11-1.12-6.92-3.07-2.38-9-1.91-9.48,3.16s6.78,4.46,6.7,1.32c-1.22,1.14-3.3,1.26-4.1.39-1.83-2,1.27-5,4.38-3.6,2.05.93,1.66,2.21,1.54,3.8-.25,3.17-3.29,2.83-6.28,3.6C152,215.59,154.25,220.17,154.25,220.17Z"/><path class="cls-4" d="M158.35,217.54a1.76,1.76,0,1,1-2,1.42A1.76,1.76,0,0,1,158.35,217.54Z"/><path class="cls-4" d="M176.22,214.29s-4.37,7.05-5.5,7.93-15.71,5.95-14.88,14.9,9.76,10.72,12.41,8.87,19.31-16.13,21.78-25L180,210.72Z"/><path class="cls-3" d="M196.08,194s8.65-1.52,7.88,8.62a17,17,0,0,1,0,5.07s-4.2,9.36-10.3,12.45-5.53,2.6-8.81-.89-6.34-5.7-6.39-6.49-1-3.85.47-5.59c0,0,12.6-13.16,13.35-13.25S195.13,193.29,196.08,194Z"/><path class="cls-5" d="M188.58,222.73c-1.11,0-1.86-.71-3.15-2.13-.27-.3-.56-.62-.9-1-1.43-1.53-2.83-2.8-3.95-3.83-1.8-1.66-2.53-2.35-2.57-3a3.88,3.88,0,0,0-.09-.61c-.23-1.31-.65-3.74.68-5.33,8.46-8.84,13.05-13.35,13.67-13.43l.48-.08c.94-.17,2.47-.45,3.45.13a7.87,7.87,0,0,1,6,1.68c1.73,1.56,2.48,4.07,2.24,7.45a17.56,17.56,0,0,1,0,5.19l0,.1c-.18.39-4.35,9.56-10.53,12.7C191.18,222,189.69,222.73,188.58,222.73Zm3.89-28.3c-1,.6-8.54,8.33-13.12,13.12-1,1.21-.64,3.34-.44,4.49.05.31.09.55.1.72a13.88,13.88,0,0,0,2.25,2.29c1.13,1,2.54,2.33,4,3.89l.91,1c2.19,2.41,2.19,2.41,7.32-.19,5.64-2.87,9.71-11.45,10-12.17a16.82,16.82,0,0,0-.06-4.83v-.12c.24-3.08-.4-5.33-1.9-6.69a7.05,7.05,0,0,0-5.39-1.4l-.22,0-.18-.14c-.6-.47-2.06-.21-2.84-.07Z"/><path class="cls-6" d="M198.31,254.37c0,12.19-10,18.66-22.34,18.66s-22.35-6.47-22.35-18.66c0-8.28,10-11.32,22.35-11.32S198.31,246.09,198.31,254.37Z"/><path class="cls-7" d="M194.81,248.38c2.18-5.36-2.16-3.69-1.19-5.53,1.53-2.88-3.4-6.89-5.17-6.45-.51-3.35-4.65-5.68-9.66-4.17-1-2.58-14.14-3.43-15.3,4.17-1.77-.44-6.7,3.57-5.17,6.45,1,1.84-3.38.17-1.19,5.53-1.3,1.34-1.55,6.82-1,7.42,3.43,3.76,11.67,6,19.83,6s16.4-2.2,19.83-6C196.36,255.2,196.11,249.72,194.81,248.38Z"/><path class="cls-8" d="M176,268.6c5.94,0,10.76,1.48,10.76,3.3s-4.82,3.31-10.76,3.31-10.76-1.48-10.76-3.31S170,268.6,176,268.6Z"/><path class="cls-6" d="M196.08,248.54v4.08c0,5.63-9,8.11-20.11,8.11s-20.11-2.48-20.11-8.11v-4.08a8.33,8.33,0,0,0-2.24,5.83c0,12.19,10,18.66,22.35,18.66s22.34-6.47,22.34-18.66A8.33,8.33,0,0,0,196.08,248.54Z"/><path class="cls-9" d="M190.64,250.05c-5.49-1.39-6.75,2.6-1.25,4.06S196.17,251.44,190.64,250.05Z"/><path class="cls-9" d="M184.94,253.7c-4.05-4-7.13-1.16-3.12,2.88S189,257.69,184.94,253.7Z"/><path class="cls-9" d="M187.09,242.46c-4.85,2.92-2.93,6.63,2,3.76S192,239.51,187.09,242.46Z"/><path class="cls-9" d="M165.07,241.3c-4.82-3-7.21.45-2.4,3.51S169.93,244.29,165.07,241.3Z"/><path class="cls-9" d="M176.06,242.85c-5.44,1.57-4.54,5.65,1,4.15S181.54,241.27,176.06,242.85Z"/><path class="cls-9" d="M161,250.16c-5,2.59-3.38,6.42,1.73,3.89S166.1,247.56,161,250.16Z"/><path class="cls-9" d="M173.11,253.81c-5.41-1.64-6.87,2.27-1.44,4S178.57,255.47,173.11,253.81Z"/><path class="cls-4" d="M258.42,145.7l-6.28-79.6C264.54,75,274,92.16,274,112.36c0,17.15-6.08,27.58-15.53,33.34Z"/><path class="cls-10" d="M258.2,146.12l0-.41-6.32-80.12.44.31c13.51,9.72,21.91,27.52,21.91,46.46,0,15.94-5.27,27.23-15.65,33.55Zm-5.77-79.49,6.21,78.64c10-6.27,15.06-17.34,15.06-32.91C273.7,93.78,265.56,76.32,252.43,66.63Z"/><path class="cls-11" d="M258.54,134.63l-8-70.65c11.11,8.27,19.48,23.77,19.48,42,0,14-4.43,23.11-11.53,28.66Z"/><path class="cls-4" d="M71.49,145.63l5.7-79.38c-12.28,9-21.52,26.13-21.38,46.26.12,17.1,6.24,27.44,15.68,33.12Z"/><path class="cls-10" d="M71.71,146.05l-.35-.21c-10.37-6.23-15.69-17.45-15.8-33.33C55.43,93.63,63.66,75.83,77,66.05l.44-.32ZM76.9,66.78c-13,9.75-21,27.21-20.84,45.72C56.17,128,61.29,139,71.27,145.2Z"/><path class="cls-11" d="M71.29,134.6l7.43-70.47c-11,8.31-19.22,23.82-19.1,42,.1,14,4.57,23,11.67,28.49Z"/><path class="cls-4" d="M165,20.73c55.9,0,101.21,42,101.21,92.6s-45.31,81-101.21,81-101.2-30.36-101.2-81S109.1,20.73,165,20.73Z"/><path class="cls-10" d="M165,194.54c-28,0-53.42-7.65-71.71-21.55-19.46-14.79-29.74-35.42-29.74-59.66,0-24.61,10.55-47.85,29.72-65.46S138,20.48,165,20.48s52.51,9.73,71.73,27.39,29.73,40.85,29.73,65.46c0,24.24-10.29,44.87-29.74,59.66C218.41,186.89,192.94,194.54,165,194.54ZM165,21c-26.9,0-52.26,9.68-71.39,27.26S64,88.87,64,113.33c0,24.08,10.21,44.57,29.54,59.26C111.79,186.42,137.15,194,165,194s53.21-7.62,71.41-21.45C255.73,157.9,266,137.41,266,113.33c0-24.46-10.5-47.58-29.56-65.09S191.9,21,165,21Z"/><path class="cls-12" d="M138.11,128.49c0,1.78-5.59,3.27-13,3.57-.9,0-1.84.05-2.8.05h-.06c-1.51,0-3-.05-4.36-.15-.93-.05-1.83-.14-2.68-.23-5.14-.6-8.66-1.82-8.66-3.24,0-1.75,5.47-3.22,12.73-3.55.93,0,1.89-.06,2.87-.06h.16c1.46,0,2.87,0,4.21.13.94.06,1.84.13,2.69.23C134.49,125.83,138.11,127.07,138.11,128.49Z"/><path class="cls-12" d="M225.45,128.49c0,1.78-5.61,3.27-13,3.57-.9,0-1.82.05-2.77.05h-.09c-1.52,0-3-.05-4.36-.15-.93-.05-1.83-.14-2.68-.24-5.13-.6-8.63-1.82-8.63-3.23,0-1.75,5.46-3.22,12.7-3.55.93,0,1.89-.06,2.87-.06h.19c1.45,0,2.85,0,4.18.12.94.06,1.84.14,2.69.24C221.82,125.82,225.45,127.06,225.45,128.49Z"/><path class="cls-13" d="M122.18,124.88,117.92,132c-.93-.05-1.83-.14-2.68-.23l4.07-6.79C120.24,124.9,121.2,124.88,122.18,124.88Z"/><path class="cls-13" d="M129.24,125.24l-4.1,6.82c-.9,0-1.84.05-2.8.05h-.06l4.27-7.1C127.49,125.07,128.39,125.14,129.24,125.24Z"/><path class="cls-13" d="M209.49,124.88,205.23,132c-.93-.05-1.83-.14-2.68-.24l4.07-6.78Z"/><path class="cls-13" d="M216.55,125.24l-4.1,6.82c-.9,0-1.82.05-2.77.05h-.09l4.27-7.11C214.8,125.06,215.7,125.14,216.55,125.24Z"/><path class="cls-14" d="M166.45,28.49c49.2,0,95.15,46.62,88.12,90.66-3.13,19.67-38.92-6.31-88.12-6.31s-89.1,56.38-89.1,6.31,39.89-90.66,89.1-90.66Z"/><path class="cls-15" d="M112.89,42.79H221.7S246.75,62.42,250,70.06L84.74,72.19S96.75,52.55,112.89,42.79Z"/><polygon class="cls-15" points="229.27 53.68 247.29 24.02 255.17 42.79 227.04 58.03 229.27 53.68"/><polygon class="cls-15" points="237.9 61.19 269.06 52.55 276.91 74.84 237.9 61.19"/><path class="cls-1" d="M112.17,80.53l24,12.67s-1,14.92-18.86,12C105.22,102,106.63,91,106.63,91S107.19,83.34,112.17,80.53Z"/><path class="cls-1" d="M215.24,77.66l-24,12.67s1,14.92,18.87,12c12.1-3.19,10.69-14.17,10.69-14.17S220.21,80.48,215.24,77.66Z"/><path class="cls-16" d="M141.48,164s1.14-2.35-3.19-7.48c-1.41-1.81-.16-2.44,1.22-2.73s19.45-9,56.28-4.17c0,0,3.08,1.47-.65,4.57,0,0-4.31,9.73-3.46,14,0,0-.07,3.16-3,1.33,0,0-15.28-8.82-44.42-.64C144.28,168.9,140.1,170.91,141.48,164Z"/><path class="cls-17" d="M190.27,170.36a3.26,3.26,0,0,1-1.7-.61c-.15-.08-15.54-8.66-44.22-.61a2.6,2.6,0,0,1-2.49-.1c-.94-.73-1.15-2.44-.63-5.06l0-.06s1-2.33-3.16-7.21a2.09,2.09,0,0,1-.6-1.94c.28-.76,1.25-1,2-1.19l.85-.3c18.38-6.79,40.33-5.85,55.51-3.88l.08,0a2.46,2.46,0,0,1,1.32,1.73c.12,1-.51,2.06-1.87,3.21-.34.78-4.22,9.81-3.42,13.79,0,.12,0,1.53-1,2A1.47,1.47,0,0,1,190.27,170.36Zm-22.44-5.18a61.52,61.52,0,0,1,9.63.73c7.42,1.17,11.33,3.39,11.36,3.41.83.52,1.47.66,1.9.43.67-.36.71-1.53.71-1.54-.86-4.24,3.31-13.69,3.49-14.1L195,154c1.24-1,1.84-2,1.74-2.8a1.91,1.91,0,0,0-1-1.33c-15.12-2-37-2.89-55.22,3.86-.49.18-.78.28-.93.32-.93.19-1.46.48-1.6.87s0,.84.52,1.45c4.16,4.93,3.37,7.39,3.24,7.71-.6,3-.09,4.13.45,4.54.78.61,2,0,2,0A87.33,87.33,0,0,1,167.83,165.18Z"/><path class="cls-16" d="M141,160.77s30.67-11.79,52.27-1.52"/><path class="cls-17" d="M141,161l-.18-.47c.31-.12,31-11.71,52.46-1.52l-.21.45C171.86,149.38,141.35,160.89,141,161Z"/><path class="cls-18" d="M46,194.15s-28.23,15.42,0,41.24c0,0-17,36.93,69.25,39.82l33-2.18s71.24,13.36,81.12-26l-99.26-31.17Z"/><polygon class="cls-19" points="117.34 254.58 104.29 267.92 60.45 252.86 78.19 242.4 117.34 254.58"/><path class="cls-20" d="M104.29,268.42a.51.51,0,0,1-.17,0l-43.83-15a.51.51,0,0,1-.34-.43.51.51,0,0,1,.24-.48L77.93,242a.54.54,0,0,1,.41-.05l39.15,12.18a.5.5,0,0,1,.21.83l-13.06,13.34A.51.51,0,0,1,104.29,268.42ZM61.64,252.74l42.51,14.6,12.26-12.53L78.25,242.94Z"/><path class="cls-21" d="M219.8,253.26l1.52-1.26,3.09-.16,2.25,2.25c0-2.67-1.79-4.32-5.34-3.29a6.13,6.13,0,0,1-.93.1Z"/><path class="cls-21" d="M225.38,254c0,2.5-5.85,3.15-7.64,4.41a12.58,12.58,0,0,0-2,2.88l10.4-6S225.38,252,225.38,254Z"/><path class="cls-9" d="M219.8,254.17l.87-.21a2.75,2.75,0,0,1,.84-1.45c.88-.79,3.88-.62,3.88,1.32,0,3.2-6,4.18-7.8,5.43a8.06,8.06,0,0,0-1.61,2.16s.65.12.8,0c2.73-2.26,9.88-3.2,9.88-7.43,0-1.51-2.2-3.42-5.34-2.29a5.28,5.28,0,0,1-.93.11Z"/><path class="cls-9" d="M214.82,262.21H200.51a4.18,4.18,0,0,0,2.1,2.69,12.37,12.37,0,0,0,10.11,0A4.18,4.18,0,0,0,214.82,262.21Z"/><path class="cls-21" d="M220.81,248.88H194.52a24.83,24.83,0,0,0,3.85,11.36,11.72,11.72,0,0,0,18.59,0A24.83,24.83,0,0,0,220.81,248.88Z"/><path class="cls-21" d="M207.66,243.42c7.26,0,13.15,2.46,13.15,5.49s-5.89,5.49-13.15,5.49-13.14-2.46-13.14-5.49S200.41,243.42,207.66,243.42Z"/><path class="cls-9" d="M207.67,245.66c6.05,0,11.09,1.73,12.28,4a2.29,2.29,0,0,0,.26-1c0-2.8-5.62-5.07-12.54-5.07s-12.55,2.27-12.55,5.07a2.29,2.29,0,0,0,.26,1C196.57,247.39,201.62,245.66,207.67,245.66Z"/><path class="cls-22" d="M207.67,253.74c6.05,0,11.09-1.74,12.28-4-1.19-2.31-6.23-4-12.28-4s-11.1,1.73-12.29,4C196.57,252,201.62,253.74,207.67,253.74Z"/><path class="cls-23" d="M216.08,248.34c-1.85-2.15-7.86-1.19-8.42-.12-.76-1.14-6.62-2-8.41.12-1.13,1.32,1.47,2.56,4.07,3.46,1.64.63,0,1.34,0,1.34a26.86,26.86,0,0,0,11.1-2.31C215.91,250.08,216.84,249.21,216.08,248.34Z"/><path class="cls-24" d="M213,249.09c-1.09-1.72-5.11-1-5.54-.17-.43-.91-4.24-1.65-5.55,0-.82,1,.81,2,2.47,2.79,1,.51-.08,1.06-.08,1.06a16.06,16.06,0,0,0,7.45-1.73h0C212.8,250.47,213.47,249.8,213,249.09Z"/><path class="cls-25" d="M211.17,249.72c-.72-1.16-3.41-.68-3.7-.12-.29-.61-2.84-1.1-3.72,0-.55.69.54,1.37,1.66,1.86.69.35-.06.71-.06.71a10.69,10.69,0,0,0,5-1.15C211,250.64,211.47,250.19,211.17,249.72Z"/><g class="cls-26"><path class="cls-27" d="M208.38,238.8c-2-2.05-.66-5.05-.66-5.05s-4.15,4-1.53,6.69c3,3.16,1.53,5.13,1.53,5.13S211.48,242,208.38,238.8Z"/><path class="cls-27" d="M202.46,240.65C201,239.15,202,237,202,237s-3.12,2.88-1.15,4.87c2.27,2.3,1.15,3.73,1.15,3.73S204.79,243,202.46,240.65Z"/><path class="cls-27" d="M214.25,240.65c-1.49-1.5-.5-3.68-.5-3.68s-3.11,2.88-1.15,4.87c2.28,2.3,1.15,3.73,1.15,3.73S216.57,243,214.25,240.65Z"/></g><path class="cls-28" d="M169.78,240.33c-.5-5.4-10.66-1.1-13.94-3.21-1.51-1-2.87-4.83-6.85-4.46a5.08,5.08,0,0,0-1.45,9.74,5.07,5.07,0,0,0,3.22,9.3c4-.37,4.61-4.41,5.91-5.64C159.5,243.38,170.28,245.74,169.78,240.33Z"/><g class="cls-29"><path d="M160.11,244.77l1.25-.18,4.88-3.3-5.47-3.6-1.41.06,1.49,2a37.33,37.33,0,0,0-4.29,1.13,28.14,28.14,0,0,0,3.82,2.8Z"/></g><g class="cls-30"><path class="cls-1" d="M146.29,246.3a6.56,6.56,0,0,1,5.91-3.45l-.12-.08a4,4,0,0,0-5.4,1.67,4.06,4.06,0,0,0-.5,2.09C146.22,246.46,146.25,246.38,146.29,246.3Z"/></g><g class="cls-30"><path class="cls-1" d="M146.11,236.28a4.73,4.73,0,0,1,4.27-2.49l-.09-.06a2.87,2.87,0,0,0-3.9,1.21,2.93,2.93,0,0,0-.36,1.51A.65.65,0,0,1,146.11,236.28Z"/></g><path class="cls-31" d="M186.92,254.39c24.56-2.28,21.68-33.3-2.88-31-9.83.92-14.21,8.25-19.49,12.48a8.43,8.43,0,0,1-4.59,1.51,19.76,19.76,0,0,0,1.83,2.63,33.46,33.46,0,0,0-3.77,1,15.51,15.51,0,0,0,3.34,2.44c-.43.94-.68,1.67-.68,1.67a8.39,8.39,0,0,1,4.79.63C171.44,248.89,177.09,255.3,186.92,254.39Z"/><rect class="cls-32" x="186.94" y="235.6" width="1.26" height="1.26" transform="translate(-20.97 18.29) rotate(-5.29)"/><rect class="cls-32" x="192.4" y="234.75" width="1.26" height="1.26" transform="matrix(1, -0.09, 0.09, 1, -20.84, 18.76)"/><rect class="cls-32" x="181.81" y="236.37" width="1.26" height="1.26" transform="translate(-21.15 17.9) rotate(-5.31)"/><rect class="cls-32" x="175.99" y="236.91" width="1.26" height="1.26" transform="translate(-21.3 17.44) rotate(-5.33)"/><rect class="cls-32" x="186.91" y="225.87" width="1.26" height="1.26" transform="translate(-20.09 18.26) rotate(-5.29)"/><rect class="cls-32" x="181.54" y="226.64" width="1.26" height="1.26" transform="translate(-20.25 17.83) rotate(-5.31)"/><rect class="cls-32" x="176.28" y="228.65" width="1.26" height="1.26" transform="translate(-20.5 17.39) rotate(-5.32)"/><rect class="cls-32" x="192.39" y="226.26" width="1.26" height="1.26" transform="translate(-20.17 18.83) rotate(-5.31)"/><rect class="cls-32" x="184.27" y="230.94" width="1.26" height="1.26" transform="translate(-20.63 18.1) rotate(-5.31)"/><rect class="cls-32" x="190.69" y="230.47" width="1.78" height="1.79" transform="translate(-20.5 18.63) rotate(-5.29)"/><rect class="cls-32" x="172.59" y="232.66" width="1.26" height="1.26" transform="translate(-20.73 16.93) rotate(-5.28)"/><rect class="cls-32" x="178.26" y="232.48" width="1.78" height="1.79" transform="translate(-20.74 17.5) rotate(-5.29)"/><rect class="cls-32" x="196.69" y="230.43" width="1.26" height="1.26" transform="translate(-20.32 19.03) rotate(-5.25)"/><polygon class="cls-19" points="44.65 189.69 56.06 241.4 125.76 258.53 118.71 207.94 44.65 189.69"/><path class="cls-20" d="M125.76,259h-.12l-69.7-17.14a.5.5,0,0,1-.37-.38L44.16,189.79a.52.52,0,0,1,.14-.46.51.51,0,0,1,.47-.13l74.06,18.25a.49.49,0,0,1,.37.42l7.06,50.59a.51.51,0,0,1-.16.44A.5.5,0,0,1,125.76,259ZM56.48,241l68.68,16.88-6.9-49.53-72.95-18Z"/><polygon class="cls-33" points="129.24 203.48 118.71 207.94 125.76 258.53 136.19 253.74 129.24 203.48"/><path class="cls-20" d="M125.76,259a.53.53,0,0,1-.24-.06.47.47,0,0,1-.25-.37L118.21,208a.51.51,0,0,1,.3-.53L129.05,203a.49.49,0,0,1,.44,0,.5.5,0,0,1,.25.36l6.95,50.26a.5.5,0,0,1-.29.52L126,259A.52.52,0,0,1,125.76,259Zm-6.5-50.78,6.9,49.55,9.49-4.36-6.81-49.24Z"/><polygon class="cls-33" points="51.97 184.9 129.24 203.48 118.71 207.94 44.65 189.69 51.97 184.9"/><path class="cls-20" d="M118.71,208.44l-.12,0L44.53,190.17a.5.5,0,0,1-.15-.9l7.32-4.79a.52.52,0,0,1,.39-.07L129.36,203a.5.5,0,0,1,.38.44.48.48,0,0,1-.3.5L118.9,208.4A.43.43,0,0,1,118.71,208.44Zm-72.82-19,72.78,17.93,9-3.8L52.07,185.44Z"/><polygon class="cls-19" points="74.16 253.14 74.16 245.57 100.37 252.29 100.37 262.21 74.16 253.14"/><path class="cls-20" d="M100.37,262.71a.51.51,0,0,1-.17,0L74,253.61a.5.5,0,0,1-.33-.47v-7.57a.51.51,0,0,1,.19-.4.54.54,0,0,1,.43-.09l26.21,6.73a.49.49,0,0,1,.38.48v9.92a.49.49,0,0,1-.5.5Zm-25.71-9.93,25.21,8.73v-8.83l-25.21-6.47Z"/><polygon class="cls-19" points="109.27 254.48 100.37 262.21 100.37 252.29 109.27 254.48"/><path class="cls-20" d="M100.37,262.71a.52.52,0,0,1-.21,0,.51.51,0,0,1-.29-.46v-9.92a.49.49,0,0,1,.19-.39.51.51,0,0,1,.43-.1l8.9,2.19a.51.51,0,0,1,.37.37.53.53,0,0,1-.16.5l-8.9,7.73A.52.52,0,0,1,100.37,262.71Zm.5-9.78v8.18l7.35-6.38Z"/></svg>