<?xml version="1.0" encoding="UTF-8"?>
<svg width="24px" height="24px" viewBox="0 0 24 24" version="1.1" xmlns="http://www.w3.org/2000/svg" xmlns:xlink="http://www.w3.org/1999/xlink">
    <title>勾选2</title>
    <g id="2.0" stroke="none" stroke-width="1" fill="none" fill-rule="evenodd">
        <g id="通用基础-删格" transform="translate(-252.000000, -172.000000)">
            <g id="勾选2" transform="translate(252.000000, 172.000000)">
                <polygon id="路径" points="0 0 24 0 24 24 0 24"></polygon>
                <path d="M17,3 C19.209139,3 21,4.790861 21,7 L21,17 C21,19.209139 19.209139,21 17,21 L7,21 C4.790861,21 3,19.209139 3,17 L3,7 C3,4.790861 4.790861,3 7,3 L17,3 Z M17,5 L7,5 C5.9456382,5 5.08183488,5.81587779 5.00548574,6.85073766 L5,7 L5,17 C5,18.0543618 5.81587779,18.9181651 6.85073766,18.9945143 L7,19 L17,19 C18.0543618,19 18.9181651,18.1841222 18.9945143,17.1492623 L19,17 L19,7 C19,5.9456382 18.1841222,5.08183488 17.1492623,5.00548574 L17,5 Z M16.9724919,8.97696493 C17.3523946,9.35659918 17.3526123,9.97232556 16.972978,10.3522283 L16.9533742,10.3713018 L16.9533742,10.3713018 L11.7095688,15.3316281 C11.3162073,15.7037246 10.6981411,15.6951411 10.3152644,15.3122644 L7.467,12.464 C7.07653468,12.0735347 7.07653468,11.4404653 7.467,11.05 C7.85746532,10.6595347 8.49053468,10.6595347 8.881,11.05 L11.003,13.172 L15.5331535,8.95174045 C15.9415007,8.5713271 16.5777249,8.58247696 16.9724919,8.97696493 Z" id="形状结合" fill="#5D6E7F" fill-rule="nonzero"></path>
            </g>
        </g>
    </g>
</svg>