<svg id="图层_1" data-name="图层 1" xmlns="http://www.w3.org/2000/svg" viewBox="0 0 300 300"><defs><style>.cls-1,.cls-9{fill:#fff;}.cls-1,.cls-3,.cls-5,.cls-8{fill-rule:evenodd;}.cls-2{fill:#a1a9ad;}.cls-3{fill:#0569ff;}.cls-4{fill:#14789d;}.cls-5{fill:#e4e4e3;}.cls-6{fill:#e7baba;}.cls-7{fill:#db9796;}.cls-10,.cls-8{fill:#24304a;}.cls-11{fill:#381608;}.cls-12{fill:#f6c066;}.cls-13{fill:#f2ad48;}.cls-14{fill:#fdecd5;}.cls-15{fill:#f9f3f3;}.cls-16{fill:#1d1917;}.cls-17{fill:#e45541;}.cls-18{fill:#040000;}</style></defs><path class="cls-1" d="M125.35,236.06s3.09,28.2,5.16,30.1c0,0-7.21,5.17-6.44,10,3.49,2.5,10.31.37,13.52,0,2.49-.3,8.26.18,9-4.69s0-21.4,0-21.4,5.82-12.68,11.6-.67c0,0-.55,13.09,1.93,17.39,0,0-4.38,6.71.64,8.7s18,.67,18,.67,2.47-2.57.65-5.36a7.84,7.84,0,0,0-4.51-3.34s6.4-2.07,5.79-30.77L175.58,230l-49.58,2-.65,4Z"/><path class="cls-2" d="M128.8,277.65a8.37,8.37,0,0,1-4.88-1.25l-.08-.06,0-.11c-.71-4.54,5.12-9.2,6.33-10.12-2.09-3.26-4.92-28.9-5-30V236l.67-4.22H126l49.71-2,5.28,6.86v.08c.5,24-3.87,29.5-5.43,30.7a8.34,8.34,0,0,1,4.1,3.29c1.9,2.91-.65,5.63-.68,5.66l-.06.06h-.09c-.54.06-13.13,1.31-18.15-.68a3.78,3.78,0,0,1-2.37-2.38c-.81-2.55,1.1-5.86,1.53-6.56-2.34-4.32-1.94-16.24-1.9-17.33-1.59-3.3-3.32-5-5.13-5h0c-3.14,0-5.65,5.06-5.92,5.64,0,1.27.73,16.65,0,21.39-.67,4.35-5.24,4.63-8,4.8-.48,0-.91,0-1.27.09-.67.08-1.48.24-2.43.41A35.77,35.77,0,0,1,128.8,277.65Zm-4.5-1.6c2.69,1.84,7.37,1,10.8.31,1-.18,1.78-.33,2.46-.41.37-.05.81-.07,1.3-.1,2.74-.17,6.89-.42,7.5-4.38.74-4.78,0-21.19,0-21.35v-.06l0-.06c.11-.24,2.77-5.95,6.4-6h0c2,0,3.92,1.79,5.61,5.31l0,.06v.06c0,.13-.52,13.06,1.9,17.25l.07.14-.08.13s-2.38,3.68-1.55,6.26a3.24,3.24,0,0,0,2.07,2.06c4.69,1.86,16.63.78,17.82.67a4.13,4.13,0,0,0,.56-5,7.72,7.72,0,0,0-4.35-3.24l-.92-.19.89-.29c.06,0,6.2-2.52,5.63-30.44l-5-6.53-49.25,2-.6,3.77c.86,7.85,3.43,28.41,5.07,29.92l.22.21-.25.17C130.58,266.41,123.69,271.42,124.3,276.05Z"/><path class="cls-3" d="M124.07,192.58l-12.88,12s-.45,2.49.64,3.34,7.81,7.12,9.66,8,3.6,1.62,4.51,1.34c0,0-3.26,14.28-1.29,17.39s8.54,3.76,13.52,4,43.2.33,43.79-2.67c1.13-5.7-2.74-21.89-3.22-23.41,0,0,3.22,3.48,5.15,4s2.29.34,3.22,0,8.14-5.07,10.31-8.7c.64-1.89-1.29-4-1.29-4s-10.78-9.23-16.1-10.7-16.1-7.36-16.1-7.36l-39.92,6.69Z"/><path class="cls-4" d="M126,217.33l-1.93-.67,6.44-10.7L126,217.33Zm52.16-4.68c-.8-.61-4.51-6.69-4.51-6.69.78,1.13,5.8,6,5.8,6l-1.29.67Z"/><path class="cls-1" d="M241.67,145.06l-6.15-78c12.15,8.74,21.36,25.53,21.36,45.33,0,16.81-5.95,27-15.21,32.66Z"/><path class="cls-2" d="M241.45,145.49l0-.41-6.19-78.53.43.31c13.25,9.53,21.47,27,21.47,45.54,0,15.62-5.15,26.68-15.33,32.88Zm-5.64-77.9,6.08,77c9.78-6.15,14.74-17,14.74-32.24C256.63,94.2,248.67,77.09,235.81,67.59Z"/><path class="cls-5" d="M241.79,134.22,234,65c10.89,8.1,19.09,23.29,19.09,41.15,0,13.72-4.34,22.64-11.3,28.08Z"/><path class="cls-1" d="M58.48,145l5.59-77.79C52,76,43,92.81,43.12,112.54c.11,16.76,6.11,26.9,15.36,32.46Z"/><path class="cls-2" d="M58.7,145.42l-.35-.21C48.18,139.1,43,128.11,42.87,112.54,42.74,94,50.81,76.6,63.92,67l.44-.32,0,.54Zm5.08-77.68c-12.73,9.55-20.54,26.66-20.41,44.8.1,15.2,5.11,26,14.89,32Z"/><path class="cls-5" d="M58.29,134.19l7.28-69.06c-10.79,8.15-18.84,23.35-18.72,41.14.1,13.68,4.48,22.55,11.44,27.92Z"/><path class="cls-1" d="M150.11,22.6c54.78,0,99.18,41.15,99.18,90.75s-44.4,79.34-99.18,79.34-99.18-29.75-99.18-79.34S95.34,22.6,150.11,22.6Z"/><path class="cls-2" d="M150.11,192.94c-27.39,0-52.35-7.5-70.28-21.13-19.07-14.49-29.15-34.7-29.15-58.46,0-24.12,10.35-46.9,29.13-64.16s43.81-26.84,70.3-26.84,51.46,9.54,70.3,26.84,29.13,40,29.13,64.16c0,23.76-10.08,44-29.15,58.46C202.46,185.44,177.5,192.94,150.11,192.94Zm0-170.09c-26.36,0-51.21,9.49-70,26.71s-29,39.81-29,63.79c0,23.59,10,43.67,28.95,58.06,17.85,13.56,42.7,21,70,21s52.14-7.47,70-21C239,157,249,136.94,249,113.35c0-24-10.29-46.63-29-63.79S176.48,22.85,150.11,22.85Z"/><path class="cls-6" d="M123.77,128.21c0,1.74-5.48,3.19-12.71,3.49-.89,0-1.8.06-2.74.06h-.06c-1.49,0-2.92-.06-4.28-.15-.91-.06-1.79-.14-2.63-.24-5-.58-8.48-1.78-8.48-3.16,0-1.73,5.36-3.16,12.47-3.48.91,0,1.85-.06,2.82-.07h.16c1.43,0,2.81,0,4.12.13.92.06,1.8.13,2.64.23C120.22,125.59,123.77,126.81,123.77,128.21Z"/><path class="cls-6" d="M209.36,128.21c0,1.74-5.5,3.2-12.74,3.49-.88,0-1.79.06-2.71.06h-.09c-1.49,0-2.92-.06-4.27-.15-.92-.06-1.8-.14-2.63-.24-5-.59-8.46-1.78-8.46-3.16,0-1.73,5.35-3.16,12.45-3.48.91,0,1.85-.06,2.81-.07h.19c1.42,0,2.79,0,4.09.13.92,0,1.8.13,2.64.22C205.8,125.59,209.36,126.8,209.36,128.21Z"/><path class="cls-7" d="M108.16,124.66l-4.18,7c-.91-.06-1.79-.14-2.63-.24l4-6.64C106.25,124.69,107.19,124.67,108.16,124.66Z"/><path class="cls-7" d="M115.08,125l-4,6.68c-.89,0-1.8.06-2.74.06h-.06l4.18-7C113.36,124.85,114.24,124.92,115.08,125Z"/><path class="cls-7" d="M193.72,124.66l-4.17,7c-.92-.06-1.8-.14-2.63-.24l4-6.64Z"/><path class="cls-7" d="M200.64,125l-4,6.69c-.88,0-1.79.06-2.71.06h-.09l4.18-7C198.92,124.84,199.8,124.92,200.64,125Z"/><path class="cls-8" d="M151.54,30.2c48.22,0,93.25,45.69,86.36,88.85-3.07,19.28-38.14-6.18-86.36-6.18s-87.32,55.24-87.32,6.18S103.31,30.2,151.54,30.2Z"/><path class="cls-9" d="M213,65.94l-.53.79a1.82,1.82,0,0,1-2.88.36c-9.13-9.34-18.89-17-30.3-20.74a1.59,1.59,0,0,1-.63-2.57l.53-.78a3.51,3.51,0,0,1,3.65-1.27C196.22,46.05,205,54,213,62.52a2.92,2.92,0,0,1,0,3.42Zm3.61,8.86a3.33,3.33,0,1,1,2.91-3.69,3.34,3.34,0,0,1-2.91,3.69Z"/><path class="cls-9" d="M211.11,99.68l-.71.72a3.39,3.39,0,0,1-4.78.19L190.51,85.47a3.42,3.42,0,0,1,.19-4.8l.72-.71a3.39,3.39,0,0,1,4.78-.19l15.1,15.12a3.39,3.39,0,0,1-.19,4.79ZM196.75,85.75l-15.36,15.38a3.45,3.45,0,0,1-4.87-.2l-.72-.72a3.44,3.44,0,0,1-.19-4.87L191,80a3.43,3.43,0,0,1,4.86.19l.73.72a3.47,3.47,0,0,1,.19,4.88Zm-86.91-.17-15,15a3.36,3.36,0,0,1-4.75-.19l-.7-.71a3.37,3.37,0,0,1-.19-4.76l15-15a3.35,3.35,0,0,1,4.75.19l.71.7a3.38,3.38,0,0,1,.19,4.76Zm14.6,14.64-.72.72a3.41,3.41,0,0,1-4.83.19L103.65,85.86a3.43,3.43,0,0,1,.19-4.84l.72-.72a3.42,3.42,0,0,1,4.83-.19l15.24,15.27a3.43,3.43,0,0,1-.19,4.84Z"/><path class="cls-10" d="M117.77,146a.48.48,0,1,1,1,0s0,2.43,2.66,5.09c3.22,3.22,10.34,6.78,26.08,6.78,32.84,0,33.12-11.87,33.12-11.87a.48.48,0,0,1,.95,0c0,.53-.68,12.8-34.07,12.8-9,0-20.92-1.23-26.76-7.06-2.9-2.9-2.93-5.65-2.93-5.76h0"/><path class="cls-1" d="M142.06,214.31v.11c-12.23,3.18-6.15,14.48,3.2,13l1.05,3.39c-7.89-.05-14.07-4.77-14.42-9.34s3.71-8.07,9.1-8.18c-3.09-13.66,25.83-13.66,22.37,0,5.39.11,9.45,3.62,9.1,8.18s-6.53,9.29-14.42,9.34l1.05-3.39c7.87,1.11,17.51-11.34,3.2-13v-.11C162.23,203.5,142.06,203.51,142.06,214.31Z"/><path class="cls-1" d="M149.22,231.68c-.87-9,9.05-3.65,10.54-11.28.61-3.15,0-6.53-3-8.31-4.36-2.24-11.67-.3-11.07,6.07s9.44,4,8.63.12c-1.26,1.69-3.82,2.31-5,1.42-2.72-2,.44-6.51,4.63-5.46,2.76.68,2.57,2.35,2.77,4.35.41,4-3.43,4.25-7,5.9C145.39,226.5,149.22,231.68,149.22,231.68Z"/><path class="cls-1" d="M153.71,227.48a2.23,2.23,0,1,1-2.22,2.22A2.23,2.23,0,0,1,153.71,227.48Z"/><path class="cls-1" d="M188.6,201.83s-10.14.57-13.67-.19c0,0-5.8-.56-6.23-3s-8.79-5.69-10.63,4.07,22.79,15.62,37.34,15.82h0a6.47,6.47,0,0,0,4-7.56l-.23-1a10.63,10.63,0,0,0-10.56-8.13Z"/><path class="cls-2" d="M195.46,218.74h-.05c-11.51-.16-30.44-4-36-10.88a6.25,6.25,0,0,1-1.54-5.24c1.16-6.15,4.8-6.83,6.34-6.83h0c2.44,0,4.51,1.48,4.74,2.77.4,2.26,6,2.83,6,2.83,3.48.75,13.53.2,13.64.19h.24a10.94,10.94,0,0,1,10.57,8.32l.23,1a6.73,6.73,0,0,1-4.13,7.85Zm-31.3-22.45c-1.75,0-4.79.85-5.85,6.42a5.76,5.76,0,0,0,1.44,4.83c5.51,6.73,24.2,10.54,35.62,10.7a6.24,6.24,0,0,0,3.78-7.25l-.24-1a10.42,10.42,0,0,0-10.08-7.94h-.22c-.47,0-10.22.56-13.73-.2-.22,0-6-.6-6.43-3.23-.19-1.06-2.13-2.34-4.26-2.36Z"/><path class="cls-1" d="M120,201s10.14.56,13.67-.2c0,0,5.8-.55,6.23-3s8.79-5.7,10.63,4.06-22.79,15.63-37.34,15.82h0a6.46,6.46,0,0,1-4-7.56l.23-1A10.62,10.62,0,0,1,120,201Z"/><path class="cls-2" d="M113.16,217.85h0A6.73,6.73,0,0,1,109,210l.23-1a10.93,10.93,0,0,1,10.57-8.33H120c.1,0,10.15.55,13.61-.19.08,0,5.64-.57,6-2.83.22-1.3,2.3-2.76,4.74-2.77h0c1.54,0,5.18.68,6.34,6.82a6.25,6.25,0,0,1-1.54,5.24c-5.61,6.86-24.54,10.73-36,10.88Zm6.63-16.66a10.42,10.42,0,0,0-10.08,7.94l-.24,1a6.23,6.23,0,0,0,3.78,7.25c11.42-.16,30.11-4,35.62-10.7a5.73,5.73,0,0,0,1.43-4.82c-1.05-5.58-4.09-6.42-5.84-6.42h0c-2.14,0-4.08,1.3-4.26,2.35-.46,2.64-6.21,3.22-6.46,3.24-3.48.75-13.23.22-13.7.2Z"/><rect class="cls-11" x="130.84" y="178.16" width="10.2" height="1.51" transform="translate(239.73 -20.38) rotate(64.74)"/><rect class="cls-11" x="170.15" y="184.31" width="10.21" height="1.51" transform="translate(429.92 174.64) rotate(131.1)"/><ellipse class="cls-12" cx="153.1" cy="202.63" rx="26.17" ry="26.15"/><path class="cls-13" d="M145.64,173.2A10.59,10.59,0,0,0,134.56,169a11,11,0,0,1-4.39,9.08,11.09,11.09,0,0,1-4.31,2,10.41,10.41,0,0,0,.36,2.2Z"/><path class="cls-12" d="M134.56,169a11.61,11.61,0,0,0-2.35.79,10.82,10.82,0,0,0-6.35,10.3,11.09,11.09,0,0,0,4.31-2A11,11,0,0,0,134.56,169Z"/><path class="cls-13" d="M167.05,177.87a10.62,10.62,0,0,1,11.38-3.39,11,11,0,0,0,3.67,9.4,11.24,11.24,0,0,0,4.15,2.33,9.85,9.85,0,0,1-.54,2.17Z"/><path class="cls-12" d="M178.43,174.48a11.36,11.36,0,0,1,2.28,1,10.84,10.84,0,0,1,5.54,10.75,11.24,11.24,0,0,1-4.15-2.33A11,11,0,0,1,178.43,174.48Z"/><path class="cls-13" d="M156.7,176.73l-7.2,51.8a26.15,26.15,0,1,0,7.2-51.8Z"/><ellipse class="cls-14" cx="153.1" cy="202.63" rx="21.5" ry="21.48" transform="translate(-0.26 0.2) rotate(-0.07)"/><path class="cls-15" d="M163.4,204.06a10.4,10.4,0,1,1-8.87-11.73A10.4,10.4,0,0,1,163.4,204.06Z"/><path class="cls-16" d="M155.51,203a2.43,2.43,0,1,1-2.08-2.74A2.43,2.43,0,0,1,155.51,203Z"/><rect class="cls-17" x="156.95" y="201.54" width="0.4" height="15.49" transform="translate(398.01 311.67) rotate(149.93)"/><path class="cls-18" d="M156,203a2.91,2.91,0,1,1-2.48-3.28A2.91,2.91,0,0,1,156,203Z"/><rect class="cls-18" x="153.05" y="192.94" width="1.56" height="9.7" transform="matrix(0.98, 0.21, -0.21, 0.98, 43.94, -27.4)"/><polygon class="cls-18" points="155.26 190.96 152.82 192.98 156.69 193.79 155.26 190.96"/><rect class="cls-18" x="146.11" y="196.88" width="1.13" height="9.71" transform="translate(-73.35 319.21) rotate(-82.08)"/><polygon class="cls-18" points="139.75 200.77 142.01 202.53 142.41 199.7 139.75 200.77"/><path class="cls-18" d="M153.93,186.7l.66.09.31-2.26-.52-.07,0-.22a1.61,1.61,0,0,0,.63-.12l.25,0-.38,2.68.6.08,0,.27-1.59-.22Z"/><path class="cls-18" d="M156,187.06c1.06-.69,1.56-1.23,1.63-1.74a.54.54,0,0,0-.47-.69.9.9,0,0,0-.68.26l-.17-.21a1.16,1.16,0,0,1,.92-.31.81.81,0,0,1,.73,1c-.09.6-.64,1.14-1.45,1.72a3.73,3.73,0,0,1,.48,0l.85.12,0,.28-1.83-.25Z"/><path class="cls-18" d="M168.85,206l.2-.19a.94.94,0,0,0,.69.44.57.57,0,0,0,.7-.48c.05-.37-.16-.65-.85-.75l0-.25c.61.08.86-.14.91-.47a.48.48,0,0,0-.45-.57.9.9,0,0,0-.66.22l-.15-.24a1.2,1.2,0,0,1,.86-.24.76.76,0,0,1,.74.85.73.73,0,0,1-.63.64v0a.77.77,0,0,1,.52.84.85.85,0,0,1-1,.71A1.21,1.21,0,0,1,168.85,206Z"/><path class="cls-18" d="M135.34,201.29a.73.73,0,0,0,.48.29c.38,0,.77-.22.93-1.17a.94.94,0,0,1-.74.28c-.49-.07-.76-.43-.68-1a.89.89,0,0,1,1-.84c.57.08.92.61.79,1.53-.17,1.21-.74,1.59-1.29,1.52a1,1,0,0,1-.66-.39Zm1.45-1.16c.05-.62-.13-1-.53-1.06s-.56.21-.62.62.09.71.45.76A.83.83,0,0,0,136.79,200.13Z"/><path class="cls-18" d="M151.57,218.14a.67.67,0,0,0-.44-.3c-.42-.05-.81.22-1,1.16a.93.93,0,0,1,.73-.27c.5.07.77.43.69,1a.9.9,0,0,1-1,.84c-.57-.08-.91-.63-.77-1.59.16-1.17.74-1.53,1.3-1.45a.89.89,0,0,1,.64.39Zm-.3,1.59c.06-.41-.08-.71-.46-.76a.78.78,0,0,0-.67.31c0,.63.13,1,.52,1.07S151.21,220.14,151.27,219.73Z"/></svg>