<?xml version="1.0" encoding="UTF-8"?>
<svg width="24px" height="24px" viewBox="0 0 24 24" version="1.1" xmlns="http://www.w3.org/2000/svg" xmlns:xlink="http://www.w3.org/1999/xlink">
    <title>回退</title>
    <g id="2.0" stroke="none" stroke-width="1" fill="none" fill-rule="evenodd">
        <g id="通用基础-删格" transform="translate(-461.000000, -172.000000)">
            <g id="回退" transform="translate(461.000000, 172.000000)">
                <polygon id="路径" points="0 0 24 0 24 24 0 24"></polygon>
                <path d="M18.2568571,3 C20.4659961,3 22.2568571,4.790861 22.2568571,7 L22.2568571,7 L22.2568571,17 C22.2568571,19.209139 20.4659961,21 18.2568571,21 L18.2568571,21 L8.62061897,21 C6.94873622,21 5.38748659,20.1643783 4.46018463,18.7732267 L4.46018463,18.7732267 L1.05447745,13.663936 C0.382824923,12.6563133 0.382824923,11.3436867 1.05447745,10.336064 L1.05447745,10.336064 L4.46018463,5.22677334 C5.38748659,3.83562166 6.94873622,3 8.62061897,3 L8.62061897,3 Z M18.2568571,5 L8.62061897,5 C7.61748932,5 6.68073954,5.501373 6.12435836,6.336064 L6.12435836,6.336064 L2.71865119,11.4453547 C2.49476701,11.7812289 2.49476701,12.2187711 2.71865119,12.5546453 L2.71865119,12.5546453 L6.12435836,17.663936 C6.68073954,18.498627 7.61748932,19 8.62061897,19 L8.62061897,19 L18.2568571,19 C19.3614266,19 20.2568571,18.1045695 20.2568571,17 L20.2568571,17 L20.2568571,7 C20.2568571,5.8954305 19.3614266,5 18.2568571,5 L18.2568571,5 Z M10.7850068,8.38127984 L10.8793749,8.46462506 L10.8793749,8.46462506 L13,10.586 L15.1206251,8.46462506 C15.481182,8.10394064 16.0486233,8.07610028 16.4411172,8.38117147 L16.5355,8.4645 L16.5355,8.4645 C16.8961207,8.82512067 16.9238607,9.39256684 16.6187202,9.78500682 L16.5353749,9.87937492 L16.5353749,9.87937492 L14.414,12 L16.5353749,14.1206251 C16.8960594,14.481182 16.9238997,15.0486233 16.6188285,15.4411172 L16.5355,15.5355 L16.5355,15.5355 C16.1448276,15.9261724 15.5114225,15.9261724 15.1207501,15.5355 L15.1206251,15.5353749 L13,13.414 L10.8793749,15.5353749 C10.518818,15.8960594 9.95137674,15.9238997 9.55888283,15.6188285 L9.4645,15.5355 L9.4645,15.5355 C9.10387933,15.1748793 9.07613928,14.6074332 9.38127984,14.2149932 L9.46462506,14.1206251 L9.46462506,14.1206251 L11.586,12 L9.46462506,9.87937492 C9.10394064,9.518818 9.07610028,8.95137674 9.38117147,8.55888283 L9.4645,8.4645 L9.4645,8.4645 C9.82512067,8.10387933 10.3925668,8.07613928 10.7850068,8.38127984 Z" id="形状" fill="#5D6E7F" fill-rule="nonzero"></path>
            </g>
        </g>
    </g>
</svg>