<?xml version="1.0" encoding="UTF-8"?>
<svg width="16px" height="16px" viewBox="0 0 16 16" version="1.1" xmlns="http://www.w3.org/2000/svg" xmlns:xlink="http://www.w3.org/1999/xlink">
    <title>警示-小</title>
    <g id="组件" stroke="none" stroke-width="1" fill="none" fill-rule="evenodd">
        <g transform="translate(-2125.000000, -244.000000)" id="编组-44备份-2">
            <g transform="translate(2109.000000, 232.000000)">
                <g id="警示-小" transform="translate(16.000000, 12.000000)">
                    <polygon id="路径" points="0 0 16 0 16 16 0 16"></polygon>
                    <path d="M8,1 C11.8661,1 15,4.1339 15,8 C15,11.8661 11.8661,15 8,15 C4.1339,15 1,11.8661 1,8 C1,4.1339 4.1339,1 8,1 Z M8,12 C8.55228475,12 9,11.5522847 9,11 C9,10.4477153 8.55228475,10 8,10 C7.44771525,10 7,10.4477153 7,11 C7,11.5522847 7.44771525,12 8,12 Z M7.98291984,3.97447386 C7.60322408,3.97447386 7.28942888,4.25662775 7.23976646,4.62270331 L7.23291984,4.72447386 L7.23291984,8.22447386 C7.23291984,8.63868743 7.56870628,8.97447386 7.98291984,8.97447386 C8.36261561,8.97447386 8.6764108,8.69231998 8.72607322,8.32624442 L8.73291984,8.22447386 L8.73291984,4.72447386 C8.73291984,4.3102603 8.3971334,3.97447386 7.98291984,3.97447386 Z" id="形状" fill="#FF9B00" fill-rule="nonzero"></path>
                </g>
            </g>
        </g>
    </g>
</svg>