<svg id="图层_1" data-name="图层 1" xmlns="http://www.w3.org/2000/svg" viewBox="0 0 300 300"><defs><style>.cls-1{fill:#cf925c;}.cls-2{fill:#0e4e3a;}.cls-3{fill:#bfd6b7;}.cls-4{fill:#4d895a;}.cls-5{fill:#41435b;}.cls-6{fill:#2b2e40;}.cls-7{fill:#dbeeef;}.cls-8{fill:#1d1b2e;}.cls-9{fill:#ec9e76;}.cls-10{fill:#e27d4a;}.cls-11{fill:#55545f;}.cls-12{fill:#ee9479;}.cls-13,.cls-21{fill:#fff;}.cls-13,.cls-15,.cls-17,.cls-20{fill-rule:evenodd;}.cls-14{fill:#a1a9ad;}.cls-15{fill:#0569ff;}.cls-16{fill:#034fd2;}.cls-17{fill:#e4e4e3;}.cls-18{fill:#e7baba;}.cls-19{fill:#db9796;}.cls-20,.cls-22{fill:#24304a;}.cls-23{fill:#31baff;}</style></defs><path class="cls-1" d="M13.62,261.36H140.16s-6.2-32.44-37.84-22.15c0,0-22.33-33.3-51.48-2C50.84,237.19,18.58,224.17,13.62,261.36Z"/><rect class="cls-2" x="79.6" y="261.36" width="181.31" height="10.76" rx="2.59"/><path class="cls-3" d="M247.06,230.51s-23.55,5.24-18.69,32.26Z"/><path class="cls-4" d="M228.4,262.77l18.45-32.39s7.37,22.94-18.45,32.39"/><path class="cls-3" d="M258.82,253.35s-18.23-9.73-30.19,10.56Z"/><path class="cls-4" d="M228.66,263.88l30.11-10.77s-8,19-30.11,10.77"/><path class="cls-5" d="M54.7,236h7.5a3.47,3.47,0,0,1,3.47,3.47v19.9a0,0,0,0,1,0,0H51.23a0,0,0,0,1,0,0v-19.9A3.47,3.47,0,0,1,54.7,236Z"/><path class="cls-6" d="M60.63,244.85A5.69,5.69,0,1,1,55,239.17,5.68,5.68,0,0,1,60.63,244.85Z"/><path class="cls-7" d="M58.88,244.85A3.94,3.94,0,1,1,55,240.92,3.93,3.93,0,0,1,58.88,244.85Z"/><path class="cls-5" d="M83.93,159.22h-.55A27.76,27.76,0,0,0,55.6,187v49.09H62V187A21.3,21.3,0,0,1,83.3,165.67h.08A21.31,21.31,0,0,1,104.71,187h7A27.76,27.76,0,0,0,83.93,159.22Z"/><path class="cls-6" d="M83.6,162.06h0a24.7,24.7,0,0,0-24.72,24.69v49.3H62V187A21.3,21.3,0,0,1,83.3,165.67h.08A21.31,21.31,0,0,1,104.71,187h3.61v-.21A24.7,24.7,0,0,0,83.6,162.06Z"/><rect class="cls-8" x="74.74" y="233.48" width="1.23" height="25.38"/><polygon class="cls-8" points="75.04 239.1 77.99 236.16 78.86 237.03 75.91 239.97 75.04 239.1"/><polygon class="cls-8" points="75 243.9 71.32 240.22 72.02 239.52 75.7 243.2 75 243.9"/><polygon class="cls-8" points="75.04 247.09 77.45 244.68 78.15 245.38 75.74 247.78 75.04 247.09"/><path class="cls-9" d="M59.92,228.26s11.35-.52,12.47,12.36Z"/><path class="cls-10" d="M72.35,240.67,60,228.21s-.52,11.34,12.38,12.46"/><path class="cls-9" d="M75.39,216.89s-8.39,7.65-.06,17.55Z"/><path class="cls-10" d="M75.39,234.44l-.07-17.55s8.4,7.65.07,17.55"/><path class="cls-9" d="M88.58,226.58s-9.72-.45-10.69,10.59Z"/><path class="cls-10" d="M77.93,237.21l10.61-10.67s.45,9.71-10.61,10.67"/><path class="cls-4" d="M26.32,204s0,6.88,11,12.86A15.55,15.55,0,0,0,26.32,204Z"/><path class="cls-4" d="M26.32,218.37s6.27-4.08,14.81,4.37C41.13,222.74,33.25,225.38,26.32,218.37Z"/><path class="cls-4" d="M31,225.28s6.44-3.33,13.86,5.64A14.53,14.53,0,0,1,31,225.28Z"/><path class="cls-4" d="M43.86,208.85s-6.22,3.84-2.73,13.89C41.13,222.74,48.23,218.86,43.86,208.85Z"/><path class="cls-4" d="M49.54,217.65a12.18,12.18,0,0,0-4.65,13.27S52.86,226.71,49.54,217.65Z"/><path class="cls-4" d="M34.88,235.6s6.44-3.33,13.85,5.64A14.51,14.51,0,0,1,34.88,235.6Z"/><path class="cls-4" d="M53.39,228a12.19,12.19,0,0,0-4.66,13.27S56.71,237,53.39,228Z"/><path class="cls-2" d="M50,255.35c-.06-.27-6-26.65-15.29-37.86l3.85-3.19c10.06,12.15,16.07,38.83,16.32,40Z"/><path class="cls-11" d="M37.5,268.19c-.09-.13-9.1-12.89-22.77-21.4l1.58-2.55A89.55,89.55,0,0,1,40,266.48Z"/><path class="cls-11" d="M22.66,251.74c-.11-.25-2.76-6.17-3-10l2-.13c.23,3.49,2.82,9.28,2.84,9.33Z"/><path class="cls-11" d="M20.62,258.78,19.8,257a24.69,24.69,0,0,1,8.72-2.18l.06,2A23.34,23.34,0,0,0,20.62,258.78Z"/><path class="cls-11" d="M22.82,239.72a2.18,2.18,0,1,1-2.17-2.17A2.17,2.17,0,0,1,22.82,239.72Z"/><path class="cls-11" d="M16.1,245a2.18,2.18,0,1,1-2.17-2.17A2.17,2.17,0,0,1,16.1,245Z"/><path class="cls-11" d="M21.13,258.6A2.18,2.18,0,1,1,19,256.42,2.17,2.17,0,0,1,21.13,258.6Z"/><path class="cls-12" d="M20.52,273.84h87.8S104,256,82.07,261.64c0,0-15.5-18.34-35.73-1.11C46.34,260.53,24,253.36,20.52,273.84Z"/><path class="cls-13" d="M230.37,198s7.76,15.44-12.73,27.08l-6.07-3.78L217,198Z"/><path class="cls-14" d="M217.63,225.39l-6.34-3.95,0-.18,5.5-23.49h13.69l.07.14c.08.16,7.63,15.79-12.83,27.4Zm-5.77-4.19,5.78,3.61c5.76-3.3,12.78-9,13.79-17.62a17.85,17.85,0,0,0-1.22-8.92h-13Z"/><path class="cls-13" d="M152.6,197.77s-9.45,1.5-12.82,1.12c0,0-5.49,0-6.13-2.25s-8.77-4.5-9.57,4.82,22.84,12.46,36.48,11.26l4.78-2.41-7.06-11.84-5.68-.7Z"/><path class="cls-14" d="M154.73,213.21c-10.58,0-24-2.08-28.95-7a5.88,5.88,0,0,1-2-4.76c.51-5.93,3.9-6.88,5.34-7,2.29-.22,4.38,1,4.72,2.16.49,1.71,4.43,2,5.88,2.06,3.34.37,12.69-1.1,12.79-1.11h.07l5.8.72.06.1,7.21,12.08L160.58,213C158.8,213.13,156.82,213.21,154.73,213.21Zm-25-18.31a4.1,4.1,0,0,0-.49,0c-1.62.15-4.42,1.21-4.88,6.56a5.41,5.41,0,0,0,1.8,4.37c5.8,5.78,23.66,7.56,34.36,6.63l4.5-2.27-6.87-11.51L152.6,198c-.72.12-9.55,1.49-12.85,1.12h0c-.52,0-5.64-.08-6.3-2.43C133.16,195.82,131.51,194.9,129.7,194.9Z"/><path class="cls-13" d="M164.44,223.26s2.91,26.55,4.85,28.34c0,0-6.79,4.86-6.07,9.44,3.29,2.36,9.71.36,12.73,0,2.35-.27,7.78.18,8.49-4.4s0-20.15,0-20.15,5.47-11.93,10.91-.63c0,0-.51,12.32,1.82,16.37,0,0-4.12,6.31.61,8.18s17,.63,17,.63,2.32-2.42.6-5a7.38,7.38,0,0,0-4.24-3.15s6-2,5.46-29l-4.85-6.29L165,219.49l-.6,3.77Z"/><path class="cls-14" d="M167.68,262.42a7.86,7.86,0,0,1-4.6-1.17l-.09-.06v-.11c-.67-4.27,4.78-8.65,6-9.53-1.93-3.05-4.45-25.62-4.74-28.26v-.06l.64-4h.2l46.81-1.9,5,6.47v.08c.47,22.47-3.6,27.72-5.1,28.89a7.77,7.77,0,0,1,3.84,3.09c1.81,2.75-.61,5.32-.63,5.35l-.06.06h-.1c-.5,0-12.36,1.23-17.09-.64a3.57,3.57,0,0,1-2.24-2.25c-.76-2.4,1-5.5,1.44-6.18-2.2-4.08-1.82-15.26-1.78-16.31-1.5-3.1-3.12-4.67-4.82-4.67h0c-2.94,0-5.3,4.74-5.57,5.3.06,1.22.69,15.68,0,20.13-.64,4.11-4.94,4.37-7.51,4.53-.45,0-.86.05-1.2.09-.62.08-1.39.22-2.28.39A33.6,33.6,0,0,1,167.68,262.42Zm-4.22-1.52c2.52,1.72,6.93.89,10.15.28.9-.16,1.67-.31,2.31-.39.35,0,.77-.06,1.23-.09,2.57-.16,6.47-.39,7-4.1.7-4.51,0-20,0-20.1v-.06l0-.06c.11-.23,2.62-5.61,6-5.64h0c1.92,0,3.7,1.69,5.3,5l0,.06v.06c0,.12-.48,12.29,1.79,16.23l.07.14-.08.12s-2.23,3.47-1.46,5.89a3.09,3.09,0,0,0,2,1.93c4.4,1.74,15.61.73,16.76.62a3.85,3.85,0,0,0,.52-4.66,7.31,7.31,0,0,0-4.09-3l-.91-.19.89-.29s1.46-.56,2.84-4.36c1.27-3.51,2.72-10.57,2.44-24.28l-4.72-6.13-46.34,1.88-.57,3.54c.81,7.38,3.23,26.73,4.77,28.14l.22.21-.25.18C169.37,251.85,162.89,256.55,163.46,260.9Z"/><path class="cls-15" d="M163.22,186.4,151.1,197.73s-.42,2.35.61,3.15,7.35,6.7,9.09,7.56,3.39,1.52,4.24,1.26c0,0-3.06,13.44-1.21,16.37s8,3.53,12.73,3.77,40.66.31,41.22-2.51c1.06-5.37-2.59-20.61-3-22,0,0,3,3.28,4.85,3.78s2.15.31,3,0,7.66-4.78,9.7-8.19c.6-1.78-1.21-3.78-1.21-3.78S221,188.41,216,187s-15.15-6.93-15.15-6.93l-37.59,6.3Z"/><path class="cls-16" d="M165,209.7l-1.82-.63L169.29,199,165,209.7Zm49.1-4.41c-.74-.58-4.24-6.3-4.24-6.3.73,1.07,5.45,5.67,5.45,5.67l-1.21.63Z"/><path class="cls-13" d="M273.93,141.68l-5.79-73.42c11.44,8.23,20.11,24,20.11,42.67,0,15.82-5.6,25.44-14.32,30.75Z"/><path class="cls-14" d="M273.71,142.1l0-.4-5.84-73.95.44.31c12.47,9,20.22,25.39,20.22,42.87,0,14.71-4.86,25.13-14.44,31Zm-5.28-73.31,5.71,72.46c9.2-5.78,13.86-16,13.86-30.32C288,93.82,280.51,77.73,268.43,68.79Z"/><path class="cls-17" d="M274,131.47,266.7,66.31c10.26,7.62,18,21.92,18,38.73,0,12.92-4.09,21.31-10.64,26.43Z"/><path class="cls-13" d="M101.49,141.61l5.26-73.21C95.42,76.68,86.89,92.5,87,111.06c.11,15.78,5.76,25.32,14.47,30.55Z"/><path class="cls-14" d="M101.71,142l-.35-.21c-9.58-5.75-14.49-16.1-14.59-30.76-.12-17.42,7.48-33.85,19.83-42.87l.43-.32Zm4.75-73.11c-12,9-19.31,25.08-19.19,42.13.1,14.3,4.81,24.43,14,30.13Z"/><path class="cls-17" d="M101.3,131.44l6.86-65c-10.16,7.67-17.74,22-17.62,38.73.09,12.87,4.21,21.22,10.76,26.27Z"/><path class="cls-13" d="M187.74,26.41c51.56,0,93.36,38.74,93.36,85.41s-41.8,74.68-93.36,74.68-93.36-28-93.36-74.68,41.8-85.41,93.36-85.41Z"/><path class="cls-14" d="M187.74,186.75c-25.79,0-49.28-7.06-66.16-19.88-18-13.64-27.45-32.68-27.45-55.05,0-22.7,9.74-44.15,27.43-60.39s41.24-25.27,66.18-25.27,48.45,9,66.19,25.27,27.42,37.69,27.42,60.39c0,22.37-9.49,41.41-27.44,55.05C237,179.69,213.53,186.75,187.74,186.75Zm0-160.09c-24.81,0-48.2,8.93-65.84,25.14s-27.27,37.46-27.27,60c0,22.21,9.42,41.11,27.25,54.65,16.79,12.76,40.18,19.78,65.86,19.78s49.07-7,65.87-19.78c17.82-13.54,27.24-32.44,27.24-54.65,0-22.56-9.68-43.87-27.26-60S212.56,26.66,187.74,26.66Z"/><path class="cls-18" d="M162.94,125.81c0,1.64-5.16,3-12,3.29-.84,0-1.7.05-2.58.05h-.06c-1.39,0-2.75-.05-4-.14-.86,0-1.69-.13-2.48-.22-4.74-.55-8-1.68-8-3,0-1.62,5-3,11.74-3.27.86,0,1.74-.06,2.65-.07h.15c1.34,0,2.64,0,3.88.13.86.05,1.69.12,2.48.21C159.61,123.35,162.94,124.49,162.94,125.81Z"/><path class="cls-18" d="M243.51,125.81c0,1.64-5.17,3-12,3.29-.83,0-1.68.05-2.55.05h-.09c-1.4,0-2.74-.05-4-.14-.86,0-1.69-.13-2.47-.22-4.73-.55-8-1.68-8-3,0-1.62,5-3,11.71-3.27.86,0,1.74-.06,2.65-.07H229c1.34,0,2.63,0,3.85.12.87,0,1.7.13,2.49.22C240.16,123.35,243.51,124.49,243.51,125.81Z"/><path class="cls-19" d="M148.25,122.47,144.32,129c-.86,0-1.69-.13-2.48-.22l3.76-6.25C146.46,122.5,147.34,122.48,148.25,122.47Z"/><path class="cls-19" d="M154.76,122.81,151,129.1c-.84,0-1.7.05-2.58.05h-.06l3.94-6.55C153.14,122.65,154,122.72,154.76,122.81Z"/><path class="cls-19" d="M228.79,122.47,224.86,129c-.86,0-1.69-.13-2.47-.22l3.75-6.25Z"/><path class="cls-19" d="M235.31,122.81l-3.79,6.29c-.83,0-1.68.05-2.55.05h-.09l3.94-6.56C233.69,122.64,234.52,122.72,235.31,122.81Z"/><path class="cls-20" d="M189.08,33.57c45.4,0,87.78,43,81.3,83.62-2.89,18.15-35.9-5.81-81.3-5.81s-82.19,52-82.19,5.81,36.8-83.62,82.19-83.62Z"/><path class="cls-21" d="M247,67.21c-.17.24-.33.49-.5.74a1.72,1.72,0,0,1-2.71.33c-8.59-8.78-17.78-16-28.53-19.52a1.49,1.49,0,0,1-.59-2.41l.5-.74a3.29,3.29,0,0,1,3.44-1.19C231.14,48.48,239.4,56,247,64a2.77,2.77,0,0,1,0,3.23Zm3.39,8.33a3.13,3.13,0,1,1,2.75-3.47,3.12,3.12,0,0,1-2.75,3.47Z"/><path class="cls-21" d="M245.16,99l-.67.67a3.18,3.18,0,0,1-4.5.18L225.77,85.58a3.21,3.21,0,0,1,.18-4.51l.67-.67a3.21,3.21,0,0,1,4.51-.18l14.21,14.23a3.19,3.19,0,0,1-.18,4.51ZM231.64,85.85l-14.46,14.47a3.24,3.24,0,0,1-4.58-.18l-.68-.68a3.26,3.26,0,0,1-.18-4.59L226.2,80.4a3.24,3.24,0,0,1,4.58.18l.68.68a3.25,3.25,0,0,1,.18,4.59Zm-81.81-.16L135.72,99.82a3.17,3.17,0,0,1-4.47-.17l-.66-.67a3.17,3.17,0,0,1-.18-4.48l14.11-14.13a3.16,3.16,0,0,1,4.47.18l.66.66a3.19,3.19,0,0,1,.18,4.48Zm13.74,13.78-.67.68a3.22,3.22,0,0,1-4.55.18L144,86a3.24,3.24,0,0,1,.18-4.55l.68-.68a3.22,3.22,0,0,1,4.55-.18l14.34,14.38a3.22,3.22,0,0,1-.18,4.55Z"/><path class="cls-22" d="M157.3,142.57a.43.43,0,0,1,.45-.44.44.44,0,0,1,.44.44s0,2.3,2.5,4.8c3,3,9.73,6.38,24.55,6.38,30.92,0,31.18-11.17,31.18-11.17a.45.45,0,0,1,.46-.44.45.45,0,0,1,.44.46c0,.49-.65,12-32.08,12-8.46,0-19.69-1.15-25.18-6.64-2.74-2.73-2.76-5.31-2.76-5.42h0"/><path class="cls-13" d="M180.16,206.85V207c-11.52,3-5.79,13.63,3,12.23l1,3.19c-7.43,0-13.24-4.5-13.57-8.8s3.49-7.59,8.56-7.69c-2.91-12.86,24.32-12.86,21.06,0,5.07.1,8.9,3.4,8.57,7.69s-6.15,8.75-13.57,8.8l1-3.19c7.41,1,16.49-10.68,3-12.23v-.11C199.15,196.68,180.16,196.69,180.16,206.85Z"/><path class="cls-13" d="M186.9,223.2c-.82-8.43,8.52-3.43,9.92-10.61.58-3,0-6.15-2.79-7.83-4.11-2.1-11-.28-10.42,5.72s8.88,3.75,8.12.11c-1.19,1.59-3.59,2.18-4.72,1.33-2.55-1.92.42-6.12,4.36-5.13,2.6.64,2.42,2.21,2.61,4.09.39,3.75-3.23,4-6.58,5.55C183.3,218.33,186.9,223.2,186.9,223.2Z"/><path class="cls-13" d="M191.13,219.25a2.1,2.1,0,1,1-2.09,2.09A2.1,2.1,0,0,1,191.13,219.25Z"/><path class="cls-23" d="M112.53,201.92a4.37,4.37,0,0,1-8.74,0c0-2.41,4.37-10.09,4.37-10.09S112.53,199.51,112.53,201.92Z"/></svg>