<?xml version="1.0" encoding="UTF-8"?>
<svg width="24px" height="24px" viewBox="0 0 24 24" version="1.1" xmlns="http://www.w3.org/2000/svg" xmlns:xlink="http://www.w3.org/1999/xlink">
    <title>编辑</title>
    <g id="2.0" stroke="none" stroke-width="1" fill="none" fill-rule="evenodd">
        <g id="通用基础-删格" transform="translate(-496.000000, -76.000000)">
            <g id="编辑" transform="translate(496.000000, 76.000000)">
                <polygon id="路径" points="0 0 24 0 24 24 0 24"></polygon>
                <path d="M6.414,16 L16.556,5.858 L15.142,4.444 L5,14.586 L5,16 L6.414,16 Z M6.41457288,18 L4.5,18 C3.67157288,18 3,17.3284271 3,16.5 L3,14.5854271 C3,14.0549941 3.21071368,13.5462863 3.58578644,13.1712136 L14.435,2.322 L14.435,2.322 C14.8254999,1.93161806 15.4585001,1.93161806 15.849,2.322 L18.678,5.151 C19.0683819,5.54149985 19.0683819,6.17450015 18.678,6.565 L7.82878644,17.4142136 C7.45371368,17.7892863 6.94500585,18 6.41457288,18 Z M4,20 L20,20 C20.5522847,20 21,20.4477153 21,21 C21,21.5522847 20.5522847,22 20,22 L4,22 C3.44771525,22 3,21.5522847 3,21 C3,20.4477153 3.44771525,20 4,20 Z" id="形状" fill="#5D6E7F" fill-rule="nonzero"></path>
            </g>
        </g>
    </g>
</svg>