<?xml version="1.0" encoding="UTF-8"?>
<svg width="24px" height="24px" viewBox="0 0 24 24" version="1.1" xmlns="http://www.w3.org/2000/svg" xmlns:xlink="http://www.w3.org/1999/xlink">
    <title>禁止查看</title>
    <g id="2.0" stroke="none" stroke-width="1" fill="none" fill-rule="evenodd">
        <g id="通用基础-删格" transform="translate(-357.000000, -451.000000)">
            <g id="禁止查看" transform="translate(357.000000, 451.000000)">
                <polygon id="路径" points="0 0 24 0 24 24 0 24"></polygon>
                <path d="M12,21 C6.608,21 2.122,17.12 1.181,12 C1.61102966,9.67071751 2.78262898,7.54289671 4.521,5.934 L2.09983925,3.51516059 C1.70909788,3.12479385 1.70879418,2.49158062 2.09916092,2.10083925 C2.09927392,2.10072614 2.09938694,2.10061306 2.0995,2.1005 C2.49023159,1.70976841 3.12373267,1.70976841 3.51446427,2.1005 C3.51447022,2.10050596 3.51447618,2.10051191 3.51448213,2.10051787 L21.8987678,20.4857321 C22.2892332,20.8762172 22.2892172,21.5093026 21.8987321,21.899768 C21.8986548,21.8998453 21.8985774,21.8999227 21.8985,21.9 C21.5077181,22.2905057 20.8743938,22.2903938 20.48375,21.89975 L17.881,19.297 L17.881,19.297 C16.1232137,20.4125543 14.0827336,21.0033291 12,21 Z M5.935,7.35 C4.57600495,8.58559011 3.62931677,10.2087833 3.223,12 C3.85621545,14.7706749 5.76027424,17.0798053 8.35955201,18.2293079 C10.9588298,19.3788105 13.9482248,19.2337573 16.424,17.838 L14.396,15.81 C12.6179636,16.9300196 10.3014797,16.6703404 8.8155697,15.1844303 C7.32965965,13.6985203 7.06998037,11.3820364 8.19,9.604 L5.935,7.35 Z M12.914,14.328 L9.672,11.086 C9.3083798,12.0115973 9.52792886,13.0646928 10.231118,13.767882 C10.9343072,14.4710711 11.9874027,14.6906202 12.913,14.327 L12.914,14.328 Z M19.601151,14.8520024 C19.7132365,14.6522104 19.7932948,14.5098037 19.841326,14.4247823 C20.2689686,13.6678001 20.5846161,12.8510619 20.777,12 C20.2277894,9.59457996 18.7156493,7.51987023 16.5938749,6.26060418 C14.7372461,5.15870123 12.5561474,4.76563969 10.4490549,5.13362667 C10.3803119,5.1456321 10.2341157,5.1776967 10.0104661,5.22982047 L10.0104526,5.22976254 C9.47014803,5.35568598 8.93006349,5.01976367 8.80414005,4.47945906 C8.67821661,3.93915446 9.01413892,3.39906992 9.55444352,3.27314648 C9.55649603,3.27266812 9.55855004,3.27219622 9.56060552,3.27173079 C9.56060552,3.27173079 9.56060552,3.27173079 9.56060552,3.27173079 C10.3455154,3.09400066 11.1621391,3 12,3 C17.392,3 21.878,6.88 22.819,12 C22.5843466,13.2755984 22.1254844,14.4961789 21.4667461,15.6062069 C21.4211127,15.6831029 21.3585152,15.7703846 21.2789537,15.8680518 C20.9419762,16.2817289 20.346729,16.373531 19.9007701,16.0806092 C19.4937821,15.813285 19.3629285,15.2766805 19.601151,14.8520024 Z M15.1825492,8.81745084 C16.0947331,9.72963482 16.5715711,10.9894334 16.492,12.277 L11.722,7.508 C13.0105666,7.42842891 14.2703652,7.90526687 15.1825492,8.81745084 Z" id="形状" fill="#5D6E7F" fill-rule="nonzero"></path>
            </g>
        </g>
    </g>
</svg>