<?xml version="1.0" encoding="UTF-8"?>
<svg width="36px" height="20px" viewBox="0 0 36 20" version="1.1" xmlns="http://www.w3.org/2000/svg" xmlns:xlink="http://www.w3.org/1999/xlink">
    <title>icon-citiao</title>
    <g id="2.0" stroke="none" stroke-width="1" fill="none" fill-rule="evenodd">
        <g id="知识库删格" transform="translate(-388.000000, -111.000000)" fill="#FF9B00" fill-rule="nonzero">
            <g id="icon-citiao" transform="translate(388.000000, 111.000000)">
                <path d="M33.5,0 C34.8807119,0 36,1.11928813 36,2.5 L36,17.5 C36,18.8807119 34.8807119,20 33.5,20 L2.5,20 C1.11928813,20 0,18.8807119 0,17.5 L0,2.5 C0,1.11928813 1.11928813,0 2.5,0 L33.5,0 Z M33.5,1.29999996 L2.5,1.29999996 C1.88475881,1.29999996 1.3690622,1.76499926 1.306,2.377 L1.29999996,2.5 L1.29999996,17.5 C1.29999996,18.1152412 1.76499926,18.6309378 2.377,18.694 L2.5,18.7 L33.5,18.7 C34.1152412,18.7 34.6309378,18.2350007 34.694,17.623 L34.7,17.5 L34.7,2.5 C34.7,1.88475881 34.2350007,1.3690622 33.623,1.306 L33.5,1.29999996 Z" id="形状"></path>
                <path d="M7.26,5.955 L7.995,5.205 C7.305,4.425 6.45,3.66 5.43,2.895 L4.68,3.63 C5.76,4.44 6.63,5.22 7.26,5.955 L7.26,5.955 Z M15.18,16.44 C16.23,16.44 16.77,15.93 16.77,14.94 L16.77,3.375 L8.535,3.375 L8.535,4.395 L15.705,4.395 L15.705,14.625 C15.705,15.165 15.45,15.435 14.955,15.435 L13.185,15.405 L13.455,16.44 L15.18,16.44 L15.18,16.44 Z M14.67,7.2 L14.67,6.165 L8.88,6.165 L8.88,7.2 L14.67,7.2 L14.67,7.2 Z M5.925,15.945 C6.855,15.285 7.74,14.52 8.565,13.665 L8.28,12.51 C7.77,13.035 7.305,13.5 6.87,13.905 L6.87,7.335 L3.66,7.335 L3.66,8.37 L5.835,8.37 L5.835,14.34 C5.835,14.58 5.715,14.79 5.505,14.985 L5.925,15.945 Z M14.07,13.485 L14.07,8.835 L9.42,8.835 L9.42,13.485 L14.07,13.485 Z M13.05,12.54 L10.47,12.54 L10.47,9.78 L13.05,9.78 L13.05,12.54 Z M19.14,10.05 C21.6,9.645 23.715,8.985 25.515,8.055 C27.255,8.91 29.355,9.525 31.845,9.885 L32.34,8.88 C30.12,8.595 28.2,8.115 26.58,7.44 C27.795,6.675 28.83,5.775 29.685,4.725 L29.685,3.885 L23.835,3.885 C24.075,3.555 24.3,3.195 24.54,2.82 L23.49,2.58 C22.455,4.17 21.15,5.475 19.56,6.465 L20.25,7.29 C20.9510093,6.83074432 21.6087269,6.30858688 22.215,5.73 C22.86,6.375 23.61,6.96 24.48,7.485 C22.83,8.235 20.895,8.76 18.675,9.075 L19.14,10.05 L19.14,10.05 Z M25.53,6.96 C24.48,6.42 23.595,5.79 22.875,5.07 L23.07,4.845 L28.335,4.845 C27.54,5.64 26.61,6.345 25.53,6.96 L25.53,6.96 Z M24.705,16.455 C25.635,16.455 26.1,15.99 26.1,15.09 L26.1,11.76 L31.08,11.76 L31.08,10.725 L26.1,10.725 L26.1,9.255 L24.99,9.255 L24.99,10.725 L19.875,10.725 L19.875,11.76 L24.99,11.76 L24.99,14.82 C24.99,15.27 24.765,15.495 24.33,15.495 C23.85,15.495 23.325,15.465 22.785,15.42 L23.025,16.455 L24.705,16.455 Z M30.975,16.11 L31.755,15.315 C30.45,14.115 29.31,13.215 28.35,12.615 L27.645,13.275 C28.8263321,14.1328594 29.9396428,15.080678 30.975,16.11 L30.975,16.11 Z M19.68,16.14 C21.03,15.345 22.17,14.415 23.1,13.35 L22.35,12.69 C21.45,13.665 20.325,14.505 18.99,15.225 L19.68,16.14 L19.68,16.14 Z" id="形状"></path>
            </g>
        </g>
    </g>
</svg>