<?xml version="1.0" encoding="UTF-8"?>
<svg width="18px" height="18px" viewBox="0 0 18 18" version="1.1" xmlns="http://www.w3.org/2000/svg" xmlns:xlink="http://www.w3.org/1999/xlink">
    <title>个人中心-评论</title>
    <g id="2.0" stroke="none" stroke-width="1" fill="none" fill-rule="evenodd">
        <g id="知识库删格" transform="translate(-379.000000, -256.000000)">
            <g id="个人中心-评论" transform="translate(379.000000, 256.000000)">
                <circle id="蒙版" fill="#E0E9F3" cx="9" cy="9" r="9"></circle>
                <g id="评论" transform="translate(4.000000, 4.000000)" fill="#B5BECB" fill-rule="nonzero">
                    <path d="M5,0 C2.23626374,0 0,2.08554721 0,4.65693212 C0,5.80042817 0.445054945,6.85505148 1.18131868,7.66083108 C1.28571429,7.77932808 1.34065934,7.93929903 1.30769231,8.09926998 L1.01098901,9.70490434 C0.972527473,9.91819894 1.18681319,10.0781699 1.35714286,9.95967289 L2.73076923,9.01762174 C2.85164835,8.93467384 3,8.92282414 3.13186813,8.97022294 C3.70879121,9.18944239 4.34065934,9.30793939 5,9.30793939 C7.76373626,9.30793939 10,7.22239218 10,4.65100727 C10,2.07962236 7.76373626,0 5,0 Z M2.63736264,5.39161352 C2.20932294,5.39161352 1.86813187,5.05982192 1.86813187,4.65693212 C1.86813187,4.25404232 2.21552641,3.92225072 2.63736264,3.92225072 C3.05919887,3.92225072 3.40659341,4.24811747 3.40659341,4.65693212 C3.40659341,5.06574677 3.06540234,5.39161352 2.63736264,5.39161352 L2.63736264,5.39161352 Z M4.91208791,5.39161352 C4.48404821,5.39161352 4.14285714,5.05982192 4.14285714,4.65693212 C4.14285714,4.25404232 4.49025168,3.92225072 4.91208791,3.92225072 C5.33392414,3.92225072 5.68131868,4.25404232 5.68131868,4.65693212 C5.68131868,5.05982192 5.34012761,5.39161352 4.91208791,5.39161352 Z M7.18681319,5.39161352 C6.75877348,5.39161352 6.41758242,5.05982192 6.41758242,4.65693212 C6.41758242,4.25404232 6.76497696,3.92225072 7.18681319,3.92225072 C7.61485289,3.92225072 7.95604396,4.25404232 7.95604396,4.65693212 C7.95604396,5.05982192 7.60864942,5.39161352 7.18681319,5.39161352 Z" id="形状" transform="translate(5.000000, 5.000000) scale(-1, 1) translate(-5.000000, -5.000000) "></path>
                </g>
            </g>
        </g>
    </g>
</svg>