<?xml version="1.0" encoding="UTF-8"?>
<svg width="24px" height="24px" viewBox="0 0 24 24" version="1.1" xmlns="http://www.w3.org/2000/svg" xmlns:xlink="http://www.w3.org/1999/xlink">
    <title>踩</title>
    <g id="2.0" stroke="none" stroke-width="1" fill="none" fill-rule="evenodd">
        <g id="通用基础-删格" transform="translate(-357.000000, -220.000000)">
            <g id="踩" transform="translate(357.000000, 220.000000)">
                <rect id="矩形" x="0" y="0" width="24" height="24"></rect>
                <path d="M13.7859133,4 L14.1363923,4.0045457 C15.9118465,4.17567283 17.2242349,5.73557309 17.0873181,7.53480116 C17.0463948,7.95720238 16.9943513,8.37830343 16.9312648,8.79766891 L16.8283627,9.42536105 L16.7104753,10.0366249 L18.4314386,10.0375394 C21.0314946,10.0375394 22.0777158,11.3018255 22.0077119,13.4850112 L21.9978922,13.6923664 L21.9816122,13.9050425 L20.9327401,20.0529911 C20.5682228,22.5669039 19.6311297,23.9076968 17.4644986,23.9915836 L17.2437127,23.9957795 L4.37022136,23.9922857 C3.7676698,24.0427863 3.17108752,23.8416505 2.72211289,23.4366315 C2.31803571,23.0721143 2.065956,22.5717114 2.01096784,22.0205362 L2,21.8350474 L2,12.179038 C2.0118148,11.5744857 2.27313825,11.0017065 2.72211289,10.5966874 C3.12120145,10.2366704 3.63691828,10.0377465 4.11112863,10.0310002 L4.28670304,10.0375394 L6.87877847,10.0379222 C7.52725483,10.0558706 8.17546699,10.0057963 8.81281933,9.88874033 L8.9114753,9.86762487 L9.11816644,9.63280348 C9.3710489,9.3268527 9.59154518,8.99543022 9.77614617,8.64376553 L9.90781172,8.37630331 L10.0256876,8.10174052 L10.773768,6.23946457 C11.1686267,4.97980352 12.2941926,4.09905648 13.5984368,4.00764486 L13.7859133,4 Z M4.20318473,12.0340456 C4.15148057,12.0297122 4.10028863,12.0469714 4.0617627,12.0817256 C4.03607875,12.104895 4.0175513,12.1344623 4.00781255,12.1612713 L4,12.1982715 L3.99981502,21.8158139 C4.00081296,21.8676897 4.02323678,21.9168391 4.0617627,21.9515933 C4.09258344,21.9793966 4.13151043,21.9960032 4.21508231,21.9975262 L6.506,21.995 L6.506,12.037 L4.20318473,12.0340456 Z M14.040452,5.99986556 L13.8091027,5.99986556 C13.3348595,6.00536464 12.9131937,6.2899398 12.707179,6.77328044 L12.6564624,6.90996835 L11.8829963,8.84363233 C11.5290371,9.73099415 11.0142427,10.5441787 10.3655364,11.2427219 L10.116047,11.4992228 L9.91369545,11.6978604 L9.63719592,11.7607178 C9.26292888,11.8458008 8.88492381,11.9116526 8.50651311,11.9581528 L8.506,21.995 L17.2437127,21.9957795 C18.2048951,21.9957795 18.6024577,21.613959 18.8580362,20.3294245 L18.8936271,20.1397224 L18.9573242,19.7413656 L19.999799,13.6480968 L20.0119107,13.4978755 L20.0249372,13.2243721 C20.0420133,12.3282214 19.7429246,12.0615129 18.6004443,12.0391182 L18.4314386,12.0375394 L14.8062407,12.0375394 C14.5300983,12.0375394 14.3062407,11.8136817 14.3062407,11.5375394 C14.3062407,11.4950219 14.3116638,11.4526782 14.3223787,11.411533 L14.485402,10.7855267 L14.485402,10.7855267 C14.7796594,9.65558343 14.9840429,8.50412707 15.0948523,7.36261085 C15.1442071,6.71301354 14.6979153,6.13828643 14.1510491,6.01779497 L14.040452,5.99986556 Z" id="形状" fill="#5D6E7F" fill-rule="nonzero" transform="translate(12.005496, 13.999968) scale(1, -1) translate(-12.005496, -13.999968) "></path>
            </g>
        </g>
    </g>
</svg>