<?xml version="1.0" encoding="UTF-8"?>
<svg width="24px" height="24px" viewBox="0 0 24 24" version="1.1" xmlns="http://www.w3.org/2000/svg" xmlns:xlink="http://www.w3.org/1999/xlink">
    <title>下载中</title>
    <g id="2.0" stroke="none" stroke-width="1" fill="none" fill-rule="evenodd">
        <g id="通用基础-删格" transform="translate(-425.000000, -451.000000)">
            <g id="下载中" transform="translate(425.000000, 451.000000)">
                <polygon id="路径" points="0 0 24 0 24 24 0 24"></polygon>
                <path d="M12,22 C6.477,22 2,17.523 2,12 C2,6.477 6.477,2 12,2 C17.523,2 22,6.477 22,12 C22,17.523 17.523,22 12,22 Z M12,20 C16.418278,20 20,16.418278 20,12 C20,7.581722 16.418278,4 12,4 C7.581722,4 4,7.581722 4,12 C4,16.418278 7.581722,20 12,20 Z M11,12 L11,9 C11,8.44771525 11.4477153,8 12,8 C12.5522847,8 13,8.44771525 13,9 L13,12 L13,12 L15.583875,12 C15.694332,12 15.783875,12.0895431 15.783875,12.2 C15.783875,12.2454143 15.7684189,12.2894764 15.7400488,12.324939 L12.1561738,16.8047828 C12.0871719,16.8910352 11.9613134,16.9050195 11.875061,16.8360176 C11.863528,16.8267912 11.8530526,16.8163157 11.8438262,16.8047828 L8.25995121,12.324939 C8.1909493,12.2386866 8.20493357,12.1128281 8.29118596,12.0438262 C8.32664857,12.0154562 8.37071067,12 8.41612497,12 L11,12 L11,12 Z" id="形状" fill="#5D6E7F" fill-rule="nonzero"></path>
            </g>
        </g>
    </g>
</svg>