<?xml version="1.0" encoding="UTF-8"?>
<svg width="24px" height="24px" viewBox="0 0 24 24" version="1.1" xmlns="http://www.w3.org/2000/svg" xmlns:xlink="http://www.w3.org/1999/xlink">
    <title>退出</title>
    <g id="2.0" stroke="none" stroke-width="1" fill="none" fill-rule="evenodd">
        <g id="通用基础-删格" transform="translate(-287.000000, -310.000000)">
            <g id="退出" transform="translate(287.000000, 310.000000)">
                <polygon id="路径" points="0 0 24 0 24 24 0 24"></polygon>
                <path d="M12,21.9998323 C6.477,21.9998323 2,17.523 2,12 C2,6.477 6.477,1.99983225 12,1.99983225 C13.9051654,1.99856759 15.7432188,2.54092499 17.3158744,3.52792641 C17.7887084,3.8246778 18.2375513,4.16162331 18.6570143,4.53606864 C18.6570143,4.53606864 18.6570143,4.53606864 18.6570143,4.53606864 C19.0609031,4.89661133 19.0960421,5.51630553 18.7354994,5.92019436 C18.4911408,6.19393091 18.1143677,6.30828067 17.7590857,6.21653363 C17.5763911,6.1693558 17.4200293,6.0971777 17.29,6 C16.5318314,5.43338068 16.1760652,5.14203166 15.5666544,4.83808953 C12.5055647,3.31137871 8.70002757,3.88213132 6.22476413,6.46345352 C3.25671786,9.55867304 3.25712494,14.4436659 6.22568704,17.5383907 C8.74288827,20.162572 12.6349976,20.7079707 15.7211645,19.0836036 C16.0105613,18.9312831 16.9315464,18.2876246 17.7743883,17.8159788 C17.7743883,17.8159788 17.7743883,17.8159788 17.7743883,17.8159788 C18.216828,17.5683941 18.7762033,17.7263553 19.023788,18.1687949 C19.2276865,18.5331663 19.1600084,18.9892373 18.8590856,19.2786964 C18.8356127,19.3013314 18.8127473,19.3229207 18.7905176,19.3434935 C18.4690892,19.6409632 18.1295336,19.91591 17.7743883,20.1670654 C16.105962,21.3469606 14.0934701,22.0017785 12,21.9998323 Z M19,15.3758125 L19,13 L19,13 L12,13 C11.4477153,13 11,12.5522847 11,12 C11,11.4477153 11.4477153,11 12,11 L19,11 L19,11 L19,8.62418745 C19,8.45850203 19.1343146,8.32418745 19.3,8.32418745 C19.3681214,8.32418745 19.4342146,8.34737168 19.4874085,8.38992681 L23.511957,11.6095656 C23.727588,11.7820704 23.7625486,12.0967166 23.5900439,12.3123475 C23.566978,12.3411799 23.5407893,12.3673685 23.511957,12.3904344 L19.4874085,15.6100732 C19.3580299,15.7135761 19.1692422,15.6925996 19.0657394,15.5632211 C19.0231842,15.5100271 19,15.443934 19,15.3758125 Z" id="形状" fill="#5D6E7F" fill-rule="nonzero"></path>
            </g>
        </g>
    </g>
</svg>