<?xml version="1.0" encoding="UTF-8"?>
<svg width="24px" height="24px" viewBox="0 0 24 24" version="1.1" xmlns="http://www.w3.org/2000/svg" xmlns:xlink="http://www.w3.org/1999/xlink">
    <title>IP</title>
    <g id="2.0" stroke="none" stroke-width="1" fill="none" fill-rule="evenodd">
        <g id="通用基础-删格" transform="translate(-392.000000, -123.000000)">
            <g id="IP" transform="translate(392.000000, 123.000000)">
                <polygon id="路径" points="0 0 24 0 24 24 0 24"></polygon>
                <g id="编组" transform="translate(2.000000, 2.000000)" fill="#5D6E7F" fill-rule="nonzero">
                    <path d="M16,0 C18.209139,0 20,1.790861 20,4 L20,4 L20,11 C20,13.209139 18.209139,15 16,15 L16,15 L11.5,15 L11.5,17 L14,17 C14.5522847,17 15,17.4477153 15,18 C15,18.5522847 14.5522847,19 14,19 L7,19 C6.44771525,19 6,18.5522847 6,18 C6,17.4477153 6.44771525,17 7,17 L9.5,17 L9.5,15 L4,15 C1.85780461,15 0.108921124,13.3160315 0.00489530723,11.1996403 L0,11 L0,4 C0,1.790861 1.790861,0 4,0 L4,0 Z M16,2 L4,2 C2.8954305,2 2,2.8954305 2,4 L2,4 L2,11 C2,12.1045695 2.8954305,13 4,13 L4,13 L16,13 C17.1045695,13 18,12.1045695 18,11 L18,11 L18,4 C18,2.8954305 17.1045695,2 16,2 L16,2 Z M6,4 C6.55228475,4 7,4.44771525 7,5 L7,11 C7,11.5522847 6.55228475,12 6,12 C5.44771525,12 5,11.5522847 5,11 L5,5 C5,4.44771525 5.44771525,4 6,4 Z M13,4 C14.6568542,4 16,5.34314578 16,7 C16,8.65685422 14.6568542,10 13,10 L11,10 L11,11 C11,11.5522847 10.5522847,12 10,12 C9.44771525,12 9,11.5522847 9,11 L9,4.5 C9,4.22385763 9.22385763,4 9.5,4 L13,4 Z M13,6 L11,6 L11,8 L13,8 C13.5522847,8 14,7.55228475 14,7 C14,6.44771525 13.5522847,6 13,6 Z" id="形状结合"></path>
                </g>
            </g>
        </g>
    </g>
</svg>