<?xml version="1.0" encoding="UTF-8"?>
<svg width="24px" height="24px" viewBox="0 0 24 24" version="1.1" xmlns="http://www.w3.org/2000/svg" xmlns:xlink="http://www.w3.org/1999/xlink">
    <title>回答</title>
    <g id="2.0" stroke="none" stroke-width="1" fill="none" fill-rule="evenodd">
        <g id="通用基础-删格" transform="translate(-461.000000, -220.000000)">
            <g id="回答" transform="translate(461.000000, 220.000000)">
                <polygon id="路径" points="0 0 24 0 24 24 0 24"></polygon>
                <path d="M1.99999866,8.994 C1.9989353,7.40292611 2.63092635,5.87680016 3.75654841,4.75230372 C4.88217047,3.62780728 6.40892797,2.99734343 7.99999866,2.99999164 L15.9999987,2.99999164 C19.313,2.99999164 21.9999987,5.695 21.9999987,8.994 L21.9999987,19.9999916 C21.9999987,20.5522764 21.5522834,20.9999916 20.9999987,20.9999916 L7.99999866,20.9999916 L7.99999866,20.9999916 C4.687,20.9999916 1.99999866,18.305 1.99999866,15.006 L1.99999866,8.994 Z M19.999998,18.5 L19.999998,8.994 L19.999998,8.994 C19.9944919,6.78811846 18.2058873,5.00219681 15.999998,4.99998745 L7.99999798,4.99998745 C6.93936115,4.99734121 5.92131031,5.41709044 5.17076032,6.1665146 C4.42021034,6.91593875 3.99893337,7.93335835 3.99999798,8.994 L3.99999798,15.006 C4.00550812,17.2118815 5.79411268,18.9978032 7.99999798,19 L19.499998,19 C19.7761404,19 19.999998,18.7761424 19.999998,18.5 Z M7.99999732,8.99998333 L12.9999973,8.99998333 C13.5522821,8.99998333 13.9999973,9.44769858 13.9999973,9.99998333 C13.9999973,10.5522681 13.5522821,10.9999833 12.9999973,10.9999833 L7.99999732,10.9999833 C7.44771257,10.9999833 6.99999732,10.5522681 6.99999732,9.99998333 C6.99999732,9.44769858 7.44771257,8.99998333 7.99999732,8.99998333 Z M7.99999732,12.9999833 L15.9999973,12.9999833 C16.5522821,12.9999833 16.9999973,13.4476986 16.9999973,13.9999833 C16.9999973,14.5522681 16.5522821,14.9999833 15.9999973,14.9999833 L7.99999732,14.9999833 C7.44771257,14.9999833 6.99999732,14.5522681 6.99999732,13.9999833 C6.99999732,13.4476986 7.44771257,12.9999833 7.99999732,12.9999833 Z" id="形状" fill="#5D6E7F" fill-rule="nonzero"></path>
            </g>
        </g>
    </g>
</svg>