<?xml version="1.0" encoding="UTF-8"?>
<svg width="24px" height="24px" viewBox="0 0 24 24" version="1.1" xmlns="http://www.w3.org/2000/svg" xmlns:xlink="http://www.w3.org/1999/xlink">
    <title>日期</title>
    <g id="2.0" stroke="none" stroke-width="1" fill="none" fill-rule="evenodd">
        <g id="通用基础-删格" transform="translate(-322.000000, -172.000000)">
            <g id="日期" transform="translate(322.000000, 172.000000)">
                <polygon id="路径" points="0 0 24 0 24 24 0 24"></polygon>
                <path d="M16,2 C16.5522847,2 17,2.44771525 17,3 L17,4 L18,4 C20.209139,4 22,5.790861 22,8 L22,18 C22,20.209139 20.209139,22 18,22 L6,22 C3.790861,22 2,20.209139 2,18 L2,8 C2,5.790861 3.790861,4 6,4 L7,4 L7,3 C7,2.44771525 7.44771525,2 8,2 C8.55228475,2 9,2.44771525 9,3 L9,4 L15,4 L15,3 C15,2.44771525 15.4477153,2 16,2 Z M20,12 L4,12 L4,18 C4,19.0543618 4.81587779,19.9181651 5.85073766,19.9945143 L6,20 L18,20 C19.0543618,20 19.9181651,19.1841222 19.9945143,18.1492623 L20,18 L20,12 Z M7,6 L6,6 C4.9456382,6 4.08183488,6.81587779 4.00548574,7.85073766 L4,8 L4,10 L20,10 L20,8 C20,6.9456382 19.1841222,6.08183488 18.1492623,6.00548574 L18,6 L17,6 L17,7 C17,7.55228475 16.5522847,8 16,8 C15.4477153,8 15,7.55228475 15,7 L15,6 L9,6 L9,7 C9,7.55228475 8.55228475,8 8,8 C7.44771525,8 7,7.55228475 7,7 L7,6 Z" id="形状结合" fill="#5D6E7F" fill-rule="nonzero"></path>
            </g>
        </g>
    </g>
</svg>