<?xml version="1.0" encoding="UTF-8"?>
<svg width="24px" height="24px" viewBox="0 0 24 24" version="1.1" xmlns="http://www.w3.org/2000/svg" xmlns:xlink="http://www.w3.org/1999/xlink">
    <title>多文本</title>
    <g id="2.0" stroke="none" stroke-width="1" fill="none" fill-rule="evenodd">
        <g id="通用基础-删格" transform="translate(-148.000000, -172.000000)">
            <g id="多文本" transform="translate(148.000000, 172.000000)">
                <polygon id="路径" points="0 0 24 0 24 24 0 24"></polygon>
                <path d="M18,3 C20.209139,3 22,4.790861 22,7 L22,17 C22,19.209139 20.209139,21 18,21 L6,21 C3.790861,21 2,19.209139 2,17 L2,7 C2,4.790861 3.790861,3 6,3 L18,3 Z M18,5 L6,5 C4.9456382,5 4.08183488,5.81587779 4.00548574,6.85073766 L4,7 L4,17 C4,18.0543618 4.81587779,18.9181651 5.85073766,18.9945143 L6,19 L18,19 C19.0543618,19 19.9181651,18.1841222 19.9945143,17.1492623 L20,17 L20,7 C20,5.9456382 19.1841222,5.08183488 18.1492623,5.00548574 L18,5 Z M7,8 C7.55228475,8 8,8.44771525 8,9 L8,15 C8,15.5522847 7.55228475,16 7,16 C6.44771525,16 6,15.5522847 6,15 L6,9 C6,8.44771525 6.44771525,8 7,8 Z M11,8 C11.5522847,8 12,8.44771525 12,9 L12,15 C12,15.5522847 11.5522847,16 11,16 C10.4477153,16 10,15.5522847 10,15 L10,9 C10,8.44771525 10.4477153,8 11,8 Z" id="形状结合" fill="#5D6E7F" fill-rule="nonzero"></path>
            </g>
        </g>
    </g>
</svg>