<?xml version="1.0" encoding="UTF-8"?>
<svg width="24px" height="24px" viewBox="0 0 24 24" version="1.1" xmlns="http://www.w3.org/2000/svg" xmlns:xlink="http://www.w3.org/1999/xlink">
    <title>学习计划时间</title>
    <g id="2.0" stroke="none" stroke-width="1" fill="none" fill-rule="evenodd">
        <g id="知识库删格" transform="translate(-160.000000, -253.000000)">
            <g id="学习计划时间" transform="translate(160.000000, 253.000000)">
                <polygon id="路径" points="0 0 24 0 24 24 0 24"></polygon>
                <path d="M16,2 C16.5522847,2 17,2.44771525 17,3 L17,4 L17.2222222,4 C19.7381861,4 21.7777778,6.0395917 21.7777778,8.55555556 C21.7777778,9.10784031 21.3300625,9.55555556 20.7777778,9.55555556 C20.225493,9.55555556 19.7777778,9.10784031 19.7777778,8.55555556 C19.7777778,7.20061697 18.7233188,6.09196047 17.3902507,6.00543585 L17.2222222,6 L17,6 L17,7 C17,7.55228475 16.5522847,8 16,8 C15.4477153,8 15,7.55228475 15,7 L15,6 L9,6 L9,7 C9,7.55228475 8.55228475,8 8,8 C7.44771525,8 7,7.55228475 7,7 L7,6 L6.55555556,6 C5.20061697,6 4.09196047,7.05445896 4.00543585,8.38752707 L4,8.55555556 L4,10 L12,10 C12.5522847,10 13,10.4477153 13,11 C13,11.5522847 12.5522847,12 12,12 L4,12 L4,17.4444444 C4,18.799383 5.05445896,19.9080395 6.38752707,19.9945641 L6.55555556,20 L12.3562626,20 C12.9085474,20 13.3562626,20.4477153 13.3562626,21 C13.3562626,21.5128358 12.9702224,21.9355072 12.4728837,21.9932723 L12.3562626,22 L6.55555556,22 C4.11147638,22 2.11693697,20.0752914 2.00495846,17.6588954 L2,17.4444444 L2,8.55555556 C2,6.11147638 3.92470857,4.11693697 6.3411046,4.00495846 L6.55555556,4 L7,4 L7,3 C7,2.44771525 7.44771525,2 8,2 C8.55228475,2 9,2.44771525 9,3 L9,4 L15,4 L15,3 C15,2.44771525 15.4477153,2 16,2 Z M18,10 C21.3138,10 24,12.6862 24,16 C24,19.3138 21.3138,22 18,22 C14.6862,22 12,19.3138 12,16 C12,12.6862 14.6862,10 18,10 Z M18,12 C15.790861,12 14,13.790861 14,16 C14,18.209139 15.790861,20 18,20 C20.209139,20 22,18.209139 22,16 C22,13.790861 20.209139,12 18,12 Z M17.025469,13.9865034 C17.5757474,13.9865034 18.0218361,14.4325921 18.0218361,14.9828705 L18.0218361,15.9936994 L19.025504,15.9936994 C19.5797759,15.9936994 20.029102,16.4430255 20.029102,16.9972973 C20.029102,17.5515692 19.5797759,18.0008953 19.025504,18.0008953 L17.029102,18.0008953 C16.4768172,18.0008953 16.029102,17.5531801 16.029102,17.0008953 L16.029102,14.9828705 C16.029102,14.4325921 16.4751907,13.9865034 17.025469,13.9865034 Z" id="形状结合" fill="#5D6E7F" fill-rule="nonzero"></path>
            </g>
        </g>
    </g>
</svg>