<?xml version="1.0" encoding="UTF-8"?>
<svg width="16px" height="16px" viewBox="0 0 16 16" version="1.1" xmlns="http://www.w3.org/2000/svg" xmlns:xlink="http://www.w3.org/1999/xlink">
    <title>集</title>
    <g id="2.0" stroke="none" stroke-width="1" fill="none" fill-rule="evenodd">
        <g id="知识库删格" transform="translate(-31.000000, -147.000000)" fill="#FF0725" fill-rule="nonzero">
            <g id="集" transform="translate(31.000000, 147.000000)">
                <path d="M14,0 L2,0 C0.8954305,0 0,0.8954305 0,2 L0,14 C0,15.1045695 0.8954305,16 2,16 L14,16 C15.1045695,16 16,15.1045695 16,14 L16,2 C16,0.8954305 15.1045695,0 14,0 Z M14,1 C14.5522847,1 15,1.44771525 15,2 L15,14 C15,14.5522847 14.5522847,15 14,15 L2,15 C1.44771525,15 1,14.5522847 1,14 L1,2 C1,1.44771525 1.44771525,1 2,1 L14,1 Z" id="矩形"></path>
                <path d="M12.824,8.556 L12.824,7.824 L8.78,7.824 L8.78,6.972 L12.152,6.972 L12.152,6.3 L8.78,6.3 L8.78,5.508 L12.152,5.508 L12.152,4.836 L8.78,4.836 L8.78,4.02 L12.596,4.02 L12.596,3.3 L8.72,3.3 C8.564,2.868 8.408,2.472 8.24,2.124 L7.352,2.268 C7.544,2.58 7.712,2.928 7.88,3.3 L5.288,3.3 C5.432,3 5.576,2.688 5.696,2.364 L4.892,2.16 C4.364,3.456 3.572,4.584 2.504,5.544 L2.996,6.216 C3.356,5.88 3.692,5.544 4.004,5.184 L4.004,8.556 L12.824,8.556 Z M7.928,4.836 L4.808,4.836 L4.808,4.116 L4.868,4.02 L7.928,4.02 L7.928,4.836 Z M7.928,6.3 L4.808,6.3 L4.808,5.508 L7.928,5.508 L7.928,6.3 Z M7.928,7.824 L4.808,7.824 L4.808,6.972 L7.928,6.972 L7.928,7.824 Z M8.468,13.212 L8.468,10.284 L8.696,10.284 C9.536,11.352 10.94,12.216 12.932,12.888 L13.304,12.12 C11.612,11.664 10.352,11.052 9.536,10.284 L13.172,10.284 L13.172,9.504 L8.468,9.504 L8.468,8.88 L7.604,8.88 L7.604,9.504 L2.828,9.504 L2.828,10.284 L6.524,10.284 C5.828,10.992 4.556,11.628 2.708,12.192 L3.164,12.936 C5.216,12.192 6.62,11.304 7.376,10.284 L7.604,10.284 L7.604,13.212 L8.468,13.212 Z"></path>
            </g>
        </g>
    </g>
</svg>