<?xml version="1.0" encoding="UTF-8"?>
<svg width="30px" height="30px" viewBox="0 0 30 30" version="1.1" xmlns="http://www.w3.org/2000/svg" xmlns:xlink="http://www.w3.org/1999/xlink">
    <title>首页-百科导航</title>
    <g id="2.0" stroke="none" stroke-width="1" fill="none" fill-rule="evenodd">
        <g id="知识库删格" transform="translate(-184.000000, -179.000000)">
            <g id="首页-百科导航" transform="translate(184.000000, 179.000000)">
                <circle id="椭圆形" fill="#E8F5FF" cx="15" cy="15" r="15"></circle>
                <g id="编组" transform="translate(7.000000, 7.000000)" fill-rule="nonzero">
                    <path d="M16,3.15308829 C15.9044001,2.82986403 15.2362206,2 14.9418829,2 L14.6577653,2 L14.6577653,13.4894822 L8.94407132,13.4894822 C8.74981833,13.491823 8.56461081,13.5822062 8.43034306,13.7401869 C8.27769051,13.8835686 8.18977096,14.0960482 8.19051235,14.3197977 C8.19051235,14.4999678 8.0596956,14.564369 7.95068165,14.564369 C7.84166769,14.564369 7.70608157,14.5007344 7.70608157,14.3197977 C7.70591693,14.185239 7.67443972,14.0530747 7.61478239,13.9364572 C7.59716834,13.8954126 7.57642335,13.8561648 7.5527807,13.819155 L7.52688989,13.7685541 L7.52007651,13.7685541 C7.38507159,13.5874482 7.18506621,13.4839216 6.97500674,13.4864154 L1.34034785,13.4864154 L1.34034785,2.00076668 L1.05623023,2.00076668 C0.783695342,2.00076668 0.537051255,2.13723591 0.319704685,2.40557427 C0.161348074,2.61597848 0.0536640976,2.90158624 0.00697088499,3.17225532 L0,3.17225532 L0,14.2047956 C-0.0038836196,14.4183827 0.0699818096,14.6245148 0.204558687,14.7752063 C0.336645506,14.9256513 0.516718477,15.0104021 0.704660216,15.0105773 L6.55189631,15.0105773 C6.80692582,15.6148831 7.34833075,16 7.94284626,16 C8.53736178,16 9.07876671,15.6148831 9.33379622,15.0105773 L15.2900463,15.0105773 C15.4783931,15.010781 15.6590777,14.9266788 15.792259,14.7768152 C15.9254404,14.6269517 16.0001807,14.4236347 16,14.2116957 L16,3.15308829 Z" id="路径" fill="#006BE3"></path>
                    <path d="M12.0110384,4.24379822e-05 L9.52874582,4.24379822e-05 C8.95089656,-0.00260206617 8.32047434,0.176781183 7.99992976,1.46753571 C7.5936442,0.118248693 7.07162882,-0.00264277985 6.49476879,4.24379822e-05 L4.00154608,4.24379822e-05 C3.44889451,0.000782890626 3.00095085,0.493238186 3,1.10115477 L3,10.3692889 C3.0024181,10.6618117 3.10705907,10.9420972 3.29223745,11.1520601 C3.48040724,11.3622523 3.73797565,11.4796006 4.00614825,11.4773183 L6.20483241,11.4621311 L6.33944572,11.4621311 C7.27368514,11.4621311 7.409449,11.5368013 7.49861595,11.7032271 C7.5936442,11.8845766 7.76855773,11.997374 7.95883241,12 L8.03764448,12 C8.23066012,11.9974723 8.40781034,11.8819519 8.50246311,11.6968992 C8.58990424,11.5298405 8.77226501,11.4602327 9.68579469,11.4602327 L12.0093126,11.4747871 C12.2738517,11.4778534 12.5279554,11.3614273 12.7122932,11.1526929 C12.8970518,10.9418095 13.0001737,10.6602659 12.9999285,10.3673905 L12.9999285,1.10558436 C13.0030927,0.814258558 12.9011017,0.533441749 12.7163201,0.324711615 C12.528773,0.118248693 12.2755584,0.00150928384 12.0110384,4.24379822e-05 Z" id="形状" fill="#109CFF"></path>
                    <path d="M12.0110384,4.24379822e-05 L9.52874582,4.24379822e-05 C8.95089656,-0.00260206617 8.32047434,0.176781183 7.99992976,1.46753571 C7.5936442,0.118248693 7.07162882,-0.00264277985 6.49476879,4.24379822e-05 L4.00154608,4.24379822e-05 C3.44889451,0.000782890626 3.00095085,0.493238186 3,1.10115477 L3,10.3692889 C3.0024181,10.6618117 3.10705907,10.9420972 3.29223745,11.1520601 C3.48040724,11.3622523 3.73797565,11.4796006 4.00614825,11.4773183 L6.20483241,11.4621311 L6.33944572,11.4621311 C7.27368514,11.4621311 7.409449,11.5368013 7.49861595,11.7032271 C7.5936442,11.8845766 7.76855773,11.997374 7.95883241,12 L8.03764448,12 C8.23066012,11.9974723 8.40781034,11.8819519 8.50246311,11.6968992 C8.58990424,11.5298405 8.77226501,11.4602327 9.68579469,11.4602327 L12.0093126,11.4747871 C12.2738517,11.4778534 12.5279554,11.3614273 12.7122932,11.1526929 C12.8970518,10.9418095 13.0001737,10.6602659 12.9999285,10.3673905 L12.9999285,1.10558436 C13.0030927,0.814258558 12.9011017,0.533441749 12.7163201,0.324711615 C12.528773,0.118248693 12.2755584,0.00150928384 12.0110384,4.24379822e-05 Z" id="形状" fill="#109CFF"></path>
                </g>
            </g>
        </g>
    </g>
</svg>