<?xml version="1.0" encoding="UTF-8"?>
<svg width="24px" height="24px" viewBox="0 0 24 24" version="1.1" xmlns="http://www.w3.org/2000/svg" xmlns:xlink="http://www.w3.org/1999/xlink">
    <title>分割线</title>
    <g id="2.0" stroke="none" stroke-width="1" fill="none" fill-rule="evenodd">
        <g id="通用基础-删格" transform="translate(-148.000000, -220.000000)">
            <g id="分割线" transform="translate(148.000000, 220.000000)">
                <polygon id="路径" points="0 0 24 0 24 24 0 24"></polygon>
                <path d="M18,3 C20.209139,3 22,4.790861 22,7 L22,17 C22,19.209139 20.209139,21 18,21 L6,21 C3.790861,21 2,19.209139 2,17 L2,7 C2,4.790861 3.790861,3 6,3 L18,3 Z M11,5 L6,5 C4.9456382,5 4.08183488,5.81587779 4.00548574,6.85073766 L4,7 L4,17 C4,18.0543618 4.81587779,18.9181651 5.85073766,18.9945143 L6,19 L11,19 L11,19 L11,16 C11,15.4477153 11.4477153,15 12,15 C12.5522847,15 13,15.4477153 13,16 L13,19 L18,19 C19.0543618,19 19.9181651,18.1841222 19.9945143,17.1492623 L20,17 L20,7 C20,5.9456382 19.1841222,5.08183488 18.1492623,5.00548574 L18,5 L13,5 L13,5 L13,8 C13,8.55228475 12.5522847,9 12,9 C11.4477153,9 11,8.55228475 11,8 L11,5 Z M15.5,9.70710678 C15.6326082,9.70710678 15.7597852,9.7597852 15.8535534,9.85355339 L17.6464466,11.6464466 C17.8417088,11.8417088 17.8417088,12.1582912 17.6464466,12.3535534 L15.8535534,14.1464466 C15.6582912,14.3417088 15.3417088,14.3417088 15.1464466,14.1464466 C15.0526784,14.0526784 15,13.9255015 15,13.7928932 L15,13 L9,13 L9,13.7928932 C9,14.0690356 8.77614237,14.2928932 8.5,14.2928932 C8.36739176,14.2928932 8.2402148,14.2402148 8.14644661,14.1464466 L6.35355339,12.3535534 C6.15829124,12.1582912 6.15829124,11.8417088 6.35355339,11.6464466 L8.14644661,9.85355339 C8.34170876,9.65829124 8.65829124,9.65829124 8.85355339,9.85355339 C8.94732158,9.94732158 9,10.0744985 9,10.2071068 L9,11 L15,11 L15,10.2071068 C15,9.93096441 15.2238576,9.70710678 15.5,9.70710678 Z" id="形状结合" fill="#5D6E7F" fill-rule="nonzero"></path>
            </g>
        </g>
    </g>
</svg>