<?xml version="1.0" encoding="UTF-8"?>
<svg width="24px" height="24px" viewBox="0 0 24 24" version="1.1" xmlns="http://www.w3.org/2000/svg" xmlns:xlink="http://www.w3.org/1999/xlink">
    <title>折线图</title>
    <g id="2.0" stroke="none" stroke-width="1" fill="none" fill-rule="evenodd">
        <g id="通用基础-删格" transform="translate(-461.000000, -310.000000)">
            <g id="折线图" transform="translate(461.000000, 310.000000)">
                <polygon id="路径" points="0 0 24 0 24 24 0 24"></polygon>
                <path d="M5,4 L5,18 C5,18.5522847 5.44771525,19 6,19 L20,19 C20.5522847,19 21,19.4477153 21,20 C21,20.5522847 20.5522847,21 20,21 L5,21 C3.8954305,21 3,20.1045695 3,19 L3,4 C3,3.44771525 3.44771525,3 4,3 C4.55228475,3 5,3.44771525 5,4 Z M21,7 C21.3904653,7.39046532 21.3904653,8.02353468 21,8.414 L16.7071068,12.7068932 C16.3165106,13.0972536 15.6834366,13.0973064 15.2927754,12.7070111 L13,10.415 L13,10.415 L9.41408235,14.0000824 C9.02355823,14.3905155 8.39047864,14.3904786 8,14 C7.60953468,13.6095347 7.60953468,12.9764653 8,12.586 L12.2928932,8.29310678 C12.6834894,7.9027464 13.3165634,7.90269364 13.7072246,8.2929889 L16,10.585 L16,10.585 L19.5859177,6.99991764 C19.9764418,6.60948449 20.6095214,6.60952136 21,7 Z" id="形状" fill="#5D6E7F" fill-rule="nonzero"></path>
            </g>
        </g>
    </g>
</svg>