<?xml version="1.0" encoding="UTF-8"?>
<svg width="24px" height="24px" viewBox="0 0 24 24" version="1.1" xmlns="http://www.w3.org/2000/svg" xmlns:xlink="http://www.w3.org/1999/xlink">
    <title>菜单打开</title>
    <g id="2.0" stroke="none" stroke-width="1" fill="none" fill-rule="evenodd">
        <g id="通用基础-删格" transform="translate(-252.000000, -310.000000)">
            <g id="菜单打开" transform="translate(252.000000, 310.000000)">
                <polygon id="路径" points="0 0 24 0 24 24 0 24"></polygon>
                <path d="M21,19 C21,19.5522847 20.5522847,20 20,20 L4,20 C3.44771525,20 3,19.5522847 3,19 C3,18.4477153 3.44771525,18 4,18 L20,18 C20.5522847,18 21,18.4477153 21,19 Z M17.9035534,4.40355339 L21.2928932,7.79289322 C21.6834175,8.18341751 21.6834175,8.81658249 21.2928932,9.20710678 L17.9035534,12.5964466 C17.7082912,12.7917088 17.3917088,12.7917088 17.1964466,12.5964466 C17.1026784,12.5026784 17.05,12.3755015 17.05,12.2428932 L17.05,4.75710678 C17.05,4.48096441 17.2738576,4.25710678 17.55,4.25710678 C17.6826082,4.25710678 17.8097852,4.3097852 17.9035534,4.40355339 Z M13,12 C13,12.5522847 12.5522847,13 12,13 L4,13 C3.44771525,13 3,12.5522847 3,12 C3,11.4477153 3.44771525,11 4,11 L12,11 C12.5522847,11 13,11.4477153 13,12 Z M13,5 C13,5.55228475 12.5522847,6 12,6 L4,6 C3.44771525,6 3,5.55228475 3,5 C3,4.44771525 3.44771525,4 4,4 L12,4 C12.5522847,4 13,4.44771525 13,5 Z" id="形状" fill="#5D6E7F" fill-rule="nonzero"></path>
            </g>
        </g>
    </g>
</svg>