<?xml version="1.0" encoding="UTF-8"?>
<svg width="24px" height="24px" viewBox="0 0 24 24" version="1.1" xmlns="http://www.w3.org/2000/svg" xmlns:xlink="http://www.w3.org/1999/xlink">
    <title>文件</title>
    <g id="2.0" stroke="none" stroke-width="1" fill="none" fill-rule="evenodd">
        <g id="通用基础-删格" transform="translate(-252.000000, -352.000000)">
            <g id="文件" transform="translate(252.000000, 352.000000)">
                <polygon id="路径" points="0 0 24 0 24 24 0 24"></polygon>
                <g id="编组-2" transform="translate(2.989269, 1.992688)" fill="#5D6E7F" fill-rule="nonzero">
                    <path d="M0,6.83678501 C-1.18904769e-15,6.30573355 0.211203972,5.79648485 0.587049008,5.42131 L5.43247417,0.584524993 C5.8074438,0.210223995 6.31561061,1.01198442e-15 6.84542516,0 L13,2.27373675e-13 C15.7614237,2.27373675e-13 18,2.23857625 18,5 L18,5 L18,15 C18,17.7614237 15.7614237,20 13,20 L13,20 L5,20 C2.23857625,20 0,17.7614237 0,15 L0,15 L0,6.83678501 L0,6.83678501 Z M13,2 L8.01865261,2 L8.01865261,5.01625965 C8.01865261,6.6731139 6.67550686,8.01625965 5.01865261,8.01625965 L5.01865261,8.01625965 L2,8.01625965 L2,15 C2,16.6568542 3.34314575,18 5,18 L5,18 L13,18 C14.6568542,18 16,16.6568542 16,15 L16,15 L16,5 C16,3.34314575 14.6568542,2 13,2 L13,2 Z M6.01073112,2.83531221 L2.83873112,6.00731221 L5.01073112,6.00731221 C5.52356696,6.00731221 5.94623828,5.62127202 6.00400339,5.12393334 L6.01073112,5.00731221 L6.01073112,2.83531221 Z" id="形状结合"></path>
                </g>
            </g>
        </g>
    </g>
</svg>