<?xml version="1.0" encoding="UTF-8"?>
<svg width="24px" height="24px" viewBox="0 0 24 24" version="1.1" xmlns="http://www.w3.org/2000/svg" xmlns:xlink="http://www.w3.org/1999/xlink">
    <title>下载</title>
    <g id="2.0" stroke="none" stroke-width="1" fill="none" fill-rule="evenodd">
        <g id="通用基础-删格" transform="translate(-148.000000, -76.000000)">
            <g id="下载" transform="translate(148.000000, 76.000000)">
                <polygon id="路径" points="0 0 24 0 24 24 0 24"></polygon>
                <path d="M20,13 C20.5128358,13 20.9355072,13.3860402 20.9932723,13.8833789 L21,14 L21,17.4285714 C21,19.3753693 19.2899682,20.9019483 17.2030878,20.9954583 L17,21 L7,21 C4.89019413,21 3.11423088,19.5342584 3.00529354,17.6156254 L3,17.4285714 L3,14 C3,13.4477153 3.44771525,13 4,13 C4.51283584,13 4.93550716,13.3860402 4.99327227,13.8833789 L5,14 L5,17.4285714 C5,18.217759 5.77990046,18.9257045 6.83173507,18.994526 L7,19 L17,19 C18.0790522,19 18.9129052,18.3315139 18.9935929,17.5524235 L19,17.4285714 L19,14 C19,13.4477153 19.4477153,13 20,13 Z M12.9089656,10.649786 L12.9089656,4.90896561 C12.9089656,4.40695777 12.5020078,4 12,4 C11.4979922,4 11.0910344,4.40695777 11.0910344,4.90896561 L11.0910344,10.649786 L11.0910344,10.649786 L7.43240079,10.649786 C7.15625842,10.649786 6.93240079,10.8736436 6.93240079,11.149786 C6.93240079,11.2896686 6.9909978,11.4231549 7.09396568,11.5178372 L11.4885736,15.558823 C11.7771308,15.8241608 12.2213502,15.8225211 12.5079407,15.5550602 L16.8366071,11.5153287 C17.0384908,11.3269206 17.0494149,11.0105267 16.8610068,10.808643 C16.766443,10.7073157 16.6340626,10.649786 16.4954641,10.649786 L12.9089656,10.649786 L12.9089656,10.649786 Z" id="形状" fill="#5D6E7F" fill-rule="nonzero"></path>
            </g>
        </g>
    </g>
</svg>