<?xml version="1.0" encoding="UTF-8"?>
<svg width="24px" height="24px" viewBox="0 0 24 24" version="1.1" xmlns="http://www.w3.org/2000/svg" xmlns:xlink="http://www.w3.org/1999/xlink">
    <title>问号</title>
    <g id="2.0" stroke="none" stroke-width="1" fill="none" fill-rule="evenodd">
        <g id="通用基础-删格" transform="translate(-322.000000, -310.000000)">
            <g id="问号" transform="translate(322.000000, 310.000000)">
                <polygon id="路径" points="0 0 24 0 24 24 0 24"></polygon>
                <path d="M12,22 C6.477,22 2,17.523 2,12 C2,6.477 6.477,2 12,2 C17.523,2 22,6.477 22,12 C22,17.523 17.523,22 12,22 Z M12,20 C16.418278,20 20,16.418278 20,12 C20,7.581722 16.418278,4 12,4 C7.581722,4 4,7.581722 4,12 C4,16.418278 7.581722,20 12,20 Z M12,15 C12.5522847,15 13,15.4477153 13,16 C13,16.5522847 12.5522847,17 12,17 C11.4477153,17 11,16.5522847 11,16 C11,15.4477153 11.4477153,15 12,15 Z M12.6775,14 L11.5,14 C11.2238576,14 11,13.7761424 11,13.5 L11,12.5 L11,12.5 C11,11.9477153 11.4477153,11.5 12,11.5 C12.7901514,11.4999504 13.4447788,10.8869506 13.4966679,10.0985049 C13.5485571,9.31005909 12.9799134,8.61655344 12.1965836,8.51294995 C11.7132275,8.44902109 11.2504113,8.62322819 10.9304408,8.94806943 C10.898409,8.98058876 10.8673292,9.02225639 10.8372012,9.07307232 C10.5838188,9.50040038 10.0881914,9.72112057 9.60106595,9.6235465 L9.5343927,9.61019147 C9.05412551,9.51398152 8.74277659,9.04666048 8.83897727,8.56639143 C8.85671147,8.47785578 8.88786215,8.39254753 8.93135208,8.31341668 C8.93135208,8.31341668 8.93135208,8.31341668 8.93135208,8.31341668 C9.55359326,7.18123591 10.7735027,6.45365746 12.1227809,6.50102146 C13.8368125,6.56118947 15.2549008,7.85419938 15.4726334,9.5554099 C15.6815169,11.1874802 14.7266235,12.7341997 13.1973975,13.2897943 C13.1804969,13.2959346 13.1601339,13.3030004 13.1363086,13.3109917 C13.0548878,13.3383973 13,13.4147005 13,13.5006097 L13,13.6775 C13,13.8556118 12.8556118,14 12.6775,14 Z" id="形状" fill="#5D6E7F" fill-rule="nonzero"></path>
            </g>
        </g>
    </g>
</svg>