<?xml version="1.0" encoding="UTF-8"?>
<svg width="16px" height="16px" viewBox="0 0 16 16" version="1.1" xmlns="http://www.w3.org/2000/svg" xmlns:xlink="http://www.w3.org/1999/xlink">
    <title>词</title>
    <g id="2.0" stroke="none" stroke-width="1" fill="none" fill-rule="evenodd">
        <g id="知识库删格" transform="translate(-31.000000, -108.000000)" fill="#FF9B00" fill-rule="nonzero">
            <g id="词" transform="translate(31.000000, 108.000000)">
                <path d="M14,0 L2,0 C0.8954305,0 0,0.8954305 0,2 L0,14 C0,15.1045695 0.8954305,16 2,16 L14,16 C15.1045695,16 16,15.1045695 16,14 L16,2 C16,0.8954305 15.1045695,0 14,0 Z M14,1 C14.5522847,1 15,1.44771525 15,2 L15,14 C15,14.5522847 14.5522847,15 14,15 L2,15 C1.44771525,15 1,14.5522847 1,14 L1,2 C1,1.44771525 1.44771525,1 2,1 L14,1 Z" id="矩形"></path>
                <path d="M5.408,4.764 L5.996,4.164 C5.444,3.54 4.76,2.928 3.944,2.316 L3.344,2.904 C4.208,3.552 4.904,4.176 5.408,4.764 Z M11.744,13.152 C12.584,13.152 13.016,12.744 13.016,11.952 L13.016,2.7 L6.428,2.7 L6.428,3.516 L12.164,3.516 L12.164,11.7 C12.164,12.132 11.96,12.348 11.564,12.348 L10.148,12.324 L10.364,13.152 L11.744,13.152 Z M11.336,5.76 L11.336,4.932 L6.704,4.932 L6.704,5.76 L11.336,5.76 Z M4.34,12.756 C5.084,12.228 5.792,11.616 6.452,10.932 L6.224,10.008 C5.816,10.428 5.444,10.8 5.096,11.124 L5.096,5.868 L2.528,5.868 L2.528,6.696 L4.268,6.696 L4.268,11.472 C4.268,11.664 4.172,11.832 4.004,11.988 L4.34,12.756 Z M10.856,10.788 L10.856,7.068 L7.136,7.068 L7.136,10.788 L10.856,10.788 Z M10.04,10.032 L7.976,10.032 L7.976,7.824 L10.04,7.824 L10.04,10.032 Z"></path>
            </g>
        </g>
    </g>
</svg>