<?xml version="1.0" encoding="UTF-8"?>
<svg width="24px" height="24px" viewBox="0 0 24 24" version="1.1" xmlns="http://www.w3.org/2000/svg" xmlns:xlink="http://www.w3.org/1999/xlink">
    <title>每日答题</title>
    <g id="2.0" stroke="none" stroke-width="1" fill="none" fill-rule="evenodd">
        <g id="知识库删格" transform="translate(-260.000000, -253.000000)">
            <g id="每日答题" transform="translate(260.000000, 253.000000)">
                <polygon id="路径" points="0 0 24 0 24 24 0 24"></polygon>
                <path d="M15,2 C17.0932933,2 18.9427365,3.29839135 19.6746768,5.22286505 C19.7770338,5.49198998 19.8560331,5.77006237 19.9105347,6.05446709 C20.0144798,6.59688193 19.6590298,7.12086018 19.116615,7.22480526 C18.612944,7.3213257 18.12517,7.02173509 17.9748335,6.54415629 L17.9462768,6.43088553 C17.9136862,6.26081877 17.8664851,6.09467393 17.8053163,5.93384406 C17.3892912,4.839999 16.371213,4.08306404 15.1970607,4.00641672 L15,4 L7,4 C5.40231912,4 4.09633912,5.24891996 4.00509269,6.82372721 L4,7 L4,17 C4,18.5976809 5.24891996,19.9036609 6.82372721,19.9949073 L7,20 L15,20 C16.3544406,20 17.5308187,19.0942425 17.8897358,17.8096536 C17.9443955,17.6140229 17.9790893,17.4124415 17.9930199,17.2068527 L18,17 C18,16.4477153 18.4477153,16 19,16 C19.5522847,16 20,16.4477153 20,17 C20,17.459749 19.9376785,17.912216 19.8159625,18.3478458 C19.2370688,20.4197457 17.3866267,21.8987077 15.2247175,21.995003 L15,22 L7,22 C4.3112453,22 2.11818189,19.8776933 2.00461951,17.2168896 L2,17 L2,7 C2,4.3112453 4.12230671,2.11818189 6.78311038,2.00461951 L7,2 L15,2 Z M18.1951115,8.26483943 L20.7369348,10.823806 C21.0876884,11.1770319 21.0876884,11.7496111 20.7369348,12.102837 L14.3975859,18.4170231 C14.0227444,18.7903767 13.5152424,19 12.9861874,19 L11,19 C10.4477153,19 10,18.5522847 10,18 L10,15.9927603 C10,15.460949 10.2118071,14.951036 10.5886015,14.5757372 L16.9246491,8.26483943 C17.2755086,7.91172019 17.844252,7.91172019 18.1951115,8.26483943 Z M15.0189555,12.7423525 L11.7969765,15.9118728 L11.7969765,17.1909038 L13.0674389,17.1909038 L16.2894179,14.0213836 L15.0189555,12.7423525 Z M8.7,15 C9.19705627,15 9.6,15.4477153 9.6,16 C9.6,16.5522847 9.19705627,17 8.7,17 L6.9,17 C6.40294373,17 6,16.5522847 6,16 C6,15.4477153 6.40294373,15 6.9,15 L8.7,15 Z M10.1428571,11.6 C10.6162441,11.6 11,12.0029437 11,12.5 C11,12.9970563 10.6162441,13.4 10.1428571,13.4 L6.85714286,13.4 C6.38375593,13.4 6,12.9970563 6,12.5 C6,12.0029437 6.38375593,11.6 6.85714286,11.6 L10.1428571,11.6 Z M17.5598803,10.1842905 L16.2894179,11.4633215 L17.5598803,12.7423525 L18.8303427,11.4633215 L17.5598803,10.1842905 Z M13.1,8 C13.5970563,8 14,8.44771525 14,9 C14,9.55228475 13.5970563,10 13.1,10 L6.9,10 C6.40294373,10 6,9.55228475 6,9 C6,8.44771525 6.40294373,8 6.9,8 L13.1,8 Z" id="形状结合" fill="#5D6E7F" fill-rule="nonzero"></path>
            </g>
        </g>
    </g>
</svg>