<?xml version="1.0" encoding="UTF-8"?>
<svg width="24px" height="24px" viewBox="0 0 24 24" version="1.1" xmlns="http://www.w3.org/2000/svg" xmlns:xlink="http://www.w3.org/1999/xlink">
    <title>右箭头</title>
    <g id="2.0" stroke="none" stroke-width="1" fill="none" fill-rule="evenodd">
        <g id="通用基础-删格" transform="translate(-252.000000, -76.000000)">
            <g id="右箭头" transform="translate(264.000000, 88.000000) scale(-1, 1) rotate(-270.000000) translate(-264.000000, -88.000000) translate(252.000000, 76.000000)">
                <polygon id="路径" points="0 0 24 0 24 24 0 24"></polygon>
                <path d="M12,13.172 L16.243,8.929 C16.6334653,8.53853468 17.2665347,8.53853468 17.657,8.929 C18.0474653,9.31946532 18.0474653,9.95253468 17.657,10.343 L12.7071068,15.2928932 C12.3165825,15.6834175 11.6834175,15.6834175 11.2928932,15.2928932 L6.343,10.343 C5.95253468,9.95253468 5.95253468,9.31946532 6.343,8.929 C6.73346532,8.53853468 7.36653468,8.53853468 7.757,8.929 L12,13.172 L12,13.172 Z" id="路径" fill="#5D6E7F" fill-rule="nonzero"></path>
            </g>
        </g>
    </g>
</svg>