<?xml version="1.0" encoding="UTF-8"?>
<svg width="32px" height="32px" viewBox="0 0 32 32" version="1.1" xmlns="http://www.w3.org/2000/svg" xmlns:xlink="http://www.w3.org/1999/xlink">
    <title>云问科技-云</title>
    <defs>
        <polygon id="path-1" points="0 0 30 0 30 21.4210526 0 21.4210526"></polygon>
    </defs>
    <g id="2.0" stroke="none" stroke-width="1" fill="none" fill-rule="evenodd">
        <g id="知识库删格" transform="translate(-348.000000, -633.000000)">
            <g id="云问科技-云" transform="translate(348.000000, 633.000000)">
                <rect id="矩形" x="0" y="0" width="32" height="32"></rect>
                <g id="编组-3" transform="translate(1.000000, 5.000000)">
                    <g id="编组">
                        <mask id="mask-2" fill="white">
                            <use xlink:href="#path-1"></use>
                        </mask>
                        <g id="Clip-2"></g>
                        <path d="M7.5286607,8.69615013 C7.5286607,8.7839646 7.52922212,8.75527854 7.52978354,8.7839646 C-1.51019481,11.2392573 2.98509191,19.9504529 9.89448289,18.8059376 L10.6641892,21.4210526 C4.83665374,21.3789017 0.275680931,17.7346011 0.0157436573,14.2132407 C-0.244755036,10.6918804 2.75827839,7.98719462 6.73537481,7.90581988 C4.45151989,-2.63542941 25.8152198,-2.63542941 23.2641292,7.90581988 C27.2412256,7.98719462 30.244259,10.6918804 29.9843217,14.2132407 C29.7238231,17.7346011 25.1628502,21.3789017 19.3353148,21.4210526 L20.1050211,18.8059376 C25.9218895,19.6571526 33.0457428,10.0555182 22.4697204,8.7839646 C22.4702819,8.75527854 22.4708433,8.7839646 22.4708433,8.69615013 C22.4259297,0.360800396 7.5286607,0.368996414 7.5286607,8.69615013" id="Fill-1" fill="#0569FF" mask="url(#mask-2)"></path>
                    </g>
                    <path d="M12.8510255,22 C12.1947856,15.1607132 19.6617314,19.2145892 20.7814014,13.3964459 C21.2448314,10.9875203 20.7773964,8.41178275 18.5494992,7.0512234 C15.2665833,5.34256011 9.76492435,6.8235947 10.2146232,11.6877826 C10.664322,16.5525497 17.3228398,14.7303617 16.7152314,11.7740846 C15.7631973,13.0639806 13.8396763,13.5424063 12.9402787,12.8577826 C10.8943206,11.2997133 13.2726896,7.8945501 16.4268749,8.69038175 C18.5008676,9.21340648 18.3601222,10.4894015 18.5140267,12.0104014 C18.822408,15.0535597 15.9268281,15.2597577 13.2526649,16.5137428 C9.97032115,18.0538566 12.8510255,22 12.8510255,22" id="Fill-3" fill="#0569FF"></path>
                    <path d="M16.0833925,18.5585742 C17.2793586,18.3266381 18.3088639,19.380138 18.0815027,20.6032892 C17.9556421,21.2830813 17.4121793,21.8383042 16.7480759,21.9676189 C15.5515297,22.2001482 14.5208645,21.145462 14.7488056,19.9223107 C14.8752463,19.2425186 15.4187091,18.6872957 16.0833925,18.5585742" id="Fill-5" fill="#0569FF"></path>
                </g>
            </g>
        </g>
    </g>
</svg>