<?xml version="1.0" encoding="UTF-8"?>
<svg width="24px" height="24px" viewBox="0 0 24 24" version="1.1" xmlns="http://www.w3.org/2000/svg" xmlns:xlink="http://www.w3.org/1999/xlink">
    <title>icon-IKC-l</title>
    <defs>
        <rect id="path-1" x="0" y="0" width="24" height="24"></rect>
    </defs>
    <g id="2.0" stroke="none" stroke-width="1" fill="none" fill-rule="evenodd">
        <g id="知识库删格" transform="translate(-34.000000, -303.000000)">
            <g id="icon-IKC-l" transform="translate(34.000000, 303.000000)">
                <mask id="mask-2" fill="white">
                    <use xlink:href="#path-1"></use>
                </mask>
                <g id="蒙版"></g>
                <g id="编组" mask="url(#mask-2)" fill="#0569FF" fill-rule="nonzero">
                    <g transform="translate(0.000000, 1.000000)" id="形状">
                        <path d="M18.2428096,2.5805034 C18.5179715,2.80985532 18.5548086,3.21795875 18.3248558,3.49186104 C18.2156146,3.62345919 18.0572861,3.70627235 17.8854632,3.7216838 C17.7136403,3.73709525 17.5427411,3.68381178 17.4111844,3.57381172 C13.989564,0.718058443 9.03399951,0.525709378 5.39503777,3.10740782 C1.75486367,5.68692944 0.342775279,10.3817688 1.96304903,14.5128534 C3.58388092,18.646688 7.82851816,21.1673591 12.2752012,20.6355047 C16.0627237,20.1828509 19.2245738,17.5983792 20.4083839,14.0425994 C20.4612494,13.8804772 20.57769,13.7459081 20.7317873,13.6688459 C20.8858845,13.5917837 21.0648495,13.578624 21.2288463,13.632296 C21.5687522,13.745047 21.7523795,14.1108 21.6396356,14.4501529 C20.2978726,18.4811366 16.7168611,21.4077112 12.4292473,21.9203155 C7.39707772,22.5220205 2.59151208,19.6680466 0.754680887,14.9847573 C-1.08270843,10.2987181 0.519146774,4.97577347 4.64378442,2.05249898 C8.76198207,-0.869759875 14.3707,-0.651992218 18.2428096,2.5805034 Z M8.82144514,6.70718799 C9.49065225,6.70718799 10.8731593,6.97999028 11.0551122,7.99969882 C11.155577,7.06304096 12.0949228,6.79628874 12.8059902,6.72863816 L12.9717571,6.71598805 L13.125245,6.70938801 L13.2636631,6.70718799 L15.5648649,6.70718799 C15.9907239,6.70718799 16.3406763,7.02674068 16.3814203,7.43374406 L16.3853273,7.51074471 L16.3853273,14.941307 C16.3853273,15.3593105 16.0593749,15.7030634 15.6441204,15.7421137 L15.5648649,15.7459637 L12.5509213,15.7459637 C12.1512393,16.1315373 11.6144342,16.3478676 11.0551122,16.3487688 C10.5404997,16.3475555 10.0434823,16.1640607 9.65474471,15.8317644 L9.55986132,15.7459637 L6.5459177,15.7459637 C6.12005863,15.7459637 5.76899002,15.426411 5.72880412,15.0188576 L5.72489716,14.941857 L5.72489716,7.51129472 C5.72489716,7.09384122 6.0514077,6.75008833 6.4672203,6.71103802 L6.54535958,6.70718799 L8.820887,6.70718799 L8.82144514,6.70718799 Z M8.88842166,7.51129472 L6.54535958,7.51129472 L6.54535958,14.941857 L9.73902351,14.941857 C9.85846499,14.941857 9.97288322,14.9935574 10.0499062,15.0826582 C10.3014204,15.3735738 10.6689637,15.5422199 11.0567866,15.544662 C11.4444142,15.5420604 11.8117218,15.373429 12.0631089,15.0826582 C12.1272297,15.0083439 12.2168008,14.9598074 12.314829,14.946257 L12.3739916,14.941857 L15.5648649,14.941857 L15.5648649,7.51129472 L13.3630116,7.51129472 C11.9765976,7.49919462 11.4854364,8.05964931 11.4659016,9.1431584 L11.4659016,12.1296834 C11.4659016,12.3518853 11.2817161,12.5311868 11.0551122,12.5311868 C10.8507083,12.5317724 10.6772309,12.3836005 10.648788,12.1841339 L10.644881,12.1291334 L10.644881,9.24930928 C10.6705553,8.06129932 9.63855875,7.54594501 8.95763073,7.51294473 L8.88842166,7.51129472 L8.88842166,7.51129472 Z M23.477025,5.19247529 C23.7537028,5.18098418 23.9876302,5.39231346 24,5.66492924 L24,11.3200766 C23.9842792,11.5384412 23.8158813,11.7163039 23.5959083,11.7468802 L23.5345131,11.7523803 C23.4055723,11.7717278 23.2741352,11.7394463 23.1694911,11.6627295 C23.0664491,11.5873528 22.9997536,11.4732328 22.9853057,11.3475769 L22.9853057,5.69407949 C22.9829168,5.56328002 23.0334027,5.43691196 23.1256379,5.3428225 C23.2178732,5.24873304 23.3442881,5.1946442 23.477025,5.19247529 L23.477025,5.19247529 Z M19.9423389,5.19247529 C19.9558926,5.19416117 19.9693175,5.19673354 19.9825248,5.20017535 L20.0316409,5.20677542 L20.0790826,5.22217554 L20.1209429,5.25352579 C20.1467114,5.26554002 20.1701373,5.28192257 20.190152,5.30192619 C20.2103712,5.32533454 20.2274422,5.35121491 20.2409426,5.37892684 L20.2694076,5.4212772 L22.447819,10.7233216 C22.5259583,10.9152732 22.4422377,11.1363751 22.2602848,11.2210758 C22.2156786,11.2420475 22.1668232,11.252767 22.1174015,11.252434 C21.9894677,11.2510493 21.8719198,11.1827632 21.8087514,11.0731246 L21.7841933,11.0236241 L20.9458705,8.98200705 L18.9293189,8.98200705 L18.0909961,11.0230742 C18.0384917,11.1572255 17.9097511,11.247503 17.7639274,11.252434 C17.7145262,11.2525787 17.6657128,11.2418685 17.6210442,11.2210758 C17.5309459,11.180092 17.4610728,11.1054992 17.4268123,11.0137241 C17.3982241,10.9390358 17.3929756,10.857625 17.4117425,10.7799721 L17.4301611,10.7233216 L19.6130376,5.41852719 L19.6403864,5.3745268 C19.6554561,5.34867659 19.6727584,5.32392638 19.6911769,5.30027618 C19.7121484,5.2811004 19.7353851,5.26448082 19.760386,5.25077578 L19.7815952,5.23372563 L19.8039207,5.21887552 L19.8457811,5.20787541 L19.9423389,5.19192528 L19.9423389,5.19247529 Z M19.9361994,6.53283652 L19.2435505,8.22245067 L20.6271739,8.22245067 L19.9361994,6.53283652 L19.9361994,6.53283652 Z"></path>
                    </g>
                </g>
            </g>
        </g>
    </g>
</svg>