<?xml version="1.0" encoding="UTF-8"?>
<svg width="24px" height="24px" viewBox="0 0 24 24" version="1.1" xmlns="http://www.w3.org/2000/svg" xmlns:xlink="http://www.w3.org/1999/xlink">
    <title>百科</title>
    <g id="2.0" stroke="none" stroke-width="1" fill="none" fill-rule="evenodd">
        <g id="知识库删格" transform="translate(-33.000000, -253.000000)">
            <g id="百科" transform="translate(33.000000, 253.000000)">
                <polygon id="路径" points="0 0 24 0 24 24 0 24"></polygon>
                <path d="M7,21 C4.3112453,21 2.11818189,18.8776933 2.00461951,16.2168896 L2,16 L2,6 C2,4.40231912 3.24891996,3.09633912 4.82372721,3.00509269 L5,3 L9,3 C10.1952121,3 11.2679883,3.52421057 12.0009561,4.35525927 C12.6832747,3.57961381 13.6632698,3.07125847 14.762655,3.00692507 L15,3 L19,3 C20.5976809,3 21.9036609,4.24891996 21.9949073,5.82372721 L22,6 L22,16 C22,18.6887547 19.8776933,20.8818181 17.2168896,20.9953805 L17,21 L13,21 C13,21.5522847 12.5522847,22 12,22 C11.4477153,22 11,21.5522847 11,21 L7,21 Z M19,5 L15,5 L14.8507377,5.00548574 C13.8676208,5.07801742 13.0821352,5.86122651 13.0060445,6.84334953 L13,7 L13,19 L17,19 L17.1762728,18.9949073 C18.6927538,18.9070404 19.9070404,17.6927538 19.9949073,16.1762728 L20,16 L20,6 L19.9932723,5.88337887 C19.9399506,5.42429701 19.575703,5.06004937 19.1166211,5.00672773 L19,5 Z M11,7 L10.9945143,6.85073766 C10.9219826,5.86762078 10.1387735,5.08213523 9.15665047,5.00604447 L9,5 L5,5 L4.88337887,5.00672773 C4.42429701,5.06004937 4.06004937,5.42429701 4.00672773,5.88337887 L4,6 L4,16 L4.00509269,16.1762728 C4.09295962,17.6927538 5.30724616,18.9070404 6.82372721,18.9949073 L7,19 L11,19 L11,7 Z" id="形状结合" fill="#5D6E7F" fill-rule="nonzero"></path>
            </g>
        </g>
    </g>
</svg>