<?xml version="1.0" encoding="UTF-8"?>
<svg width="170px" height="48px" viewBox="0 0 170 48" version="1.1" xmlns="http://www.w3.org/2000/svg" xmlns:xlink="http://www.w3.org/1999/xlink">
    <title>云问科技</title>
    <g id="2.0" stroke="none" stroke-width="1" fill="none" fill-rule="evenodd">
        <g id="知识库删格" transform="translate(-311.000000, -559.000000)">
            <g id="云问科技" transform="translate(311.000000, 559.000000)">
                <rect id="矩形" x="0" y="0" width="170" height="48"></rect>
                <path d="M21.0458343,25.1879881 C20.2513664,16.786209 29.9709638,14.2280584 35.7707818,17.1793859 C39.7067336,19.5294429 40.5325355,23.9784441 39.7138091,28.1393157 C38.820481,32.6778087 35.6401081,33.7385418 32.5273928,34.6251776 L32.0834337,34.7510122 C28.4656794,35.7748164 25.0926342,36.775781 25.7034783,43 C25.7034783,43 20.614234,36.1839341 26.4130413,33.5237376 C27.2275853,33.1502937 28.0537573,32.8306494 28.860542,32.5304139 L29.3420382,32.3523265 C33.0118679,31.0006276 36.1402021,29.9140795 35.7081139,25.7452388 C35.4362158,23.1180571 35.6848661,20.9140657 32.0208124,20.0106594 C26.4484184,18.6360411 22.2466331,24.5176866 25.861159,27.2088972 C27.4500948,28.3914291 30.8483152,27.5650574 32.5302422,25.3370552 C33.6036836,30.443352 21.8403022,33.5907677 21.0458343,25.1879881 Z M34.9439881,40.5874995 C34.7216343,41.7616859 33.7615167,42.7207073 32.5882674,42.9440691 C30.4743692,43.3457105 28.6535272,41.5239798 29.0562233,39.411264 C29.2796017,38.2370776 30.2397193,37.2780563 31.4139934,37.055719 C33.5268669,36.6551022 35.3456595,38.4747837 34.9439881,40.5874995 Z M44.0999615,18.6555071 C51.1261652,18.7960634 56.4315243,23.4677934 55.9723017,29.5501431 C55.5120874,35.6324928 47.4543688,41.9271938 37.1590562,42 L38.5188706,37.4829832 C48.7953382,38.9532636 61.3808123,22.3686223 42.6965061,20.1723025 C42.6971673,20.1392701 42.6978286,20.1502809 42.6981959,20.1163496 L42.6984898,20.020623 L42.6984898,20.020623 C42.6191425,5.62320068 16.3006339,5.63735744 16.3006339,20.020623 L16.3009278,20.1163496 C16.3012951,20.1502809 16.3019564,20.1392701 16.3026176,20.1723025 C0.331989174,24.4132625 8.27366237,39.4598732 20.4802531,37.4829832 L21.8400675,42 C11.5447549,41.9271938 3.48703631,35.6324928 3.02781379,29.5501431 C2.56759944,23.4677934 7.87295849,18.7960634 14.8991622,18.6555071 C10.8643518,0.447894661 48.6068883,0.447894661 44.0999615,18.6555071 Z" id="形状结合" fill="#0569FF"></path>
                <path d="M151.998012,35 C152.927435,35 153.615308,35.2045221 154.060636,35.6115108 C154.507952,36.0184995 154.730616,36.6485098 154.730616,37.4974306 C154.730616,38.3463515 154.507952,38.9763618 154.060636,39.385406 C153.615308,39.7944502 152.927435,40 151.998012,40 C151.057654,40 150.367793,39.7934224 149.925447,39.3823227 C149.483101,38.971223 149.261431,38.3268243 149.261431,37.4480987 C149.261431,36.6217883 149.487078,36.008222 149.937376,35.6043165 C150.389662,35.2024666 151.075547,35 151.998012,35 Z M140.932406,35 C141.861829,35 142.549702,35.2045221 142.99503,35.6115108 C143.442346,36.0184995 143.66501,36.6485098 143.66501,37.4974306 C143.66501,38.3463515 143.442346,38.9763618 142.99503,39.385406 C142.549702,39.7944502 141.861829,40 140.932406,40 C139.994036,40 139.303181,39.7934224 138.859841,39.3823227 C138.418489,38.971223 138.196819,38.3268243 138.196819,37.4480987 C138.196819,36.6217883 138.421471,36.008222 138.872763,35.6043165 C139.32505,35.2024666 140.010934,35 140.932406,35 Z M71.3409543,35.0955807 L71.3409543,37.971223 C71.3409543,38.4193217 71.4333996,38.7327852 71.6182903,38.9105858 C71.804175,39.0883864 72.1222664,39.1778006 72.5755467,39.1778006 C73.028827,39.1778006 73.3479125,39.0894142 73.5308151,38.9136691 C73.7157058,38.7358684 73.8071571,38.4213772 73.8071571,37.971223 L73.8071571,35.0955807 L74.9602386,35.0955807 L74.9602386,37.9969168 C74.9602386,38.3371017 74.9333996,38.6084275 74.8836978,38.8108941 C74.832008,39.0133607 74.750497,39.1736896 74.638171,39.290853 C74.4194831,39.5169579 74.1441352,39.684481 73.8111332,39.7903392 C73.4791252,39.8982528 73.0685885,39.9516958 72.5755467,39.9516958 C72.082505,39.9516958 71.6699801,39.8982528 71.3349901,39.7903392 C71,39.684481 70.7246521,39.5169579 70.5049702,39.290853 C70.3966203,39.1767729 70.3170974,39.0195272 70.2673956,38.8242549 C70.2176938,38.6289825 70.1918489,38.3514902 70.1918489,37.9969168 L70.1918489,35.0955807 L71.3409543,35.0955807 Z M65.2992048,35.0955807 L66.6520875,36.9290853 L68.0248509,35.0955807 L69.3648111,35.0955807 L67.2465209,37.7769784 L67.2465209,39.8992806 L66.0944334,39.8992806 L66.0944334,37.7769784 L64,35.0955807 L65.2992048,35.0955807 Z M118.673956,35.0955807 L118.673956,35.9311408 L116.780318,35.9311408 C116.363817,35.9311408 116.048708,36.0226105 115.835984,36.2055498 C115.624254,36.389517 115.505964,36.668037 115.484095,37.045221 L118.673956,37.0483042 L118.673956,37.8859198 L115.476143,37.8859198 C115.479125,38.3042138 115.579523,38.6053443 115.780318,38.7882837 C115.980119,38.971223 116.314115,39.061665 116.780318,39.061665 L118.673956,39.061665 L118.673956,39.8992806 L116.723658,39.8992806 C116.295229,39.8992806 115.956262,39.8674203 115.71173,39.8026721 C115.465209,39.7389517 115.232604,39.6300103 115.018887,39.4768756 C114.736581,39.2805755 114.525845,39.0256937 114.385686,38.7112025 C114.245527,38.3967112 114.175944,38.0195272 114.175944,37.5827338 C114.175944,36.7327852 114.385686,36.1058582 114.806163,35.700925 C115.22664,35.2970195 115.87674,35.0955807 116.759443,35.0955807 L118.673956,35.0955807 Z M78.1282306,35.0955807 L80.3727634,38.5457348 L80.3170974,35.0955807 L81.4960239,35.0955807 L81.4960239,39.8992806 L80.1560636,39.8992806 L77.7992048,36.2651593 L77.8518887,39.8992806 L76.667992,39.8992806 L76.667992,35.0955807 L78.1282306,35.0955807 Z M86.1520875,35.0955807 L87.4194831,38.7882837 L88.4920477,35.0955807 L89.8528827,35.0955807 L91.0805169,38.7882837 L92.2654076,35.0955807 L93.4483101,35.0955807 L91.7554672,39.8992806 L90.3419483,39.8992806 L89.1709742,36.311408 L88.1471173,39.8992806 L86.7405567,39.8992806 L84.917495,35.0955807 L86.1520875,35.0955807 Z M98.7296223,35.0955807 L98.7296223,35.9311408 L96.8369781,35.9311408 C96.4204771,35.9311408 96.1033797,36.0226105 95.8916501,36.2055498 C95.6799205,36.389517 95.5616302,36.668037 95.5397614,37.045221 L98.7296223,37.0483042 L98.7296223,37.8859198 L95.5328032,37.8859198 C95.5357853,38.3042138 95.6361829,38.6053443 95.8369781,38.7882837 C96.0367793,38.971223 96.3707753,39.061665 96.8369781,39.061665 L98.7296223,39.061665 L98.7296223,39.8992806 L96.7803181,39.8992806 C96.3508946,39.8992806 96.0119284,39.8674203 95.7664016,39.8026721 C95.5208748,39.7389517 95.2892644,39.6300103 95.0735586,39.4768756 C94.7932406,39.2805755 94.582505,39.0256937 94.4413519,38.7112025 C94.3011928,38.3967112 94.2306163,38.0195272 94.2306163,37.5827338 C94.2306163,36.7327852 94.4413519,36.1058582 94.860835,35.700925 C95.2813121,35.2970195 95.9314115,35.0955807 96.8141153,35.0955807 L98.7296223,35.0955807 Z M101.792247,35.0955807 L104.036779,38.5457348 L103.980119,35.0955807 L105.16004,35.0955807 L105.16004,39.8992806 L103.82008,39.8992806 L101.463221,36.2651593 L101.515905,39.8992806 L100.332008,39.8992806 L100.332008,35.0955807 L101.792247,35.0955807 Z M113.370775,35.1027749 L113.370775,35.938335 L111.592445,35.938335 L111.592445,39.8992806 L110.397614,39.8992806 L110.397614,35.938335 L108.625249,35.938335 L108.625249,35.1027749 L113.370775,35.1027749 Z M124.432406,35.0955807 L124.432406,35.9157246 L122.537773,35.9157246 C122.060636,35.9157246 121.7167,36.0483042 121.506958,36.3144913 C121.296223,36.5796506 121.190855,37.016444 121.190855,37.6248715 C121.190855,38.1510791 121.291252,38.5220966 121.492048,38.7389517 C121.694831,38.9537513 122.042744,39.061665 122.537773,39.061665 L124.432406,39.061665 L124.432406,39.8992806 L122.481113,39.8992806 C122.05169,39.8992806 121.712724,39.8674203 121.467197,39.8026721 C121.22167,39.7389517 120.989066,39.6300103 120.77336,39.4768756 C120.491054,39.2805755 120.281312,39.0256937 120.141153,38.7112025 C120,38.3967112 119.930417,38.0195272 119.930417,37.5827338 C119.930417,36.7327852 120.140159,36.1058582 120.560636,35.700925 C120.981113,35.2970195 121.632207,35.0955807 122.514911,35.0955807 L124.432406,35.0955807 Z M127.023857,35.0955807 L127.023857,37.0431655 L129.139165,37.0431655 L129.139165,35.0955807 L130.292247,35.0955807 L130.292247,39.8992806 L129.139165,39.8992806 L129.139165,37.8920863 L127.023857,37.8920863 L127.023857,39.8992806 L125.870775,39.8992806 L125.870775,35.0955807 L127.023857,35.0955807 Z M133.475149,35.0955807 L135.720676,38.5457348 L135.664016,35.0955807 L136.843936,35.0955807 L136.843936,39.8992806 L135.503976,39.8992806 L133.147117,36.2651593 L133.199801,39.8992806 L132.015905,39.8992806 L132.015905,35.0955807 L133.475149,35.0955807 Z M162.934394,35.0955807 L164.28827,36.9290853 L165.661034,35.0955807 L167,35.0955807 L164.88171,37.7769784 L164.88171,39.8992806 L163.728628,39.8992806 L163.728628,37.7769784 L161.636183,35.0955807 L162.934394,35.0955807 Z M146.069583,35.0955807 L146.069583,37.9177801 C146.069583,38.1993834 146.083499,38.397739 146.11332,38.5118191 C146.141153,38.626927 146.190855,38.717369 146.259443,38.7882837 C146.369781,38.9003083 146.503976,38.9825283 146.663022,39.0298047 C146.823062,39.0781089 147.042744,39.1007194 147.323062,39.1007194 L148.681909,39.1007194 L148.681909,39.8992806 L147.222664,39.8992806 C146.709742,39.8992806 146.33002,39.8612539 146.081511,39.7852004 C145.833996,39.7112025 145.610338,39.5806783 145.414513,39.3956835 C145.23161,39.2291881 145.10338,39.0421377 145.029821,38.8335046 C144.954274,38.6248715 144.918489,38.3299075 144.918489,37.9516958 L144.918489,35.0955807 L146.069583,35.0955807 Z M160.832008,35.0955807 L160.832008,35.9218911 L158.350895,35.9218911 C157.898608,35.9218911 157.569583,36.0503597 157.361829,36.3083248 C157.154076,36.5642343 157.049702,36.9743063 157.049702,37.5364851 C157.049702,38.0626927 157.153082,38.4409044 157.358847,38.6752312 C157.565606,38.9126413 157.89662,39.0298047 158.350895,39.0298047 L159.650099,39.0298047 L159.650099,37.8992806 L158.105368,37.8992806 L158.105368,37.0483042 L160.832008,37.0483042 L160.832008,39.8992806 L158.350895,39.8992806 C157.893638,39.8992806 157.542744,39.8674203 157.298211,39.8006166 C157.052684,39.7358684 156.823062,39.6279548 156.609344,39.4768756 C156.328032,39.2805755 156.117296,39.0256937 155.978131,38.7112025 C155.835984,38.3967112 155.766402,38.0195272 155.766402,37.5827338 C155.766402,36.7348407 155.978131,36.1079137 156.398608,35.7040082 C156.82008,35.2980473 157.472167,35.0955807 158.350895,35.0955807 L160.832008,35.0955807 Z M140.932406,35.8232271 C140.439364,35.8232271 140.068588,35.95889 139.824056,36.2291881 C139.579523,36.4994861 139.457256,36.9085303 139.457256,37.4542652 C139.457256,38.0472765 139.575547,38.4820144 139.813121,38.7574512 C140.050696,39.0318602 140.423459,39.1706064 140.932406,39.1706064 C141.434394,39.1706064 141.806163,39.032888 142.049702,38.7595067 C142.291252,38.4871531 142.412525,38.065776 142.412525,37.4964029 C142.412525,36.9260021 142.291252,36.5046249 142.049702,36.2312436 C141.806163,35.9599178 141.434394,35.8232271 140.932406,35.8232271 Z M151.998012,35.8232271 C151.503976,35.8232271 151.134195,35.95889 150.888668,36.2291881 C150.644135,36.4994861 150.521869,36.9085303 150.521869,37.4542652 C150.521869,38.0472765 150.640159,38.4820144 150.878728,38.7574512 C151.115308,39.0318602 151.488072,39.1706064 151.998012,39.1706064 C152.5,39.1706064 152.871769,39.032888 153.114314,38.7595067 C153.356859,38.4871531 153.477137,38.065776 153.477137,37.4964029 C153.477137,36.9260021 153.356859,36.5046249 153.114314,36.2312436 C152.871769,35.9599178 152.5,35.8232271 151.998012,35.8232271 Z M95,16 L95,33 L91,33 L91,16 L95,16 Z M126,11 L126,13.4302501 C125.142225,13.6917836 124.252188,13.8537333 123.335582,13.9201225 L123.335582,13.9201225 L123.335582,16.7406611 L125.816869,16.7406611 L125.816869,19.0793745 L123.335582,19.0793745 C123.947601,20.8950208 124.742752,22.5185405 125.721982,23.9479219 L125.721982,23.9479219 L125.721982,27.2543094 C124.742752,26.1538567 123.947601,25.0815692 123.335582,24.0434822 L123.335582,24.0434822 L123.335582,33 L120.211914,33 L120.211914,25.1147638 C119.416763,26.6065109 118.347391,28.0690869 117,29.4984683 L117,29.4984683 L117,26.3821956 C118.468846,23.848338 119.480337,21.4140643 120.028782,19.0793745 L120.028782,19.0793745 L117.274222,19.0793745 L117.274222,16.7406611 L120.211914,16.7406611 L120.211914,13.9201225 L117.458303,13.9201225 L117.458303,11.5814092 L122.050817,11.5814092 C123.151502,11.5814092 124.468529,11.3862649 126,11 L126,11 Z M137.497895,10 L137.497895,24.0277916 L140,24.0277916 L140,26.4297767 L137.497895,26.4297767 L137.497895,32 L133.935257,32 L133.935257,26.4297767 L127,26.4297767 L127,24.0277916 L133.935257,24.0277916 L133.935257,10 L137.497895,10 Z M160.483103,10 L160.483103,12.5716841 L165.905019,12.5716841 L165.905019,14.8590466 L160.483103,14.8590466 L160.483103,17.9059118 L165.323135,17.9059118 L165.323135,20.1932743 C164.418316,23.1761918 163.031594,25.5560326 161.160968,27.336732 C162.514697,28.2211788 164.130374,28.9856006 166,29.6191754 L166,29.6191754 L166,31.9075217 C163.224555,31.2090153 160.772046,30.285216 158.646471,29.1439943 C156.709858,30.0953403 154.162368,31.048654 151,32 L151,32 L151,29.8110187 C153.002599,29.1764601 154.773245,28.3510419 156.321936,27.336732 C154.712258,25.8128074 153.352529,23.7487702 152.259748,21.1446203 L152.259748,21.1446203 L155.933013,21.1446203 C156.709858,22.7324926 157.646671,24.0980234 158.741452,25.2392451 C159.90122,23.9071639 160.872026,22.2258295 161.643871,20.1932743 L161.643871,20.1932743 L152.064787,20.1932743 L152.064787,17.9059118 L156.709858,17.9059118 L156.709858,14.8590466 L151.870826,14.8590466 L151.870826,12.5716841 L156.709858,12.5716841 L156.709858,10 L160.483103,10 Z M148.998709,10 L148.998709,12.9893038 L150.897714,12.9893038 L150.897714,15.3075598 L148.998709,15.3075598 L148.998709,19.8413706 C149.601059,19.7137418 150.266434,19.5203046 151,19.2650471 L151,19.2650471 L151,21.6730421 C150.266434,21.9990935 149.601059,22.254351 148.998709,22.4477883 L148.998709,22.4477883 L148.998709,28.9129804 C148.998709,30.9709935 147.932455,32 145.799948,32 L145.799948,32 L143.597185,32 L143.597185,29.781454 L144.398941,29.781454 C145.065349,29.781454 145.398037,29.4264866 145.398037,28.718546 L145.398037,28.718546 L145.398037,23.3162618 C144.732662,23.5106962 143.929872,23.6383249 143,23.7031363 L143,23.7031363 L143,20.809554 C143.26553,20.809554 143.665375,20.7766497 144.199535,20.7098441 C144.732662,20.7098441 145.13354,20.6769398 145.398037,20.6151197 L145.398037,20.6151197 L145.398037,15.3075598 L143.200439,15.3075598 L143.200439,12.9893038 L145.398037,12.9893038 L145.398037,10 L148.998709,10 Z M87,19 L87,21.4309179 L75.6160205,21.4309179 C74.2777753,24.2357488 72.4937778,26.6048309 70.2610629,28.5371981 C74.7264927,28.5371981 78.4862303,28.3536232 81.5471944,27.9777778 C81.1676625,26.9806763 80.6576666,25.9198068 80.0162182,24.7980676 L80.0162182,24.7980676 L83.2689249,24.7980676 C84.6733905,27.1043478 85.6607664,29.5062802 86.2369828,32 L86.2369828,32 L82.6976504,32 C82.6334067,31.4376812 82.5059077,30.9391304 82.3151534,30.5043478 C77.9139674,30.9391304 73.2903994,31.1574879 68.440496,31.1574879 L68.440496,31.1574879 L66.5309762,31.1574879 L66.5309762,28.5371981 C68.6974707,26.3584541 70.2610629,23.9874396 71.2168112,21.4309179 L71.2168112,21.4309179 L65,21.4309179 L65,19 L87,19 Z M111.990637,11 L111.990637,28.5232104 C112.122786,30.9631511 110.856015,32.1169754 108.191357,31.9906516 L108.191357,31.9906516 L105.39455,31.9906516 L105.39455,29.6770348 L106.895679,29.6770348 C107.824851,29.7436781 108.260529,29.3249194 108.191357,28.4287161 L108.191357,28.4287161 L108.191357,13.4071164 L97,13.4071164 L97,11 L111.990637,11 Z M106.989562,17 L106.989562,24.3938464 C107.122964,26.925194 105.977578,28.1222438 103.559656,27.9901555 L103.559656,27.9901555 L97,27.9901555 L97,17 L106.989562,17 Z M103.559656,19.3992593 L100.529958,19.3992593 L100.529958,25.492862 L102.246474,25.492862 C103.18863,25.56097 103.627399,25.1275554 103.559656,24.1926182 L103.559656,24.1926182 L103.559656,19.3992593 Z M126,18 C128.2067,18.2004132 130.207056,18.7334711 132,19.5991736 L132,19.5991736 L132,23 C129.932288,21.732438 127.933001,20.964876 126,20.6993802 L126,20.6993802 Z M128,12 C130.022866,12.114106 131.68984,12.5229111 133,13.2165319 L133,13.2165319 L133,16 C131.392956,15.1904762 129.72506,14.6082659 128,14.2632525 L128,14.2632525 Z M95.2333874,11 C96.0832658,12.2722372 96.672812,13.6082659 97,15 L97,15 L93.4688006,15 C93.2084684,13.7834681 92.7161669,12.4465409 92,11 L92,11 Z M84,11 L84,14 L66,14 L66,11 L84,11 Z" id="形状结合" fill="#13202C"></path>
            </g>
        </g>
    </g>
</svg>