<?xml version="1.0" encoding="UTF-8"?>
<svg width="24px" height="24px" viewBox="0 0 24 24" version="1.1" xmlns="http://www.w3.org/2000/svg" xmlns:xlink="http://www.w3.org/1999/xlink">
    <title>邮件</title>
    <g id="2.0" stroke="none" stroke-width="1" fill="none" fill-rule="evenodd">
        <g id="通用基础-删格" transform="translate(-287.000000, -123.000000)">
            <g id="邮件" transform="translate(287.000000, 123.000000)">
                <polygon id="路径" points="0 0 24 0 24 24 0 24"></polygon>
                <path d="M18,3 C20.209139,3 22,4.790861 22,7 L22,17 C22,19.209139 20.209139,21 18,21 L6,21 C3.790861,21 2,19.209139 2,17 L2,7 C2,4.790861 3.790861,3 6,3 L18,3 Z M19.9538808,6.57100016 L14.5963318,11.1282631 C13.1586723,12.3513117 11.0715266,12.3976629 9.58458319,11.2666698 L9.41574751,11.1309456 L4.0458724,6.57213113 C4.02609988,6.6628534 4.01248441,6.7558755 4.00548574,6.85073766 L4,7 L4,17 C4,18.0543618 4.81587779,18.9181651 5.85073766,18.9945143 L6,19 L18,19 C19.0543618,19 19.9181651,18.1841222 19.9945143,17.1492623 L20,17 L20,7 C20,6.8527408 19.9840849,6.70919879 19.9538808,6.57100016 Z M18,5 L6,5 C5.78875375,5 5.5851569,5.03275094 5.39401005,5.09345221 L10.7101044,9.60626858 C11.4132897,10.2032296 12.4261078,10.2378419 13.1651725,9.71040762 L13.3003966,9.60492729 L18.6032343,5.09257931 C18.4583458,5.04680027 18.3063262,5.01707348 18.1492623,5.00548574 L18,5 Z" id="形状结合" fill="#5D6E7F" fill-rule="nonzero"></path>
            </g>
        </g>
    </g>
</svg>