<svg id="图层_1" data-name="图层 1" xmlns="http://www.w3.org/2000/svg" viewBox="0 0 300 300"><defs><style>.cls-1,.cls-9{fill:#fff;}.cls-1,.cls-3,.cls-5,.cls-8{fill-rule:evenodd;}.cls-2{fill:#a1a9ad;}.cls-3{fill:#0569ff;}.cls-4{fill:#034fd2;}.cls-5{fill:#e4e4e3;}.cls-6{fill:#e7baba;}.cls-7{fill:#db9796;}.cls-10,.cls-8{fill:#24304a;}</style></defs><path class="cls-1" d="M111.35,206.82s-8.41,16.74,13.8,29.35l6.57-4.1-5.91-25.25Z"/><path class="cls-2" d="M125.16,236.46l-.13-.08c-6.38-3.62-14.23-10-15.35-19.59a19.1,19.1,0,0,1,1.45-10.09l.07-.14H126l6,25.63Zm-13.65-29.4c-.72,1.63-6.89,17.08,13.64,28.82l6.29-3.93-5.83-24.89Z"/><path class="cls-1" d="M182.8,215.7s8.68,5.66,11.12,8.42c0,0,4.44,4,3.3,6.26s3.78,10,11.19,3.08-9.3-26.63-21.15-35.57l-5.6-1.54L178.74,211l4.06,4.69Z"/><path class="cls-2" d="M202.57,236.51a5.55,5.55,0,0,1-3.35-1.11c-2-1.48-2.82-3.93-2.23-5.13,1-2.11-3.19-5.93-3.23-6-2.42-2.72-11-8.34-11.1-8.39l0,0-4.14-4.78,3-15.05,5.94,1.66c9.37,7.07,22.6,21.68,23.07,30.72a6.37,6.37,0,0,1-1.9,5.23C206.21,235.85,204.17,236.51,202.57,236.51Zm-19.61-21c.65.42,8.76,5.74,11.15,8.44.17.15,4.54,4.09,3.33,6.54-.49,1,.33,3.21,2.08,4.51,1.42,1.06,4.45,2.25,8.72-1.73a5.88,5.88,0,0,0,1.74-4.84c-.47-8.87-13.55-23.29-22.84-30.32l-5.29-1.45L179,210.94Z"/><path class="cls-1" d="M124.85,237.82s3.15,28.78,5.26,30.71c0,0-7.35,5.28-6.57,10.24,3.56,2.56,10.52.39,13.8,0,2.54-.3,8.43.19,9.2-4.77s0-21.85,0-21.85,5.93-12.93,11.82-.68c0,0-.55,13.36,2,17.75,0,0-4.47,6.84.65,8.87s18.4.68,18.4.68,2.52-2.62.66-5.46a8,8,0,0,0-4.6-3.41s6.53-2.12,5.91-31.4l-5.25-6.83-50.6,2.05-.66,4.1Z"/><path class="cls-2" d="M128.37,280.25a8.54,8.54,0,0,1-5-1.27l-.08-.06,0-.11c-.73-4.64,5.23-9.39,6.46-10.32-2.13-3.31-5-29.5-5.15-30.64v-.07l.68-4.3h.21l50.72-2.05,5.39,7v.09c.52,24.51-4,30.11-5.54,31.32a8.49,8.49,0,0,1,4.19,3.36c1.94,3-.66,5.74-.69,5.77l-.06.06h-.09c-.55.06-13.4,1.33-18.52-.7a3.85,3.85,0,0,1-2.42-2.42c-.82-2.6,1.13-6,1.56-6.69-2.39-4.41-2-16.58-1.93-17.69-1.63-3.37-3.39-5.07-5.24-5.07h0c-3.21,0-5.77,5.17-6.05,5.75.06,1.3.74,17,0,21.83-.68,4.44-5.34,4.72-8.12,4.89-.48,0-.92.06-1.29.1-.69.08-1.52.24-2.48.42A36.21,36.21,0,0,1,128.37,280.25Zm-4.6-1.62c2.74,1.88,7.53,1,11,.32,1-.18,1.81-.34,2.51-.42.37,0,.83-.08,1.32-.11,2.8-.17,7-.42,7.66-4.46.76-4.89,0-21.63,0-21.8v-.06l0,0c.11-.25,2.83-6.07,6.53-6.1h0c2.07,0,4,1.82,5.72,5.41l0,.06v.06c0,.13-.52,13.33,1.94,17.61l.08.14-.09.12s-2.42,3.77-1.58,6.4a3.39,3.39,0,0,0,2.12,2.11c4.79,1.89,17,.79,18.19.67a4.19,4.19,0,0,0,.57-5.08,7.77,7.77,0,0,0-4.44-3.3l-.92-.2.89-.29c.06,0,6.33-2.56,5.74-31.07L176,231.93l-50.27,2-.62,3.86c.88,8,3.51,29,5.18,30.53l.22.21-.25.18C130.18,268.79,123.14,273.9,123.77,278.63Z"/><path class="cls-3" d="M123.54,193.45,110.4,205.74s-.46,2.54.65,3.41,8,7.26,9.86,8.19,3.67,1.65,4.6,1.37c0,0-3.32,14.57-1.32,17.74s8.72,3.84,13.8,4.1,44.08.33,44.69-2.73c1.15-5.82-2.81-22.34-3.29-23.89,0,0,3.29,3.55,5.26,4.09s2.33.35,3.28,0,8.3-5.17,10.52-8.87c.65-1.93-1.32-4.1-1.32-4.1s-11-9.42-16.42-10.92-16.43-7.51-16.43-7.51l-40.74,6.83Z"/><path class="cls-4" d="M125.51,218.71l-2-.69,6.57-10.92-4.6,11.61Zm53.22-4.78c-.81-.63-4.6-6.83-4.6-6.83.8,1.15,5.92,6.14,5.92,6.14l-1.32.69Z"/><path class="cls-1" d="M243.54,145l-6.28-79.59c12.4,8.92,21.81,26.06,21.81,46.26,0,17.15-6.08,27.58-15.53,33.33Z"/><path class="cls-2" d="M243.33,145.39l0-.41L237,64.85l.44.32c13.51,9.72,21.91,27.52,21.91,46.46,0,15.93-5.27,27.22-15.65,33.55ZM237.56,65.9l6.2,78.64c10-6.27,15.06-17.34,15.06-32.91C258.82,93.05,250.68,75.59,237.56,65.9Z"/><path class="cls-5" d="M243.67,133.9l-8-70.65c11.12,8.27,19.48,23.77,19.48,42,0,14-4.43,23.11-11.52,28.66Z"/><path class="cls-1" d="M56.61,144.89l5.7-79.37C50,74.49,40.8,91.64,40.93,111.77c.12,17.1,6.24,27.45,15.68,33.12Z"/><path class="cls-2" d="M56.83,145.32l-.35-.21c-10.37-6.23-15.69-17.45-15.8-33.33C40.55,92.9,48.79,75.1,62.17,65.32L62.6,65ZM62,66c-13,9.76-21,27.22-20.85,45.73.11,15.52,5.23,26.52,15.21,32.7Z"/><path class="cls-5" d="M56.41,133.87,63.84,63.4c-11,8.31-19.22,23.82-19.09,42,.09,14,4.56,23,11.66,28.49Z"/><path class="cls-1" d="M150.12,20c55.89,0,101.2,42,101.2,92.6s-45.31,81-101.2,81S48.91,163.2,48.91,112.6,94.22,20,150.12,20Z"/><path class="cls-2" d="M150.12,193.81c-27.95,0-53.42-7.66-71.72-21.56C59,157.47,48.66,136.84,48.66,112.6c0-24.61,10.56-47.86,29.72-65.46s44.7-27.39,71.74-27.39,52.5,9.73,71.73,27.39S251.57,88,251.57,112.6c0,24.24-10.29,44.87-29.74,59.65C203.53,186.15,178.07,193.81,150.12,193.81Zm0-173.56c-26.91,0-52.26,9.68-71.4,27.26S49.16,88.13,49.16,112.6c0,24.08,10.22,44.57,29.54,59.26,18.21,13.83,43.57,21.45,71.42,21.45s53.2-7.62,71.41-21.45c19.32-14.69,29.54-35.18,29.54-59.26,0-24.47-10.5-47.58-29.56-65.09S177,20.25,150.12,20.25Z"/><path class="cls-6" d="M123.23,127.76c0,1.78-5.59,3.26-13,3.56-.91,0-1.85.06-2.8.06h-.07c-1.51,0-3,0-4.36-.15-.93-.06-1.83-.14-2.68-.24-5.14-.59-8.66-1.82-8.66-3.23,0-1.76,5.48-3.22,12.73-3.55.93,0,1.89-.06,2.87-.07h.17c1.45,0,2.86,0,4.2.14.94,0,1.84.13,2.69.23C119.61,125.1,123.23,126.33,123.23,127.76Z"/><path class="cls-6" d="M210.57,127.76c0,1.78-5.61,3.27-13,3.56q-1.35.06-2.76.06h-.1c-1.51,0-3,0-4.36-.15-.93-.06-1.83-.14-2.68-.24-5.12-.6-8.63-1.82-8.63-3.23,0-1.76,5.46-3.22,12.7-3.55.93,0,1.89-.06,2.87-.07h.2c1.44,0,2.84,0,4.17.13.94.06,1.84.14,2.69.23C206.94,125.09,210.57,126.33,210.57,127.76Z"/><path class="cls-7" d="M107.3,124.14,103,131.23c-.93-.06-1.83-.14-2.68-.24l4.07-6.78C105.36,124.17,106.32,124.15,107.3,124.14Z"/><path class="cls-7" d="M114.36,124.51l-4.09,6.81c-.91,0-1.85.06-2.8.06h-.07l4.27-7.1C112.61,124.33,113.51,124.41,114.36,124.51Z"/><path class="cls-7" d="M194.61,124.14l-4.26,7.09c-.93-.06-1.83-.14-2.68-.24l4.07-6.78Z"/><path class="cls-7" d="M201.67,124.5l-4.1,6.82q-1.35.06-2.76.06h-.1l4.27-7.11C199.92,124.33,200.82,124.41,201.67,124.5Z"/><path class="cls-8" d="M151.57,27.76c49.21,0,95.15,46.62,88.13,90.66-3.14,19.67-38.92-6.31-88.13-6.31s-89.1,56.37-89.1,6.31,39.89-90.66,89.1-90.66Z"/><path class="cls-9" d="M214.33,64.22l-.54.81a1.86,1.86,0,0,1-2.94.36c-9.32-9.52-19.28-17.35-30.92-21.16a1.62,1.62,0,0,1-.65-2.62l.54-.8a3.58,3.58,0,0,1,3.73-1.29c13.61,4.4,22.56,12.51,30.75,21.21a3,3,0,0,1,0,3.49Zm3.68,9a3.39,3.39,0,1,1,3-3.76,3.39,3.39,0,0,1-3,3.76Z"/><path class="cls-9" d="M212.36,98.66l-.72.72a3.47,3.47,0,0,1-4.89.2L191.34,84.15a3.47,3.47,0,0,1,.2-4.89l.72-.73a3.45,3.45,0,0,1,4.88-.19l15.42,15.43a3.48,3.48,0,0,1-.2,4.89ZM197.71,84.44,182,100.13a3.52,3.52,0,0,1-5-.2l-.73-.74a3.52,3.52,0,0,1-.2-5L191.8,78.53a3.52,3.52,0,0,1,5,.19l.74.74a3.55,3.55,0,0,1,.2,5ZM109,84.27,93.72,99.59a3.42,3.42,0,0,1-4.84-.19l-.72-.73A3.44,3.44,0,0,1,88,93.82l15.29-15.33a3.42,3.42,0,0,1,4.84.2l.72.72a3.45,3.45,0,0,1,.2,4.86Zm14.9,14.94-.73.73a3.49,3.49,0,0,1-4.93.2L102.7,84.55a3.51,3.51,0,0,1,.2-4.94l.73-.73a3.49,3.49,0,0,1,4.93-.2l15.55,15.59a3.51,3.51,0,0,1-.19,4.94Z"/><path class="cls-1" d="M141.9,215.62v.12c-12.49,3.25-6.28,14.77,3.27,13.26l1.06,3.46c-8-.06-14.35-4.88-14.71-9.54s3.79-8.24,9.28-8.34c-3.15-14,26.36-14,22.84,0,5.49.1,9.64,3.68,9.28,8.34s-6.66,9.48-14.71,9.54l1.06-3.46c8,1.12,17.88-11.58,3.27-13.26v-.12C162.48,204.6,141.9,204.61,141.9,215.62Z"/><path class="cls-1" d="M149.21,233.34c-.89-9.14,9.23-3.72,10.74-11.5.63-3.22,0-6.66-3-8.48-4.45-2.29-11.91-.31-11.3,6.2s9.64,4.06,8.81.11c-1.29,1.73-3.89,2.37-5.11,1.45-2.78-2.08.45-6.64,4.72-5.57,2.81.7,2.62,2.4,2.83,4.44.42,4.07-3.51,4.34-7.13,6C145.3,228.07,149.21,233.34,149.21,233.34Z"/><path class="cls-1" d="M153.79,229.06a2.27,2.27,0,1,1-2.27,2.27A2.27,2.27,0,0,1,153.79,229.06Z"/><path class="cls-10" d="M118.39,149.37a.49.49,0,0,1,.5-.47.48.48,0,0,1,.49.47s0,2.44,2.76,5.11c3.35,3.22,10.75,6.78,27.1,6.78,34.13,0,34.42-11.88,34.42-11.88a.49.49,0,0,1,.5-.47.5.5,0,0,1,.49.49c0,.52-.71,12.81-35.41,12.81-9.33,0-21.74-1.22-27.8-7.06-3-2.91-3-5.66-3-5.77h0"/></svg>