<?xml version="1.0" encoding="UTF-8"?>
<svg width="24px" height="24px" viewBox="0 0 24 24" version="1.1" xmlns="http://www.w3.org/2000/svg" xmlns:xlink="http://www.w3.org/1999/xlink">
    <title>复制</title>
    <g id="2.0" stroke="none" stroke-width="1" fill="none" fill-rule="evenodd">
        <g id="通用基础-删格" transform="translate(-392.000000, -310.000000)">
            <g id="复制" transform="translate(392.000000, 310.000000)">
                <polygon id="路径" points="0 0 24 0 24 24 0 24"></polygon>
                <path d="M17.3035714,2 C19.2327085,2 20.7727621,3.61636927 20.8701129,5.61174491 L20.875,5.8125 L20.875,15.1875 C20.875,17.2067679 19.3971767,18.8882748 17.4951492,18.9946579 L17.3035714,19 L16.8737865,19.0007613 C16.429479,20.7256022 14.8635652,22 13,22 L7,22 C4.790861,22 3,20.209139 3,18 L3,10 C3,7.83270075 4.72366774,6.06798568 6.87494017,6.00191782 L6.875,5.8125 C6.875,3.79323212 8.35282334,2.11172517 10.2548508,2.00534207 L10.4464286,2 L17.3035714,2 Z M13,8 L7,8 C5.9456382,8 5.08183488,8.81587779 5.00548574,9.85073766 L5,10 L5,18 C5,19.0543618 5.81587779,19.9181651 6.85073766,19.9945143 L7,20 L13,20 C14.0543618,20 14.9181651,19.1841222 14.9945143,18.1492623 L15,18 L15,10 C15,8.9456382 14.1841222,8.08183488 13.1492623,8.00548574 L13,8 Z M17.3035714,4 L10.4464286,4 C9.64412128,4 8.95160715,4.71125188 8.88093338,5.65341679 L8.875,5.8125 L8.875,6 L13,6 C15.209139,6 17,7.790861 17,10 L17,17 L17.3035714,17 C18.1058787,17 18.7983929,16.2887481 18.8690666,15.3465832 L18.875,15.1875 L18.875,5.8125 C18.875,4.84616061 18.2247126,4.08404876 17.4361849,4.0065033 L17.3035714,4 Z" id="形状结合" fill="#5D6E7F" fill-rule="nonzero"></path>
            </g>
        </g>
    </g>
</svg>