<svg id="图层_1" data-name="图层 1" xmlns="http://www.w3.org/2000/svg" viewBox="0 0 300 300"><defs><style>.cls-1,.cls-8{fill:#fff;}.cls-1,.cls-11,.cls-13,.cls-4,.cls-7{fill-rule:evenodd;}.cls-2{fill:#728da3;}.cls-3{fill:#fc6868;}.cls-4{fill:#e4e3e3;}.cls-5{fill:#e7bab9;}.cls-6{fill:#db9696;}.cls-7{fill:#23304a;}.cls-9{fill:#da4a4a;}.cls-10{fill:#7c6b6a;}.cls-11{fill:#0569ff;}.cls-12{fill:#034fd2;}.cls-13{fill:#f4f4f4;}</style></defs><path class="cls-1" d="M134.64,238.27s11.73,20.63,13.76,27.14c0,0,4.85,9.54,7.55,13.92,2.35,3.83,5.67,5.38,9,4.81,4-.69,2-8.57,2-14.61-.07-5.16-2.28-18.11-2.28-18.11s-.72-13.09.35-1.59c0,.23.23,1.16.26,1.38.24,2.21,1.15,6.59,1.87,13.35a43.74,43.74,0,0,0,1,11.34c1.24,5.09.69,8,6.85,7.75,3.14-.15,7.54-12.29,8.9-17.95,1.75-7.33,4.5-14.28,8.56-26.73L187,232l-51.7,2.1-.67,4.19Z"/><path class="cls-2" d="M163.61,284.63c-3.1,0-6-1.8-8-5.1-2.68-4.35-7.52-13.85-7.57-13.95-2-6.46-13.62-26.92-13.74-27.12l-.07-.12.74-4.63,52.2-2.12,5.6,7.31-.06.19c-1.36,4.17-2.57,7.73-3.65,10.88-2.17,6.36-3.74,11-4.9,15.82-1.27,5.3-5.73,18.06-9.24,18.23-5.54.26-6-2.16-6.75-5.82-.14-.68-.29-1.42-.48-2.21v0c.32,4.31.26,8-2.69,8.55A8.36,8.36,0,0,1,163.61,284.63ZM135,238.2c1,1.83,11.76,20.8,13.72,27.1,0,0,4.85,9.52,7.51,13.84,2.15,3.51,5.3,5.2,8.61,4.63,2.69-.46,2.32-4.89,1.93-9.57-.13-1.56-.27-3.17-.29-4.67-.06-5.06-2.25-17.92-2.27-18-.37-6.71-.32-6.72.14-6.75s.48,0,1,5.07c0,.11.07.4.12.68s.12.58.13.69c.09.78.26,1.84.47,3.18.4,2.45.94,5.81,1.4,10.17a44,44,0,0,0,1,11.29c.19.8.34,1.55.48,2.24.76,3.75,1.1,5.45,6,5.22,2.71-.13,7.08-11.5,8.55-17.65,1.17-4.9,2.75-9.51,4.92-15.89,1.06-3.1,2.26-6.6,3.59-10.69l-5.13-6.68-51.19,2.08Z"/><path class="cls-1" d="M138.8,212.86S135,221,134.93,224.78c0,0,1.31,6.17,3.73,7.17s8.52,7.75-1.83,7.41S120.29,217,123.39,202.13l4-3.65,11.41,8,0,6.35Z"/><path class="cls-2" d="M137.55,239.74h-.73c-2.76-.09-5.32-1.61-7.6-4.51-5.71-7.26-8.49-22.14-6.2-33.17l0-.12,4.3-3.93,11.81,8.31,0,6.63,0,.08c0,.08-3.81,8.12-3.83,11.76.34,1.59,1.66,6.06,3.49,6.83,1.49.61,4.68,3.52,4.18,5.81C142.65,239,140.82,239.74,137.55,239.74Zm-13.82-37.42c-2.21,10.83.51,25.35,6.08,32.44,2.14,2.72,4.51,4.14,7,4.22,3.27.11,5.14-.48,5.41-1.71.36-1.69-2.28-4.37-3.73-5-2.58-1.07-3.9-7.18-4-7.44,0-3.73,3.44-11.19,3.86-12.08l0-6.08-11-7.74Z"/><path class="cls-3" d="M194.41,164c-6.26-4.59-17-7.61-29.15-7.61-13.57,0-25.33,3.76-31.13,9.25,7.45,3.79,18,6.42,32.59,6.29C179.33,170.6,188.18,167.6,194.41,164Z"/><path class="cls-1" d="M65,137.77,75.88,56.93c-13.09,8.4-23.59,25.36-24.73,46-1,17.5,4.62,28.48,13.89,34.88Z"/><path class="cls-2" d="M65.24,138.21,64.9,138c-10.18-7-14.89-18.84-14-35.1,1.06-19.32,10.58-37,24.85-46.16l.45-.29ZM75.56,57.44C61.69,66.59,52.44,84,51.4,102.91c-.87,15.89,3.65,27.47,13.45,34.42Z"/><path class="cls-4" d="M65.54,126.48l12-71.63C65.83,62.66,56.46,78,55.44,96.59c-.78,14.29,3.2,23.83,10.1,29.89Z"/><path class="cls-1" d="M165.92,15.82c57.07,2,101.82,46.66,100,98.5s-49.18,81.3-106.24,79.28S57.44,158.86,59.26,107s49.59-93.22,106.66-91.2Z"/><path class="cls-2" d="M165.1,194.08c-1.8,0-3.61,0-5.44-.1-61.06-2.16-102.5-37.92-100.78-87,.89-25.24,12.52-48.7,32.75-66.07s46.68-26.46,74.3-25.5,53.32,11.87,72.34,30.68,28.91,43,28,68.21c-.87,24.88-12.13,45.67-32.56,60.13C215.76,187.19,191.55,194.08,165.1,194.08Zm-3.21-178A106.63,106.63,0,0,0,92.12,41.51C72.05,58.74,60.51,82,59.63,107c-.86,24.64,8.82,46,28,61.68,18.07,14.81,43.67,23.52,72.07,24.52s54.54-5.88,73.61-19.38c20.23-14.32,31.38-34.91,32.24-59.54.88-25-9-49.06-27.8-67.66s-44.39-29.49-71.83-30.46C164.57,16.14,163.23,16.12,161.89,16.12Z"/><path class="cls-5" d="M115.75,122.79c-.24,1.81-6.11,2.54-13.61,1.82-.93-.09-1.88-.2-2.85-.34h-.06c-1.53-.22-3-.47-4.39-.77-.94-.18-1.84-.39-2.69-.61-5.11-1.32-8.51-3.06-8.31-4.49.25-1.79,6-2.51,13.38-1.83q1.43.14,2.91.33l.17,0c1.48.21,2.9.45,4.24.72.94.19,1.84.4,2.69.62C112.46,119.58,116,121.34,115.75,122.79Z"/><path class="cls-5" d="M204.15,135c-.25,1.81-6.13,2.53-13.65,1.8-.92-.08-1.85-.19-2.81-.32l-.09,0c-1.54-.21-3-.46-4.39-.76-.94-.19-1.84-.39-2.69-.62-5.1-1.32-8.48-3.05-8.28-4.48.24-1.78,6-2.51,13.35-1.83.95.08,1.92.2,2.91.33l.2,0c1.47.2,2.88.44,4.21.71.94.19,1.84.39,2.69.61C200.85,131.75,204.35,133.51,204.15,135Z"/><path class="cls-6" d="M100.13,116.9l-5.29,6.6c-.94-.18-1.84-.39-2.69-.61l5.07-6.32Q98.65,116.71,100.13,116.9Z"/><path class="cls-6" d="M107.23,118.26l-5.09,6.35c-.93-.09-1.88-.2-2.85-.34h-.06l5.31-6.63C105.48,117.83,106.38,118,107.23,118.26Z"/><path class="cls-6" d="M188.5,129.07l-5.29,6.6c-.94-.19-1.84-.39-2.69-.62l5.07-6.31Z"/><path class="cls-6" d="M195.6,130.42l-5.1,6.35c-.92-.08-1.85-.19-2.81-.32l-.09,0,5.31-6.62C193.85,130,194.75,130.2,195.6,130.42Z"/><path class="cls-7" d="M172.55,26.28C215,36.66,244.44,88,228.81,125.77c-7,16.89-32.17-13.84-74.58-24.22s-89,31.5-78.16-13.18,54.08-72.47,96.48-62.09Z"/><path class="cls-8" d="M208.72,64.25l-.59.7a1.75,1.75,0,0,1-2.79.08c-7.89-9.82-16.54-18.09-27.14-22.74a1.54,1.54,0,0,1-.37-2.53l.59-.7a3.34,3.34,0,0,1,3.61-.88C194.42,43.56,202.1,52,209,61a2.84,2.84,0,0,1-.28,3.3Zm2.64,8.85a3.22,3.22,0,1,1,3.13-3.28,3.22,3.22,0,0,1-3.13,3.28Z"/><path class="cls-8" d="M204,97l-.69.48a3,3,0,0,1-4.1-.44l-11.13-14a2.65,2.65,0,0,1,.71-3.83l.69-.48a3,3,0,0,1,4.1.44l11.14,14A2.66,2.66,0,0,1,204,97ZM193.36,84,178.49,94.51a3.1,3.1,0,0,1-4.13-.76l-.53-.67a2.69,2.69,0,0,1,.4-3.94L189.1,78.68a3.11,3.11,0,0,1,4.13.75l.53.67a2.69,2.69,0,0,1-.4,3.94ZM119.27,73.22l-14.5,10.22a3,3,0,0,1-4-.74l-.52-.65a2.63,2.63,0,0,1,.39-3.85L115.11,68a3,3,0,0,1,4,.74l.52.65a2.63,2.63,0,0,1-.39,3.85ZM130,86.78l-.7.49a3.08,3.08,0,0,1-4.14-.44L114,72.68a2.66,2.66,0,0,1,.72-3.86l.69-.49a3.07,3.07,0,0,1,4.14.44l11.24,14.14a2.69,2.69,0,0,1-.72,3.87Z"/><path class="cls-9" d="M123.81,139l40.44,6.07S161.52,171,141,172.61C120.71,170,122.2,143.46,123.81,139Z"/><path class="cls-10" d="M141,173.11h0a18.67,18.67,0,0,1-14.18-9.1c-5.44-8.93-4.63-21.77-3.41-25.15l.14-.38,41.31,6.19,0,.48c0,.26-3,26.35-23.71,28Zm-16.82-33.52c-1,3.47-1.66,15.51,3.45,23.9A17.65,17.65,0,0,0,141,172.11c18.32-1.46,22.18-23.09,22.69-26.59Z"/><rect class="cls-8" x="123.18" y="142.04" width="41.07" height="2.94" transform="translate(22.87 -19.73) rotate(8.53)"/><path class="cls-10" d="M164.23,148.57l-41.6-6.24.58-3.89,41.61,6.24Zm-40.47-7.08,39.63,5.95.29-1.92-39.63-5.94Z"/><path class="cls-1" d="M221.69,200.23s15.07-14.39,15.78-26.32c1.57-13.42-15.79-34.2-20.1-31-4.76,3.56,3,10,3,10s-5.19-2.63-4.13,2.22,5.59,9.33,4.29,12.87c-.8,2.2-7.64,14.85-11.67,17.52C208.91,185.54,218,198.6,221.69,200.23Z"/><path class="cls-2" d="M221.69,200.61l-.15,0c-3.73-1.66-12.56-14.29-12.94-14.83a.35.35,0,0,1-.06-.28.42.42,0,0,1,.16-.25c4-2.64,10.75-15.2,11.53-17.33.71-1.93-.47-4.17-1.84-6.76a23.84,23.84,0,0,1-2.46-5.9c-.32-1.45-.13-2.46.55-3a2.87,2.87,0,0,1,2.36-.28c-1.42-1.45-3.44-3.93-3.38-6.28a3.81,3.81,0,0,1,1.69-3.05c.91-.68,2.25-.52,4,.48,6.35,3.65,18,19.55,16.71,30.84-.71,11.92-15.27,26-15.89,26.55A.36.36,0,0,1,221.69,200.61Zm-12.26-15c1.36,1.92,8.84,12.34,12.19,14.15,1.73-1.71,14.82-15,15.48-25.89,1.28-11-10.14-26.56-16.35-30.13-1-.58-2.35-1.13-3.15-.53a3.07,3.07,0,0,0-1.39,2.47c-.08,3.17,4.41,6.9,4.45,6.94a.37.37,0,0,1,.08.49.38.38,0,0,1-.49.13c-.65-.33-2.51-1-3.31-.43-.54.42-.45,1.45-.28,2.24a23.69,23.69,0,0,0,2.39,5.71c1.4,2.63,2.71,5.13,1.89,7.37S213.57,182.49,209.43,185.63Z"/><path class="cls-11" d="M146.26,192.68s-8.8-3.33-19.74,5.25c-2.42,1.52-7.84,8.35-6.71,9.24s8.87,9.16,10.81,10.11,3.75,1.7,4.69,1.4c0,0-4.5,16.1-2.44,19.35s10,2.78,15.2,3,45,.35,45.65-2.8c9.7-.68-.07-24.24-.57-25.83,0,0,23.13,5.54,32.13-14.85-2.06-9.12-15.91-16.92-21.71-15.3-4.64,1.29-8.63,7.05-14.18,8.24-7.82,1.66-21,2.59-25.23,2.74-7.18.26-17.9-.59-17.9-.59Z"/><path class="cls-12" d="M135.31,216.5l-2-.57,6.71-9.14-4.7,9.71Zm54.38-4c-.83-.52-4.7-5.71-4.7-5.71.81,1,6,5.14,6,5.14l-1.34.57Z"/><path class="cls-1" d="M152.06,215.52v.12c-12.76,3.33-6.41,15.14,3.34,13.59l1.09,3.55c-8.23-.06-14.67-5-15-9.78s3.87-8.44,9.48-8.55c-3.22-14.29,26.93-14.29,23.33,0,5.61.11,9.85,3.78,9.48,8.55s-6.8,9.72-15,9.78l1.09-3.55c8.21,1.16,18.26-11.86,3.34-13.59v-.12C173.08,204.22,152.06,204.23,152.06,215.52Z"/><path class="cls-1" d="M159.52,233.69c-.9-9.38,9.44-3.82,11-11.79.64-3.31,0-6.84-3.09-8.7-4.55-2.34-12.17-.31-11.55,6.36s9.85,4.16,9,.11c-1.32,1.77-4,2.43-5.23,1.49-2.84-2.14.46-6.8,4.83-5.71,2.87.71,2.67,2.46,2.89,4.55.42,4.17-3.59,4.45-7.29,6.17C155.53,228.28,159.52,233.69,159.52,233.69Z"/><path class="cls-1" d="M164.21,229.3a2.33,2.33,0,1,1-2.32,2.33A2.32,2.32,0,0,1,164.21,229.3Z"/><path class="cls-1" d="M235.21,146.57l8.95-78.84c13.57,9.67,21.68,27.23,17.42,47.12-3.61,16.9-13.38,26.73-26.37,31.72Z"/><path class="cls-2" d="M244.42,68h0c14.79,10.55,21.48,28.22,17.49,46.87-3.36,15.7-12.3,26.44-26.57,31.92l-.51.2Zm-8.83,78.14c13.75-5.45,22.39-16,25.66-31.31,3.91-18.28-2.53-36-16.83-46.54Z"/><path class="cls-13" d="M234.83,147l9.59-79A56.63,56.63,0,0,1,254,122.51c-5.41,15.15-8.14,19.32-19.15,24.48Z"/></svg>