<?xml version="1.0" encoding="UTF-8"?>
<svg width="24px" height="24px" viewBox="0 0 24 24" version="1.1" xmlns="http://www.w3.org/2000/svg" xmlns:xlink="http://www.w3.org/1999/xlink">
    <title>用户</title>
    <g id="2.0" stroke="none" stroke-width="1" fill="none" fill-rule="evenodd">
        <g id="通用基础-删格" transform="translate(-113.000000, -123.000000)">
            <g id="用户" transform="translate(113.000000, 123.000000)">
                <polygon id="路径" points="0 0 24 0 24 24 0 24"></polygon>
                <path d="M11.9991171,14.3809524 C15.9179871,14.3809524 19.1845733,17.0171024 19.9172034,20.5132484 C19.9428,20.6353965 19.9660767,20.7829541 19.9870336,20.9559213 C20.0489645,21.4669008 19.6849208,21.9313224 19.1739389,21.9932336 C19.1367421,21.9977404 19.0993075,22 19.0618387,22 C18.5126667,22 18.0462775,21.5979051 17.9654071,21.0547203 L17.9340732,20.8710886 C17.9285866,20.8431808 17.9229678,20.8166216 17.9172168,20.7914111 C17.3297107,18.2159555 14.9032215,16.2857143 11.9991171,16.2857143 C9.10930245,16.2857143 6.69241422,18.1970067 6.08982334,20.7534405 L6.05179624,20.9431407 C6.04579197,20.9780713 6.03995448,21.0146587 6.03428377,21.0529031 C5.95359493,21.5970534 5.48649586,22 4.93639561,22 C4.42262127,22 4.00612487,21.5835036 4.00612487,21.0697293 C4.00612487,21.0323648 4.00837599,20.9950343 4.01286887,20.9579409 L4.05161753,20.6798347 C4.06527812,20.594987 4.07968309,20.5179934 4.09483243,20.4488542 C4.85385734,16.9847833 8.10434382,14.3809524 11.9991171,14.3809524 Z M11.9991171,2 C15.3438203,2 18.0528785,4.55714286 18.0528785,7.71428571 C18.0528785,10.8714286 15.3438203,13.4285714 11.9991171,13.4285714 C8.65441402,13.4285714 5.94535583,10.8714286 5.94535583,7.71428571 C5.94535583,4.55714286 8.65441402,2 11.9991171,2 Z M11.9991171,3.9047619 C9.76931506,3.9047619 7.96327627,5.60952381 7.96327627,7.71428571 C7.96327627,9.81904762 9.76931506,11.5238095 11.9991171,11.5238095 C14.2289192,11.5238095 16.034958,9.81904762 16.034958,7.71428571 C16.034958,5.60952381 14.2289192,3.9047619 11.9991171,3.9047619 Z" id="形状" fill="#5D6E7F" fill-rule="nonzero"></path>
            </g>
        </g>
    </g>
</svg>