<svg id="图层_1" data-name="图层 1" xmlns="http://www.w3.org/2000/svg" viewBox="0 0 300 300"><defs><style>.cls-1{fill:#c29c6a;}.cls-1,.cls-11,.cls-14,.cls-18,.cls-19,.cls-20,.cls-21,.cls-3,.cls-4,.cls-5,.cls-7,.cls-9{fill-rule:evenodd;}.cls-2{fill:#191515;}.cls-3{fill:#070100;}.cls-4{fill:#050001;}.cls-24,.cls-5{fill:#cbc1ab;}.cls-21,.cls-6{fill:#363d42;}.cls-7{fill:#109cff;}.cls-8{fill:#0980af;}.cls-15,.cls-9{fill:#fff;}.cls-10{fill:#728da3;}.cls-11{fill:#e4e3e3;}.cls-12{fill:#e7bab9;}.cls-13{fill:#db9696;}.cls-14,.cls-25{fill:#23304a;}.cls-16{fill:#24304a;}.cls-17{fill:#000102;}.cls-18,.cls-23{fill:#433c3c;}.cls-19{fill:#875c35;}.cls-20{fill:#efece6;}.cls-22{fill:#f08300;}</style></defs><path class="cls-1" d="M80.11,242.46s28.81,24.46,48,18.34c0,0,7.85,3.49,6.11-4.37S117.65,225,117.65,225Z"/><path class="cls-2" d="M121.49,262.27c-8.57,0-17.87-4-24.82-7.91a118.15,118.15,0,0,1-16.88-11.52l-.59-.5,38.64-18,.23.38c.61,1,14.91,23.74,16.66,31.6.53,2.43.24,4.12-.87,5-1.77,1.45-5,.29-5.76,0A22.43,22.43,0,0,1,121.49,262.27ZM81.05,242.58C85.29,246,110.77,265.8,128,260.32l.19-.05.17.07c.94.42,3.64,1.27,4.9.24.79-.65,1-2,.52-4-1.59-7.15-14.39-27.86-16.29-30.91Z"/><path class="cls-2" d="M89.54,250l-.22-.45c.23-.11,23.1-11.22,25.8-15.2l.41.28C112.76,238.68,90.48,249.5,89.54,250Z"/><path class="cls-2" d="M91.72,251.71l-.23-.45c8.79-4.62,25.77-13.84,27.12-15.65l.4.3C117.26,238.26,92.77,251.16,91.72,251.71Z"/><path class="cls-2" d="M94.29,253.18l-.14-.48c.19-.07,26.4-15.42,28.41-17.57l.37.34C121.2,237.32,95.33,252.92,94.29,253.18Z"/><path class="cls-2" d="M107.86,258.89l-.22-.45c.21-.1,21.35-10.37,23.84-14l.41.28C129.33,248.46,108.73,258.47,107.86,258.89Z"/><path class="cls-2" d="M109.22,260.32l-.23-.44c8.12-4.27,23.81-12.79,25.06-14.46l.4.3C132.82,247.89,110.18,259.82,109.22,260.32Z"/><path class="cls-2" d="M111.84,261.21l-.13-.48c.17-.07,24.42-14.29,26.24-16.24l.37.34C136.72,246.54,112.81,261,111.84,261.21Z"/><path class="cls-2" d="M136,258.46a51.4,51.4,0,0,1-31.41-10.22,45,45,0,0,1-11-11.55l.43-.26c.14.24,14.1,23.28,45.54,21.42l0,.5C138.34,258.42,137.13,258.46,136,258.46Z"/><path class="cls-2" d="M134.82,256.51c-26.43,0-39.41-20.42-39.55-20.64l.43-.26c.14.22,14.34,22.53,43.29,20.23l0,.5C137.59,256.45,136.19,256.51,134.82,256.51Z"/><path class="cls-2" d="M131.27,255.31c-19.86,0-34.41-20-34.57-20.23l.4-.29c.18.24,18,24.76,41,19.2l.12.49A29.33,29.33,0,0,1,131.27,255.31Z"/><path class="cls-3" d="M91.71,181.44s-10.56,3.23-9.82,4.35c46.24,15.91,50,10.24,50,10.24Z"/><path class="cls-4" d="M216.86,172.88c1.31.32,13.45,8.11,11.91,9.85s-43.9,9.8-43.9,9.8Z"/><path class="cls-5" d="M124.09,242.76s17.52,12.51,1.65,26.41c-8.86,10.61-7.63,10.79-6.58,11.93s20.1,4.84,20.8,2.12-5.25-8.32-6.3-9,13.55-5.45,16.1-10.19,2.66-15.09,2.66-15.09h0a3,3,0,0,1,3.92-.8c4.45,2.52,13.8,8.09,13.8,10.36,0,3-5.26,15.44-1.67,15.88s24.56,3,24.12,1.41c2.9-4-7.63-8.34-10.08-9.57s7.89-9.74,6.93-12.11-8.69-18.69-14.92-23.6"/><path class="cls-6" d="M136.46,284.68c-5.78,0-16.69-2.18-17.66-3.24l-.16-.16c-1.36-1.41-1.62-2.45,6.72-12.43,4.55-4,6.73-8.19,6.52-12.52-.38-7.57-8-13.11-8.08-13.16l.58-.81c.33.23,8.09,5.86,8.49,13.92.23,4.64-2.05,9.11-6.8,13.26-8,9.66-7.43,10.3-6.71,11l.17.18c.92.8,15.51,3.87,19.38,2.68.38-.12.54-.26.57-.35.58-2.26-4.73-7.57-6.1-8.48a.62.62,0,0,1-.28-.55c.05-.57.72-.93,4.14-2.53,4.2-1.95,10.54-4.91,12.08-7.76,2.45-4.58,2.6-14.77,2.6-14.87v-.17l.11-.13a3.55,3.55,0,0,1,4.55-.92c9.33,5.28,14.06,8.91,14.06,10.79a27,27,0,0,1-1.18,5.24c-1,3.56-2.37,8.44-1.44,9.83a.66.66,0,0,0,.51.32c15.61,1.9,22.35,2.14,23.55,1.76l.11-.15a1.89,1.89,0,0,0,.34-1.65c-.7-2.69-6.66-5.49-9.21-6.68l-1-.5a1.12,1.12,0,0,1-.62-.8c-.25-1.2,1.22-3,3.64-5.92,1.7-2,4-4.79,3.67-5.65-.88-2.16-8.58-18.53-14.75-23.4l.61-.78c6.34,5,14.18,21.61,15.07,23.8.54,1.32-1.09,3.4-3.84,6.68-1.51,1.8-3.59,4.28-3.43,5.07,0,0,0,.06.1.11l1,.48c3.12,1.47,8.93,4.19,9.74,7.33a2.84,2.84,0,0,1-.4,2.36.61.61,0,0,1-.16.32c-.3.36-1.24,1.45-24.52-1.39a1.65,1.65,0,0,1-1.22-.75c-1.19-1.78.14-6.49,1.3-10.66a27.71,27.71,0,0,0,1.15-5c0-1-3.55-4.26-13.55-9.92a2.55,2.55,0,0,0-3.17.54c0,1.44-.3,10.64-2.72,15.15-1.69,3.15-8.22,6.19-12.54,8.2-1.28.6-2.71,1.26-3.33,1.64,1.72,1.41,6.84,6.43,6.11,9.26-.13.53-.63.9-1.47,1.11A10.65,10.65,0,0,1,136.46,284.68Z"/><path class="cls-7" d="M134.76,195.59s-10.8.61-19.19,6c-2.46,1.54-8,8.5-6.83,9.41s9,9.33,11,10.3,3.82,1.72,4.79,1.42c0,0-3.46,15.21-1.37,18.53s9.06,4,14.35,4.28,45.85.35,46.48-2.85c1.19-6.07-2.92-23.33-3.42-24.95,0,0,.8,3.64,2.85,4.21a7.4,7.4,0,0,0,4.51,0c1-.36,8.66-8.78,11-12.64a3.62,3.62,0,0,0-1.37-4.28c-3.78-2-9.18-9.22-15-9.08s-17.4-1.75-17.4-1.75l-30.6,1.26Z"/><path class="cls-8" d="M124.53,222.71l-2-.71,6.83-11.4-4.78,12.11Zm55.36-5c-.85-.65-4.79-7.12-4.79-7.12.83,1.2,6.15,6.41,6.15,6.41l-1.36.71Z"/><path class="cls-9" d="M247.3,145.72l-6.53-83.1c12.89,9.31,22.67,27.21,22.67,48.29,0,17.92-6.31,28.8-16.14,34.81Z"/><path class="cls-10" d="M247.08,146.15l0-.41L240.47,62.1l.44.32c14.05,10.14,22.78,28.73,22.78,48.49,0,16.64-5.47,28.42-16.26,35Zm-6-83,6.45,82.15c10.41-6.54,15.68-18.1,15.68-34.38C263.19,91.51,254.72,73.26,241.06,63.14Z"/><path class="cls-11" d="M247.43,134.17l-8.28-73.76c11.56,8.63,20.26,24.81,20.26,43.83,0,14.63-4.6,24.13-12,29.93Z"/><path class="cls-9" d="M52.87,145.65,58.8,62.78C46,72.15,36.41,90.05,36.56,111.07c.12,17.85,6.48,28.66,16.31,34.58Z"/><path class="cls-10" d="M53.09,146.07l-.35-.21c-10.79-6.5-16.32-18.21-16.43-34.79-.14-19.7,8.42-38.29,22.34-48.5l.43-.32,0,.54ZM58.51,63.3C45,73.48,36.67,91.73,36.81,111.07c.11,16.21,5.44,27.7,15.84,34.15Z"/><path class="cls-11" d="M52.66,134.14l7.73-73.58c-11.45,8.68-20,24.87-19.87,43.83.1,14.58,4.75,24,12.14,29.75Z"/><path class="cls-9" d="M150.12,15.25c58.14,0,105.27,43.84,105.27,96.68s-47.13,84.53-105.27,84.53S44.85,164.76,44.85,111.93,92,15.25,150.12,15.25Z"/><path class="cls-10" d="M150.12,196.71c-29.07,0-55.56-8-74.59-22.51-20.23-15.43-30.93-37-30.93-62.27,0-25.69,11-50,30.92-68.34S122,15,150.12,15s54.61,10.15,74.6,28.59,30.91,42.65,30.91,68.34c0,25.31-10.69,46.84-30.92,62.27C205.68,188.72,179.19,196.71,150.12,196.71Zm0-181.21c-28,0-54.36,10.11-74.26,28.46s-30.76,42.42-30.76,68c0,25.15,10.63,46.54,30.74,61.88,18.94,14.44,45.32,22.4,74.28,22.4s55.34-8,74.28-22.4c20.11-15.34,30.73-36.73,30.73-61.88,0-25.55-10.92-49.69-30.75-68S178.11,15.5,150.12,15.5Z"/><path class="cls-12" d="M122.16,127.76c0,1.86-5.82,3.41-13.49,3.72q-1.41.06-2.91.06h-.07c-1.57,0-3.1-.06-4.53-.16-1-.06-1.91-.14-2.79-.25-5.35-.62-9-1.9-9-3.37,0-1.84,5.7-3.37,13.24-3.71,1,0,2-.06,3-.07h.17c1.52,0,3,0,4.37.14,1,.06,1.91.14,2.8.24C118.39,125,122.16,126.27,122.16,127.76Z"/><path class="cls-12" d="M213,127.76c0,1.86-5.83,3.41-13.52,3.72-.93,0-1.9.06-2.88.06h-.09c-1.58,0-3.1-.06-4.54-.16-1-.06-1.9-.14-2.79-.25-5.33-.62-9-1.9-9-3.37,0-1.84,5.68-3.37,13.21-3.71,1,0,2-.06,3-.07h.2c1.51,0,3,0,4.35.14,1,.06,1.91.14,2.8.24C209.22,125,213,126.26,213,127.76Z"/><path class="cls-13" d="M105.59,124l-4.43,7.4c-1-.06-1.91-.14-2.79-.25l4.23-7.08C103.57,124,104.57,124,105.59,124Z"/><path class="cls-13" d="M112.93,124.36l-4.26,7.12q-1.41.06-2.91.06h-.07l4.44-7.42C111.11,124.18,112,124.26,112.93,124.36Z"/><path class="cls-13" d="M196.4,124l-4.43,7.4c-1-.06-1.9-.14-2.79-.25l4.24-7.08Z"/><path class="cls-13" d="M203.75,124.36l-4.27,7.12c-.93,0-1.9.06-2.88.06h-.09l4.44-7.42C201.92,124.18,202.86,124.26,203.75,124.36Z"/><path class="cls-14" d="M151.63,23.35c51.18,0,99,48.67,91.67,94.65-3.27,20.54-40.49-6.58-91.67-6.58S59,170.28,59,118s41.49-94.65,92.67-94.65Z"/><path class="cls-15" d="M216.91,61.42l-.56.84a1.93,1.93,0,0,1-3.06.38c-9.69-9.94-20-18.11-32.16-22.09a1.69,1.69,0,0,1-.67-2.73L181,37a3.72,3.72,0,0,1,3.88-1.35c14.16,4.6,23.46,13.06,32,22.14a3.15,3.15,0,0,1,0,3.65Zm3.83,9.44a3.54,3.54,0,1,1,3.09-3.93,3.53,3.53,0,0,1-3.09,3.93Z"/><path class="cls-9" d="M141.57,219.49a.55.55,0,0,0,0,.12c-13,3.4-6.53,15.43,3.39,13.85l1.11,3.61c-8.37-.06-14.93-5.09-15.3-10s3.94-8.6,9.65-8.71c-3.28-14.56,27.42-14.56,23.75,0,5.72.11,10,3.85,9.66,8.71s-6.93,9.9-15.3,10l1.1-3.61c8.36,1.17,18.6-12.09,3.4-13.85v-.12C163,208,141.57,208,141.57,219.49Z"/><path class="cls-9" d="M149.17,238c-.92-9.55,9.61-3.89,11.18-12,.66-3.37,0-7-3.14-8.86-4.63-2.39-12.39-.32-11.75,6.47s10,4.25,9.16.12c-1.34,1.8-4.05,2.47-5.32,1.51-2.89-2.17.47-6.93,4.92-5.81,2.92.73,2.72,2.51,2.94,4.63.43,4.25-3.65,4.54-7.42,6.29C145.11,232.49,149.17,238,149.17,238Z"/><path class="cls-9" d="M153.94,233.53a2.37,2.37,0,1,1-2.36,2.37A2.36,2.36,0,0,1,153.94,233.53Z"/><path class="cls-16" d="M111.57,152.08a.58.58,0,0,1,.61-.55.59.59,0,0,1,.61.56s0,2.82,3.4,5.92c4.12,3.74,13.23,7.87,33.39,7.87,42,0,42.41-13.79,42.41-13.79a.59.59,0,0,1,.62-.54.58.58,0,0,1,.6.57c0,.6-.88,14.87-43.63,14.87-11.51,0-26.79-1.43-34.26-8.2-3.72-3.38-3.75-6.57-3.75-6.7h0"/><ellipse class="cls-15" cx="191.6" cy="81.85" rx="25.17" ry="25.47" transform="translate(-3.35 155.35) rotate(-43.79)"/><path class="cls-17" d="M191.91,109.19a27.66,27.66,0,0,1-25.85-37.3,26.68,26.68,0,0,1,14.25-15,27.1,27.1,0,0,1,21-.44,27.64,27.64,0,0,1,15.85,35.4,27,27,0,0,1-25.24,17.38Zm-.61-50.68a23.2,23.2,0,0,0-9.37,2A22.78,22.78,0,0,0,169.8,73.31a23.62,23.62,0,0,0,13.57,30.25,23.09,23.09,0,0,0,17.91-.37,22.73,22.73,0,0,0,12.13-12.8A23.65,23.65,0,0,0,191.3,58.51Z"/><ellipse class="cls-15" cx="105.78" cy="81.85" rx="25.17" ry="25.47" transform="translate(-27.22 95.96) rotate(-43.79)"/><path class="cls-17" d="M106.09,109.19a27.66,27.66,0,0,1-25.85-37.3,26.75,26.75,0,0,1,14.25-15,27.1,27.1,0,0,1,21-.44,27.64,27.64,0,0,1,15.85,35.4,27,27,0,0,1-25.24,17.38Zm-.61-50.68a23.23,23.23,0,0,0-9.37,2A22.78,22.78,0,0,0,84,73.31a23.62,23.62,0,0,0,13.57,30.25,23.09,23.09,0,0,0,17.91-.37,22.73,22.73,0,0,0,12.13-12.8,23.65,23.65,0,0,0-22.11-31.88Z"/><path class="cls-15" d="M131.33,79.91s27.54-4.27,35.69-.77"/><path class="cls-17" d="M131.63,81.89l-.61-4c2.88-.45,28.36-4.26,36.79-.64L166.23,81C160,78.3,139.14,80.73,131.63,81.89Z"/><path class="cls-15" d="M217.07,81.37s21.63,8.83,22.41,10.38"/><path class="cls-17" d="M239.48,93.75a2,2,0,0,1-1.59-.78c-1.55-1.22-12.1-5.88-21.58-9.75a2,2,0,1,1,1.52-3.7c22.32,9.11,23.07,10.62,23.44,11.34a2,2,0,0,1-.9,2.68A1.91,1.91,0,0,1,239.48,93.75ZM238,93h0Zm-.27-.38Z"/><path class="cls-15" d="M80.11,83.8s-13.77,11.37-18,20.3"/><path class="cls-17" d="M62.07,106.1a2,2,0,0,1-.86-.19,2,2,0,0,1-.94-2.67c4.41-9.22,18-20.51,18.57-21a2,2,0,1,1,2.55,3.09c-.14.11-13.49,11.2-17.51,19.62A2,2,0,0,1,62.07,106.1Z"/><path class="cls-18" d="M155.65,199.07c.1.4,0-.86,0,0-.4,7.69-5.91,31.27-5.91,31.27,8.16,10.72,9.52,32.79,11.85,33.37s30.84-15.14,30.84-15.14l-12.8-19.21"/><path class="cls-2" d="M161.59,264.71a.88.88,0,0,1-.24,0c-1.42-.35-2-2.58-3.41-9-1.62-7.29-4.08-18.3-9-24.76a1,1,0,0,1-.17-.83c0-.23,5.48-23.54,5.88-31.08v0c.06-1,.58-1.22,1-1.23a1.05,1.05,0,0,1,1,1,1.84,1.84,0,0,1-.06.74c-.51,7.49-5,27.28-5.81,30.63,5,6.84,7.44,17.84,9.07,25.16.7,3.13,1.49,6.67,2.05,7.47,2.17-.27,16.3-7.51,29.06-14.52l-12.2-18.31a1,1,0,0,1,1.66-1.11L193.27,248a1,1,0,0,1-.35,1.43C182.45,255.22,164.76,264.71,161.59,264.71Z"/><path class="cls-18" d="M145.22,198.21s-3.13,29.48-6.91,32.68-8.15,9.9-8.15,9.9l-11.93-16-11-23.58,25.31-4.73Z"/><path class="cls-2" d="M130.22,242.53,117.33,225.2l-11.61-24.75,26.75-5,13.85,1.9-.1,1c-.53,5-3.37,30.05-7.26,33.34-3.63,3.07-7.92,9.62-8,9.68ZM119.1,224.26l11,14.8a51.8,51.8,0,0,1,7.54-8.94c2.47-2.08,5.22-19.74,6.46-31.05l-11.6-1.6-23.89,4.47Z"/><path class="cls-9" d="M121.24,221.5c-1.31,2.92-6.73,2.4,13.65,14.34,0,0,3.71.8,4,5.76,2,1.21,5.51,12.26-3.65,10.61-2.72-.49-8.25-.7-11.28-8.37-1.77-11.1-30.09-12.54-13.76-32.86h0l9.56,9.84.49.39Z"/><path class="cls-10" d="M137,252.63a9.83,9.83,0,0,1-1.77-.17l-.73-.12c-3-.47-7.9-1.25-10.73-8.41-.64-3.94-4.61-6.61-8.82-9.45-4.51-3-9.17-6.16-9.91-11.07-.55-3.6,1.09-7.72,5-12.59l.17-.22L120,220.65l.43.33,1.19.36-.11.26a5.56,5.56,0,0,1-.87,1.27c-.46.56-.83,1-.72,1.61.31,1.79,4.69,5,15.11,11.12.42.12,3.81,1.17,4.16,5.86,1.37,1,3.13,5.67,2,8.6C140.72,251.3,139.61,252.63,137,252.63Zm-26.74-41.28c-3.7,4.66-5.24,8.59-4.73,12,.72,4.69,5.28,7.76,9.7,10.73s8.36,5.63,9,9.73c2.71,6.85,7.48,7.6,10.32,8l.75.13c2.88.51,4.7-.19,5.41-2.09,1.09-2.9-.82-7.41-1.92-8.06l-.12-.07v-.13c-.29-4.71-3.68-5.51-3.82-5.54l-.07,0c-12.37-7.24-15.1-9.83-15.39-11.48a2.5,2.5,0,0,1,.84-2,6.73,6.73,0,0,0,.66-.9l-.77-.25-.48-.39Z"/><path class="cls-18" d="M108,194.67S91.69,219,92.57,219.24,114.1,236.7,114.1,236.7l13-11.9-10.57-11"/><path class="cls-2" d="M114.13,238l-.67-.56c-7.58-6.33-20-16.55-21.26-17.3a1,1,0,0,1-.59-.59c-.23-.59-.55-1.4,15.58-25.47l1.66,1.11c-5.3,7.92-13.64,20.64-15.12,23.61,1.63,1.17,6.3,4.83,20.34,16.54l11.56-10.62-9.86-10.28,1.44-1.39,11.28,11.76Z"/><path class="cls-18" d="M81.91,186s26.27,23.19,26.84,24.53,26.94-13.95,26.94-13.95"/><path class="cls-2" d="M108.75,211.52a.75.75,0,0,1-.23,0,1.13,1.13,0,0,1-.66-.55c-1-1.47-16.85-15.62-26.61-24.24l1.32-1.5c9.08,8,23.88,21.18,26.66,24.3,2.54-.69,15-7.48,26-13.83l1,1.73C120,206.78,110.78,211.52,108.75,211.52Zm.73-1.72a1.52,1.52,0,0,1,.19.28A1,1,0,0,0,109.48,209.8Z"/><polyline class="cls-18" points="176.91 228.78 193.14 216.78 166.17 196.83 155.65 199.07"/><polygon class="cls-2" points="177.51 229.58 176.32 227.97 191.46 216.78 165.94 197.9 155.86 200.04 155.44 198.09 166.41 195.75 194.82 216.78 177.51 229.58"/><path class="cls-19" d="M135.18,275.65s-13.46.65-14-.22c0,0-4.61,4.79-2,6s17.09,2.55,19,2.85c2.77.44,5.64.36,1.75-3C138.6,280.26,136.56,275.72,135.18,275.65Z"/><path class="cls-6" d="M140.11,285a14,14,0,0,1-2.1-.2c-.43-.07-1.61-.19-3.1-.36-6.78-.74-14.16-1.61-16-2.53a1.73,1.73,0,0,1-1-1.3c-.36-2,2.59-5.18,2.93-5.53l.43-.44.31.45c.9.41,7.58.35,13.64.06h.05c1,.05,2,1.43,3.31,3.53a13.43,13.43,0,0,0,1.65,2.27c1.72,1.48,2.32,2.48,2,3.25C141.89,284.74,141.24,285,140.11,285Zm-18.83-9c-1.13,1.24-2.64,3.34-2.45,4.42a.76.76,0,0,0,.48.58c1.88.92,10.87,1.91,15.71,2.44,1.56.17,2.69.29,3.15.37,2.71.43,3.06,0,3.06,0s.12-.5-1.72-2.08a12.61,12.61,0,0,1-1.83-2.48c-.72-1.13-1.91-3-2.5-3.07C127.51,276.52,122.85,276.48,121.28,276Z"/><path class="cls-19" d="M184,267.21s-15.52,1.74-16.11.87c0,0-2.57,4.76,0,6s19,2,20.87,2.34c2.76.43,5.73-2.19,1.84-5.54C189.36,269.83,185.38,267.28,184,267.21Z"/><path class="cls-6" d="M189.37,277a4.2,4.2,0,0,1-.7-.05c-.52-.08-2.22-.21-4.37-.37-7.45-.54-14.86-1.15-16.64-2a2.35,2.35,0,0,1-1.26-1.46c-.66-2,1-5.11,1.06-5.24l.39-.73.41.61c1,.35,8.72-.23,15.68-1H184c1.58.08,5.67,2.75,6.9,3.8,2.44,2.11,2.17,3.78,1.8,4.59A3.62,3.62,0,0,1,189.37,277Zm-21.22-8.29c-.46,1-1.18,2.91-.8,4.1a1.39,1.39,0,0,0,.75.86c1.75.85,10.84,1.52,16.27,1.92,2.26.16,3.9.28,4.46.37a2.8,2.8,0,0,0,3-1.25c.44-1-.1-2.17-1.55-3.41-1.23-1.06-5-3.45-6.25-3.56C173,269,169.38,268.91,168.15,268.68Z"/><path class="cls-20" d="M122.69,273.13l10.48.38s-.68.1.49.68l.72.8s-12.73.44-12.92.15S122.69,273.13,122.69,273.13Z"/><path class="cls-6" d="M124.08,275.74c-2.82,0-2.92-.15-3-.32s-.4-.6,1.27-2.61l.16-.19,10.72.39.05,1a.33.33,0,0,0,.21-.21.35.35,0,0,0,0-.34,2.14,2.14,0,0,0,.47.29l.15.11,1.45,1.6-1.08,0C129.15,275.67,126,275.74,124.08,275.74Zm-2-1c1.72.07,7.1-.06,11.09-.19a1.7,1.7,0,0,1-.65-.54l-9.65-.36C122.61,274,122.32,274.43,122.13,274.72Z"/><path class="cls-20" d="M168.91,265l13.66,1.12s-.8.1.58.68l.86.8s-15.08.44-15.31.15A10,10,0,0,1,168.91,265Z"/><path class="cls-6" d="M171.81,268.32c-3.28,0-3.39-.15-3.51-.29s-.37-.47.12-3.14l.08-.45,19,1.55-4,.48,1.68,1.56-1.22,0C177.79,268.25,174.05,268.32,171.81,268.32Zm-2.68-1c1.53.1,8.48,0,13.55-.17a1.61,1.61,0,0,1-.76-.57l-12.59-1A14,14,0,0,0,169.13,267.28Z"/><path class="cls-21" d="M119.25,237.19c.4-.2,7.23-4.34,7.92-6.13l1.15.76L121,238.68Z"/><circle class="cls-6" cx="123.96" cy="235.23" r="2.86"/><path class="cls-22" d="M163.86,209.54h12.92a2.77,2.77,0,0,1,2.77,2.77h0v22.16a2.77,2.77,0,0,1-2.77,2.77H163.86a2.77,2.77,0,0,1-2.77-2.77h0V212.31A2.77,2.77,0,0,1,163.86,209.54Zm.92,1.85h11.08a1.84,1.84,0,0,1,1.84,1.85v20.31a1.84,1.84,0,0,1-1.84,1.84H164.78a1.84,1.84,0,0,1-1.84-1.84V213.24A1.84,1.84,0,0,1,164.78,211.39ZM162.94,228H177.7v1.84H162.94Zm7.38,2.77a1.85,1.85,0,1,1-1.85,1.84h0A1.84,1.84,0,0,1,170.32,230.78Zm-1.85-16.62h3.69a.92.92,0,1,1,0,1.84h-3.69a.92.92,0,1,1,0-1.84Z"/><path class="cls-9" d="M188.56,220.07s-5.9,3.19-8.87,3c0,0-11.57-6.59-13.95-.51a7.27,7.27,0,0,0,.54,6.62c10,14.43,21,7.81,26.48,5.06C198.5,231.3,198,209,198,209l-4.85,7.77-4.58,3.29Z"/><path class="cls-10" d="M180.58,238.4c-4.59,0-9.67-2.12-14.5-9.1a7.56,7.56,0,0,1-.58-6.87A4,4,0,0,1,168,220c4.1-1.45,11.08,2.36,11.8,2.77,2.8.15,8.34-2.77,8.66-2.94L193,216.6l5.27-8.43,0,.84c0,.91.44,22.48-5.37,25.42l-.77.39C189.24,236.29,185.16,238.4,180.58,238.4Zm-10.5-18.2a5.76,5.76,0,0,0-1.94.3,3.51,3.51,0,0,0-2.17,2.12,7,7,0,0,0,.52,6.39c9.39,13.59,19.8,8.24,25.38,5.37l.78-.4c4.9-2.48,5.12-20,5.1-24.11L193.29,217l-4.61,3.31c-.24.13-6,3.21-9,3l-.11,0C179.51,223.22,174.15,220.2,170.08,220.2Z"/><path class="cls-23" d="M213.09,223.83c-.37,0-16.34.47-17.46-2s-6.39-8.22-6.39-8.22L196,198.82l9.45-.56Z"/><path class="cls-2" d="M209.57,224.87c-13.66,0-14.54-2-14.85-2.67-.86-1.93-4.78-6.39-6.22-7.95l-.45-.49,7.3-15.9,10.85-.64,8.24,27.61h-1.51C211.74,224.86,210.62,224.87,209.57,224.87Zm-19.15-11.48c1.33,1.47,5.15,5.79,6.13,8,.5.67,5,1.61,15.21,1.47l-7-23.54-8.07.47Z"/><polygon class="cls-18" points="188.56 220.07 192.76 234.21 205.82 234.02 213.09 223.83 193.14 216.78 188.56 220.07"/><path class="cls-2" d="M192,235.22l-4.62-15.55,5.58-4,21.7,7.67L206.34,235Zm-2.3-14.75,3.78,12.72,11.8-.17,6.21-8.69-18.21-6.44Z"/><path class="cls-18" d="M166.72,196.24s22.37,13.43,22.26,17.62,37.76-30.68,39.79-31.13"/><path class="cls-2" d="M189.21,215.18a1.09,1.09,0,0,1-.5-.1,1.3,1.3,0,0,1-.73-1.25c.06-2.22-11.26-10.42-21.77-16.74a1,1,0,1,1,1-1.71c5.05,3,20.84,12.82,22.6,17.66,3.47-1.59,17.2-13.4,25.6-20.62,9.7-8.35,12.26-10.47,13.12-10.66a1,1,0,0,1,.51,1.93c-1,.47-6.74,5.44-12.33,10.25C197.63,210.36,191.46,215.18,189.21,215.18ZM229,183.71Z"/><path class="cls-24" d="M133.47,253.4s5.87,3.71,6,3.71,6.27-2.87,6.23-3.11-.8-4.52-.8-4.52l-2.47-2.39-2-.52s-7.11,5.67-7.58,5.83S133.47,253.4,133.47,253.4Z"/><path class="cls-6" d="M139.46,257.61c-.18,0-.26,0-6.25-3.79l0,0c-1.08-.78-1-1.22-1-1.36a.64.64,0,0,1,.45-.52c.44-.22,4.8-3.64,7.43-5.74a.49.49,0,0,1,.44-.1l2,.52a.53.53,0,0,1,.23.13l2.47,2.39a.52.52,0,0,1,.15.27s.76,4.28.8,4.52a.58.58,0,0,1-.13.44A47,47,0,0,1,139.46,257.61ZM133.75,253c1.94,1.23,5,3.14,5.75,3.58.92-.39,4.72-2.2,5.65-2.76-.15-.87-.6-3.41-.72-4.07l-2.26-2.19-1.67-.43c-2.34,1.87-5.92,4.7-7.16,5.53A4.62,4.62,0,0,0,133.75,253Z"/><ellipse class="cls-25" cx="191.27" cy="80.3" rx="10.38" ry="12.15"/><ellipse class="cls-25" cx="106.3" cy="79.72" rx="8.96" ry="10.49"/></svg>