<?xml version="1.0" encoding="UTF-8"?>
<svg width="24px" height="24px" viewBox="0 0 24 24" version="1.1" xmlns="http://www.w3.org/2000/svg" xmlns:xlink="http://www.w3.org/1999/xlink">
    <title>手机</title>
    <g id="2.0" stroke="none" stroke-width="1" fill="none" fill-rule="evenodd">
        <g id="通用基础-删格" transform="translate(-217.000000, -123.000000)">
            <g id="手机" transform="translate(217.000000, 123.000000)">
                <polygon id="路径" points="0 0 24 0 24 24 0 24"></polygon>
                <path d="M16,3 C17.6568542,3 19,4.41776496 19,6.16666667 L19,18.8333333 C19,20.582235 17.6568542,22 16,22 L8,22 C6.34314575,22 5,20.582235 5,18.8333333 L5,6.16666667 C5,4.41776496 6.34314575,3 8,3 L16,3 Z M16,5 L8,5 C7.48716416,5 7.06449284,5.41361449 7.00672773,5.94647737 L7,6.07142857 L7,18.9285714 C7,19.4780384 7.38604019,19.9309005 7.88337887,19.9927917 L8,20 L16,20 C16.5128358,20 16.9355072,19.5863855 16.9932723,19.0535226 L17,18.9285714 L17,6.07142857 C17,5.5219616 16.6139598,5.06909947 16.1166211,5.00720828 L16,5 Z M12,16 C12.5522847,16 13,16.4477153 13,17 C13,17.5522847 12.5522847,18 12,18 C11.4477153,18 11,17.5522847 11,17 C11,16.4477153 11.4477153,16 12,16 Z" id="形状结合" fill="#5D6E7F" fill-rule="nonzero"></path>
            </g>
        </g>
    </g>
</svg>