<?xml version="1.0" encoding="UTF-8"?>
<svg width="24px" height="24px" viewBox="0 0 24 24" version="1.1" xmlns="http://www.w3.org/2000/svg" xmlns:xlink="http://www.w3.org/1999/xlink">
    <title>分类排序2</title>
    <g id="2.0" stroke="none" stroke-width="1" fill="none" fill-rule="evenodd">
        <g id="通用基础-删格" transform="translate(-287.000000, -264.000000)">
            <g id="分类排序2" transform="translate(287.000000, 264.000000)">
                <polygon id="路径" points="0 0 24 0 24 24 0 24"></polygon>
                <path d="M20,6 L20,16 L20,16 L21.7516251,16 C22.0829959,16 22.3516251,16.2686292 22.3516251,16.6 C22.3516251,16.7362429 22.3052566,16.8684292 22.2201464,16.974817 L19.7808688,20.023914 C19.4358593,20.4551759 18.8065669,20.5250973 18.375305,20.1800878 C18.3176402,20.133956 18.265263,20.0815787 18.2191312,20.023914 L15.7798536,16.974817 C15.5728479,16.7160599 15.6148007,16.3384844 15.8735579,16.1314787 C15.9799457,16.0463685 16.112132,16 16.2483749,16 L18,16 L18,16 L18,6 C18,5.44771525 18.4477153,5 19,5 C19.5522847,5 20,5.44771525 20,6 Z M12,19 C12,19.5522847 11.5522847,20 11,20 L4,20 C3.44771525,20 3,19.5522847 3,19 C3,18.4477153 3.44771525,18 4,18 L11,18 C11.5522847,18 12,18.4477153 12,19 Z M14,12 C14,12.5522847 13.5522847,13 13,13 L4,13 C3.44771525,13 3,12.5522847 3,12 C3,11.4477153 3.44771525,11 4,11 L13,11 C13.5522847,11 14,11.4477153 14,12 Z M14,5 C14,5.55228475 13.5522847,6 13,6 L4,6 C3.44771525,6 3,5.55228475 3,5 C3,4.44771525 3.44771525,4 4,4 L13,4 C13.5522847,4 14,4.44771525 14,5 Z" id="形状" fill="#5D6E7F" fill-rule="nonzero"></path>
            </g>
        </g>
    </g>
</svg>