<?xml version="1.0" encoding="UTF-8"?>
<svg width="24px" height="24px" viewBox="0 0 24 24" version="1.1" xmlns="http://www.w3.org/2000/svg" xmlns:xlink="http://www.w3.org/1999/xlink">
    <title>银行卡</title>
    <g id="2.0" stroke="none" stroke-width="1" fill="none" fill-rule="evenodd">
        <g id="通用基础-删格" transform="translate(-252.000000, -123.000000)">
            <g id="银行卡" transform="translate(252.000000, 123.000000)">
                <polygon id="路径" points="0 0 24 0 24 24 0 24"></polygon>
                <g id="编组" transform="translate(0.916667, 3.000000)" fill="#5D6E7F" fill-rule="nonzero">
                    <path d="M18.1666667,0 C20.3758057,0 22.1666667,1.790861 22.1666667,4 L22.1666667,4 L22.1666667,14 C22.1666667,16.209139 20.3758057,18 18.1666667,18 L18.1666667,18 L4,18 C1.790861,18 0,16.209139 0,14 L0,14 L0,4 C0,1.790861 1.790861,0 4,0 L4,0 Z M20.166,8 L2,8 L2,14 C2,15.0543618 2.81587779,15.9181651 3.85073766,15.9945143 L4,16 L18.1666667,16 C19.2712362,16 20.1666667,15.1045695 20.1666667,14 L20.1666667,14 L20.166,8 Z M17.0833333,10 C17.6356181,10 18.0833333,10.4477153 18.0833333,11 C18.0833333,11.5522847 17.6356181,12 17.0833333,12 L15.0833333,12 C14.5310486,12 14.0833333,11.5522847 14.0833333,11 C14.0833333,10.4477153 14.5310486,10 15.0833333,10 L17.0833333,10 Z M18.1666667,2 L4,2 C2.8954305,2 2,2.8954305 2,4 L2,4 L2,6 L20.166,6 L20.1666667,4 C20.1666667,2.9456382 19.3507889,2.08183488 18.315929,2.00548574 L18.1666667,2 Z" id="形状结合"></path>
                </g>
            </g>
        </g>
    </g>
</svg>