<?xml version="1.0" encoding="UTF-8"?>
<svg width="24px" height="24px" viewBox="0 0 24 24" version="1.1" xmlns="http://www.w3.org/2000/svg" xmlns:xlink="http://www.w3.org/1999/xlink">
    <title>时钟</title>
    <g id="2.0" stroke="none" stroke-width="1" fill="none" fill-rule="evenodd">
        <g id="通用基础-删格" transform="translate(-426.000000, -172.000000)">
            <g id="时钟" transform="translate(426.000000, 172.000000)">
                <polygon id="路径" points="0 0 24 0 24 24 0 24"></polygon>
                <path d="M17.618,6.968 L18.364,6.222 C18.7544653,5.83153468 19.3875347,5.83153468 19.778,6.222 C20.1684653,6.61246532 20.1684653,7.24553468 19.778,7.636 L19.032,8.382 L19.032,8.382 C22.0130775,12.1134457 21.5603088,17.5236672 18.0004894,20.7077205 C14.44067,23.8917739 9.01363841,23.740695 5.63647171,20.3635283 C2.25930501,16.9863616 2.10822611,11.55933 5.29227946,7.99951063 C8.47633281,4.43969124 13.8865543,3.98692249 17.618,6.968 Z M18.0621779,17.5 C19.3126075,15.3341925 19.3126075,12.6658075 18.0621779,10.5 C16.8117484,8.3341924 14.5008592,7 12.0000001,7 C8.13400681,7 5.00000015,10.1340068 5.00000015,14 C5.00000015,17.8659932 8.13400681,21 12.0000001,21 C14.5008592,21 16.8117484,19.6658076 18.0621779,17.5 Z M12,9 C12.5522847,9 13,9.44771525 13,10 L13,14 C13,14.5522847 12.5522847,15 12,15 C11.4477153,15 11,14.5522847 11,14 L11,10 C11,9.44771525 11.4477153,9 12,9 Z M9,2 L15,2 C15.5522847,2 16,2.44771525 16,3 C16,3.55228475 15.5522847,4 15,4 L9,4 C8.44771525,4 8,3.55228475 8,3 C8,2.44771525 8.44771525,2 9,2 Z" id="形状" fill="#5D6E7F" fill-rule="nonzero"></path>
            </g>
        </g>
    </g>
</svg>