<?xml version="1.0" encoding="UTF-8"?>
<svg width="24px" height="24px" viewBox="0 0 24 24" version="1.1" xmlns="http://www.w3.org/2000/svg" xmlns:xlink="http://www.w3.org/1999/xlink">
    <title>文库</title>
    <g id="2.0" stroke="none" stroke-width="1" fill="none" fill-rule="evenodd">
        <g id="知识库删格" transform="translate(-65.000000, -253.000000)">
            <g id="文库" transform="translate(65.000000, 253.000000)">
                <polygon id="路径" points="0 0 24 0 24 24 0 24"></polygon>
                <path d="M8,22 C5.23857625,22 3,19.7614237 3,17 L3,6 C3,3.790861 4.790861,2 7,2 L9.912,1.99983512 L9.91239485,1.99483512 L17.0871737,1.99483512 L17.087,2.00183512 L17.1996403,2.00489531 C19.3160315,2.10892112 21,3.85780461 21,6 L21,19 C21,20.6568542 19.6568542,22 18,22 L8,22 Z M19,16.9998351 L8.69230769,17 C7.74179472,17 7,17.6888094 7,18.5 C7,19.2661245 7.66166257,19.9230879 8.53591284,19.9937193 L8.69230769,20 L18,20 C18.5128358,20 18.9355072,19.6139598 18.9932723,19.1166211 L19,19 L19,16.9998351 Z M9.912,3.99983512 L7,4 C5.9456382,4 5.08183488,4.81587779 5.00548574,5.85073766 L5,6 L5,17 C5,17.2512145 5.03087764,17.4952172 5.08904467,17.7284198 C5.44739535,16.2150058 6.83535995,15.0869445 8.49765207,15.0047994 L8.69230769,15 L19,14.9998351 L19,6 C19,4.9456382 18.1841222,4.08183488 17.1492623,4.00548574 L17.087,4.00283512 L17.0871737,8.298339 C17.0871737,8.40709478 17.0753464,8.51536503 17.0520024,8.62125834 L17.0083877,8.77807915 C16.7434345,9.562994 15.8923484,9.98450622 15.1074335,9.71955306 L15.1074335,9.71955306 L13.819611,9.28484011 C13.6121437,9.21480816 13.3874248,9.21480816 13.1799575,9.28484011 L13.1799575,9.28484011 L11.892135,9.71955306 C11.7375698,9.77172757 11.5755285,9.798339 11.4123949,9.798339 C10.5839677,9.798339 9.91239485,9.12676613 9.91239485,8.298339 L9.91239485,8.298339 L9.912,3.99983512 Z M15.087,3.99983512 L11.912,3.99983512 L11.912,7.601 L12.540304,7.38988803 C13.0935501,7.20313616 13.687689,7.18238596 14.2500224,7.32763741 L14.2500224,7.32763741 L14.4592646,7.38988803 L15.087,7.601 L15.087,3.99983512 Z" id="形状结合" fill="#5D6E7F" fill-rule="nonzero"></path>
            </g>
        </g>
    </g>
</svg>